<svg xmlns="http://www.w3.org/2000/svg" width="90px" height="90px" viewBox="0 0 90 90"><style>
	@keyframes a1_t { 0% { transform: translate(46.049px,69.19px); } 25.015% { transform: translate(46.049px,69.19px); animation-timing-function: cubic-bezier(.645,.045,.355,1); } 49.97% { transform: translate(46.049px,15px); animation-timing-function: cubic-bezier(.645,.045,.355,1); } 74.985% { transform: translate(46.049px,69.19px); animation-timing-function: cubic-bezier(.645,.045,.355,1); } 100% { transform: translate(46.049px,69.19px); } }
	@keyframes srxlum08eb3nrt5qt6s0nh6o_t { 0% { transform: scale(1,0) translate(-24.899px,-52.531px); animation-timing-function: cubic-bezier(.645,.045,.355,1); } 25.015% { transform: scale(1,1) translate(-24.899px,-52.531px); animation-timing-function: cubic-bezier(.645,.045,.355,1); } 49.97% { transform: scale(1,0) translate(-24.899px,-52.531px); animation-timing-function: cubic-bezier(.645,.045,.355,1); } 74.985% { transform: scale(1,1) translate(-24.899px,-52.531px); animation-timing-function: cubic-bezier(.645,.045,.355,1); } 100% { transform: scale(1,0) translate(-24.899px,-52.531px); } }
</style><rect x="21.151" y="16.659" width="49.797" height="52.531" fill="#555"/><g style="animation: 1.667s linear infinite both a1_t;"><rect width="49.797" height="52.531" fill="#fff" transform="translate(46.049,69.19) scale(1,0) translate(-24.899,-52.531)" style="animation: 1.667s linear infinite both srxlum08eb3nrt5qt6s0nh6o_t;"/></g><path d="M45 0c24.853 0 45 20.147 45 45c0 24.853-20.147 45-45 45c-24.853 0-45-20.147-45-45c0-24.853 20.147-45 45-45Zm11.189 40.675c-1.299 .648-3.738 1.882-4.224 2.127l-0.085 .044l.041-0.064c.125-0.219 .252-0.656 .252-0.656l-0.785 .863l-0.392 .276l-1.108 .591l-0.238 .06l-0.013 .009c-0.081 .051-0.493 .315-0.675 .457c-0.235 .185-0.455 .389-0.675 .592c-0.396 .362-1.255 1.168-1.296 1.201c-0.535 .433-1.084 .845-1.667 1.213c-0.131 .082-0.378 .267-0.378 .267c0 0-0.338 .176-0.499 .276l-0.287-0.037l-0.699 .145l.585-0.634l.438-0.67l-0.269-0.151l-0.314 .022l-1.4 .522l-0.613 .097l.371-0.366l-0.011-0.006c-0.027-0.013-0.098-0.048-0.142-0.07c.187-0.18 .522-0.502 .522-0.502l-0.667-0.098l-0.016-0.002c-0.079-0.008-0.446-0.045-0.639-0.066c-0.218-0.022-0.433-0.057-0.651-0.076c-0.375-0.032-0.751-0.055-1.126-0.082c-0.026-0.002-0.076-0.013-0.076-0.013l-0.792-0.131h-0.014c-0.126 .005-1.089 .039-1.585 .081c-0.16 .014-0.326 .052-0.493 .067c-0.165 .015-0.328 .066-0.493 .073c-0.758 .033-1.516 .057-2.274 .083c-0.106 .003-0.317 0-0.317 0c0 0-0.198 .032-0.299 .061c-0.389 .114-0.725 .323-1.059 .537c-0.227 .146-0.657 .476-0.657 .476l-0.366 .308l-0.006 .014c-0.038 .085-0.23 .523-0.237 .804c-0.011 .468 .089 1.399 .089 1.399l.034 .2l.008 .017c.02 .043 .074 .156 .111 .208c.292 .414 .382 .916 .618 1.356c.246 .458 .554 1.459 .554 1.459l.135 .268l.491 1.567l.245 .738l.239 .742c.155 .496 .33 .987 .474 1.485c.16 .548 .5 1.566 .578 1.798l.016 .047l.295 .344l.552 .352l1.108 .705l.204 .01l.218 .193l.721 .347l.256 .036l.006 .012c.017 .031 .066 .111 .134 .145c.203 .1 .808 .386 .808 .386l.11 .281l.011 .011c.048 .053 .247 .27 .365 .378c.244 .222 .596 .764 .596 .764l.051 .179l.003 .014c.014 .062 .077 .325 .168 .544c.034 .084 .113 .22 .113 .22l.168 .285l.117 .335l.004 .013c.023 .096 .165 .681 .249 .982l.03 .109c.159 .573 .425 1.54 .425 1.54l.059 .05h.131l.042-0.072c.121-0.205 .307-0.517 .307-0.517l.158-0.194l.143-0.239l.138-0.063l.572-0.62l.137-0.236l.158-0.007l.574-0.343h.691l.131-0.195l.13-0.192c.057 .015 .115 .044 .171 .041c.071-0.004 .141-0.033 .205-0.05c.192 .293 .143 .614 .201 .911c.013 .064-0.044 .142-0.069 .213c.013 .023 .032 .044 .036 .068c.022 .178 .041 .356 .062 .54c.066-0.048 .124-0.09 .201-0.147v.2l-0.048 .028c-0.031 .018-0.063 .037-0.108 .063c.044 .006 .083 .013 .12 .018l.194 .031c.014 .108 .024 .191 .045 .362c.167-0.569 .578-0.857 .865-1.235c.194-0.255 .462-0.446 .684-0.679c.139-0.145 .333-0.24 .509-0.346c.046-0.028 .118-0.015 .194-0.023c.033 .385 .065 .744 .092 1.103c.008 .1 .001 .201 .001 .3h1.784l.015-0.084c.041-0.24 .1-0.578 .1-0.578l.218-1.408c.033-0.018 .145-0.07 .367-0.118c.035 .049 .108 .154 .108 .154l.136 .022l.016-0.173l.017 .007c.02 .016 .042 .056 .042 .056l.381 .132l-0.115 .569l-0.006 .013c-0.036 .07-0.201 .394-0.296 .586v.319l-0.072 .088c-0.036 .043-0.064 .079-0.064 .079v.411l.372-0.129l.223 .31l.265-0.567l.197-0.012l-0.006 .015c-0.036 .08-0.199 .45-0.296 .669c.094-0.056 .157-0.071 .172-0.106c.113-0.257 .386-0.938 .386-0.938l.168 .009l-0.375 1.068l.2 .09l.246-0.544l.07 .06l-0.288 .877l.012 .007c.057 .03 .294 .157 .422 .226c.32-0.57 .518-1.188 .713-1.806c.061-0.193 .058-0.379-0.039-0.556c.11-0.227 .254-0.575 .371-0.865l-0.005-0.206l.208-0.307l.668-0.854l.002-0.015c.013-0.092 .084-0.613 .13-0.948c.185-0.284 .413-0.64 .648-0.992c.192-0.289 .412-0.56 .582-0.86c.417-0.737 .993-1.325 1.648-1.848c.18-0.145 .327-0.331 .533-0.542c.112-0.055 .284-0.14 .416-0.205c.406-0.041 .767-0.078 1.099-0.111c.126 .063 .217 .11 .312 .158c.061-0.033 .127-0.07 .199-0.11c0-0.067 .004-0.196 .004-0.196l.381-1.077l.058-0.158l.027-0.173l.276-1.002l.118-0.262l.038-0.476l.003-0.012c.026-0.105 .211-0.851 .31-1.236c.085-0.331 .202-0.654 .284-0.986c.148-0.59 .43-1.775 .43-1.775l.202-1.031l.004-0.411l.078-0.728l.086-0.392l.043-0.32l-0.3 .246l-0.004-0.015c-0.024-0.09-0.147-0.546-0.259-0.753c-0.2-0.371-0.679-1.07-0.679-1.07l-0.615-0.915l-0.202-0.15l-0.161-0.414l-0.157-0.062l-0.085-0.263l-0.009-0.014c-0.038-0.062-0.193-0.322-0.262-0.467c-0.312-0.657-0.606-1.322-1.038-1.914c-0.015-0.021-0.029-0.042-0.043-0.062l-0.076-0.114Zm-11.652 17.211c.381 1.539 .763 3.078 1.143 4.614c-0.056 .029-0.098 .047-0.137 .045l-0.115-0.074l-0.231-0.23l-0.25-0.213l-0.114-0.034l.002 .017c.005 .065 .023 .305 .02 .428c-0.001 .043-0.057 .085-0.1 .144c-0.305-0.121-0.588-0.23-0.869-0.346c-0.172-0.07-0.512-0.217-0.512-0.217l-0.111-0.073l-0.012-0.007c-0.015-0.009-0.039-0.024-0.056-0.031c-0.07-0.03-0.245-0.143-0.245-0.143l-0.191 .055l-0.279-0.277l.003-0.014c.017-0.071 .095-0.403 .149-0.574c.088-0.278 .17-0.56 .292-0.823c.044-0.094 .185-0.258 .185-0.258l.152-0.161l.223-0.147l.214-0.131l.133-0.337l.063-0.225l.023-0.047c.036-0.07 .107-0.205 .16-0.281c.145-0.207 .254-0.437 .379-0.657c.027-0.001 .054-0.002 .081-0.003Zm2.153 .148c.06 .025 .208 .092 .208 .092l.564 .46l1.075 .628l.104 .167l.014 .009c.054 .034 .25 .158 .354 .237c.183 .14 .352 .3 .533 .456c-0.082 .314-0.169 .643-0.239 .909c-0.303 .243-0.593 .476-0.881 .707l-0.859 .689c-0.497-0.56-0.551-1.271-0.631-1.925c-0.138-0.333-0.379-0.912-0.379-0.912l-0.014-0.329l.01-0.284l.014-0.261l-0.087-0.241l.006-0.011c.026-0.049 .135-0.254 .208-0.391Zm-18.166-6.385c-0.283 .422-0.56 .836-0.847 1.266c.026 .113 .081 .352 .081 .352c0 0-0.094-0.034-0.136-0.011c-0.044 .238 .156 .716 .156 .716l.037 .095l.114 .33l-0.13-0.046l.001 .014c.004 .066 .021 .337 .038 .488c.044 .388 .205 .733 .321 1.094c.119 .375 .274 .738 .403 1.109c.22 .632 .45 1.25 .987 1.705c.193 .163 .544 .532 .544 .532l2.062 .896l-0.005-0.014c-0.039-0.105-0.298-0.806-0.432-1.142c-0.061-0.151-0.154-0.29-0.222-0.439c-0.186-0.406-0.362-0.816-0.548-1.221c-0.23-0.497-0.467-0.99-0.699-1.487c-0.064-0.138-0.11-0.285-0.179-0.42c-0.17-0.331-0.355-0.653-0.521-0.985c-0.198-0.398-0.584-1.459-0.584-1.459l.196 .039l-0.006-0.011c-0.059-0.107-0.506-0.92-0.631-1.401Zm7.025-2.976c0 0 .484 .11 .722 .123c.614 .033 1.139 .254 1.615 .641c.301 .245 .628 .458 .895 .746c.405 .435 .801 .881 1.228 1.295c.197 .191 .945 .77 .945 .77l-0.061 .154l.175-0.014l.247 .399l.332 .377l.006 .013c.033 .088 .225 .58 .336 .834c.05 .116 .038 .213-0.003 .333c-0.153 .457-0.266 .924-0.364 1.398c-0.061 .295-0.173 .58-0.235 .88c-0.078 .371-0.204 .731-0.311 1.095c-0.014 .048-0.045 .091-0.075 .147c-0.168 .025-0.495-0.021-0.495-0.021l-0.158-0.021l-0.031-0.049l-0.324-0.032c-0.013 .032-0.038 .095-0.068 .147c-0.371-0.033-1.132-0.101-1.132-0.101l-0.232 .178h-0.475l-0.106 .002l-0.103 .009l-0.207 .061l-0.127 .042l-0.309 .05l-0.455-0.01l-0.219-0.305l-0.006-0.011c-0.048-0.086-0.339-0.611-0.454-0.904c-0.059-0.152-0.095-0.317-0.178-0.453c-0.322-0.526-0.532-1.1-0.763-1.666c-0.226-0.553-0.414-1.124-0.674-1.66c-0.176-0.363-0.221-0.755-0.361-1.122c-0.029-0.075-0.009-0.18 .017-0.262c.043-0.134 .085-0.268 .122-0.403c.019-0.067 .001-0.27 .001-0.27l.116-0.24l.002-0.014c.009-0.061 .043-0.315 .047-0.454c.005-0.162 .111-0.516 .111-0.516l.445-0.529l.077 .013l-0.039-0.07Zm17.034-0.637c.59-0.122 1.143 .048 1.658 .064c.542 .188 1.034 .434 1.552 .522c.625 .105 1.192 .368 1.799 .509l.107 .087l.114 1.01l-0.184 .178l-0.08 .238l-0.002 .013c-0.02 .1-0.15 .766-0.204 1.111c-0.096 .619-0.285 1.212-0.418 1.819c-0.088 .405-0.248 .775-0.437 1.133c-0.32 .245-0.637 .488-0.944 .723c-0.079 .247-0.156 .488-0.218 .679c-0.994 .575-1.937 1.121-2.883 1.669c-0.022 .08-0.065 .239-0.065 .239l-0.312-0.083l-0.283-0.243l-0.204 .167l-2.777-0.514l-0.104-0.265l.034-0.31l-0.11 .136l-0.004-0.014c-0.041-0.119-0.332-0.961-0.465-1.276c-0.141-0.334-0.183-0.711-0.262-1.07c-0.043-0.198-0.112-0.626-0.112-0.626l-0.343 .164l.148-0.981l.007-0.016c.017-0.041 .065-0.145 .111-0.179c.548-0.415 .989-0.94 1.472-1.42c.293-0.291 .538-0.63 .806-0.946c.026-0.03 .07-0.076 .101-0.107l.036-0.036c0 0 .772-0.818 1.153-1.232c.096-0.103 .167-0.23 .263-0.334c.309-0.337 .684-0.591 1.05-0.808Zm13.329-0.185c-0.134 .104-0.286 .222-0.461 .358c.11 .03 .256 .069 .256 .069l-0.001 .084l-0.019 .026c-0.015 .018-0.031 .035-0.031 .035l-0.266 .19l-0.245 .852l-0.003 .014c-0.017 .106-0.137 .814-0.268 1.171c-0.099 .271-0.169 .557-0.262 .833c-0.097 .288-0.242 .879-0.242 .879l-0.234 .92l-0.166 .902l-0.003 .013c-0.019 .088-0.128 .583-0.192 .84c-0.089 .356-0.18 .712-0.28 1.065c-0.125 .439-0.26 .874-0.388 1.311c-0.005 .016 .02 .041 .029 .059c.032-0.014 .064-0.028 .101-0.044c.019 .106 .036 .201 .057 .317c.085-0.041 .14-0.084 .199-0.092c.231-0.033 .83-0.229 .83-0.229l.337-0.122l.21-0.203l.113 .026l.387-0.294l.069-0.092l.093 .075l.015-0.012c.085-0.066 .519-0.398 .642-0.461c.158-0.082 .344-0.164 .441-0.3c.232-0.325 .514-0.609 .745-0.937c.385-0.55 .754-1.099 .93-1.752c.133-0.489 .387-0.953 .338-1.472c.057-0.113 .159-0.309 .159-0.309c0 0 .066-0.62 .146-0.917c.019-0.072 .02-0.159-0.001-0.231c-0.119-0.401-0.263-0.793-0.434-1.177c-0.105-0.236-0.447-0.58-0.447-0.58c0 0-0.266-0.154-0.391-0.242c-0.314-0.219-1.035-0.374-1.035-0.374c0 0-0.463-0.126-0.728-0.199Zm-22.006-29.838h-0.441l-0.007 .064c-0.005 .041-0.009 .076 0 .106c.159 .514 .039 1.04 .076 1.558c-0.161 .311 .004 .673-0.157 .983c.007 .544-0.077 1.078-0.153 1.615c-0.056 .396-0.06 .8-0.086 1.201l.006 .112c-0.001 .017-0.004 .032-0.012 .043c-0.109 .142-0.056 .302-0.074 .455c-0.02 .164-0.072 .327-0.074 .491c-0.007 .517-0.08 1.026-0.156 1.536c-0.058 .396-0.06 .801-0.086 1.201c-0.003 .053 .008 .107-0.003 .158c-0.101 .48-0.161 .965-0.157 1.456c.001 .046-0.02 .092-0.041 .178c-0.097-0.08-0.167-0.132-0.23-0.192c-0.124-0.118-0.235-0.252-0.369-0.359c-0.322-0.256-0.675-0.478-0.978-0.756c-0.431-0.396-0.919-0.71-1.387-1.054c-0.072-0.053-0.158-0.089-0.224-0.149l-1.152-1.066l-0.301-0.28c-0.201-0.186-0.403-0.371-0.613-0.547c-0.385-0.325-0.787-0.629-1.178-0.947c-0.202-0.164-0.447-0.307-0.578-0.518c-0.153-0.247-0.403-0.359-0.587-0.555c-0.159-0.169-0.357-0.301-0.528-0.46c-0.158-0.146-0.304-0.306-0.469-0.473c-0.025 .205-0.05 .419-0.077 .633l-0.014 .128c-0.004 .021-0.009 .041-0.015 .061c-0.078 .229-0.048 .447 .002 .681c.087 .412 .143 .833 .181 1.252c.045 .491 .058 .986 .084 1.478c.001 .027-0.005 .054 .002 .079c.133 .477 .167 .964 .158 1.456v.382c.002 .255 .008 .509-0.005 .763c-0.046 .917 .08 1.828 .084 2.742c0 .052-0.008 .114 .016 .153c.132 .209 .053 .393-0.033 .542c-0.326 .092-0.579-0.039-0.829-0.182c-0.01-0.005-0.027 0-0.039-0.004c-0.654-0.249-1.308-0.498-1.962-0.747c-0.523-0.2-1.047-0.398-1.57-0.598c-0.547-0.211-1.094-0.42-1.638-0.638c-0.567-0.228-1.122-0.491-1.698-0.695c-0.804-0.286-1.593-0.609-2.389-0.917c-0.327-0.126-0.66-0.243-1.054-0.388c.415 .488 .784 .917 1.148 1.349c.258 .308 .528 .608 .761 .934c.379 .532 .759 1.063 1.106 1.62c.393 .632 .733 1.293 1.114 1.932c.281 .472 .521 .973 .995 1.297c.022 .015 .04 .035 .056 .056c.181 .235 .363 .469 .54 .708c.114 .154 .206 .327 .332 .47c.394 .447 .735 .929 1.021 1.45c.103 .189 .171 .401 .298 .572c.354 .479 1.089 1.416 1.089 1.416l.337 .244l.002 .257l.008 .013c.051 .073 .311 .451 .429 .666c.181 0 .355 .023 .52-0.005c.428-0.071 .855-0.159 1.277-0.249c.472-0.1 .951-0.176 1.419-0.299c.491-0.13 .987-0.244 1.47-0.398c.593-0.19 1.183-0.388 1.768-0.605l.22-0.263l.713-0.161l.394-0.159l.048-0.02c.231-0.099 1.247-0.533 1.778-0.781c.242-0.113 .48-0.243 .72-0.357c.244-0.116 .473-0.246 .69-0.403c.333-0.241 .672-0.475 1-0.724c.33-0.249 .652-0.509 .972-0.771c.212-0.173 .404-0.37 .623-0.532c.357-0.262 .697-0.542 1.009-0.856c.065-0.065 .125-0.14 .201-0.189c.405-0.258 .713-0.622 1.023-0.972c.322-0.362 .572-0.787 .871-1.211c-0.059-0.157-0.131-0.32-0.182-0.488c-0.127-0.413-0.306-0.807-0.451-1.213c-0.123-0.345-0.243-0.695-0.381-1.036c-0.157-0.389-0.291-0.785-0.437-1.178l-0.318-0.857c-0.223-0.608-0.442-1.217-0.667-1.824c-0.225-0.607-0.456-1.212-0.679-1.82c-0.17-0.465-0.311-0.941-0.5-1.397c-0.376-0.904-0.693-1.828-1.018-2.75c-0.173-0.491-0.377-0.971-0.564-1.448Z" fill="#181818" fill-rule="evenodd"/></svg>
