<svg xmlns="http://www.w3.org/2000/svg" viewBox="0 0 340 254"><g fill="none" fill-rule="evenodd"><path fill="#030303" d="M36 60h304v65H36z"/><path fill="#030303" d="M36 0h184v65H36z"/><path d="M66.8 53V40.2h3.7L74.4 53h8.1l-4.6-15c2.2-1.7 3.55-4.35 3.55-7.5v-3.3c0-5.75-4.4-9.7-10.6-9.7h-11.8V53h7.75zm4.55-19.8H66.8v-8.7h4.6c1.4 0 2.3.9 2.3 2.35v4c0 1.45-.9 2.35-2.35 2.35zm35.7 19.8v-7h-10.6v-6.75h8.6v-7h-8.6V24.5h10.6v-7H88.7V53h18.35zm19.55 0V24.5h7.35v-7h-22.5v7h7.4V53h7.75zm20.5 0V40.2h3.7l3.9 12.8h8.1l-4.6-15c2.2-1.7 3.55-4.35 3.55-7.5v-3.3c0-5.75-4.4-9.7-10.6-9.7h-11.8V53h7.75zm4.55-19.8h-4.55v-8.7h4.6c1.4 0 2.3.9 2.3 2.35v4c0 1.45-.9 2.35-2.35 2.35zm28.85 20.55c7.15 0 11.75-4.15 11.75-10.1v-16.8c0-5.95-4.65-10.1-11.8-10.1-7.2 0-11.8 4.15-11.8 10.1v16.8c0 5.95 4.65 10.1 11.85 10.1zm-.05-7c-2.85 0-4.05-1.2-4.05-3v-17c0-1.8 1.2-3 4.1-3 2.8 0 4 1.2 4 3v17c0 1.8-1.2 3-4.05 3zM65.3 110l1.45-6.25H74l1.45 6.25h7.7l-7.7-35.5H65.4L57.75 110h7.55zm7.35-13.25h-4.5l2.25-12.8 2.25 12.8zm34.6 13.25v-7h-10.6v-6.75h8.6v-7h-8.6V81.5h10.6v-7H88.9V110h18.35zm17.4.75c7.25 0 11.55-4.45 11.55-10.95 0-12.1-14.85-10.95-14.85-16.05 0-2.05 1.5-3 3.25-3 1.85 0 3.35.9 3.35 2.45v2.7h7.75v-2.2c0-6-3.95-9.95-11.05-9.95-7.2 0-11.1 4.35-11.1 10.4 0 11.5 14.85 10 14.85 16.35 0 2.4-1.9 3.45-3.6 3.45-2.15 0-4.15-1.1-4.15-3.65v-2.2h-7.75v1.4c0 6.75 4.5 11.25 11.75 11.25zM156 110V81.5h7.35v-7h-22.5v7h7.4V110H156zm20.5 0V96.25h8.05V110h7.75V74.5h-7.75v14.75h-8.05V74.5h-7.75V110h7.75zm41.25 0v-7h-10.6v-6.75h8.6v-7h-8.6V81.5h10.6v-7H199.4V110h18.35zm19.55 0V81.5h7.35v-7h-22.5v7h7.4V110h7.75zm20.5 0V74.5h-7.75V110h7.75zm18.45.75c7.1 0 11.7-4.15 11.7-10.1V96.2h-7.85v4.55c0 1.8-1.3 3-3.9 3-2.6 0-3.95-1.2-3.95-3v-17c0-1.8 1.35-3 4-3 2.55 0 3.85 1.2 3.85 3v4.55h7.85v-4.45c0-5.95-4.65-10.1-11.75-10.1s-11.7 4.15-11.7 10.1v16.8c0 5.95 4.65 10.1 11.75 10.1zm29.7 0c7.25 0 11.55-4.45 11.55-10.95 0-12.1-14.85-10.95-14.85-16.05 0-2.05 1.5-3 3.25-3 1.85 0 3.35.9 3.35 2.45v2.7H317v-2.2c0-6-3.95-9.95-11.05-9.95-7.2 0-11.1 4.35-11.1 10.4 0 11.5 14.85 10 14.85 16.35 0 2.4-1.9 3.45-3.6 3.45-2.15 0-4.15-1.1-4.15-3.65v-2.2h-7.75v1.4c0 6.75 4.5 11.25 11.75 11.25z" fill="#FFF" fill-rule="nonzero"/><path fill="#FFF" d="M153 189h187v65H153z"/><path fill="#FFF" d="M0 129h340v65H0z"/><path d="M29.25 180v-23.05l5.1 23.05h5.55l5.05-22.85V180h6.65v-35.5h-9.25l-5.25 20.3-5.25-20.3h-9.2V180h6.6zm39.9.75c7.15 0 11.75-4.15 11.75-10.1v-16.8c0-5.95-4.65-10.1-11.8-10.1-7.2 0-11.8 4.15-11.8 10.1v16.8c0 5.95 4.65 10.1 11.85 10.1zm-.05-7c-2.85 0-4.05-1.2-4.05-3v-17c0-1.8 1.2-3 4.1-3 2.8 0 4 1.2 4 3v17c0 1.8-1.2 3-4.05 3zM98.15 180c6.75 0 11.35-4.15 11.35-10.1v-15.3c0-5.95-4.65-10.1-11.4-10.1H86.65V180h11.5zm.45-7h-4.2v-21.5h4.25c1.95 0 3.1 1.2 3.1 3V170c0 1.8-1.15 3-3.15 3zm35 7v-7H123v-6.75h8.6v-7H123v-7.75h10.6v-7h-18.35V180h18.35zm12.9 0v-12.8h3.7l3.9 12.8h8.1l-4.6-15c2.2-1.7 3.55-4.35 3.55-7.5v-3.3c0-5.75-4.4-9.7-10.6-9.7h-11.8V180h7.75zm4.55-19.8h-4.55v-8.7h4.6c1.4 0 2.3.9 2.3 2.35v4c0 1.45-.9 2.35-2.35 2.35zm23.1 19.8v-20.2l9.25 20.2h6.8v-35.5h-6.8v20.3l-9.25-20.3h-6.75V180h6.75zm45.6.75c7.1 0 11.7-4.15 11.7-10.1v-9.9h-11.8v7h4.05v3c0 1.8-1.65 3-4 3-2.25 0-3.95-1.2-3.95-3v-17c0-1.8 1.7-3 4-3s3.95 1.2 3.95 3v3.55h7.75v-3.45c0-5.95-4.65-10.1-11.75-10.1s-11.7 4.15-11.7 10.1v16.8c0 5.95 4.65 10.1 11.75 10.1zm23.2-.75l1.45-6.25h7.25l1.45 6.25h7.7l-7.7-35.5h-10.05L235.4 180h7.55zm7.35-13.25h-4.5l2.25-12.8 2.25 12.8zM272.15 180v-23.05l5.1 23.05h5.55l5.05-22.85V180h6.65v-35.5h-9.25L280 164.8l-5.25-20.3h-9.2V180h6.6zm46.75 0v-7h-10.6v-6.75h8.6v-7h-8.6v-7.75h10.6v-7h-18.35V180h18.35zm-135.35 57c6.75 0 11.35-4.15 11.35-10.1v-15.3c0-5.95-4.65-10.1-11.4-10.1h-11.45V237h11.5zm.45-7h-4.2v-21.5h4.25c1.95 0 3.1 1.2 3.1 3V227c0 1.8-1.15 3-3.15 3zm35 7v-7h-10.6v-6.75h8.6v-7h-8.6v-7.75H219v-7h-18.35V237H219zm16.4.75c7.25 0 11.55-4.45 11.55-10.95 0-12.1-14.85-10.95-14.85-16.05 0-2.05 1.5-3 3.25-3 1.85 0 3.35.9 3.35 2.45v2.7h7.75v-2.2c0-6-3.95-9.95-11.05-9.95-7.2 0-11.1 4.35-11.1 10.4 0 11.5 14.85 10 14.85 16.35 0 2.4-1.9 3.45-3.6 3.45-2.15 0-4.15-1.1-4.15-3.65v-2.2h-7.75v1.4c0 6.75 4.5 11.25 11.75 11.25zm24.9-.75v-35.5h-7.75V237h7.75zm17.45.75c7.1 0 11.7-4.15 11.7-10.1v-9.9h-11.8v7h4.05v3c0 1.8-1.65 3-4 3-2.25 0-3.95-1.2-3.95-3v-17c0-1.8 1.7-3 4-3s3.95 1.2 3.95 3v3.55h7.75v-3.45c0-5.95-4.65-10.1-11.75-10.1s-11.7 4.15-11.7 10.1v16.8c0 5.95 4.65 10.1 11.75 10.1zm24.2-.75v-20.2l9.25 20.2h6.8v-35.5h-6.8v20.3l-9.25-20.3h-6.75V237h6.75z" fill="#030303" fill-rule="nonzero"/></g></svg>