<svg xmlns="http://www.w3.org/2000/svg" viewBox="0 0 350 114"><g fill="none" fill-rule="evenodd"><path fill="#FFF" d="M44 0h286v61H44z"/><g fill-rule="nonzero"><path d="M9.96 52l1.74-7.5h8.7l1.74 7.5h9.24L22.14 9.4H10.08L.9 52h9.06zm8.82-15.9h-5.4l2.7-15.36 2.7 15.36z" fill="#FFF"/><path d="M66.6 52c8.1 0 13.62-4.98 13.62-12.12V21.52c0-7.14-5.58-12.12-13.68-12.12H52.8V52h13.8zm.54-8.4H62.1V17.8h5.1c2.34 0 3.72 1.44 3.72 3.6V40c0 2.16-1.38 3.6-3.78 3.6zm42.6 8.4v-8.4H97.02v-8.1h10.32v-8.4H97.02v-9.3h12.72V9.4H87.72V52h22.02zm16.08 0V37h10.92v-8.4h-10.92V17.8h12.72V9.4h-22.02V52h9.3zm28.68 0V9.4h-9.3V52h9.3zm15.96 0V27.76L181.56 52h8.16V9.4h-8.16v24.36L170.46 9.4h-8.1V52h8.1zm36.42 0V9.4h-9.3V52h9.3zm23.94 0V17.8h8.82V9.4h-27v8.4h8.88V52h9.3zm24 0V9.4h-9.3V52h9.3zm27.36 0l9-42.6H282l-5.82 29.22-5.76-29.22h-9.3l8.94 42.6h12.12zm37.32 0v-8.4h-12.72v-8.1h10.32v-8.4h-10.32v-9.3h12.72V9.4h-22.02V52h22.02z" fill="#000"/><path d="M24.48 114v-8.4H11.76v-8.1h10.32v-8.4H11.76v-9.3h12.72v-8.4H2.46V114h22.02zm20.58 0c8.1 0 13.62-4.98 13.62-12.12V83.52c0-7.14-5.58-12.12-13.68-12.12H31.26V114h13.8zm.54-8.4h-5.04V79.8h5.1c2.34 0 3.72 1.44 3.72 3.6V102c0 2.16-1.38 3.6-3.78 3.6zm29.88 8.4V71.4h-9.3V114h9.3zm23.94 0V79.8h8.82v-8.4h-27v8.4h8.88V114h9.3zm24 0V71.4h-9.3V114h9.3zm21.66.9c8.58 0 14.1-4.98 14.1-12.12V82.62c0-7.14-5.58-12.12-14.16-12.12-8.64 0-14.16 4.98-14.16 12.12v20.16c0 7.14 5.58 12.12 14.22 12.12zm-.06-8.4c-3.42 0-4.86-1.44-4.86-3.6V82.5c0-2.16 1.44-3.6 4.92-3.6 3.36 0 4.8 1.44 4.8 3.6v20.4c0 2.16-1.44 3.6-4.86 3.6zm29.76 7.5V89.76l11.1 24.24h8.16V71.4h-8.16v24.36l-11.1-24.36h-8.1V114h8.1zm58.32 0V79.8h8.82v-8.4h-27v8.4h8.88V114h9.3zm36.72 0v-8.4H257.1v-8.1h10.32v-8.4H257.1v-9.3h12.72v-8.4H247.8V114h22.02zm14.28 0l1.74-7.5h8.7l1.74 7.5h9.24l-9.24-42.6h-12.06l-9.18 42.6h9.06zm8.82-15.9h-5.4l2.7-15.36 2.7 15.36zm26.82 15.9V86.34l6.12 27.66h6.66l6.06-27.42V114h7.98V71.4h-11.1l-6.3 24.36-6.3-24.36h-11.04V114h7.92z" fill="#FFF"/></g></g></svg>