<svg width="1686" height="1748" viewBox="0 0 1686 1748" fill="none" xmlns="http://www.w3.org/2000/svg">
<path d="M1220.24 744.835C1188.09 762.814 1167.83 798.233 1164.31 836.722C991.313 727.954 816.352 726.808 678.224 757.517C564.658 782.765 475.395 829.616 431.031 856.459C425.289 836.342 414.4 820.431 399.157 808.86C377.183 792.179 348.948 786.665 321.69 786.665C293.565 786.665 265.572 793.044 239.985 810.348C214.513 827.575 193.021 854.55 175.913 893.042C157.717 933.985 155.845 992.317 172.105 1037.83C180.334 1060.86 193.861 1082.44 214.288 1096.36C227.672 1105.48 243.154 1110.71 260.35 1111.42C259.718 1114.36 259.076 1117.49 258.438 1120.8C253.131 1148.41 248.055 1189 250.759 1236.66C256.189 1332.37 293.082 1456.38 421.128 1559.73C638.023 1734.8 839.263 1676.6 953.258 1643.64C974.937 1637.37 993.46 1632.01 1008.34 1629.34C1122.96 1641.39 1202.53 1644.48 1268.28 1637.56C1335.16 1630.52 1386.95 1613.21 1446.1 1585.81C1512.43 1555.09 1536.42 1495.61 1537.75 1442.41C1538.41 1415.97 1533.56 1390.41 1525.26 1369.47C1519.7 1355.44 1511.93 1341.88 1501.92 1331.85C1541.84 1213.29 1496.41 1122.28 1459.65 1082.36C1470.5 1026.57 1467.23 912.141 1384.98 806.386C1357.17 770.631 1328.23 748.591 1299.61 738.83C1270.54 728.917 1242.97 732.125 1220.24 744.835Z" fill="#EFA332" stroke="white" stroke-width="40" stroke-linejoin="round"/>
<mask id="mask0_1_44" style="mask-type:alpha" maskUnits="userSpaceOnUse" x="181" y="753" width="1337" height="908">
<path d="M194.19 901.165C162.19 973.165 186.69 1113.17 286.69 1088.67C293.69 1071.17 188.123 1345.95 433.69 1544.17C685.19 1747.17 909.19 1625.17 1007.69 1609.17C1239.19 1633.67 1322.19 1621.17 1437.69 1567.67C1553.19 1514.17 1522.19 1362.17 1478.19 1338.67C1526.99 1212.67 1471.52 1119.5 1437.69 1088.67C1449.86 1043.67 1453.19 926.665 1369.19 818.665C1264.19 683.665 1163.69 784.165 1187.19 876.165C830.69 621.165 455.19 862.165 415.69 890.165C414.69 827.165 371.69 806.665 321.69 806.665C271.69 806.665 226.19 829.165 194.19 901.165Z" fill="#EFAF32"/>
</mask>
<g mask="url(#mask0_1_44)">
<path d="M545.69 1071.17C416.89 1031.57 452.856 875.999 479.69 823.165C606.19 908.332 703.19 912.665 873.69 1105.67C856.19 1230.67 773.69 1199.67 747.69 1164.17C603.69 1365.67 540.19 1131.67 545.69 1071.17Z" fill="white" stroke="white" stroke-width="43" stroke-linecap="round" stroke-linejoin="round"/>
</g>
<ellipse cx="1232.69" cy="1445.17" rx="48.5" ry="58" fill="white"/>
<path d="M1354.19 1435.17L1401.69 1452.17L1420.19 1414.17" stroke="white" stroke-width="35" stroke-linecap="round" stroke-linejoin="round"/>
<path d="M1207.24 97.8349C1175.09 115.814 1154.83 151.233 1151.31 189.722C978.313 80.9538 803.352 79.8084 665.224 110.517C551.658 135.765 462.395 182.616 418.031 209.459C412.289 189.342 401.4 173.431 386.157 161.86C364.183 145.179 335.948 139.665 308.69 139.665C280.565 139.665 252.572 146.044 226.985 163.348C201.513 180.575 180.021 207.55 162.913 246.042C144.717 286.985 142.845 345.317 159.105 390.831C167.334 413.863 180.861 435.441 201.288 449.358C214.672 458.476 230.154 463.708 247.35 464.419C246.718 467.356 246.076 470.488 245.438 473.805C240.131 501.408 235.055 541.999 237.759 589.657C243.189 685.366 280.082 809.375 408.128 912.728C625.023 1087.8 826.263 1029.6 940.258 996.637C961.937 990.367 980.46 985.011 995.336 982.344C1109.96 994.391 1189.53 997.477 1255.28 990.555C1322.16 983.515 1373.95 966.21 1433.1 938.813C1499.43 908.088 1523.42 848.608 1524.75 795.414C1525.41 768.967 1520.56 743.411 1512.26 722.468C1506.7 708.439 1498.93 694.878 1488.92 684.846C1528.84 566.287 1483.41 475.282 1446.65 435.36C1457.5 379.567 1454.23 265.141 1371.98 159.386C1344.17 123.631 1315.23 101.591 1286.61 91.8299C1257.54 81.9167 1229.97 85.1245 1207.24 97.8349Z" fill="#EFA332" stroke="white" stroke-width="40" stroke-linejoin="round"/>
<mask id="mask1_1_44" style="mask-type:alpha" maskUnits="userSpaceOnUse" x="168" y="106" width="1337" height="908">
<path d="M181.19 254.165C149.19 326.165 173.69 466.165 273.69 441.665C280.69 424.165 175.123 698.954 420.69 897.165C672.19 1100.17 896.19 978.165 994.69 962.165C1226.19 986.665 1309.19 974.165 1424.69 920.665C1540.19 867.165 1509.19 715.165 1465.19 691.665C1513.99 565.665 1458.52 472.499 1424.69 441.665C1436.86 396.665 1440.19 279.665 1356.19 171.665C1251.19 36.6653 1150.69 137.165 1174.19 229.165C817.69 -25.8347 442.19 215.165 402.69 243.165C401.69 180.165 358.69 159.665 308.69 159.665C258.69 159.665 213.19 182.165 181.19 254.165Z" fill="#EFAF32"/>
</mask>
<g mask="url(#mask1_1_44)">
<path d="M532.69 424.165C403.89 384.565 412.356 240.999 439.19 188.165C579.023 118.499 913.69 20.9653 1133.69 188.165C1145.69 203.165 1179.69 306.165 1028.69 337.665C984.19 305.165 908.69 215.165 820.19 273.665C749.39 320.465 824.356 423.499 860.69 458.665C843.19 583.665 760.69 552.665 734.69 517.165C590.69 718.665 527.19 484.665 532.69 424.165Z" fill="white" stroke="white" stroke-width="43" stroke-linecap="round" stroke-linejoin="round"/>
<path d="M1143.19 191.165C1165.69 245.665 1142.89 330.165 1019.69 334.165" stroke="white" stroke-width="43" stroke-linecap="round" stroke-linejoin="round"/>
</g>
<path d="M1341.19 788.165L1388.69 805.165L1407.19 767.165" stroke="white" stroke-width="35" stroke-linecap="round" stroke-linejoin="round"/>
<path d="M1150.19 762.665C1170.19 778.665 1219.09 798.465 1254.69 749.665" stroke="white" stroke-width="43" stroke-linecap="round" stroke-linejoin="round"/>
<path d="M1080.69 412.165C1034.69 344.165 893.19 225.165 823.19 312.665C767.088 382.793 887.356 492.499 978.189 523.165" stroke="white" stroke-width="30" stroke-linecap="round" stroke-linejoin="round"/>
<path d="M847.69 953.165C784.49 1011.97 891.19 1135.17 1005.69 1177.67C1132.09 1204.07 1119.36 1114.33 1097.19 1066.17C1040.36 1004 910.89 894.365 847.69 953.165Z" fill="#EFA332"/>
<path d="M1093.69 1059.17C1047.69 991.165 906.19 872.165 836.19 959.665C780.088 1029.79 900.356 1139.5 991.189 1170.17" stroke="white" stroke-width="30" stroke-linecap="round" stroke-linejoin="round"/>
</svg>
