<svg width="1686" height="2479" viewBox="0 0 1686 2479" fill="none" xmlns="http://www.w3.org/2000/svg">
<path d="M1476.21 2053.46L1480.02 2058.36L1480.78 2059.34L1484 2063.48L1483.93 2068.73C1483.55 2100.35 1481.74 2133.82 1478.5 2169.11C1475.29 2204.26 1468.73 2237.61 1458.75 2269.13L1476.21 2053.46ZM1476.21 2053.46L1470.04 2052.68L1468.3 2052.47C1463.12 2051.82 1452.47 2049.94 1435.88 2046.69C1419.51 2042.84 1401.67 2039.41 1382.4 2036.39C1362.98 2033.36 1344.27 2031.3 1326.26 2030.25C1309.21 2028.72 1293.84 2029.43 1282.19 2034.46C1280.2 2034.88 1278.01 2035.75 1275.89 2037.4C1271.48 2040.83 1270.24 2045.42 1269.91 2048L1284.8 2049.87L1269.91 2048L1269.8 2048.87L1269.7 2049.69L1269.69 2050.52C1269.54 2060.81 1269.05 2068.98 1268.27 2075.19C1267.45 2081.74 1266.35 2088.25 1264.99 2094.73L1264.86 2095.35L1264.78 2095.96L1262.27 2115.98L1262.19 2116.6L1262.17 2117.22C1261.86 2124.51 1261.71 2132.96 1261.71 2142.53L1261.7 2151.38L1269.45 2155.66C1273.92 2158.13 1279.36 2159.89 1285.06 2161.26L1285.87 2161.45L1286.69 2161.56L1304.97 2163.85L1305.59 2163.93L1306.21 2163.95C1312.91 2164.23 1318.9 2164.71 1324.22 2165.38L1324.89 2165.46L1325.57 2165.49C1326.14 2165.51 1326.68 2165.53 1327.19 2165.55C1326.94 2167.75 1326.52 2170.17 1325.92 2172.83L1325.75 2173.56L1325.66 2174.31C1325.05 2179.11 1323.97 2183.87 1322.39 2188.61L1322.18 2189.22L1322.03 2189.86C1320.87 2194.67 1320.04 2197.49 1319.55 2198.83C1317.02 2204.67 1314.06 2208.76 1310.94 2211.58C1307.45 2214.23 1303.4 2216.35 1298.67 2217.88C1291.29 2219.48 1283.07 2220.53 1273.96 2220.98L1273.88 2220.99L1273.8 2220.99C1265.99 2221.47 1258.75 2220.8 1252.01 2219.09C1245.96 2216.93 1241.73 2214.51 1238.84 2212.13C1231.81 2204.8 1227.49 2195.42 1226.24 2183.18C1224.71 2168.24 1224.18 2154.74 1224.59 2142.65C1225.53 2121.3 1227.18 2098.84 1229.56 2075.27C1231.92 2051.77 1235.04 2029.27 1238.89 2007.78L1238.89 2007.77L1238.89 2007.76C1242.83 1985.65 1247.14 1965.09 1251.82 1946.08C1257.06 1927.25 1262.42 1911.63 1267.85 1899.08L1267.97 1898.81L1268.07 1898.54C1269.55 1894.72 1271.28 1890.91 1273.26 1887.11C1274.52 1885.02 1275.49 1883.55 1276.19 1882.58C1276.32 1882.4 1276.43 1882.25 1276.52 1882.13C1281.16 1878.75 1285.58 1877.72 1290.41 1878.32C1299.38 1879.45 1308.62 1880.89 1318.14 1882.66L1318.58 1882.74L1319.01 1882.79C1324.05 1883.43 1327.82 1885.47 1331.02 1889.21L1331.27 1889.5L1331.54 1889.79C1336.03 1894.51 1339.83 1900.16 1342.89 1906.88L1343.17 1907.5L1343.52 1908.1C1347.02 1914.24 1349.56 1921.05 1351.07 1928.62L1351.19 1929.23L1351.36 1929.83C1353.73 1938.07 1355.31 1944.77 1356.2 1950.04L1357.8 1959.59L1367.17 1962.06C1375.86 1964.35 1383.5 1966.22 1390.08 1967.65C1396.78 1969.12 1403.28 1970.26 1409.58 1971.05L1427.85 1973.34L1428.53 1973.42L1429.21 1973.45C1435.08 1973.65 1442.18 1974.25 1450.58 1975.31L1451.05 1975.37L1451.52 1975.39C1460.85 1975.98 1467.15 1976.5 1470.7 1976.95C1475.34 1977.53 1485.31 1978.07 1492.08 1970.25L1494.18 1967.81L1495.1 1964.72L1496.63 1959.61L1496.74 1959.25L1496.83 1958.88C1505.75 1922.27 1506.69 1888.78 1498.64 1858.91C1490.83 1829.08 1476.48 1803.76 1455.44 1783.43C1434.74 1763.43 1409.17 1748.51 1379.11 1738.46C1349.2 1727.85 1317.22 1722.64 1283.28 1722.7L1283.12 1722.7L1282.97 1722.7C1266.24 1723.07 1249.91 1724.74 1233.99 1727.72C1217.21 1730.86 1201.6 1737.08 1187.28 1746.34L1476.21 2053.46ZM1276.82 1881.76C1276.85 1881.72 1276.84 1881.73 1276.81 1881.77C1276.81 1881.77 1276.81 1881.76 1276.82 1881.76Z" fill="#EFA332" stroke="white" stroke-width="30"/>
<path d="M669.146 2064.61C667.387 2164.26 668.267 2264.78 671.783 2366.18L672.122 2375.95L681.203 2379.58C685.761 2381.41 690.569 2382.41 695.544 2382.41H695.564H695.585H695.605H695.626H695.646H695.667H695.687H695.708H695.729H695.749H695.77H695.79H695.811H695.831H695.852H695.872H695.893H695.914H695.934H695.955H695.975H695.996H696.016H696.037H696.057H696.078H696.098H696.119H696.14H696.16H696.181H696.201H696.222H696.242H696.263H696.283H696.304H696.325H696.345H696.366H696.386H696.407H696.427H696.448H696.468H696.489H696.51H696.53H696.551H696.571H696.592H696.612H696.633H696.653H696.674H696.695H696.715H696.736H696.756H696.777H696.797H696.818H696.838H696.859H696.879H696.9H696.921H696.941H696.962H696.982H697.003H697.023H697.044H697.064H697.085H697.106H697.126H697.147H697.167H697.188H697.208H697.229H697.249H697.27H697.291H697.311H697.332H697.352H697.373H697.393H697.414H697.434H697.455H697.476H697.496H697.517H697.537H697.558H697.578H697.599H697.619H697.64H697.661H697.681H697.702H697.722H697.743H697.763H697.784H697.804H697.825H697.845H697.866H697.887H697.907H697.928H697.948H697.969H697.989H698.01H698.03H698.051H698.072H698.092H698.113H698.133H698.154H698.174H698.195H698.215H698.236H698.257H698.277H698.298H698.318H698.339H698.359H698.38H698.4H698.421H698.442H698.462H698.483H698.503H698.524H698.544H698.565H698.585H698.606H698.626H698.647H698.668H698.688H698.709H698.729H698.75H698.77H698.791H698.811H698.832H698.853H698.873H698.894H698.914H698.935H698.955H698.976H698.996H699.017H699.038H699.058H699.079H699.099H699.12H699.14H699.161H699.181H699.202H699.223H699.243H699.264H699.284H699.305H699.325H699.346H699.366H699.387H699.408H699.428H699.449H699.469H699.49H699.51H699.531H699.551H699.572H699.592H699.613H699.634H699.654H699.675H699.695H699.716H699.736H699.757H699.777H699.798H699.819H699.839H699.86H699.88H699.901H699.921H699.942H699.962H699.983H700.004H700.024H700.045H700.065H700.086H700.106H700.127H700.147H700.168H700.189H700.209H700.23H700.25H700.271H700.291H700.312H700.332H700.353H700.373H700.394H700.415H700.435H700.456H700.476H700.497H700.517H700.538H700.558H700.579H700.6H700.62H700.641H700.661H700.682H700.702H700.723H700.743H700.764H700.785H700.805H700.826H700.846H700.867H700.887H700.908H700.928H700.949H700.97H700.99H701.011H701.031H701.052H701.072H701.093H701.113H701.134H701.155H701.175H701.196H701.216H701.237H701.257H701.278H701.298H701.319H701.339H701.36H701.381H701.401H701.422H701.442H701.463H701.483H701.504H701.524H701.545H701.566H701.586H701.607H701.627H701.648H701.668H701.689H701.709H701.73H701.751H701.771H701.792H701.812H701.833H701.853H701.874H701.894H701.915H701.936H701.956H701.977H701.997H702.018H702.038H702.059H702.079H702.1H702.12H702.141H702.162H702.182H702.203H702.223H702.244H702.264H702.285H702.305H702.326H702.347H702.367H702.388H702.408H702.429H702.449H702.47H702.49H702.511H702.532H702.552H702.573H702.593H702.614H702.634H702.655H702.675H702.696H702.717H702.737H702.758H702.778H702.799H702.819H702.84H702.86H702.881H702.902H702.922H702.943H702.963H702.984H703.004H703.025H703.045H703.066H703.086H703.107H703.128H703.148H703.169H703.189H703.21H703.23H703.251H703.271H703.292H703.313H703.333H703.354H703.374H703.395H703.415H703.436H703.456H703.477H703.498H703.518H703.539H703.559H703.58H703.6H703.621H703.641H703.662H703.683H703.703H703.724H703.744H703.765H703.785H703.806H703.826H703.847H703.867H703.888H703.909H703.929H703.95H703.97H703.991H704.011H704.032H704.052H704.073H704.094H704.114H704.135H704.155H704.176H704.196H704.217H704.237H704.258H704.279H704.299H704.32H704.34H704.361H704.381H704.402H704.422H704.443H704.464H704.484H704.505H704.525H704.546H704.566H704.587H704.607H704.628H704.649H704.669H704.69H704.71H704.731H704.751H704.772H704.792H704.813H704.833H704.854H704.875H704.895H704.916H704.936H704.957H704.977H704.998H705.018H705.039H705.06H705.08H705.101H705.121H705.142H705.162H705.183H705.203H705.224H705.245H705.265H705.286H705.306H705.327H705.347H705.368H705.388H705.409H705.43H705.45H705.471H705.491H705.512H705.532H705.553H705.573H705.594H705.614H705.635H705.656H705.676H705.697H705.717H705.738H705.758H705.779H705.799H705.82H705.841H705.858C726.59 2382.99 748.8 2384.15 772.495 2385.88L772.508 2385.88L772.521 2385.88C797.478 2387.66 822.157 2388.26 846.558 2387.67C871.642 2387.67 895.896 2386.17 919.313 2383.17L919.5 2383.14L919.687 2383.11C943.869 2379.39 966.139 2372.53 986.376 2362.41C1007.17 2352.02 1024.73 2337.37 1038.95 2318.63C1054.18 2298.75 1063.99 2273.85 1068.97 2244.65C1072.7 2224.71 1073.43 2206.05 1070.79 2188.87C1068.25 2172.36 1063.46 2157.14 1056.29 2143.35C1050.03 2129.66 1042.24 2116.88 1032.93 2105.03C1024.62 2093.18 1015.74 2081.35 1006.29 2069.53L1006.19 2069.42L1006.1 2069.3C1005.25 2068.28 1004.55 2067.39 1003.98 2066.63C1015.8 2046.3 1025.84 2024.32 1034.11 2000.71C1043.46 1975.72 1048.16 1950.02 1048.16 1923.69C1048.16 1889.46 1042.68 1859.66 1030.96 1834.9C1019.55 1810.21 1003.84 1789.86 983.707 1774.24C963.889 1758.29 940.984 1746.89 915.2 1739.97C890.689 1733.23 865.04 1729.27 838.287 1728.06C811.647 1726.85 784.74 1728.06 757.577 1731.68C730.658 1735.27 705.141 1740.37 681.043 1746.99L677.219 1748.04L674.414 1750.85L673.537 1751.73L669.036 1756.23L669.146 1762.59C670.897 1864.14 670.897 1964.81 669.146 2064.61ZM669.146 2064.61L684.144 2064.87L669.146 2064.61ZM905.913 2192.9V2193.26L905.93 2193.62C906.365 2202.73 904.277 2209.66 900.312 2215.24C896.072 2220.22 891.147 2223.87 885.441 2226.36C879.308 2228.69 872.266 2230.42 864.228 2231.46C856.1 2231.99 847.683 2232.26 838.973 2232.27C832.742 2231.86 826.636 2231.6 820.658 2231.47C818.871 2227.46 817.423 2222.6 816.447 2216.75C814.854 2207.19 814.04 2197.32 814.021 2187.14C814.586 2176.09 815.696 2165.35 817.345 2154.9C818.244 2149.21 819.216 2143.88 820.257 2138.91C827.437 2139.51 834.724 2139.99 842.118 2140.36L842.492 2140.38H842.867C853.294 2140.38 863.41 2141.68 873.25 2144.27L873.471 2144.33L873.694 2144.38C878.643 2145.52 883.87 2148.09 889.387 2152.69L889.683 2152.93L889.99 2153.16C895.186 2157.06 898.765 2161.3 901.119 2165.82C904.23 2173.59 905.913 2182.54 905.913 2192.9ZM898.311 1966.99L898.166 1967.24L898.032 1967.49C894.642 1973.85 890.213 1978.41 884.693 1981.6C878.909 1984.69 872.293 1986.78 864.683 1987.73C856.288 1988.78 847.561 1989.05 838.486 1988.51C832.698 1988.17 827.138 1987.73 821.805 1987.19C818.761 1971.88 817.923 1957.1 819.201 1942.8C821.002 1927.87 821.828 1914.32 821.577 1902.23C826.083 1901.16 831.439 1900.67 837.801 1900.96L838.142 1900.98H838.482C850.922 1900.98 862.377 1902.05 872.889 1904.12C880.347 1906.03 886.559 1909 891.744 1912.89L892.296 1913.3L892.883 1913.66C897.718 1916.64 902.098 1921.35 905.743 1928.64C908.813 1934.78 909.156 1940.14 907.473 1945.52C904.82 1954.01 901.733 1961.12 898.311 1966.99Z" fill="#EFA332" stroke="white" stroke-width="30"/>
<path d="M196.27 1763.17L196.345 1763.89C198.837 1793.6 201.719 1827.06 204.991 1864.29L205.001 1864.41L205.013 1864.53C208.819 1901.24 213.096 1939.66 217.845 1979.79L217.845 1979.79L231.886 2098.24L231.899 2098.35L231.914 2098.46C237.178 2137.89 242.231 2175.3 247.074 2210.67L247.075 2210.67C251.858 2245.47 256.312 2277.08 260.435 2305.5L260.458 2305.66L260.485 2305.82C261.989 2314.81 263.425 2324.55 264.797 2333.85C265.526 2338.79 266.236 2343.61 266.929 2348.13C267.903 2354.48 268.855 2360.32 269.753 2364.73C270.192 2366.9 270.694 2369.1 271.273 2370.99C271.551 2371.9 271.979 2373.17 272.61 2374.49C272.927 2375.15 273.444 2376.14 274.213 2377.21C274.889 2378.15 276.379 2380.03 278.911 2381.55C282.772 2383.87 286.561 2383.97 288.202 2383.94C290.146 2383.91 291.883 2383.6 293.083 2383.34C295.474 2382.82 298.067 2381.98 300.037 2381.33C300.368 2381.23 300.693 2381.12 301.012 2381.01C305.234 2379.63 308.42 2378.58 311.077 2378.18C318.907 2376.99 324.198 2377.14 331.133 2377.34C334.36 2377.44 337.942 2377.54 342.3 2377.53C354.547 2377.48 366.735 2376.83 378.864 2375.57C392.042 2374.21 404.009 2370.67 413.45 2363.76L419.207 2359.55L419.576 2352.43C420.59 2332.83 420.104 2313.37 418.114 2294.06C416.685 2274.58 414.64 2254.87 411.981 2234.95L411.965 2234.84L411.95 2234.72L411.935 2234.61L411.919 2234.49L411.904 2234.38L411.888 2234.26L411.873 2234.14L411.858 2234.03L411.842 2233.91L411.827 2233.8L411.811 2233.68L411.796 2233.57L411.78 2233.45L411.765 2233.34L411.75 2233.22L411.734 2233.1L411.719 2232.99L411.703 2232.87L411.688 2232.76L411.673 2232.64L411.657 2232.53L411.642 2232.41L411.626 2232.3L411.611 2232.18L411.595 2232.07L411.58 2231.95L411.565 2231.83L411.549 2231.72L411.534 2231.6L411.518 2231.49L411.503 2231.37L411.488 2231.26L411.472 2231.14L411.457 2231.03L411.441 2230.91L411.426 2230.8L411.41 2230.68L411.395 2230.56L411.38 2230.45L411.364 2230.33L411.349 2230.22L411.333 2230.1L411.318 2229.99L411.303 2229.87L411.287 2229.76L411.272 2229.64L411.256 2229.52L411.241 2229.41L411.226 2229.29L411.21 2229.18L411.195 2229.06L411.179 2228.95L411.164 2228.83L411.148 2228.72L411.133 2228.6L411.118 2228.49L411.102 2228.37L411.087 2228.25L411.071 2228.14L411.056 2228.02L411.041 2227.91L411.025 2227.79L411.01 2227.68L410.994 2227.56L410.979 2227.45L410.963 2227.33L410.948 2227.21L410.933 2227.1L410.917 2226.98L410.902 2226.87L410.886 2226.75L410.871 2226.64L410.856 2226.52L410.84 2226.41L410.825 2226.29L410.809 2226.18L410.794 2226.06L410.778 2225.94L410.763 2225.83L410.748 2225.71L410.732 2225.6L410.717 2225.48L410.701 2225.37L410.686 2225.25L410.671 2225.14L410.655 2225.02L410.64 2224.9L410.624 2224.79L410.609 2224.67L410.593 2224.56L410.578 2224.44L410.563 2224.33L410.547 2224.21L410.532 2224.1L410.516 2223.98L410.501 2223.87L410.486 2223.75L410.47 2223.63L410.455 2223.52L410.439 2223.4L410.424 2223.29L410.408 2223.17L410.393 2223.06L410.378 2222.94L410.362 2222.83L410.347 2222.71L410.331 2222.6L410.316 2222.48L410.301 2222.36L410.285 2222.25L410.27 2222.13L410.254 2222.02L410.239 2221.9L410.223 2221.79L410.208 2221.67L410.193 2221.56L410.177 2221.44L410.162 2221.32L410.146 2221.21L410.131 2221.09L410.116 2220.98L410.1 2220.86L410.085 2220.75L410.069 2220.63L410.054 2220.52L410.038 2220.4L410.023 2220.29L410.008 2220.17L409.992 2220.05L409.977 2219.94L409.961 2219.82L409.946 2219.71L409.931 2219.59L409.915 2219.48L409.9 2219.36L409.884 2219.25L409.869 2219.13L409.854 2219.01L409.838 2218.9L409.823 2218.78L409.807 2218.67L409.792 2218.55L409.776 2218.44L409.761 2218.32L409.746 2218.21L409.73 2218.09L409.715 2217.98L409.699 2217.86L409.684 2217.74L409.669 2217.63L409.653 2217.51L409.638 2217.4L409.622 2217.28L409.607 2217.17L409.591 2217.05L409.576 2216.94L409.561 2216.82L409.545 2216.7L409.53 2216.59L409.514 2216.47L409.499 2216.36L409.484 2216.24L409.468 2216.13L409.453 2216.01L409.437 2215.9L409.422 2215.78L409.406 2215.67L409.391 2215.55L409.376 2215.43L409.36 2215.32L409.345 2215.2L409.329 2215.09L409.314 2214.97L409.299 2214.86L409.283 2214.74L409.268 2214.63L409.252 2214.51L409.237 2214.4L409.221 2214.28L409.206 2214.16L409.191 2214.05L409.175 2213.93L409.16 2213.82L409.144 2213.7L409.129 2213.59L409.114 2213.47L409.098 2213.36L409.083 2213.24L409.067 2213.12L409.052 2213.01L409.036 2212.89L409.021 2212.78L409.006 2212.66L408.99 2212.55L408.975 2212.43L408.959 2212.32L408.944 2212.2L408.929 2212.09L408.913 2211.97L408.898 2211.85L408.882 2211.74L408.867 2211.62L408.851 2211.51L408.836 2211.39L408.821 2211.28L408.805 2211.16L408.79 2211.05L408.774 2210.93L408.759 2210.81L408.744 2210.7L408.728 2210.58L408.713 2210.47L408.697 2210.35L408.682 2210.24L408.666 2210.12L408.651 2210.01L408.636 2209.89L408.62 2209.78L408.605 2209.66L408.589 2209.54L408.574 2209.43L408.559 2209.31L408.543 2209.2L408.528 2209.08L408.512 2208.97L408.497 2208.85L408.481 2208.74L408.466 2208.62L408.451 2208.5L408.435 2208.39L408.42 2208.27L408.404 2208.16L408.389 2208.04L408.374 2207.93L408.358 2207.81L408.343 2207.7L408.327 2207.58L408.312 2207.47L408.297 2207.35L408.281 2207.23L408.266 2207.12L408.25 2207L408.235 2206.89L408.219 2206.77L408.204 2206.66L408.189 2206.54L408.173 2206.43L408.158 2206.31L408.142 2206.2L408.127 2206.08L408.112 2205.96L408.096 2205.85L408.081 2205.73L408.065 2205.62L408.05 2205.5L408.034 2205.39L408.019 2205.27L408.004 2205.16L407.988 2205.04L407.973 2204.92L407.957 2204.81L407.942 2204.69L407.927 2204.58L407.911 2204.46L407.896 2204.35L407.88 2204.23L407.865 2204.12L407.849 2204L407.834 2203.89L407.819 2203.77L407.803 2203.65L407.788 2203.54L407.772 2203.42L407.757 2203.31L407.742 2203.19L407.726 2203.08L407.711 2202.96L407.695 2202.85L407.68 2202.73L407.664 2202.61L407.649 2202.5L407.634 2202.38L407.618 2202.27L407.603 2202.15L407.587 2202.04L407.572 2201.92L407.557 2201.81L407.541 2201.69L407.526 2201.58L407.51 2201.46L407.495 2201.34L407.479 2201.23L407.464 2201.11L407.449 2201L407.433 2200.88L407.418 2200.77L407.402 2200.65L407.387 2200.54L407.372 2200.42L407.356 2200.3L407.341 2200.19L407.325 2200.07L407.31 2199.96L407.294 2199.84L407.279 2199.73L407.264 2199.61L407.248 2199.5L407.233 2199.38L407.217 2199.27L407.202 2199.15L407.187 2199.03L407.171 2198.92L407.156 2198.8L407.14 2198.69L407.125 2198.57L407.109 2198.46L407.094 2198.34L407.079 2198.23L407.063 2198.11L407.048 2198L407.032 2197.88L407.017 2197.76L407.002 2197.65L406.986 2197.53L406.971 2197.42L406.955 2197.3L406.94 2197.19L406.924 2197.07L406.909 2196.96L406.894 2196.84L406.878 2196.72L406.863 2196.61L406.847 2196.49L406.832 2196.38L406.817 2196.26L406.801 2196.15L406.786 2196.03L406.77 2195.92L406.755 2195.8L406.74 2195.69L406.724 2195.57L406.709 2195.45L406.693 2195.34L406.678 2195.22L406.662 2195.11L406.647 2194.99L406.632 2194.88L406.616 2194.76L406.601 2194.65L406.585 2194.53L406.57 2194.41L406.555 2194.3L406.539 2194.18L406.524 2194.07L406.508 2193.95L406.493 2193.84L406.477 2193.72L406.462 2193.61L406.447 2193.49L406.431 2193.38L406.416 2193.26L406.4 2193.14L406.385 2193.03L406.37 2192.91L406.354 2192.8L406.339 2192.68L406.323 2192.57L406.308 2192.45L406.292 2192.34L406.277 2192.22L406.262 2192.1L406.246 2191.99L406.231 2191.87L406.215 2191.76L406.2 2191.64L406.185 2191.53L406.169 2191.41L406.154 2191.3L406.138 2191.18L406.123 2191.07L406.107 2190.95L406.092 2190.83L406.077 2190.72L406.061 2190.6L406.046 2190.49L406.03 2190.37L406.015 2190.26L406 2190.14L405.984 2190.03L405.969 2189.91L405.953 2189.8L405.938 2189.68L405.922 2189.56L405.907 2189.45L405.892 2189.33L405.876 2189.22L405.861 2189.1L405.845 2188.99L405.83 2188.87L405.815 2188.76L405.799 2188.64L405.784 2188.52L405.768 2188.41L405.753 2188.29L405.737 2188.18L405.722 2188.06L405.707 2187.95L405.691 2187.83L405.676 2187.72L405.66 2187.6L405.645 2187.49L405.63 2187.37L405.614 2187.25L405.599 2187.14L405.583 2187.02L405.568 2186.91L405.552 2186.79L405.537 2186.68L405.522 2186.56L405.506 2186.45L405.491 2186.33L405.475 2186.21L405.46 2186.1L405.445 2185.98L405.429 2185.87L405.414 2185.75L405.398 2185.64L405.383 2185.52L405.367 2185.41L405.352 2185.29L405.337 2185.18L405.321 2185.06L405.306 2184.94L405.29 2184.83L405.275 2184.71L405.26 2184.6L405.244 2184.48L405.229 2184.37L405.213 2184.25L405.198 2184.14L405.183 2184.02L405.167 2183.9L405.152 2183.79L405.136 2183.67L405.121 2183.56L405.105 2183.44L405.09 2183.33L405.075 2183.21L405.059 2183.1L405.044 2182.98L405.028 2182.87L405.013 2182.75L404.998 2182.63L404.982 2182.52L404.967 2182.4L404.951 2182.29L404.936 2182.17L404.92 2182.06L404.905 2181.94L404.89 2181.83L404.874 2181.71L404.859 2181.6L404.843 2181.48L404.828 2181.36L404.813 2181.25L404.797 2181.13L404.782 2181.02L404.766 2180.9L404.751 2180.79L404.735 2180.67L404.72 2180.56L404.705 2180.44L404.689 2180.32L404.674 2180.21L404.658 2180.09L404.643 2179.98L404.628 2179.86L404.612 2179.75L404.597 2179.63L404.581 2179.52L404.566 2179.4L404.55 2179.29L404.535 2179.17L404.52 2179.05L404.504 2178.94L404.489 2178.82L404.473 2178.71L404.458 2178.59L404.443 2178.48L404.427 2178.36L404.412 2178.25L404.396 2178.13L404.381 2178.01L404.365 2177.9L404.35 2177.78L404.335 2177.67L404.319 2177.55L404.304 2177.44L404.288 2177.32L404.273 2177.21L404.258 2177.09L404.242 2176.98L404.227 2176.86L404.211 2176.74L404.196 2176.63L404.18 2176.51L404.165 2176.4L404.15 2176.28L404.134 2176.17L404.119 2176.05L404.117 2176.04C402.495 2160.33 401.414 2144.37 400.877 2128.15C412.863 2124.58 424.935 2122.18 437.102 2120.92C449.71 2119.61 462.416 2119.16 475.224 2119.57C478.346 2134.34 480.977 2149.77 483.11 2165.86C485.783 2186.01 488.166 2206.19 490.261 2226.4L490.284 2226.61L490.312 2226.83C493.002 2247.11 495.723 2267.69 498.474 2288.56L498.503 2288.78L498.538 2289C501.882 2309.67 506.06 2329.69 511.08 2349.05L514.317 2361.53L527.146 2360.2L528.018 2360.11L528.639 2360.05L529.252 2359.93C535.634 2358.73 543.598 2357.62 553.224 2356.62L568.924 2354.99L584.625 2353.36C595.924 2352.19 607.192 2350.72 618.428 2348.96C630.517 2347.09 641.772 2344.69 652.161 2341.72L664.744 2338.13L662.894 2325.18L576.051 1717.04L574.143 1703.68L560.651 1704.18C551.573 1704.51 541.454 1705.26 530.317 1706.4C519.204 1706.96 507.948 1708.44 496.558 1710.83C485.173 1712.63 474.112 1715 463.382 1717.96L463.313 1717.98L463.244 1718C453.068 1720.9 444.111 1724.04 436.513 1727.48L426.224 1732.14L427.855 1743.31C433.906 1784.77 438.428 1822.79 441.434 1857.4L441.445 1857.53L441.457 1857.65C444.644 1888.39 446.678 1921.41 447.548 1956.71C436.455 1958.84 424.761 1961.19 412.469 1963.77C400.456 1965.84 389.145 1966.51 378.495 1965.86C369.461 1933.43 363.21 1900.48 359.74 1867C355.75 1828.52 348.98 1789.19 339.448 1749.02L337.172 1739.43L327.465 1737.71C317.583 1735.96 307.332 1735.69 296.778 1736.78C287.164 1737.78 277.307 1739.11 267.21 1740.76L267.183 1740.76L267.156 1740.77C257.932 1742.31 248.415 1743.88 238.607 1745.49L238.58 1745.49L238.553 1745.49C230.53 1746.84 222.763 1747.13 215.216 1746.41L213.737 1746.27L212.26 1746.43L209.643 1746.7L194.723 1748.25L196.27 1763.17Z" fill="#EFA332" stroke="white" stroke-width="30"/>
<path d="M1220.24 744.835C1188.09 762.814 1167.83 798.233 1164.31 836.722C991.313 727.954 816.352 726.808 678.224 757.517C564.658 782.765 475.395 829.616 431.031 856.459C425.289 836.342 414.4 820.431 399.157 808.86C377.183 792.179 348.948 786.665 321.69 786.665C293.565 786.665 265.572 793.044 239.985 810.348C214.513 827.575 193.021 854.55 175.913 893.042C157.717 933.985 155.845 992.317 172.105 1037.83C180.334 1060.86 193.861 1082.44 214.288 1096.36C227.672 1105.48 243.154 1110.71 260.35 1111.42C259.718 1114.36 259.076 1117.49 258.438 1120.8C253.131 1148.41 248.055 1189 250.759 1236.66C256.189 1332.37 293.082 1456.38 421.128 1559.73C638.023 1734.8 839.263 1676.6 953.258 1643.64C974.937 1637.37 993.46 1632.01 1008.34 1629.34C1122.96 1641.39 1202.53 1644.48 1268.28 1637.56C1335.16 1630.52 1386.95 1613.21 1446.1 1585.81C1512.43 1555.09 1536.42 1495.61 1537.75 1442.41C1538.41 1415.97 1533.56 1390.41 1525.26 1369.47C1519.7 1355.44 1511.93 1341.88 1501.92 1331.85C1541.84 1213.29 1496.41 1122.28 1459.65 1082.36C1470.5 1026.57 1467.23 912.141 1384.98 806.386C1357.17 770.631 1328.23 748.591 1299.61 738.83C1270.54 728.917 1242.97 732.125 1220.24 744.835Z" fill="#EFA332" stroke="white" stroke-width="40" stroke-linejoin="round"/>
<mask id="mask0_1_40" style="mask-type:alpha" maskUnits="userSpaceOnUse" x="181" y="753" width="1337" height="908">
<path d="M194.19 901.165C162.19 973.165 186.69 1113.17 286.69 1088.67C293.69 1071.17 188.123 1345.95 433.69 1544.17C685.19 1747.17 909.19 1625.17 1007.69 1609.17C1239.19 1633.67 1322.19 1621.17 1437.69 1567.67C1553.19 1514.17 1522.19 1362.17 1478.19 1338.67C1526.99 1212.67 1471.52 1119.5 1437.69 1088.67C1449.86 1043.67 1453.19 926.665 1369.19 818.665C1264.19 683.665 1163.69 784.165 1187.19 876.165C830.69 621.165 455.19 862.165 415.69 890.165C414.69 827.165 371.69 806.665 321.69 806.665C271.69 806.665 226.19 829.165 194.19 901.165Z" fill="#EFAF32"/>
</mask>
<g mask="url(#mask0_1_40)">
<path d="M545.69 1071.17C416.89 1031.57 452.856 875.999 479.69 823.165C606.19 908.332 703.19 912.665 873.69 1105.67C856.19 1230.67 773.69 1199.67 747.69 1164.17C603.69 1365.67 540.19 1131.67 545.69 1071.17Z" fill="white" stroke="white" stroke-width="43" stroke-linecap="round" stroke-linejoin="round"/>
</g>
<ellipse cx="1232.69" cy="1445.17" rx="48.5" ry="58" fill="white"/>
<path d="M1354.19 1435.17L1401.69 1452.17L1420.19 1414.17" stroke="white" stroke-width="35" stroke-linecap="round" stroke-linejoin="round"/>
<path d="M1207.24 97.8349C1175.09 115.814 1154.83 151.233 1151.31 189.722C978.313 80.9538 803.352 79.8084 665.224 110.517C551.658 135.765 462.395 182.616 418.031 209.459C412.289 189.342 401.4 173.431 386.157 161.86C364.183 145.179 335.948 139.665 308.69 139.665C280.565 139.665 252.572 146.044 226.985 163.348C201.513 180.575 180.021 207.55 162.913 246.042C144.717 286.985 142.845 345.317 159.105 390.831C167.334 413.863 180.861 435.441 201.288 449.358C214.672 458.476 230.154 463.708 247.35 464.419C246.718 467.356 246.076 470.488 245.438 473.805C240.131 501.408 235.055 541.999 237.759 589.657C243.189 685.366 280.082 809.375 408.128 912.728C625.023 1087.8 826.263 1029.6 940.258 996.637C961.937 990.367 980.46 985.011 995.336 982.344C1109.96 994.391 1189.53 997.477 1255.28 990.555C1322.16 983.515 1373.95 966.21 1433.1 938.813C1499.43 908.088 1523.42 848.608 1524.75 795.414C1525.41 768.967 1520.56 743.411 1512.26 722.468C1506.7 708.439 1498.93 694.878 1488.92 684.846C1528.84 566.287 1483.41 475.282 1446.65 435.36C1457.5 379.567 1454.23 265.141 1371.98 159.386C1344.17 123.631 1315.23 101.591 1286.61 91.8299C1257.54 81.9167 1229.97 85.1245 1207.24 97.8349Z" fill="#EFA332" stroke="white" stroke-width="40" stroke-linejoin="round"/>
<mask id="mask1_1_40" style="mask-type:alpha" maskUnits="userSpaceOnUse" x="168" y="106" width="1337" height="908">
<path d="M181.19 254.165C149.19 326.165 173.69 466.165 273.69 441.665C280.69 424.165 175.123 698.954 420.69 897.165C672.19 1100.17 896.19 978.165 994.69 962.165C1226.19 986.665 1309.19 974.165 1424.69 920.665C1540.19 867.165 1509.19 715.165 1465.19 691.665C1513.99 565.665 1458.52 472.499 1424.69 441.665C1436.86 396.665 1440.19 279.665 1356.19 171.665C1251.19 36.6653 1150.69 137.165 1174.19 229.165C817.69 -25.8347 442.19 215.165 402.69 243.165C401.69 180.165 358.69 159.665 308.69 159.665C258.69 159.665 213.19 182.165 181.19 254.165Z" fill="#EFAF32"/>
</mask>
<g mask="url(#mask1_1_40)">
<path d="M532.69 424.165C403.89 384.565 412.356 240.999 439.19 188.165C579.023 118.499 913.69 20.9653 1133.69 188.165C1145.69 203.165 1179.69 306.165 1028.69 337.665C984.19 305.165 908.69 215.165 820.19 273.665C749.39 320.465 824.356 423.499 860.69 458.665C843.19 583.665 760.69 552.665 734.69 517.165C590.69 718.665 527.19 484.665 532.69 424.165Z" fill="white" stroke="white" stroke-width="43" stroke-linecap="round" stroke-linejoin="round"/>
<path d="M1143.19 191.165C1165.69 245.665 1142.89 330.165 1019.69 334.165" stroke="white" stroke-width="43" stroke-linecap="round" stroke-linejoin="round"/>
</g>
<path d="M1341.19 788.165L1388.69 805.165L1407.19 767.165" stroke="white" stroke-width="35" stroke-linecap="round" stroke-linejoin="round"/>
<path d="M1150.19 762.665C1170.19 778.665 1219.09 798.465 1254.69 749.665" stroke="white" stroke-width="43" stroke-linecap="round" stroke-linejoin="round"/>
<path d="M1080.69 412.165C1034.69 344.165 893.19 225.165 823.19 312.665C767.088 382.793 887.356 492.499 978.189 523.165" stroke="white" stroke-width="30" stroke-linecap="round" stroke-linejoin="round"/>
<path d="M847.69 953.165C784.49 1011.97 891.19 1135.17 1005.69 1177.67C1132.09 1204.07 1119.36 1114.33 1097.19 1066.17C1040.36 1004 910.89 894.365 847.69 953.165Z" fill="#EFA332"/>
<path d="M1093.69 1059.17C1047.69 991.165 906.19 872.165 836.19 959.665C780.088 1029.79 900.356 1139.5 991.189 1170.17" stroke="white" stroke-width="30" stroke-linecap="round" stroke-linejoin="round"/>
</svg>
