<svg width="1686" height="1110" viewBox="0 0 1686 1110" fill="none" xmlns="http://www.w3.org/2000/svg">
<path d="M1469.02 562.293L1472.83 567.199L1473.59 568.178L1476.81 572.319L1476.74 577.563C1476.36 609.186 1474.55 642.65 1471.31 677.948C1468.11 713.091 1461.54 746.443 1451.56 777.967L1469.02 562.293ZM1469.02 562.293L1462.85 561.52L1461.11 561.301C1455.93 560.652 1445.28 558.773 1428.69 555.522C1412.32 551.67 1394.48 548.242 1375.21 545.229C1355.79 542.193 1337.08 540.139 1319.07 539.081C1302.02 537.556 1286.65 538.263 1275 543.291C1273.01 543.718 1270.82 544.59 1268.7 546.232C1264.29 549.66 1263.05 554.25 1262.72 556.834L1277.61 558.701L1262.72 556.834L1262.62 557.704L1262.51 558.528L1262.5 559.359C1262.35 569.64 1261.86 577.815 1261.08 584.026C1260.26 590.572 1259.17 597.087 1257.8 603.569L1257.67 604.18L1257.59 604.799L1255.08 624.811L1255 625.43L1254.98 626.054C1254.67 633.349 1254.52 641.794 1254.52 651.362L1254.51 660.211L1262.26 664.494C1266.73 666.966 1272.17 668.726 1277.87 670.094L1278.68 670.287L1279.5 670.391L1297.78 672.683L1298.4 672.761L1299.02 672.787C1305.72 673.066 1311.71 673.547 1317.03 674.214L1317.7 674.299L1318.38 674.322C1318.95 674.341 1319.49 674.364 1320 674.389C1319.75 676.585 1319.33 679.007 1318.73 681.668L1318.56 682.397L1318.47 683.14C1317.86 687.941 1316.78 692.704 1315.2 697.441L1314.99 698.058L1314.84 698.691C1313.69 703.509 1312.85 706.327 1312.36 707.66C1309.83 713.506 1306.87 717.591 1303.75 720.419C1300.26 723.063 1296.21 725.182 1291.48 726.719C1284.1 728.313 1275.88 729.365 1266.77 729.819L1266.69 729.823L1266.61 729.828C1258.8 730.302 1251.56 729.636 1244.82 727.928C1238.77 725.762 1234.54 723.346 1231.65 720.967C1224.63 713.632 1220.3 704.255 1219.05 692.015C1217.52 677.07 1216.99 663.574 1217.4 651.488C1218.34 630.139 1219.99 607.679 1222.37 584.103C1224.73 560.601 1227.85 538.107 1231.7 516.617L1231.7 516.607L1231.7 516.597C1235.64 494.482 1239.95 473.924 1244.63 454.912C1249.87 436.083 1255.23 420.46 1260.66 407.911L1260.78 407.644L1260.88 407.372C1262.36 403.558 1264.09 399.748 1266.07 395.943C1267.33 393.857 1268.3 392.383 1269 391.415C1269.13 391.232 1269.24 391.083 1269.33 390.964C1273.97 387.582 1278.39 386.552 1283.22 387.157C1292.19 388.283 1301.44 389.727 1310.95 391.494L1311.39 391.575L1311.82 391.629C1316.86 392.261 1320.63 394.303 1323.83 398.042L1324.08 398.339L1324.35 398.622C1328.84 403.346 1332.64 408.997 1335.7 415.712L1335.98 416.339L1336.33 416.938C1339.83 423.079 1342.37 429.888 1343.88 437.458L1344 438.07L1344.17 438.669C1346.54 446.905 1348.12 453.606 1349.01 458.876L1350.61 468.428L1359.98 470.893C1368.67 473.18 1376.32 475.051 1382.89 476.489C1389.59 477.956 1396.1 479.092 1402.39 479.881L1420.66 482.174L1421.34 482.258L1422.02 482.282C1427.89 482.482 1435 483.088 1443.39 484.142L1443.86 484.2L1444.33 484.229C1453.66 484.812 1459.96 485.336 1463.52 485.782C1468.15 486.363 1478.12 486.906 1484.89 479.08L1486.99 476.644L1487.91 473.559L1489.44 468.448L1489.55 468.082L1489.64 467.711C1498.56 431.102 1499.5 397.614 1491.45 367.748C1483.64 337.91 1469.29 312.597 1448.25 292.269C1427.55 272.266 1401.98 257.345 1371.92 247.292C1342.01 236.683 1310.03 231.472 1276.09 231.533L1275.93 231.533L1275.78 231.536C1259.05 231.909 1242.72 233.577 1226.8 236.554C1210.02 239.693 1194.42 245.914 1180.09 255.177L1469.02 562.293ZM1269.63 390.596C1269.66 390.559 1269.65 390.566 1269.62 390.608C1269.62 390.603 1269.62 390.6 1269.63 390.596Z" fill="#EFA332" stroke="white" stroke-width="30"/>
<path d="M661.956 573.442C660.198 673.093 661.077 773.617 664.594 875.012L664.933 884.787L674.014 888.419C678.571 890.242 683.38 891.246 688.354 891.246H688.375H688.395H688.416H688.436H688.457H688.477H688.498H688.519H688.539H688.56H688.58H688.601H688.621H688.642H688.662H688.683H688.704H688.724H688.745H688.765H688.786H688.806H688.827H688.847H688.868H688.888H688.909H688.93H688.95H688.971H688.991H689.012H689.032H689.053H689.073H689.094H689.115H689.135H689.156H689.176H689.197H689.217H689.238H689.258H689.279H689.3H689.32H689.341H689.361H689.382H689.402H689.423H689.443H689.464H689.485H689.505H689.526H689.546H689.567H689.587H689.608H689.628H689.649H689.669H689.69H689.711H689.731H689.752H689.772H689.793H689.813H689.834H689.854H689.875H689.896H689.916H689.937H689.957H689.978H689.998H690.019H690.039H690.06H690.081H690.101H690.122H690.142H690.163H690.183H690.204H690.224H690.245H690.266H690.286H690.307H690.327H690.348H690.368H690.389H690.409H690.43H690.451H690.471H690.492H690.512H690.533H690.553H690.574H690.594H690.615H690.635H690.656H690.677H690.697H690.718H690.738H690.759H690.779H690.8H690.82H690.841H690.862H690.882H690.903H690.923H690.944H690.964H690.985H691.005H691.026H691.047H691.067H691.088H691.108H691.129H691.149H691.17H691.19H691.211H691.232H691.252H691.273H691.293H691.314H691.334H691.355H691.375H691.396H691.416H691.437H691.458H691.478H691.499H691.519H691.54H691.56H691.581H691.601H691.622H691.643H691.663H691.684H691.704H691.725H691.745H691.766H691.786H691.807H691.828H691.848H691.869H691.889H691.91H691.93H691.951H691.971H691.992H692.013H692.033H692.054H692.074H692.095H692.115H692.136H692.156H692.177H692.198H692.218H692.239H692.259H692.28H692.3H692.321H692.341H692.362H692.382H692.403H692.424H692.444H692.465H692.485H692.506H692.526H692.547H692.567H692.588H692.609H692.629H692.65H692.67H692.691H692.711H692.732H692.752H692.773H692.794H692.814H692.835H692.855H692.876H692.896H692.917H692.937H692.958H692.979H692.999H693.02H693.04H693.061H693.081H693.102H693.122H693.143H693.163H693.184H693.205H693.225H693.246H693.266H693.287H693.307H693.328H693.348H693.369H693.39H693.41H693.431H693.451H693.472H693.492H693.513H693.533H693.554H693.575H693.595H693.616H693.636H693.657H693.677H693.698H693.718H693.739H693.76H693.78H693.801H693.821H693.842H693.862H693.883H693.903H693.924H693.945H693.965H693.986H694.006H694.027H694.047H694.068H694.088H694.109H694.129H694.15H694.171H694.191H694.212H694.232H694.253H694.273H694.294H694.314H694.335H694.356H694.376H694.397H694.417H694.438H694.458H694.479H694.499H694.52H694.541H694.561H694.582H694.602H694.623H694.643H694.664H694.684H694.705H694.726H694.746H694.767H694.787H694.808H694.828H694.849H694.869H694.89H694.91H694.931H694.952H694.972H694.993H695.013H695.034H695.054H695.075H695.095H695.116H695.137H695.157H695.178H695.198H695.219H695.239H695.26H695.28H695.301H695.322H695.342H695.363H695.383H695.404H695.424H695.445H695.465H695.486H695.507H695.527H695.548H695.568H695.589H695.609H695.63H695.65H695.671H695.692H695.712H695.733H695.753H695.774H695.794H695.815H695.835H695.856H695.876H695.897H695.918H695.938H695.959H695.979H696H696.02H696.041H696.061H696.082H696.103H696.123H696.144H696.164H696.185H696.205H696.226H696.246H696.267H696.288H696.308H696.329H696.349H696.37H696.39H696.411H696.431H696.452H696.473H696.493H696.514H696.534H696.555H696.575H696.596H696.616H696.637H696.657H696.678H696.699H696.719H696.74H696.76H696.781H696.801H696.822H696.842H696.863H696.884H696.904H696.925H696.945H696.966H696.986H697.007H697.027H697.048H697.069H697.089H697.11H697.13H697.151H697.171H697.192H697.212H697.233H697.254H697.274H697.295H697.315H697.336H697.356H697.377H697.397H697.418H697.439H697.459H697.48H697.5H697.521H697.541H697.562H697.582H697.603H697.623H697.644H697.665H697.685H697.706H697.726H697.747H697.767H697.788H697.808H697.829H697.85H697.87H697.891H697.911H697.932H697.952H697.973H697.993H698.014H698.035H698.055H698.076H698.096H698.117H698.137H698.158H698.178H698.199H698.22H698.24H698.261H698.281H698.302H698.322H698.343H698.363H698.384H698.404H698.425H698.446H698.466H698.487H698.507H698.528H698.548H698.569H698.589H698.61H698.631H698.651H698.669C719.4 891.826 741.611 892.98 765.306 894.714L765.319 894.715L765.332 894.716C790.288 896.498 814.968 897.097 839.368 896.508C864.452 896.5 888.707 895.003 912.124 892.001L912.311 891.977L912.497 891.949C936.68 888.228 958.949 881.366 979.186 871.247C999.979 860.851 1017.54 846.203 1031.76 827.461C1046.99 807.58 1056.8 782.683 1061.78 753.485C1065.51 733.54 1066.24 714.886 1063.6 697.703C1061.06 681.197 1056.27 665.977 1049.1 652.184C1042.84 638.494 1035.05 625.714 1025.74 613.864C1017.43 602.014 1008.55 590.181 999.099 578.367L999.005 578.25L998.909 578.135C998.059 577.114 997.358 576.227 996.786 575.465C1008.61 555.138 1018.65 533.152 1026.92 509.54C1036.27 484.55 1040.97 458.851 1040.97 432.522C1040.97 398.296 1035.49 368.498 1023.77 343.738C1012.36 319.042 996.648 298.692 976.517 283.075C956.699 267.121 933.794 255.724 908.01 248.8C883.499 242.063 857.85 238.107 831.097 236.891C804.458 235.68 777.551 236.893 750.387 240.515C723.468 244.104 697.951 249.201 673.854 255.828L670.029 256.879L667.224 259.684L666.348 260.561L661.847 265.062L661.956 271.426C663.707 372.979 663.707 473.65 661.956 573.442ZM661.956 573.442L676.954 573.707L661.956 573.442ZM898.724 701.738V702.095L898.741 702.451C899.175 711.57 897.088 718.493 893.123 724.071C888.883 729.054 883.957 732.706 878.252 735.196C872.118 737.527 865.076 739.259 857.039 740.293C848.911 740.825 840.493 741.097 831.784 741.107C825.552 740.699 819.447 740.432 813.468 740.309C811.681 736.292 810.233 731.431 809.258 725.58C807.665 716.021 806.851 706.155 806.832 695.972C807.397 684.923 808.507 674.18 810.155 663.739C811.055 658.043 812.027 652.713 813.067 647.742C820.247 648.342 827.534 648.826 834.929 649.196L835.303 649.215H835.678C846.105 649.215 856.221 650.516 866.06 653.105L866.282 653.164L866.505 653.215C871.454 654.357 876.68 656.925 882.198 661.523L882.493 661.769L882.801 661.999C887.996 665.896 891.575 670.133 893.93 674.654C897.04 682.42 898.724 691.379 898.724 701.738ZM891.121 475.826L890.977 476.072L890.842 476.325C887.453 482.68 883.023 487.245 877.504 490.437C871.72 493.523 865.104 495.61 857.494 496.561C849.099 497.61 840.372 497.882 831.297 497.348C825.508 497.007 819.949 496.566 814.616 496.025C811.572 480.716 810.734 465.935 812.012 451.635C813.813 436.706 814.638 423.151 814.387 411.06C818.894 409.996 824.249 409.509 830.612 409.799L830.952 409.814H831.293C843.733 409.814 855.188 410.884 865.7 412.959C873.158 414.865 879.369 417.833 884.555 421.722L885.106 422.135L885.693 422.497C890.529 425.472 894.909 430.186 898.554 437.476C901.624 443.616 901.966 448.97 900.284 454.356C897.63 462.846 894.543 469.959 891.121 475.826Z" fill="#EFA332" stroke="white" stroke-width="30"/>
<path d="M189.08 272L189.155 272.726C191.647 302.431 194.529 335.899 197.802 373.129L197.812 373.246L197.824 373.362C201.63 410.075 205.907 448.496 210.655 488.625L210.656 488.628L224.697 607.074L224.71 607.183L224.724 607.292C229.988 646.729 235.042 684.132 239.884 719.501L239.885 719.509C244.669 754.308 249.122 785.917 253.245 814.334L253.269 814.495L253.295 814.655C254.799 823.646 256.235 833.383 257.608 842.688C258.336 847.628 259.046 852.445 259.739 856.964C260.714 863.315 261.666 869.152 262.564 873.57C263.003 875.73 263.504 877.936 264.083 879.823C264.361 880.73 264.79 882.009 265.421 883.326C265.738 883.989 266.254 884.977 267.024 886.046C267.699 886.985 269.19 888.87 271.722 890.389C275.582 892.705 279.371 892.808 281.012 892.78C282.956 892.746 284.694 892.432 285.894 892.173C288.285 891.655 290.877 890.815 292.847 890.169C293.178 890.06 293.503 889.953 293.822 889.849C298.044 888.46 301.23 887.413 303.888 887.01C311.718 885.823 317.009 885.977 323.944 886.178C327.17 886.272 330.752 886.376 335.111 886.36C347.357 886.316 359.546 885.665 371.674 884.408C384.853 883.042 396.82 879.5 406.26 872.597L412.018 868.388L412.387 861.264C413.401 841.667 412.915 822.207 410.925 802.893C409.495 783.411 407.45 763.708 404.791 743.787L404.776 743.672L404.76 743.556L404.745 743.441L404.73 743.326L404.714 743.21L404.699 743.094L404.683 742.979L404.668 742.864L404.653 742.748L404.637 742.633L404.622 742.517L404.606 742.402L404.591 742.286L404.575 742.171L404.56 742.055L404.545 741.94L404.529 741.824L404.514 741.709L404.498 741.593L404.483 741.478L404.468 741.362L404.452 741.247L404.437 741.131L404.421 741.016L404.406 740.9L404.391 740.785L404.375 740.669L404.36 740.554L404.344 740.438L404.329 740.323L404.313 740.207L404.298 740.092L404.283 739.976L404.267 739.861L404.252 739.745L404.236 739.63L404.221 739.514L404.206 739.399L404.19 739.283L404.175 739.168L404.159 739.052L404.144 738.937L404.128 738.821L404.113 738.706L404.098 738.59L404.082 738.475L404.067 738.359L404.051 738.244L404.036 738.128L404.021 738.013L404.005 737.897L403.99 737.782L403.974 737.666L403.959 737.551L403.943 737.435L403.928 737.32L403.913 737.204L403.897 737.089L403.882 736.973L403.866 736.858L403.851 736.742L403.836 736.627L403.82 736.511L403.805 736.396L403.789 736.28L403.774 736.165L403.758 736.049L403.743 735.934L403.728 735.818L403.712 735.703L403.697 735.587L403.681 735.472L403.666 735.356L403.651 735.241L403.635 735.125L403.62 735.01L403.604 734.895L403.589 734.779L403.573 734.664L403.558 734.548L403.543 734.433L403.527 734.317L403.512 734.202L403.496 734.086L403.481 733.971L403.466 733.855L403.45 733.74L403.435 733.624L403.419 733.509L403.404 733.393L403.388 733.278L403.373 733.162L403.358 733.047L403.342 732.931L403.327 732.816L403.311 732.7L403.296 732.585L403.281 732.469L403.265 732.354L403.25 732.238L403.234 732.123L403.219 732.007L403.203 731.892L403.188 731.776L403.173 731.661L403.157 731.545L403.142 731.43L403.126 731.314L403.111 731.199L403.096 731.083L403.08 730.968L403.065 730.852L403.049 730.737L403.034 730.621L403.018 730.506L403.003 730.39L402.988 730.275L402.972 730.159L402.957 730.044L402.941 729.928L402.926 729.813L402.911 729.697L402.895 729.582L402.88 729.466L402.864 729.351L402.849 729.235L402.833 729.12L402.818 729.004L402.803 728.889L402.787 728.773L402.772 728.658L402.756 728.542L402.741 728.427L402.726 728.311L402.71 728.196L402.695 728.08L402.679 727.965L402.664 727.849L402.649 727.734L402.633 727.618L402.618 727.503L402.602 727.387L402.587 727.272L402.571 727.156L402.556 727.041L402.541 726.926L402.525 726.81L402.51 726.695L402.494 726.579L402.479 726.464L402.464 726.348L402.448 726.233L402.433 726.117L402.417 726.002L402.402 725.886L402.386 725.771L402.371 725.655L402.356 725.54L402.34 725.424L402.325 725.309L402.309 725.193L402.294 725.078L402.279 724.962L402.263 724.847L402.248 724.731L402.232 724.616L402.217 724.5L402.201 724.385L402.186 724.269L402.171 724.154L402.155 724.038L402.14 723.923L402.124 723.807L402.109 723.692L402.094 723.576L402.078 723.461L402.063 723.345L402.047 723.23L402.032 723.114L402.016 722.999L402.001 722.883L401.986 722.768L401.97 722.652L401.955 722.537L401.939 722.421L401.924 722.306L401.909 722.19L401.893 722.075L401.878 721.959L401.862 721.844L401.847 721.728L401.831 721.613L401.816 721.497L401.801 721.382L401.785 721.266L401.77 721.151L401.754 721.035L401.739 720.92L401.724 720.804L401.708 720.689L401.693 720.573L401.677 720.458L401.662 720.342L401.646 720.227L401.631 720.111L401.616 719.996L401.6 719.88L401.585 719.765L401.569 719.649L401.554 719.534L401.539 719.418L401.523 719.303L401.508 719.188L401.492 719.072L401.477 718.957L401.461 718.841L401.446 718.726L401.431 718.61L401.415 718.495L401.4 718.379L401.384 718.264L401.369 718.148L401.354 718.033L401.338 717.917L401.323 717.802L401.307 717.686L401.292 717.571L401.277 717.455L401.261 717.34L401.246 717.224L401.23 717.109L401.215 716.993L401.199 716.878L401.184 716.762L401.169 716.647L401.153 716.531L401.138 716.416L401.122 716.3L401.107 716.185L401.092 716.069L401.076 715.954L401.061 715.838L401.045 715.723L401.03 715.607L401.014 715.492L400.999 715.376L400.984 715.261L400.968 715.145L400.953 715.03L400.937 714.914L400.922 714.799L400.907 714.683L400.891 714.568L400.876 714.452L400.86 714.337L400.845 714.221L400.829 714.106L400.814 713.99L400.799 713.875L400.783 713.759L400.768 713.644L400.752 713.528L400.737 713.413L400.722 713.297L400.706 713.182L400.691 713.066L400.675 712.951L400.66 712.835L400.644 712.72L400.629 712.604L400.614 712.489L400.598 712.373L400.583 712.258L400.567 712.142L400.552 712.027L400.537 711.911L400.521 711.796L400.506 711.68L400.49 711.565L400.475 711.449L400.459 711.334L400.444 711.219L400.429 711.103L400.413 710.988L400.398 710.872L400.382 710.757L400.367 710.641L400.352 710.526L400.336 710.41L400.321 710.295L400.305 710.179L400.29 710.064L400.274 709.948L400.259 709.833L400.244 709.717L400.228 709.602L400.213 709.486L400.197 709.371L400.182 709.255L400.167 709.14L400.151 709.024L400.136 708.909L400.12 708.793L400.105 708.678L400.089 708.562L400.074 708.447L400.059 708.331L400.043 708.216L400.028 708.1L400.012 707.985L399.997 707.869L399.982 707.754L399.966 707.638L399.951 707.523L399.935 707.407L399.92 707.292L399.904 707.176L399.889 707.061L399.874 706.945L399.858 706.83L399.843 706.714L399.827 706.599L399.812 706.483L399.797 706.368L399.781 706.252L399.766 706.137L399.75 706.021L399.735 705.906L399.719 705.79L399.704 705.675L399.689 705.559L399.673 705.444L399.658 705.328L399.642 705.213L399.627 705.097L399.612 704.982L399.596 704.866L399.581 704.751L399.565 704.635L399.55 704.52L399.535 704.404L399.519 704.289L399.504 704.173L399.488 704.058L399.473 703.942L399.457 703.827L399.442 703.711L399.427 703.596L399.411 703.48L399.396 703.365L399.38 703.25L399.365 703.134L399.35 703.019L399.334 702.903L399.319 702.788L399.303 702.672L399.288 702.557L399.272 702.441L399.257 702.326L399.242 702.21L399.226 702.095L399.211 701.979L399.195 701.864L399.18 701.748L399.165 701.633L399.149 701.517L399.134 701.402L399.118 701.286L399.103 701.171L399.087 701.055L399.072 700.94L399.057 700.824L399.041 700.709L399.026 700.593L399.01 700.478L398.995 700.362L398.98 700.247L398.964 700.131L398.949 700.016L398.933 699.9L398.918 699.785L398.902 699.669L398.887 699.554L398.872 699.438L398.856 699.323L398.841 699.207L398.825 699.092L398.81 698.976L398.795 698.861L398.779 698.745L398.764 698.63L398.748 698.514L398.733 698.399L398.717 698.283L398.702 698.168L398.687 698.052L398.671 697.937L398.656 697.821L398.64 697.706L398.625 697.59L398.61 697.475L398.594 697.359L398.579 697.244L398.563 697.128L398.548 697.013L398.532 696.897L398.517 696.782L398.502 696.666L398.486 696.551L398.471 696.435L398.455 696.32L398.44 696.204L398.425 696.089L398.409 695.973L398.394 695.858L398.378 695.742L398.363 695.627L398.347 695.512L398.332 695.396L398.317 695.281L398.301 695.165L398.286 695.05L398.27 694.934L398.255 694.819L398.24 694.703L398.224 694.588L398.209 694.472L398.193 694.357L398.178 694.241L398.163 694.126L398.147 694.01L398.132 693.895L398.116 693.779L398.101 693.664L398.085 693.548L398.07 693.433L398.055 693.317L398.039 693.202L398.024 693.086L398.008 692.971L397.993 692.855L397.978 692.74L397.962 692.624L397.947 692.509L397.931 692.393L397.916 692.278L397.9 692.162L397.885 692.047L397.87 691.931L397.854 691.816L397.839 691.7L397.823 691.585L397.808 691.469L397.793 691.354L397.777 691.238L397.762 691.123L397.746 691.007L397.731 690.892L397.715 690.776L397.7 690.661L397.685 690.545L397.669 690.43L397.654 690.314L397.638 690.199L397.623 690.083L397.608 689.968L397.592 689.852L397.577 689.737L397.561 689.621L397.546 689.506L397.53 689.39L397.515 689.275L397.5 689.159L397.484 689.044L397.469 688.928L397.453 688.813L397.438 688.697L397.423 688.582L397.407 688.466L397.392 688.351L397.376 688.235L397.361 688.12L397.345 688.004L397.33 687.889L397.315 687.773L397.299 687.658L397.284 687.543L397.268 687.427L397.253 687.312L397.238 687.196L397.222 687.081L397.207 686.965L397.191 686.85L397.176 686.734L397.16 686.619L397.145 686.503L397.13 686.388L397.114 686.272L397.099 686.157L397.083 686.041L397.068 685.926L397.053 685.81L397.037 685.695L397.022 685.579L397.006 685.464L396.991 685.348L396.975 685.233L396.96 685.117L396.945 685.002L396.929 684.886L396.928 684.875C395.305 669.17 394.224 653.205 393.687 636.98C405.673 633.419 417.745 631.014 429.913 629.753C442.521 628.446 455.227 627.995 468.035 628.401C471.157 643.178 473.787 658.607 475.921 674.693C478.593 694.844 480.977 715.024 483.072 735.235L483.094 735.448L483.122 735.66C485.813 755.948 488.534 776.527 491.285 797.397L491.313 797.615L491.349 797.832C494.692 818.502 498.871 838.52 503.89 857.882L507.127 870.367L519.956 869.037L520.829 868.947L521.449 868.883L522.063 868.767C528.444 867.563 536.409 866.45 546.034 865.453L561.734 863.825L577.435 862.198C588.734 861.026 600.002 859.558 611.239 857.793C623.328 855.925 634.582 853.524 644.971 850.559L657.554 846.969L655.705 834.014L568.862 225.879L566.953 212.514L553.462 213.01C544.384 213.344 534.264 214.092 523.127 215.24C512.015 215.794 500.759 217.276 489.368 219.662C477.983 221.466 466.923 223.84 456.192 226.791L456.123 226.81L456.055 226.83C445.879 229.734 436.922 232.877 429.323 236.317L419.035 240.973L420.666 252.148C426.716 293.602 431.239 331.627 434.244 366.236L434.255 366.361L434.268 366.485C437.454 397.224 439.488 430.24 440.359 465.543C429.265 467.675 417.572 470.028 405.28 472.6C393.267 474.671 381.955 475.343 371.306 474.697C362.272 442.266 356.021 409.315 352.55 375.837C348.561 337.351 341.791 298.021 332.259 257.853L329.983 248.262L320.276 246.545C310.393 244.798 300.143 244.525 289.588 245.619C279.974 246.616 270.118 247.941 260.021 249.592L259.994 249.597L259.967 249.601C250.742 251.144 241.226 252.717 231.417 254.32L231.39 254.325L231.363 254.329C223.341 255.671 215.574 255.961 208.026 255.249L206.548 255.109L205.07 255.262L202.453 255.533L187.533 257.08L189.08 272Z" fill="#EFA332" stroke="white" stroke-width="30"/>
</svg>
