<svg width="1337" height="908" viewBox="0 0 1337 908" fill="none" xmlns="http://www.w3.org/2000/svg">
<path fill-rule="evenodd" clip-rule="evenodd" d="M950.319 87.2215C674.025 -71.3618 397.44 44.2071 284.414 106.685C276.766 130.476 272.81 165.847 280.557 200.428C289.808 241.723 315.247 280.471 371.008 297.615C380.725 300.602 387.022 309.987 386.101 320.112C385.048 331.695 387.347 354.896 394.427 380.909C401.464 406.762 412.369 432.183 426.318 449.363C439.938 466.137 453.768 472.328 469.209 469.104C487.186 465.35 514.078 447.808 549.197 398.665C553.208 393.053 559.667 389.706 566.564 389.666C573.462 389.625 579.96 392.897 584.035 398.462C588.412 404.437 595.77 410.899 604.649 415.424C613.508 419.94 622.404 421.798 630.066 420.787C637.106 419.859 644.789 416.335 652.084 406.622C658.816 397.657 665.459 383.011 669.74 359.917C651.975 340.667 633.355 313.346 625.499 282.895C620.894 265.044 619.84 245.482 625.54 225.855C631.287 206.062 643.472 187.711 662.902 171.846C699 142.372 743.471 147.78 779.717 161.011C812.331 172.916 843.192 192.784 865.462 208.604C931.296 193.36 952.812 171.031 959.845 155.348C967.6 138.055 962.31 120.124 957.077 104.22C955.142 98.3389 952.886 92.6743 950.319 87.2215ZM1003.82 111.169C991.414 22.8924 1087.74 -63.4809 1188.19 65.6653C1272.19 173.665 1268.86 290.665 1256.69 335.665C1290.52 366.499 1345.99 459.665 1297.19 585.665C1341.19 609.165 1372.19 761.165 1256.69 814.665C1141.19 868.165 1058.19 880.665 826.69 856.165C809.558 858.948 788.63 864.937 764.421 871.866C649.439 904.772 460.447 958.859 252.69 791.165C24.4005 606.9 99.573 356.453 105.657 336.184C106.117 334.65 106.182 334.434 105.69 335.665C5.68961 360.165 -18.8104 220.165 13.1896 148.165C45.1896 76.1653 90.6896 53.6651 140.69 53.6651C190.457 53.6651 233.289 73.9748 234.673 136.288C232.231 159.433 233.006 184.871 238.597 209.828C249.731 259.526 280.401 308.57 343.036 333.345C343.819 350.396 347.258 371.341 352.937 392.202C360.759 420.944 373.698 452.772 392.936 476.467C412.504 500.568 441.205 518.878 477.998 511.196C507.546 505.026 537.68 482.776 569.071 443.661C574.059 447.442 579.456 450.847 585.121 453.734C599.59 461.109 617.288 465.845 635.689 463.418C654.711 460.909 672.559 450.964 686.468 432.443C696.805 418.677 704.682 400.602 709.908 377.937C739.95 401.638 774.158 420.832 805.391 431.377C813.24 434.027 821.752 429.813 824.401 421.964C827.051 414.115 822.837 405.603 814.988 402.953C775.355 389.573 729.134 359.847 696.558 325.355C683.844 310.372 672.103 291.405 667.136 272.153C664.018 260.068 663.729 248.538 666.833 237.846C669.89 227.32 676.658 216.128 690.098 205.154C708.5 190.128 733.874 190.052 764.973 201.404C766.089 201.812 767.205 202.231 768.321 202.663C774.064 205.176 779.88 208.053 785.735 211.259C833.338 237.327 878.483 282.37 900.266 314.57C904.907 321.432 914.233 323.231 921.094 318.59C927.956 313.948 929.756 304.622 925.114 297.761C914.97 282.765 900.547 265.549 883.377 248.504C949.437 231.799 984.565 205.31 999.08 172.943C1007.04 155.199 1007.73 137.703 1005.88 122.946C1005.99 123.019 1006.09 123.092 1006.19 123.165C1005.97 122.306 1005.76 121.445 1005.56 120.585C1005.08 117.287 1004.48 114.138 1003.82 111.169ZM1246.85 645.431C1255.54 649.661 1259.15 660.136 1254.92 668.825L1236.42 706.825C1232.52 714.851 1223.2 718.649 1214.79 715.642L1167.29 698.642C1158.19 695.385 1153.46 685.368 1156.71 676.268C1159.97 667.169 1169.99 662.432 1179.09 665.689L1211.82 677.404L1223.46 653.505C1227.69 644.815 1238.16 641.2 1246.85 645.431ZM1102 680C1102 712.033 1080.29 738 1053.5 738C1026.71 738 1005 712.033 1005 680C1005 647.967 1026.71 622 1053.5 622C1080.29 622 1102 647.967 1102 680Z" fill="#EFA332"/>
</svg>
