<svg width="39" height="26" viewBox="0 0 39 26" fill="none" xmlns="http://www.w3.org/2000/svg">
<path fill-rule="evenodd" clip-rule="evenodd" d="M27.2394 2.50007C19.3198 -2.04547 11.392 1.26713 8.15226 3.05795C7.93305 3.73988 7.81966 4.75374 8.04172 5.74494C8.30689 6.92859 9.03604 8.03924 10.6343 8.53064C10.9129 8.61628 11.0934 8.88529 11.067 9.17549C11.0368 9.50752 11.1027 10.1725 11.3056 10.9182C11.5073 11.6592 11.8199 12.3878 12.2197 12.8803C12.6101 13.3611 13.0065 13.5385 13.4491 13.4461C13.9644 13.3385 14.7352 12.8357 15.7419 11.4271C15.8568 11.2662 16.042 11.1703 16.2397 11.1691C16.4374 11.168 16.6236 11.2618 16.7404 11.4213C16.8659 11.5925 17.0768 11.7777 17.3313 11.9075C17.5852 12.0369 17.8402 12.0902 18.0598 12.0612C18.2616 12.0346 18.4818 11.9336 18.6909 11.6552C18.8839 11.3982 19.0743 10.9784 19.197 10.3164C18.6878 9.76466 18.1541 8.98156 17.9289 8.10873C17.7969 7.59706 17.7667 7.03634 17.9301 6.47376C18.0948 5.90644 18.4441 5.38043 19.001 4.9257C20.0357 4.08086 21.3104 4.23588 22.3493 4.61512C23.2842 4.95636 24.1687 5.52585 24.8071 5.97929C26.6941 5.54234 27.3108 4.90232 27.5124 4.45281C27.7347 3.95713 27.5831 3.44316 27.4331 2.98728C27.3776 2.81873 27.3129 2.65636 27.2394 2.50007ZM28.7729 3.18651C28.4173 0.656185 31.1784 -1.81959 34.0575 1.88219C36.4653 4.97783 36.3697 8.33145 36.021 9.6213C36.9908 10.5051 38.5806 13.1756 37.1818 16.7871C38.443 17.4607 39.3316 21.8176 36.021 23.3511C32.7104 24.8846 30.3313 25.2428 23.6957 24.5406C23.2047 24.6204 22.6048 24.792 21.9109 24.9906C18.6151 25.9338 13.198 27.4841 7.24294 22.6775C0.6994 17.3958 2.8541 10.2172 3.02849 9.63616C3.04168 9.59219 3.04354 9.58601 3.02942 9.6213C0.163083 10.3236 -0.53917 6.31068 0.378059 4.24692C1.29529 2.18315 2.59947 1.53822 4.03264 1.53822C5.45914 1.53822 6.68685 2.12037 6.72652 3.90648C6.65653 4.56989 6.67875 5.29903 6.839 6.01438C7.15813 7.4389 8.03724 8.84466 9.83257 9.5548C9.85503 10.0435 9.9536 10.6439 10.1164 11.2418C10.3406 12.0657 10.7114 12.978 11.2629 13.6572C11.8238 14.348 12.6464 14.8728 13.701 14.6526C14.548 14.4758 15.4117 13.838 16.3115 12.7168C16.4545 12.8252 16.6092 12.9228 16.7716 13.0056C17.1863 13.217 17.6936 13.3527 18.221 13.2831C18.7662 13.2112 19.2778 12.9262 19.6765 12.3953C19.9728 12.0007 20.1986 11.4826 20.3484 10.8329C21.2095 11.5123 22.19 12.0625 23.0852 12.3647C23.3102 12.4407 23.5542 12.3199 23.6301 12.0949C23.7061 11.8699 23.5853 11.626 23.3603 11.55C22.2243 11.1665 20.8994 10.3144 19.9657 9.32577C19.6013 8.89631 19.2647 8.35266 19.1224 7.80083C19.033 7.45443 19.0247 7.12393 19.1137 6.81748C19.2013 6.51577 19.3953 6.19495 19.7805 5.8804C20.308 5.44971 21.0353 5.44754 21.9267 5.77292C21.9587 5.78461 21.9907 5.79664 22.0227 5.809C22.1873 5.88105 22.354 5.9635 22.5218 6.05541C23.8863 6.80261 25.1803 8.09368 25.8047 9.01664C25.9377 9.21332 26.205 9.26491 26.4017 9.13186C26.5984 8.99881 26.6499 8.73151 26.5169 8.53483C26.2261 8.10501 25.8127 7.61153 25.3206 7.12298C27.2141 6.64414 28.221 5.88489 28.637 4.95713C28.8651 4.44852 28.8849 3.94703 28.832 3.52405C28.8349 3.52615 28.8379 3.52824 28.8408 3.53033C28.8345 3.50569 28.8285 3.48103 28.8228 3.45634C28.8091 3.36183 28.7919 3.2716 28.7729 3.18651ZM35.7389 18.5002C35.988 18.6215 36.0916 18.9217 35.9704 19.1708L35.4401 20.26C35.3281 20.49 35.0609 20.5989 34.8201 20.5127L33.4586 20.0254C33.1977 19.9321 33.062 19.645 33.1553 19.3841C33.2487 19.1233 33.5358 18.9875 33.7966 19.0809L34.7349 19.4167L35.0684 18.7317C35.1896 18.4826 35.4898 18.379 35.7389 18.5002ZM31.587 19.4911C31.587 20.4093 30.9646 21.1536 30.1969 21.1536C29.4291 21.1536 28.8067 20.4093 28.8067 19.4911C28.8067 18.5729 29.4291 17.8286 30.1969 17.8286C30.9646 17.8286 31.587 18.5729 31.587 19.4911Z" fill="#EFA332"/>
</svg>
