<svg width="131" height="217" viewBox="0 0 131 217" fill="none" xmlns="http://www.w3.org/2000/svg">
<g clip-path="url(#clip0_35_11)">
<path d="M103.11 216.25C102.5 216.25 101.9 216.23 101.29 216.2C99.4401 216.16 97.6101 215.93 95.8501 215.5L95.7501 215.48C93.9501 215.03 92.2301 214.34 90.6301 213.43L90.5201 213.37C87.6501 211.69 85.4801 209.54 84.0701 206.97C82.8401 204.73 82.0001 202.08 81.5501 199.09L81.5401 199.03C81.4401 198.32 81.3501 197.43 81.2501 196.31L81.2301 195.98C81.2001 194.83 81.2001 193.68 81.2301 192.55L81.2401 192.26C81.2901 190.61 81.3501 189.09 81.4201 187.74C81.4901 186.37 81.5501 185.03 81.6101 183.72L81.6301 183.46C81.7501 182.09 81.8701 180.67 82.0101 179.18L82.0301 178.98C82.2301 177.42 82.4801 175.62 82.7801 173.64L82.7901 173.56C83.0601 171.87 83.3601 170.12 83.6901 168.36C84.0501 166.43 84.4901 164.53 85.0101 162.72C85.5901 160.65 86.4001 158.64 87.4201 156.75L87.5201 156.56C88.9001 154.16 90.8601 152.26 93.3501 150.9C95.0701 149.81 96.9501 149.07 98.9501 148.7C100.61 148.39 102.33 148.21 104.07 148.17H104.18C104.2 148.17 104.22 148.17 104.24 148.17C107.77 148.17 111.13 148.73 114.25 149.83C117.58 150.95 120.43 152.65 122.73 154.88C125.18 157.25 126.88 160.22 127.79 163.7C128.68 167.04 128.64 170.8 127.65 174.86L127.57 175.15L127.09 176.76L126.3 177.68C125.79 178.28 125.17 178.75 124.49 179.11L126.63 181.87L126.61 183.84C126.57 186.81 126.4 189.98 126.1 193.27C125.79 196.69 125.15 199.98 124.19 203.06C123.29 206.85 121.58 209.79 119.08 211.81C116.88 213.59 114.28 214.84 111.37 215.52L111.15 215.57L110.92 215.6C109.44 215.82 107.89 215.98 106.31 216.08C105.26 216.2 104.19 216.25 103.11 216.25ZM97.9001 207.14C99.0601 207.42 100.28 207.57 101.53 207.59L101.67 207.6C102.98 207.67 104.3 207.64 105.59 207.52L105.74 207.51C107.04 207.43 108.32 207.3 109.54 207.13C111.15 206.74 112.5 206.09 113.67 205.14C114.67 204.33 115.4 202.94 115.84 200.99L115.88 200.82L115.93 200.65C116.73 198.11 117.27 195.37 117.53 192.5C117.73 190.32 117.87 188.21 117.94 186.19C117.7 186.14 117.43 186.09 117.14 186.03L116.98 186C115.62 185.68 114.1 185.39 112.47 185.13C110.86 184.88 109.29 184.7 107.82 184.62L107.69 184.61C107.49 184.59 107.31 184.58 107.15 184.57C107.14 184.69 107.12 184.81 107.11 184.92C107.03 185.59 106.92 186.26 106.78 186.92L106.63 188.13C107.22 188.16 107.78 188.2 108.3 188.26C108.32 188.26 108.35 188.26 108.37 188.26L112.95 188.48L112.44 193.04C112.4 193.36 112.35 193.69 112.28 194.03C112.19 194.65 112.05 195.27 111.86 195.88C111.74 196.37 111.63 196.75 111.52 197.05L111.43 197.28C110.97 198.34 110.36 199.22 109.59 199.92L109.45 200.05L109.3 200.16C108.6 200.7 107.8 201.11 106.92 201.4L106.71 201.47L106.5 201.52C105.61 201.71 104.63 201.84 103.59 201.89C102.46 201.96 101.36 201.86 100.32 201.59L100.12 201.54L99.9201 201.47C98.9501 201.12 98.1201 200.66 97.4501 200.11L97.2501 199.95L97.0701 199.77C95.7501 198.38 94.9701 196.65 94.7601 194.61C94.6001 193.08 94.5501 191.65 94.5901 190.36V190.32C94.6801 188.32 94.8301 186.18 95.0601 183.98C95.2801 181.76 95.5801 179.59 95.9501 177.54L95.9801 177.35C96.3401 175.34 96.7401 173.43 97.1701 171.68L97.2001 171.56C97.7101 169.72 98.2601 168.11 98.8201 166.8C98.9601 166.44 99.1201 166.08 99.3001 165.72V164.79L100.52 163.83L101.71 162.24L103.1 162.46C103.83 162.27 104.59 162.22 105.36 162.32C106.23 162.43 107.13 162.57 108.04 162.74C109.48 162.95 110.75 163.63 111.7 164.72C112.38 165.45 112.96 166.31 113.42 167.28C113.91 168.17 114.27 169.15 114.49 170.18C114.51 170.27 114.54 170.35 114.56 170.44C114.62 170.45 114.68 170.47 114.74 170.48C115.22 170.59 115.68 170.67 116.12 170.72L117.64 170.91C118.23 170.94 118.9 170.99 119.63 171.08C119.92 169.16 119.86 167.44 119.47 165.96L119.46 165.93C118.95 163.96 118.05 162.39 116.73 161.1C115.35 159.76 113.58 158.73 111.47 158.02L111.4 157.99C109.2 157.21 106.79 156.81 104.24 156.81H104.23C102.97 156.84 101.72 156.97 100.54 157.19C99.5701 157.37 98.7001 157.72 97.8701 158.26L97.7101 158.36L97.5401 158.45C96.4201 159.04 95.5901 159.82 95.0001 160.85C94.2801 162.19 93.7101 163.62 93.2901 165.09L93.2801 165.11C92.8401 166.66 92.4601 168.29 92.1501 169.96C91.8301 171.66 91.5401 173.34 91.2901 174.97V175C91.0101 176.87 90.7701 178.56 90.5801 180.03C90.4501 181.46 90.3301 182.84 90.2201 184.17C90.1601 185.48 90.1001 186.82 90.0301 188.18C89.9701 189.53 89.9101 191.07 89.8501 192.75V192.78C89.8301 193.74 89.8301 194.72 89.8501 195.69C89.9301 196.61 90.0001 197.35 90.0801 197.87V197.88C90.3701 199.85 90.9001 201.53 91.6301 202.87C92.2701 204.03 93.3401 205.07 94.8201 205.94L94.8401 205.95C95.7901 206.49 96.8101 206.9 97.8701 207.16L97.9001 207.14ZM105.52 173.79C105.34 174.52 105.17 175.27 105 176.06C105.59 175.98 106.22 175.95 106.89 175.96L106.52 173.78C106.48 173.55 106.39 173.13 106.19 172.42L106.13 172.2L106.08 171.97C106.08 171.96 106.08 171.95 106.07 171.93C105.9 172.5 105.71 173.12 105.52 173.79Z" fill="white"/>
<path d="M63.1401 217C61.3701 217 59.5801 216.94 57.7801 216.81L57.3801 216.78C55.4801 216.65 53.6801 216.55 52.0101 216.51H51.1401C50.1501 216.51 49.1701 216.32 48.2401 215.95L44.8201 214.58L44.6901 210.9C44.3701 201.69 44.2901 192.43 44.4501 183.38C44.6101 174.44 44.6101 165.29 44.4501 156.19L44.4101 153.79L47.2401 150.95L48.6801 150.55C51.0301 149.9 53.5501 149.4 56.1601 149.05C58.8601 148.69 61.5701 148.57 64.2101 148.69C66.9401 148.81 69.5901 149.23 72.0901 149.92C74.9901 150.7 77.5901 152.01 79.8201 153.8C82.1501 155.62 83.9901 157.99 85.3101 160.85C86.6101 163.61 87.2601 166.92 87.2601 170.7C87.2601 173.57 86.7501 176.41 85.7401 179.13C85.2501 180.54 84.6901 181.9 84.0701 183.2C84.4101 183.66 84.7401 184.11 85.0501 184.56C86.0401 185.84 86.8901 187.23 87.5701 188.7C88.4001 190.32 88.9601 192.12 89.2601 194.05C89.5601 196.04 89.5001 198.21 89.0801 200.51C88.5001 203.87 87.3201 206.75 85.5601 209.05C83.8801 211.27 81.7801 213.02 79.3201 214.26C77.1101 215.37 74.6601 216.13 72.0301 216.54L71.8901 216.56C69.6301 216.85 67.2501 217 64.8301 217C64.2701 216.99 63.7101 217 63.1401 217ZM58.5301 208.23C60.6001 208.37 62.6701 208.42 64.6701 208.37H64.7701C66.8301 208.37 68.8401 208.25 70.7501 208C72.4801 207.73 74.0701 207.24 75.4701 206.54C76.7601 205.89 77.8201 205.01 78.7101 203.83L78.7201 203.82C79.6301 202.63 80.2701 201.01 80.6101 199.01L80.6201 198.94C80.8701 197.59 80.9201 196.37 80.7601 195.33C80.6001 194.29 80.3101 193.35 79.8801 192.54L79.7901 192.35C79.3701 191.42 78.8401 190.55 78.2101 189.75L78.0701 189.56C77.3801 188.58 76.6301 187.57 75.8401 186.58C75.7301 186.45 75.6301 186.32 75.5301 186.19L73.8201 183.91L75.2501 181.45C76.1701 179.86 76.9701 178.1 77.6301 176.22L77.6601 176.14C78.3201 174.37 78.6601 172.53 78.6601 170.67C78.6601 168.16 78.2801 166.07 77.5201 164.47L77.5001 164.43C76.7501 162.79 75.7701 161.52 74.5001 160.54L74.4401 160.49C73.1401 159.44 71.5901 158.66 69.8401 158.19L69.8201 158.18C67.9301 157.66 65.9101 157.35 63.8201 157.25C61.6801 157.15 59.4901 157.25 57.3001 157.54C55.8501 157.73 54.4401 157.98 53.0901 158.28C53.2101 166.72 53.2001 175.19 53.0501 183.48C52.9101 191.52 52.9601 199.72 53.2001 207.9C54.8401 207.96 56.5801 208.06 58.3901 208.19L58.5301 208.23ZM63.9501 202.92L63.8101 202.91C63.3201 202.88 62.8201 202.86 62.3501 202.85L59.6201 202.79L58.5101 200.29C58.1901 199.58 57.9601 198.78 57.8201 197.92C57.6401 196.83 57.5501 195.69 57.5401 194.54V194.43L57.5501 194.32C57.6101 193.18 57.7301 192.05 57.9001 190.95C57.9901 190.38 58.0901 189.82 58.2001 189.29L58.9801 185.56L62.7701 185.88C63.3501 185.93 63.9401 185.97 64.5301 186C65.7901 186.01 67.0501 186.17 68.2501 186.48C69.3501 186.74 70.3901 187.27 71.3501 188.06C72.2901 188.78 73.0201 189.64 73.5301 190.62L73.6301 190.81L73.7101 191.01C74.1901 192.22 74.4401 193.56 74.4501 194.99C74.5201 196.72 74.0801 198.26 73.1501 199.57L73.0401 199.72L72.9201 199.86C72.1201 200.81 71.1401 201.53 70.0201 202.02L69.8301 202.1C68.9501 202.44 67.9801 202.67 66.9401 202.81L66.6701 202.84C65.8501 202.89 64.9901 202.92 64.1101 202.92H63.9501ZM64.8501 180.87C64.5001 180.87 64.1501 180.86 63.7901 180.84C63.2101 180.81 62.6501 180.76 62.1001 180.71L58.9301 180.39L58.3101 177.27C57.9601 175.5 57.8601 173.74 58.0101 172.03L58.0201 171.9C58.1601 170.73 58.2201 169.7 58.2001 168.83L58.1301 165.36L61.5101 164.56C62.3001 164.37 63.1701 164.3 64.0901 164.33C65.4501 164.33 66.7601 164.46 67.9701 164.7L68.2001 164.75C69.3601 165.05 70.4001 165.53 71.3101 166.19C72.4101 166.9 73.3001 167.92 73.9401 169.21C74.7001 170.74 74.8401 172.37 74.3501 173.94C74.0301 174.97 73.6301 175.91 73.1601 176.72C72.4801 177.97 71.5301 178.96 70.3501 179.65L70.2201 179.72C69.2201 180.25 68.1101 180.6 66.9201 180.75C66.2601 180.83 65.5601 180.87 64.8501 180.87Z" fill="white"/>
<path d="M14.3501 216.64C13.2801 216.64 12.2301 216.35 11.3201 215.81C10.6501 215.41 10.0801 214.88 9.62008 214.24C9.42008 213.96 9.24008 213.66 9.09008 213.34C8.95008 213.05 8.84008 212.76 8.74008 212.43C8.65008 212.14 8.58008 211.83 8.50008 211.46C8.41008 211.04 8.33008 210.51 8.21008 209.75C8.15008 209.33 8.08008 208.89 8.01008 208.44C7.89008 207.61 7.76008 206.75 7.63008 205.98L7.61008 205.86C7.24008 203.29 6.83008 200.39 6.40008 197.24V197.21C5.97008 194.05 5.51008 190.64 5.03008 187.06L5.02008 186.98L3.75008 176.26C3.32008 172.62 2.93008 169.09 2.58008 165.76L2.57008 165.67C2.28008 162.32 2.01008 159.27 1.79008 156.61L1.21008 150.96L7.60008 150.29L8.19008 150.35C8.50008 150.38 8.82008 150.37 9.16008 150.31L9.19008 150.3C10.0701 150.16 10.9201 150.02 11.7401 149.88L11.7701 149.87C12.5901 149.74 13.5701 149.58 14.5901 149.48C14.6801 149.46 14.8501 149.41 14.9801 149.37C15.7701 149.13 17.1001 148.72 18.6601 148.99L19.8501 149.2L22.1701 151.25L22.1001 150.76L25.9701 149C26.8401 148.61 27.8201 148.25 28.9801 147.92L29.0301 147.91C30.1201 147.61 31.2501 147.36 32.4001 147.18C33.5701 146.94 34.7501 146.78 35.8901 146.72C36.9501 146.61 37.9301 146.54 38.8001 146.51L43.8901 146.32L53.1401 211.3L48.4001 212.66C47.3001 212.97 46.1001 213.23 44.8301 213.43C43.7601 213.6 42.6601 213.74 41.5601 213.86L38.7301 214.15C37.9901 214.23 37.3901 214.31 36.9201 214.4L36.6801 214.45L35.2101 214.6L31.5301 214.98L30.4601 210.84L30.3801 212.4L28.2101 213.99C26.8001 215.02 25.0401 215.66 22.9901 215.87C21.7601 216 20.5001 216.07 19.2601 216.07C18.7901 216.07 18.4001 216.06 18.1101 216.05C17.6301 216.04 17.4301 216.03 17.1901 216.06C17.1001 216.09 16.9701 216.13 16.8701 216.16L16.7801 216.19C16.5601 216.26 16.1601 216.39 15.7101 216.49C15.2701 216.58 14.8501 216.63 14.4301 216.64C14.4201 216.64 14.3801 216.64 14.3501 216.64ZM16.1201 204.59C16.2601 205.44 16.3901 206.32 16.5201 207.18C16.5301 207.28 16.5501 207.37 16.5601 207.47C17.2801 207.41 17.8501 207.42 18.3801 207.44C18.6301 207.45 18.9101 207.46 19.2401 207.45C20.1501 207.45 21.0701 207.4 21.9701 207.31C21.9601 206.41 21.9101 205.52 21.8201 204.64L21.8101 204.51C21.6901 202.84 21.5101 201.12 21.2801 199.41L20.5601 193.95C20.4001 192.43 20.3001 190.87 20.2501 189.31L20.1401 185.99L23.3201 185.04C24.6501 184.64 26.0101 184.37 27.3701 184.23C28.7001 184.09 30.0501 184.04 31.3901 184.09L34.7701 184.2L35.4701 187.51C35.7701 188.95 36.0301 190.47 36.2401 192.03C36.4801 193.87 36.7001 195.75 36.9001 197.59C37.1401 199.39 37.3801 201.23 37.6301 203.1C37.7601 203.93 37.9201 204.75 38.0801 205.56L40.7001 205.29C41.6401 205.19 42.5901 205.07 43.5301 204.92C43.5401 204.92 43.5501 204.92 43.5701 204.91L36.5101 155.3H36.4701C35.7001 155.34 34.9001 155.44 34.0901 155.61L33.8801 155.65C33.1001 155.77 32.3301 155.93 31.6001 156.13C31.9901 159.03 32.3001 161.76 32.5101 164.27C32.8101 167.15 33.0001 170.27 33.0801 173.55L33.1701 177.19L29.5901 177.88C28.6201 178.07 27.5801 178.28 26.4901 178.5L26.3401 178.53C24.9401 178.77 23.5801 178.85 22.2801 178.77L19.2201 178.58L18.4001 175.62C17.5201 172.47 16.9101 169.22 16.5701 165.96C16.3001 163.38 15.8801 160.72 15.3201 158.03C14.5801 158.11 13.8301 158.23 13.1901 158.34L13.1601 158.35C12.3401 158.49 11.5001 158.63 10.6301 158.77C10.7901 160.66 10.9701 162.71 11.1601 164.88C11.5001 168.16 11.8901 171.64 12.3101 175.23L13.5701 185.93C14.0401 189.5 14.5001 192.9 14.9301 196.05C15.3501 199.18 15.7601 202.05 16.1201 204.59Z" fill="white"/>
<path d="M122.09 182.96L121.75 182.52L121.19 182.45L121.03 182.43C120.56 182.37 119.6 182.2 118.1 181.91C116.62 181.56 115.01 181.25 113.27 180.98C111.52 180.71 109.83 180.52 108.2 180.42C106.66 180.28 105.27 180.35 104.22 180.8C104.04 180.84 103.84 180.92 103.65 181.07C103.25 181.38 103.14 181.79 103.11 182.03L103.1 182.11L103.09 182.18V182.25C103.08 183.18 103.03 183.92 102.96 184.48C102.89 185.07 102.79 185.66 102.66 186.25L102.65 186.31L102.64 186.37L102.41 188.18L102.4 188.24V188.3C102.37 188.96 102.36 189.72 102.36 190.59V191.39L103.06 191.78C103.46 192 103.96 192.16 104.47 192.29L104.54 192.31L104.61 192.32L106.26 192.53L106.32 192.54H106.38C106.98 192.57 107.53 192.61 108.01 192.67L108.07 192.68H108.13C108.18 192.68 108.23 192.68 108.27 192.69C108.25 192.89 108.21 193.11 108.15 193.35L108.13 193.42L108.12 193.49C108.07 193.93 107.97 194.36 107.82 194.79L107.8 194.85L107.79 194.91C107.69 195.35 107.61 195.6 107.57 195.72C107.34 196.25 107.07 196.62 106.79 196.88C106.48 197.12 106.11 197.31 105.68 197.45C105.01 197.59 104.27 197.69 103.45 197.73H103.44H103.43C102.73 197.77 102.07 197.71 101.47 197.56C100.92 197.36 100.54 197.15 100.28 196.93C99.65 196.27 99.25 195.42 99.14 194.31C99 192.96 98.95 191.73 98.99 190.64C99.07 188.71 99.22 186.67 99.44 184.54C99.65 182.41 99.94 180.38 100.28 178.43C100.64 176.43 101.02 174.57 101.45 172.85C101.92 171.15 102.41 169.73 102.9 168.59L102.91 168.57L102.92 168.55C103.05 168.2 103.21 167.86 103.39 167.51C103.5 167.32 103.59 167.19 103.65 167.1C103.66 167.08 103.67 167.07 103.68 167.06C104.1 166.75 104.5 166.66 104.93 166.72C105.74 166.82 106.57 166.95 107.43 167.11L107.47 167.12H107.51C107.96 167.18 108.3 167.36 108.59 167.7L108.61 167.73L108.63 167.76C109.04 168.19 109.38 168.7 109.65 169.31L109.68 169.37L109.71 169.42C110.03 169.98 110.26 170.59 110.39 171.28L110.4 171.34L110.42 171.39C110.63 172.14 110.78 172.74 110.86 173.22L111 174.08L111.85 174.3C112.63 174.51 113.32 174.68 113.92 174.81C114.53 174.94 115.11 175.05 115.68 175.12L117.33 175.33L117.39 175.34H117.45C117.98 175.36 118.62 175.41 119.38 175.51L119.42 175.52H119.46C120.3 175.57 120.87 175.62 121.19 175.66C121.61 175.71 122.51 175.76 123.12 175.05L123.31 174.83L123.39 174.55L123.53 174.09L123.54 174.06L123.55 174.03C124.36 170.72 124.44 167.69 123.71 164.98C123.01 162.28 121.71 159.99 119.81 158.15C117.94 156.34 115.63 154.99 112.92 154.08C110.22 153.12 107.33 152.65 104.27 152.65H104.26H104.25C102.74 152.68 101.26 152.83 99.83 153.1C98.31 153.38 96.91 153.95 95.61 154.79C93.77 155.76 92.33 157.13 91.32 158.89L91.31 158.91L91.3 158.93C90.42 160.57 89.73 162.28 89.22 164.07C88.74 165.76 88.33 167.51 87.99 169.32C87.67 171.05 87.37 172.76 87.11 174.45V174.46C86.81 176.41 86.57 178.15 86.38 179.68V179.7V179.72C86.25 181.2 86.12 182.62 86 184V184.03V184.06C85.94 185.38 85.88 186.74 85.81 188.11C85.74 189.5 85.68 191.04 85.63 192.75C85.6 193.84 85.6 194.92 85.63 196.02V196.06V196.1C85.72 197.13 85.8 197.98 85.89 198.61C86.25 201.07 86.92 203.23 87.92 205.06C88.97 206.98 90.61 208.55 92.76 209.81C94.06 210.56 95.4501 211.11 96.9101 211.47H96.92C98.41 211.83 99.94 212.02 101.51 212.05C103.04 212.13 104.56 212.1 106.06 211.96C107.54 211.87 108.97 211.73 110.36 211.52L110.41 211.51L110.46 211.5C112.73 210.97 114.73 210.02 116.44 208.64C118.28 207.15 119.46 204.91 120.1 202.1C121 199.25 121.59 196.23 121.88 193.05C122.17 189.85 122.34 186.83 122.37 183.96L122.38 183.49L122.09 183.12V182.96Z" fill="#EFA332"/>
<path d="M64.1601 153.06C61.7601 152.95 59.33 153.06 56.87 153.39C54.44 153.71 52.14 154.18 49.96 154.78L49.61 154.88L49.36 155.13L49.28 155.21L48.87 155.62L48.88 156.19C49.04 165.38 49.04 174.5 48.88 183.53C48.72 192.55 48.8 201.65 49.12 210.83L49.15 211.71L49.97 212.04C50.38 212.21 50.82 212.3 51.27 212.3C53.14 212.35 55.15 212.46 57.28 212.61C59.53 212.77 61.76 212.83 63.96 212.77C66.22 212.77 68.41 212.63 70.53 212.36H70.5501H70.57C72.75 212.02 74.76 211.4 76.59 210.49C78.47 209.55 80.05 208.22 81.34 206.53C82.71 204.73 83.6001 202.48 84.0501 199.84C84.3901 198.03 84.45 196.35 84.21 194.79C83.98 193.3 83.5501 191.92 82.9001 190.67C82.3301 189.43 81.63 188.27 80.79 187.2C80.04 186.13 79.24 185.06 78.39 183.99L78.38 183.98L78.3701 183.97C78.2901 183.88 78.23 183.8 78.18 183.73C79.25 181.89 80.1501 179.9 80.9001 177.76C81.7401 175.5 82.17 173.17 82.17 170.79C82.17 167.69 81.6801 165 80.6201 162.76C79.5901 160.52 78.17 158.68 76.36 157.27C74.57 155.83 72.5 154.79 70.18 154.17C68.89 153.53 66.5801 153.17 64.1601 153.06ZM70.26 195.14V195.17V195.2C70.3 196.03 70.11 196.65 69.75 197.16C69.37 197.61 68.9201 197.94 68.4101 198.17C67.8601 198.38 67.22 198.54 66.5 198.63C65.77 198.68 65.01 198.7 64.22 198.7C63.66 198.66 63.11 198.64 62.57 198.63C62.41 198.27 62.28 197.83 62.19 197.3C62.05 196.43 61.97 195.54 61.97 194.62C62.02 193.62 62.12 192.65 62.27 191.7C62.35 191.18 62.44 190.7 62.53 190.25C63.18 190.3 63.83 190.35 64.5 190.38H64.53H64.56C65.5 190.38 66.4101 190.5 67.3001 190.73L67.32 190.74H67.34C67.79 190.84 68.26 191.08 68.76 191.49L68.79 191.51L68.82 191.53C69.29 191.88 69.61 192.27 69.83 192.68C70.11 193.39 70.26 194.2 70.26 195.14ZM69.58 174.69L69.57 174.71L69.56 174.73C69.25 175.31 68.85 175.72 68.36 176.01C67.84 176.29 67.24 176.48 66.56 176.56C65.8 176.65 65.01 176.68 64.2 176.63C63.68 176.6 63.18 176.56 62.7 176.51C62.42 175.12 62.35 173.78 62.46 172.49C62.62 171.14 62.7 169.91 62.67 168.81C63.08 168.71 63.56 168.67 64.13 168.7H64.1601H64.1901C65.3101 168.7 66.35 168.8 67.29 168.98C67.96 169.15 68.52 169.42 68.99 169.77L69.04 169.81L69.09 169.84C69.53 170.11 69.92 170.54 70.25 171.2C70.53 171.76 70.5601 172.24 70.4101 172.73C70.1701 173.51 69.89 174.16 69.58 174.69Z" fill="#EFA332"/>
<path d="M13.6701 212.21C14.0201 212.42 14.3601 212.43 14.5101 212.43C14.6901 212.43 14.8401 212.4 14.9501 212.37C15.1701 212.32 15.4001 212.25 15.5801 212.19C15.6101 212.18 15.6401 212.17 15.6701 212.16C16.0501 212.03 16.3401 211.94 16.5801 211.9C17.2901 211.79 17.7601 211.81 18.3901 211.82C18.6801 211.83 19.0001 211.84 19.4001 211.84C20.5101 211.84 21.6101 211.78 22.7001 211.66C23.8901 211.54 24.9701 211.22 25.8201 210.59L26.3401 210.21L26.3701 209.57C26.4601 207.8 26.4201 206.03 26.2401 204.29C26.1101 202.53 25.9301 200.74 25.6901 198.94L25.3301 196.26L24.9801 193.6C24.8301 192.18 24.7401 190.73 24.6901 189.26C25.7701 188.94 26.8601 188.72 27.9601 188.61C29.1001 188.49 30.2401 188.45 31.4001 188.49C31.6801 189.83 31.9201 191.23 32.1101 192.68C32.3501 194.5 32.5701 196.33 32.7601 198.16V198.18V198.2C33.0001 200.04 33.2501 201.9 33.5001 203.79V203.81V203.83C33.8001 205.7 34.1801 207.51 34.6301 209.27L34.9201 210.4L36.0801 210.28L36.1601 210.27L36.2201 210.26L36.2801 210.25C36.8601 210.14 37.5701 210.04 38.4401 209.95L41.2701 209.66C42.2901 209.55 43.3101 209.42 44.3201 209.26C45.4101 209.09 46.4301 208.87 47.3601 208.61L48.5001 208.29L48.3301 207.12L40.4901 152.07L40.3201 150.86L39.1001 150.9C38.2801 150.93 37.3701 151 36.3601 151.1C35.3601 151.15 34.3401 151.28 33.3101 151.5C32.2801 151.66 31.2801 151.88 30.3201 152.15H30.3101H30.3001C29.3801 152.41 28.5701 152.7 27.8901 153.01L26.9601 153.43L27.1101 154.44C27.6601 158.19 28.0601 161.64 28.3401 164.77V164.78V164.79C28.6301 167.57 28.8101 170.56 28.8901 173.76C27.8901 173.95 26.8301 174.17 25.7201 174.4C24.6401 174.59 23.6201 174.65 22.6601 174.59C21.8401 171.65 21.2801 168.67 20.9701 165.64C20.6101 162.16 20.0001 158.6 19.1401 154.96L18.9301 154.09L18.0501 153.93C17.1601 153.77 16.2301 153.75 15.2801 153.85C14.4101 153.94 13.5201 154.06 12.6101 154.21C11.7801 154.35 10.9201 154.49 10.0301 154.64C9.31008 154.76 8.61008 154.79 7.93008 154.72L7.80008 154.71L7.67008 154.72L7.43008 154.74L6.08008 154.88L6.22008 156.23L6.23008 156.3C6.45008 158.99 6.72008 162.02 7.01008 165.39V165.4V165.41C7.35008 168.73 7.74008 172.21 8.17008 175.84L9.44008 186.56V186.57V186.58C9.92008 190.15 10.3701 193.54 10.8101 196.74C11.2401 199.89 11.6401 202.75 12.0201 205.32V205.33V205.34C12.1601 206.15 12.2901 207.04 12.4101 207.88C12.4801 208.33 12.5401 208.76 12.6001 209.17C12.6901 209.75 12.7701 210.27 12.8501 210.67C12.8901 210.87 12.9301 211.07 12.9901 211.24C13.0201 211.32 13.0501 211.44 13.1101 211.56C13.1401 211.62 13.1901 211.71 13.2501 211.81C13.3101 211.9 13.4401 212.08 13.6701 212.21Z" fill="#EFA332"/>
<path d="M99.0601 61.5899C96.1801 63.1999 94.3401 66.3199 93.9301 69.7299C78.3201 60.0299 62.5501 59.9499 50.1001 62.7099C40.0001 64.9699 32.0101 69.0999 27.9101 71.5599C27.3601 69.8199 26.3801 68.4299 25.0301 67.3999C22.9901 65.8599 20.3901 65.3499 17.9001 65.3499C15.3301 65.3499 12.7501 65.9299 10.4001 67.5299C8.06012 69.1099 6.09012 71.5899 4.53012 75.0899C2.86012 78.8399 2.69012 84.1699 4.18012 88.3299C4.93012 90.4399 6.18012 92.4299 8.07012 93.7199C9.25012 94.5199 10.6101 94.9999 12.1001 95.0999C12.0601 95.2999 12.0201 95.5099 11.9801 95.7199C11.5001 98.2299 11.0401 101.91 11.2801 106.24C11.7701 114.94 15.1301 126.21 26.7601 135.59C46.4701 151.49 64.7901 146.19 75.0801 143.21C77.0101 142.65 78.6701 142.17 79.9901 141.93C90.3401 143.02 97.5501 143.3 103.51 142.67C109.59 142.03 114.29 140.46 119.65 137.97C125.73 135.15 127.93 129.69 128.05 124.83C128.11 122.41 127.67 120.07 126.91 118.16C126.42 116.92 125.73 115.7 124.84 114.78C128.38 104.11 124.35 95.8999 121 92.2199C121.97 87.0899 121.62 76.7599 114.19 67.2099C111.66 63.9599 109.01 61.9299 106.38 61.0399C103.72 60.1199 101.17 60.4199 99.0601 61.5899Z" fill="#EFA332"/>
<path d="M56.0501 148.52C46.9901 148.52 36.4301 145.98 25.5101 137.17C12.9701 127.05 9.7701 114.83 9.2901 106.37C9.0701 102.54 9.3901 99.1799 9.7801 96.7299C8.7801 96.4399 7.8301 95.9899 6.9501 95.3899C4.9001 93.9799 3.2901 91.7699 2.3001 88.9999C0.6601 84.4199 0.8301 78.4999 2.7101 74.2699C4.3801 70.5099 6.5901 67.6799 9.2901 65.8599C11.7601 64.1899 14.6701 63.3399 17.9201 63.3399C21.3101 63.3399 24.1101 64.1699 26.2601 65.7999C27.3201 66.5999 28.1901 67.5799 28.8501 68.7099C33.2701 66.2599 40.6201 62.7799 49.6801 60.7599C56.9701 59.1399 64.1701 58.7299 71.0901 59.5599C78.6301 60.4599 85.8601 62.8299 92.6101 66.6099C93.6101 63.6899 95.5501 61.2599 98.0901 59.8399C100.79 58.3299 103.97 58.0799 107.06 59.1299C110.16 60.1899 113.1 62.4899 115.81 65.9699C124.25 76.8099 123.68 87.8399 123.16 91.6199C124.51 93.2799 126.41 96.1999 127.48 100.38C128.63 104.88 128.51 109.57 127.12 114.33C127.78 115.21 128.34 116.24 128.81 117.42C129.7 119.67 130.16 122.32 130.09 124.88C129.92 131.62 126.43 137.06 120.52 139.8C114.36 142.65 109.5 144.06 103.74 144.67C97.8801 145.29 90.7901 145.08 80.1001 143.96C78.9201 144.2 77.4001 144.64 75.6701 145.14C70.8201 146.55 64.0201 148.52 56.0501 148.52ZM17.9101 67.3599C15.4401 67.3599 13.3601 67.9599 11.5301 69.1899C9.4501 70.5999 7.7601 72.7999 6.3801 75.8999C4.9101 79.1999 4.7901 84.0299 6.0901 87.6499C6.5801 89.0199 7.5201 90.8999 9.2201 92.0599C10.1201 92.6699 11.1401 93.0199 12.2601 93.0999C12.8401 93.1399 13.3701 93.4299 13.7301 93.8899C14.0801 94.3499 14.2101 94.9499 14.1001 95.5099C14.0401 95.6999 14.0001 95.8999 13.9601 96.0999C13.5301 98.3599 13.0601 101.93 13.3001 106.13C13.5701 110.97 14.7101 115.57 16.6801 119.82C19.1601 125.18 22.9801 129.96 28.0401 134.04C36.3401 140.74 45.0101 144.15 54.5401 144.49C62.5501 144.77 69.4801 142.76 74.5401 141.3C76.5201 140.73 78.2301 140.23 79.6501 139.97C79.8401 139.94 80.0301 139.93 80.2201 139.95C90.7901 141.06 97.7001 141.28 103.32 140.69C108.6 140.13 113.1 138.82 118.83 136.17C124.95 133.33 125.99 127.83 126.07 124.8C126.12 122.76 125.76 120.68 125.07 118.92C124.62 117.79 124.05 116.85 123.42 116.19C122.9 115.65 122.73 114.87 122.96 114.16C126.85 102.44 120.8 94.9599 119.54 93.5799C119.12 93.1099 118.94 92.4799 119.05 91.8599C120.11 86.2299 119.07 76.7299 112.63 68.4499C110.41 65.5899 108.1 63.7399 105.75 62.9399C103.73 62.2499 101.75 62.3899 100.04 63.3499C97.8101 64.5999 96.2701 67.0699 95.9301 69.9699C95.8501 70.6499 95.4301 71.2499 94.8101 71.5399C94.1901 71.8399 93.4601 71.7999 92.8801 71.4399C85.9601 67.1399 78.4601 64.4799 70.6001 63.5499C64.1401 62.7799 57.3901 63.1599 50.5401 64.6799C40.5201 66.9099 32.7101 71.0199 28.9501 73.2799C28.4201 73.5999 27.7801 73.6499 27.2001 73.4299C26.6201 73.2099 26.1801 72.7399 26.0001 72.1499C25.5901 70.8399 24.8501 69.7699 23.8201 68.9899C22.3901 67.9099 20.4001 67.3599 17.9101 67.3599Z" fill="white"/>
<path d="M38.16 91.2699C26.51 87.6899 29.77 73.6299 32.19 68.8499C43.63 76.5499 52.4 76.9399 67.82 94.3899C66.24 105.69 58.78 102.89 56.43 99.6799C43.41 117.9 37.67 96.7399 38.16 91.2699Z" fill="white"/>
<path d="M46.94 109.11C46.09 109.11 45.25 108.96 44.42 108.65C40.83 107.32 38.73 103.37 37.61 100.3C36.7 97.7999 36.1 94.9999 35.99 92.7799C32.71 91.3899 30.29 89.0299 28.95 85.8699C26.34 79.7099 28.3 71.7299 30.27 67.8699C30.55 67.3199 31.05 66.9099 31.65 66.7599C32.25 66.5999 32.89 66.7099 33.4 67.0599C36.76 69.3199 39.85 70.9199 43.11 72.5999C50.64 76.4799 58.43 80.4999 69.44 92.9599C69.86 93.4299 70.05 94.0699 69.96 94.6899C68.98 101.67 65.89 103.86 63.46 104.47C61.04 105.08 58.55 104.28 56.68 102.91C53.33 107.04 50.06 109.11 46.94 109.11ZM33.2 72.0699C32.03 75.5699 31.39 80.5499 32.93 84.1899C33.99 86.6799 35.91 88.3199 38.8 89.2099C39.78 89.5099 40.41 90.4499 40.32 91.4699C40.04 94.5699 42.2 103.22 45.94 104.6C46.25 104.72 46.58 104.77 46.91 104.77C49.7 104.77 52.91 100.91 54.68 98.4199C55.08 97.8599 55.73 97.5199 56.42 97.5199H56.43C57.12 97.5199 57.77 97.8499 58.17 98.3999C59.05 99.5999 60.96 100.64 62.4 100.28C63.86 99.9099 64.95 98.0699 65.52 95.0599C55.42 83.8099 48.47 80.2299 41.13 76.4399C38.58 75.1199 35.96 73.7699 33.2 72.0699Z" fill="white"/>
<path d="M100.29 130.33C102.715 130.33 104.68 127.984 104.68 125.09C104.68 122.196 102.715 119.85 100.29 119.85C97.8655 119.85 95.9 122.196 95.9 125.09C95.9 127.984 97.8655 130.33 100.29 130.33Z" fill="white"/>
<path d="M115.57 127.48C115.37 127.48 115.17 127.45 114.98 127.38L110.68 125.84C109.77 125.51 109.29 124.51 109.62 123.59C109.95 122.68 110.95 122.2 111.87 122.53L114.68 123.54L115.66 121.52C116.09 120.65 117.14 120.28 118.01 120.71C118.88 121.14 119.25 122.19 118.82 123.06L117.15 126.5C116.85 127.11 116.23 127.48 115.57 127.48Z" fill="white"/>
<path d="M97.8901 3.09999C95.0101 4.70999 93.1701 7.82999 92.7601 11.24C77.1501 1.53999 61.3801 1.45999 48.9301 4.21999C38.8201 6.46999 30.8401 10.6 26.7401 13.06C26.1901 11.32 25.2101 9.92999 23.8601 8.89999C21.8201 7.34999 19.2201 6.84999 16.7301 6.84999C14.1601 6.84999 11.5801 7.42999 9.23008 9.02999C6.89008 10.61 4.92008 13.09 3.36008 16.59C1.69008 20.34 1.52008 25.67 3.01008 29.83C3.76008 31.94 5.01008 33.93 6.90008 35.22C8.08008 36.02 9.44008 36.5 10.9301 36.6C10.8901 36.8 10.8501 37.01 10.8101 37.22C10.3301 39.73 9.87008 43.41 10.1101 47.74C10.6001 56.44 13.9601 67.71 25.5901 77.09C45.3001 92.99 63.6201 87.69 73.9101 84.71C75.8401 84.15 77.5001 83.67 78.8201 83.43C89.1701 84.52 96.3801 84.8 102.34 84.17C108.42 83.53 113.12 81.96 118.48 79.47C124.56 76.65 126.76 71.19 126.88 66.33C126.94 63.91 126.5 61.57 125.74 59.66C125.25 58.42 124.56 57.2 123.67 56.28C127.21 45.61 123.18 37.4 119.83 33.72C120.8 28.59 120.45 18.26 113.02 8.70999C110.49 5.45999 107.84 3.42999 105.21 2.53999C102.55 1.62999 99.9901 1.91999 97.8901 3.09999Z" fill="#EFA332"/>
<path d="M54.87 90.0199C45.81 90.0199 35.25 87.4799 24.33 78.6699C11.8 68.5499 8.59005 56.3299 8.11005 47.8699C7.89005 44.0399 8.21005 40.6799 8.60005 38.2299C7.60005 37.9399 6.65005 37.4899 5.77005 36.8899C3.72005 35.4899 2.11005 33.2899 1.12005 30.5199C-0.519954 25.9399 -0.349954 20.0199 1.53005 15.7899C3.20005 12.0299 5.41005 9.19995 8.11005 7.37995C10.58 5.70995 13.49 4.85995 16.74 4.85995C20.13 4.85995 22.93 5.68995 25.08 7.31995C26.14 8.11995 27 9.09995 27.67 10.2299C32.09 7.77995 39.44 4.29995 48.5 2.27995C55.79 0.659948 62.99 0.259948 69.91 1.07995C77.45 1.97995 84.68 4.34995 91.43 8.12995C92.43 5.20995 94.37 2.77995 96.91 1.35995C99.61 -0.150052 102.79 -0.400052 105.88 0.649948C108.98 1.70995 111.92 4.00995 114.63 7.48995C123.07 18.3299 122.5 29.3599 121.99 33.1399C123.34 34.7999 125.24 37.7199 126.31 41.8999C127.46 46.3999 127.34 51.0899 125.95 55.8499C126.61 56.7299 127.17 57.7599 127.64 58.9399C128.53 61.1899 128.99 63.8399 128.92 66.3999C128.75 73.1399 125.26 78.5799 119.35 81.3199C113.19 84.1699 108.33 85.5799 102.57 86.1899C96.71 86.8099 89.62 86.5999 78.93 85.4799C77.74 85.7199 76.23 86.16 74.49 86.66C69.64 88.06 62.84 90.0199 54.87 90.0199ZM16.73 8.86995C14.26 8.86995 12.18 9.46995 10.35 10.6999C8.26005 12.1099 6.58005 14.3099 5.20005 17.4099C3.73005 20.7099 3.61005 25.5399 4.91005 29.1599C5.40005 30.5299 6.34005 32.4099 8.04005 33.5699C8.94005 34.1799 9.96005 34.5299 11.08 34.6099C11.66 34.6499 12.19 34.9399 12.55 35.3999C12.9 35.8599 13.03 36.4599 12.92 37.0199C12.88 37.2099 12.84 37.4099 12.8 37.6099C12.37 39.8699 11.9 43.4499 12.14 47.6399C12.41 52.4799 13.55 57.0799 15.52 61.3299C18 66.6899 21.82 71.4699 26.88 75.5499C35.18 82.2499 43.85 85.6599 53.38 85.9999C61.39 86.2799 68.32 84.2699 73.38 82.8099C75.36 82.2399 77.06 81.7399 78.49 81.4899C78.68 81.4599 78.87 81.4499 79.06 81.4699C89.63 82.5799 96.54 82.7999 102.16 82.2099C107.44 81.6499 111.94 80.3399 117.67 77.6899C123.79 74.8499 124.83 69.3499 124.91 66.3199C124.96 64.2799 124.6 62.1999 123.91 60.4399C123.46 59.3099 122.89 58.3699 122.26 57.7099C121.74 57.1699 121.57 56.3899 121.8 55.6799C125.69 43.9599 119.64 36.4799 118.38 35.0999C117.96 34.6299 117.78 33.9999 117.89 33.3799C118.95 27.7499 117.91 18.2499 111.47 9.96995C109.25 7.10995 106.94 5.25995 104.59 4.45995C102.57 3.76995 100.59 3.90995 98.88 4.86995C96.65 6.11995 95.11 8.58995 94.77 11.4899C94.69 12.1699 94.27 12.7699 93.65 13.0599C93.03 13.3599 92.3 13.3199 91.72 12.9599C84.8 8.65995 77.3 5.99995 69.44 5.06995C62.98 4.29995 56.23 4.67995 49.38 6.19995C39.36 8.42995 31.55 12.5399 27.79 14.7999C27.26 15.1199 26.62 15.1699 26.04 14.9499C25.46 14.7299 25.02 14.2599 24.84 13.6699C24.43 12.3599 23.69 11.2899 22.66 10.5099C21.21 9.41995 19.22 8.86995 16.73 8.86995Z" fill="white"/>
<path d="M81.03 26.8C79.87 26.8 78.91 25.88 78.87 24.71C78.83 23.52 79.77 22.52 80.96 22.48C85.2 22.34 88.24 21.04 89.73 18.73C91.09 16.62 90.86 14.15 90.2 12.54C89.74 11.44 90.27 10.17 91.37 9.71996C92.47 9.25996 93.74 9.78996 94.19 10.89C95.59 14.29 95.28 18.09 93.36 21.07C91.76 23.55 88.33 26.56 81.1 26.8C81.07 26.8 81.05 26.8 81.03 26.8Z" fill="white"/>
<path d="M36.99 32.7798C25.34 29.1998 25.68 16.4498 28.11 11.6698C40.75 5.36985 71.14 2.00985 92.21 11.8498C93.3 13.2098 95.49 22.1098 81.84 24.9598C77.82 22.0198 70.99 13.8898 62.99 19.1698C56.59 23.3998 63.37 32.7198 66.65 35.8998C65.07 47.1998 57.61 44.3998 55.26 41.1898C42.23 59.3998 36.49 38.2498 36.99 32.7798Z" fill="white"/>
<path d="M45.77 50.6199C44.92 50.6199 44.08 50.4699 43.25 50.1599C39.66 48.8299 37.56 44.8799 36.44 41.8099C35.53 39.3199 34.94 36.5199 34.82 34.3099C30.74 32.6599 27.72 29.7399 26.04 25.7899C23.79 20.4899 24.41 14.1899 26.18 10.6999C26.39 10.2899 26.73 9.9499 27.14 9.7399C34.13 6.2599 45.26 3.9499 56.92 3.5499C70.52 3.0899 83.38 5.3399 93.12 9.8899C93.42 10.0299 93.69 10.2399 93.89 10.4999C94.92 11.7899 95.82 15.1199 94.6 18.4999C92.67 23.8599 86.83 26.1199 82.27 27.0699C81.67 27.1899 81.05 27.0599 80.56 26.6999C79.84 26.1699 79.06 25.5199 78.24 24.8199C73.29 20.6399 69.12 17.6999 64.17 20.9699C63.14 21.6499 62.61 22.4899 62.51 23.6099C62.2 26.9499 65.62 31.8899 68.15 34.3399C68.65 34.8199 68.88 35.5099 68.79 36.1899C67.81 43.1699 64.72 45.3599 62.29 45.9699C59.87 46.5799 57.38 45.7799 55.51 44.4099C52.15 48.5499 48.89 50.6199 45.77 50.6199ZM29.76 13.2699C28.83 15.6699 28.36 20.1699 30.02 24.0899C31.41 27.3599 33.96 29.5799 37.63 30.7099C38.61 31.0099 39.24 31.9499 39.15 32.9699C38.87 36.0699 41.03 44.7199 44.77 46.0999C45.08 46.2199 45.41 46.2699 45.74 46.2699C48.53 46.2699 51.74 42.4099 53.51 39.9199C53.91 39.3599 54.56 39.0199 55.25 39.0199H55.26C55.95 39.0199 56.6 39.3499 57 39.8999C57.88 41.0999 59.79 42.1399 61.23 41.7799C62.68 41.4099 63.77 39.5899 64.34 36.6099C61.65 33.7099 57.75 28.1399 58.21 23.1999C58.43 20.7799 59.67 18.7499 61.79 17.3499C69.83 12.0399 76.84 17.9599 81.03 21.5099C81.49 21.8999 81.94 22.2799 82.35 22.6099C86.6 21.5699 89.38 19.7499 90.42 17.3399C91.1 15.7699 90.88 14.2299 90.64 13.4899C70.98 4.6799 42.47 7.3499 29.76 13.2699Z" fill="white"/>
<path d="M114.39 68.9799C114.19 68.9799 113.99 68.9499 113.8 68.8799L109.5 67.3399C108.59 67.0099 108.11 66.0099 108.44 65.0899C108.77 64.1799 109.77 63.6999 110.69 64.0299L113.5 65.0399L114.48 63.0199C114.9 62.1499 115.96 61.7799 116.83 62.2099C117.7 62.6399 118.07 63.6899 117.64 64.5599L115.97 67.9999C115.67 68.6099 115.05 68.9799 114.39 68.9799Z" fill="white"/>
<path d="M97.3001 67.16C94.9501 67.16 92.8001 66.13 91.4801 65.07C90.5501 64.32 90.4001 62.97 91.1401 62.03C91.8901 61.1 93.2401 60.95 94.1801 61.69C94.8101 62.2 96.2801 63 97.7701 62.8C98.8201 62.66 99.7201 62.05 100.54 60.93C101.24 59.97 102.59 59.75 103.56 60.46C104.52 61.16 104.73 62.51 104.03 63.48C102.52 65.54 100.56 66.79 98.3401 67.09C97.9901 67.13 97.6401 67.16 97.3001 67.16Z" fill="white"/>
<path d="M77.2701 43.2399C77.1101 43.2399 76.9501 43.2099 76.7901 43.1599C70.5101 41.0399 62.6201 34.9599 60.8301 28.8499C60.0501 26.2099 60.4901 23.7599 62.0801 21.7599C63.9301 19.4499 66.4701 18.2899 69.4301 18.4099C76.4001 18.6799 84.5101 25.9999 87.7901 30.8499C88.2601 31.5399 88.0801 32.4799 87.3901 32.9399C86.7001 33.4099 85.7601 33.2299 85.3001 32.5399C82.3201 28.1399 74.9101 21.6399 69.3101 21.4199C67.2901 21.3399 65.7001 22.0699 64.4301 23.6399C63.4501 24.8699 63.2201 26.2899 63.7201 27.9999C65.1701 32.9499 72.2801 38.4599 77.7601 40.3099C78.5501 40.5799 78.9701 41.4299 78.7101 42.2199C78.4901 42.8399 77.9001 43.2399 77.2701 43.2399Z" fill="white"/>
<path d="M65.4701 80.5999C59.7501 85.9199 69.4001 97.0499 79.7601 100.9C91.1901 103.29 90.0401 95.1699 88.0301 90.8199C82.9001 85.1999 71.1901 75.2899 65.4701 80.5999Z" fill="#EFA332"/>
<path d="M78.45 101.73C78.29 101.73 78.13 101.7 77.97 101.65C71.69 99.5299 63.8 93.4599 62 87.3399C61.22 84.6999 61.66 82.2499 63.25 80.2499C65.1 77.9399 67.64 76.7799 70.6 76.8999C77.57 77.1799 85.68 84.4899 88.96 89.3499C89.43 90.0399 89.25 90.9799 88.56 91.4399C87.87 91.9099 86.93 91.7299 86.47 91.0399C83.49 86.6399 76.08 80.1399 70.49 79.9199C68.47 79.8399 66.88 80.5699 65.61 82.1399C64.63 83.3699 64.4 84.7899 64.9 86.4999C66.35 91.4499 73.46 96.9599 78.94 98.8099C79.73 99.0799 80.15 99.9299 79.89 100.72C79.67 101.33 79.08 101.73 78.45 101.73Z" fill="white"/>
</g>
<defs>
<clipPath id="clip0_35_11">
<rect width="130.09" height="217" fill="white"/>
</clipPath>
</defs>
</svg>
