<svg width="1678" height="870" viewBox="0 0 1678 870" fill="none" xmlns="http://www.w3.org/2000/svg">
<path opacity="0.2" d="M474.289 144.063C467.391 128.926 405.212 -5.20537 366.984 5.62093C333.835 15.1059 318.122 134.291 313.523 176.83C282.29 193.5 253.069 216.207 227.68 244.758C202.003 273.596 182.65 305.596 169.716 338.841C128.614 348.134 10.7704 377.547 5.21352 411.751C-1.58884 453.236 156.398 502.768 156.494 502.864C167.225 548.564 190.793 590.337 227.009 622.624C269.356 660.372 322.529 679.342 377.715 680.588L677.881 343.727C670.312 289.021 645.402 238.434 602.959 200.686C566.265 167.824 521.427 149.237 474.289 144.063Z" fill="#F6ECF7"/>
<path d="M474.289 144.063C467.391 128.926 405.212 -5.20537 366.984 5.62093C333.835 15.1059 318.122 134.291 313.523 176.83C282.29 193.5 253.069 216.207 227.68 244.758C202.003 273.596 182.65 305.596 169.716 338.841C128.614 348.134 10.7704 377.547 5.21352 411.751C-1.58884 453.236 156.398 502.768 156.494 502.864C167.225 548.564 190.793 590.337 227.009 622.624C269.356 660.372 322.529 679.342 377.715 680.588L677.881 343.727C670.312 289.021 645.402 238.434 602.959 200.686C566.265 167.824 521.427 149.237 474.289 144.063Z" stroke="url(#paint0_linear_24_2)" stroke-width="9.58079" stroke-miterlimit="10"/>
<path d="M498.433 236.135C495.463 223.967 499.87 215.919 513.666 208.925C540.972 195.129 618.672 269.38 577.953 289.404C552.564 301.859 547.486 275.129 534.073 260.374C522.576 247.727 502.648 253.38 498.433 236.135Z" fill="#FFEFAE"/>
<path d="M450.567 230.256C464.954 226.946 474.231 213.896 471.289 201.108C468.347 188.32 454.299 180.637 439.913 183.947C425.527 187.257 416.249 200.306 419.191 213.094C422.133 225.882 436.181 233.566 450.567 230.256Z" fill="#FFEFAE"/>
<path d="M714.767 383.392L422.84 713.929C413.26 724.755 396.685 725.809 385.859 716.228L378.577 709.809C367.751 700.228 366.697 683.654 376.278 672.827L668.204 342.29C677.785 331.464 694.36 330.41 705.186 339.991L712.468 346.41C723.294 355.991 724.348 372.565 714.767 383.392Z" fill="#1F1C21"/>
<path d="M1584.89 458.122C1585.47 457.834 1585.95 457.547 1586.52 457.259C1610.09 446.625 1629.06 421.236 1629.06 386.074C1629.06 345.931 1601.66 305.883 1539.86 305.883H1461.11C1452.2 305.883 1445.02 307.607 1439.46 311.152C1437.73 311.823 1436.1 312.589 1434.67 313.548C1432.94 314.218 1431.31 314.985 1429.88 315.943C1428.15 316.613 1426.52 317.38 1425.09 318.338C1423.36 319.009 1421.73 319.775 1420.3 320.733C1408.03 325.619 1401.9 337.021 1401.9 354.649V545.115C1401.9 569.451 1414.26 581.81 1438.6 581.81C1447.89 581.81 1455.36 579.989 1461.01 576.445C1462.74 575.774 1464.37 575.007 1465.81 574.049C1467.53 573.379 1469.16 572.612 1470.6 571.654C1472.32 570.983 1473.95 570.217 1475.39 569.259C1477.11 568.588 1478.74 567.822 1480.18 566.864C1492.73 561.786 1498.86 550.385 1498.86 532.373V501.714L1532.58 564.66C1539.67 577.786 1551.74 583.439 1563.34 583.439C1570.71 583.439 1578.19 581.331 1584.51 577.594C1586.14 576.924 1587.77 576.061 1589.3 575.199C1590.93 574.528 1592.56 573.666 1594.09 572.804C1595.72 572.133 1597.35 571.271 1598.88 570.409C1600.51 569.738 1602.14 568.876 1603.67 568.013C1616.51 562.457 1626.67 550.768 1626.67 535.535C1626.67 529.115 1624.46 521.642 1619.58 513.02L1584.89 458.122ZM1499.91 429.475C1499.63 429.571 1499.34 429.667 1499.05 429.763V387.415H1514.38C1529.71 387.415 1537.28 392.302 1537.28 405.811C1537.28 409.547 1536.8 412.805 1535.75 415.583H1535.36C1528.66 415.583 1523.29 417.116 1519.07 419.799C1517.35 420.469 1515.72 421.236 1514.28 422.194C1512.56 422.864 1510.93 423.631 1509.49 424.589C1507.77 425.26 1506.14 426.026 1504.7 426.984C1502.98 427.751 1501.35 428.517 1499.91 429.475Z" fill="url(#paint1_linear_24_2)"/>
<path d="M1519.65 467.607C1517.06 463.87 1514.38 456.397 1514.38 447.775C1514.38 426.026 1522.62 413.284 1542.45 413.284H1547.72C1560.08 413.284 1568.32 406.577 1568.32 391.535C1568.32 378.026 1560.85 373.14 1545.42 373.14H1506.04V529.882C1506.04 554.984 1494.07 567.343 1469.64 567.343C1445.21 567.343 1432.94 554.984 1432.94 530.648V340.182C1432.94 315.847 1444.54 303.488 1468.2 303.488H1546.95C1608.85 303.488 1636.15 343.631 1636.15 383.679C1636.15 419.703 1616.32 445.571 1591.89 455.631L1626.76 510.337C1631.65 518.96 1633.85 526.433 1633.85 532.852C1633.85 554.217 1614.02 568.876 1594.48 568.876C1582.88 568.876 1570.81 563.223 1563.72 550.097L1519.65 467.607Z" fill="#FFEFAE"/>
<path d="M1512.46 470.002C1509.88 466.265 1507.19 458.792 1507.19 450.17C1507.19 428.421 1515.43 415.679 1535.27 415.679H1540.54C1552.89 415.679 1561.13 408.972 1561.13 393.93C1561.13 380.421 1553.66 375.535 1538.24 375.535H1498.86V532.277C1498.86 557.379 1486.88 569.738 1462.45 569.738C1438.02 569.738 1425.76 557.379 1425.76 533.043V342.577C1425.76 318.242 1437.35 305.883 1461.01 305.883H1539.77C1601.66 305.883 1628.97 346.026 1628.97 386.074C1628.97 422.098 1609.13 447.966 1584.7 458.026L1619.58 512.732C1624.46 521.355 1626.67 528.828 1626.67 535.247C1626.67 556.612 1606.83 571.271 1587.29 571.271C1575.7 571.271 1563.63 565.618 1556.54 552.493L1512.46 470.002Z" fill="url(#paint2_linear_24_2)"/>
<path d="M1547.05 303.392C1608.94 303.392 1636.25 343.535 1636.25 383.583C1636.25 419.607 1616.42 445.475 1591.98 455.535L1626.86 510.241C1631.74 518.864 1633.95 526.337 1633.95 532.756C1633.95 550.672 1619.96 563.798 1603.96 567.63C1603.86 567.63 1603.86 567.726 1603.77 567.726C1602.24 568.588 1600.61 569.451 1598.98 570.121C1597.45 570.983 1595.82 571.846 1594.19 572.516C1592.65 573.379 1591.03 574.241 1589.4 574.912C1587.86 575.774 1586.24 576.636 1584.61 577.307C1578.19 581.043 1570.81 583.151 1563.43 583.151C1551.84 583.151 1539.77 577.498 1532.68 564.373L1506.14 514.84V529.69C1506.14 550.289 1498.09 562.265 1481.81 565.906C1481.33 566.097 1480.75 566.289 1480.18 566.576C1478.74 567.534 1477.11 568.301 1475.39 568.971C1473.95 569.93 1472.32 570.696 1470.6 571.367C1469.16 572.325 1467.53 573.091 1465.81 573.762C1464.37 574.72 1462.74 575.486 1461.01 576.157C1455.27 579.798 1447.79 581.522 1438.6 581.522C1414.26 581.522 1401.9 569.163 1401.9 544.828V354.553C1401.9 336.925 1408.03 325.619 1420.3 320.637C1421.73 319.679 1423.36 318.913 1425.09 318.242C1426.52 317.284 1428.15 316.518 1429.88 315.847C1431.31 314.889 1432.94 314.122 1434.67 313.452C1436.1 312.494 1437.73 311.727 1439.46 311.057C1439.65 310.961 1439.94 310.769 1440.13 310.673C1440.7 310.29 1441.37 309.907 1442.04 309.619C1442.43 309.428 1442.72 309.332 1443.1 309.14C1443.67 308.853 1444.34 308.661 1444.92 308.374C1445.3 308.278 1445.59 308.087 1445.97 307.991C1446.93 307.703 1447.89 307.32 1448.94 307.128C1449.13 307.128 1449.23 307.033 1449.42 307.033C1449.52 307.033 1449.61 307.033 1449.71 306.937C1454.69 304.542 1460.92 303.392 1468.2 303.392H1547.05ZM1547.05 293.811H1468.3C1460.06 293.811 1452.87 295.152 1446.74 297.835C1446.74 297.835 1446.74 297.835 1446.64 297.835C1445.4 298.123 1444.15 298.506 1442.81 298.985C1442.43 299.081 1442.04 299.272 1441.66 299.368L1441.47 299.464C1440.61 299.751 1439.84 300.134 1439.07 300.422C1438.6 300.614 1438.12 300.805 1437.73 301.093C1436.87 301.476 1436.1 301.955 1435.24 302.434C1433.42 303.2 1431.79 303.967 1430.26 304.925C1428.54 305.691 1426.91 306.458 1425.47 307.32C1423.75 308.087 1422.12 308.853 1420.68 309.715C1418.95 310.482 1417.33 311.248 1415.89 312.11C1404.87 316.805 1392.22 327.919 1392.22 354.553V545.02C1392.22 574.912 1408.7 591.391 1438.6 591.391C1449.23 591.391 1458.24 589.187 1465.42 584.971C1467.15 584.205 1468.78 583.439 1470.21 582.576C1471.94 581.81 1473.57 581.043 1475 580.181C1476.73 579.415 1478.36 578.648 1479.79 577.786C1481.52 577.019 1483.05 576.253 1484.49 575.486C1484.58 575.486 1484.68 575.391 1484.78 575.391C1495.7 572.708 1508.06 565.714 1513.23 548.66L1524.25 569.163C1532.39 584.109 1546.95 592.923 1563.43 592.923C1572.34 592.923 1581.16 590.528 1589.01 586.025C1590.74 585.259 1592.37 584.492 1593.8 583.63C1595.53 582.864 1597.16 582.097 1598.59 581.235C1600.32 580.469 1601.95 579.702 1603.39 578.84C1604.92 578.169 1606.26 577.498 1607.6 576.828C1628.87 571.175 1643.62 553.355 1643.62 532.948C1643.62 524.708 1640.85 515.511 1635.29 505.738L1635.19 505.547L1635.1 505.355L1605.88 459.559C1630.5 444.613 1645.92 416.062 1645.92 383.871C1645.92 338.937 1615.36 293.811 1547.05 293.811Z" fill="url(#paint3_linear_24_2)"/>
<path d="M1379 392.014C1386.67 392.014 1393.18 390.098 1398.55 386.841C1400.27 386.17 1401.81 385.308 1403.34 384.446C1405.06 383.775 1406.6 382.913 1408.13 382.05C1409.85 381.38 1411.39 380.517 1412.92 379.655C1414.64 378.984 1416.18 378.122 1417.71 377.26C1431.51 371.703 1439.27 358.386 1439.27 343.248C1439.27 323.416 1425.76 306.554 1402.86 306.554H1279.17C1270.07 306.554 1262.69 308.374 1257.04 311.919C1255.32 312.59 1253.69 313.356 1252.25 314.314C1250.52 314.985 1248.9 315.751 1247.46 316.709C1245.73 317.38 1244.11 318.146 1242.67 319.105C1240.94 319.775 1239.32 320.542 1237.88 321.5C1225.52 326.482 1219.29 337.787 1219.29 355.32V545.786C1219.29 570.121 1231.27 582.481 1255.32 582.481H1379C1386.67 582.481 1393.18 580.564 1398.55 577.307C1400.27 576.636 1401.81 575.774 1403.34 574.912C1405.06 574.241 1406.6 573.379 1408.13 572.516C1409.85 571.846 1411.39 570.984 1412.92 570.121C1414.64 569.451 1416.18 568.588 1417.71 567.726C1431.51 562.169 1439.27 548.852 1439.27 533.714C1439.27 513.882 1425.76 497.307 1402.86 497.307H1315.48V483.798H1364.25C1371.34 483.798 1377.47 481.978 1382.45 478.912C1384.18 478.241 1385.71 477.475 1387.24 476.517C1388.97 475.846 1390.5 475.08 1392.03 474.122C1393.76 473.451 1395.29 472.685 1396.82 471.727C1398.55 471.056 1400.08 470.289 1401.61 469.331C1414.36 464.349 1421.54 452.182 1421.54 438.385C1421.54 420.373 1409.18 405.044 1388.2 405.044H1315.48V391.919H1379V392.014Z" fill="url(#paint4_linear_24_2)"/>
<path d="M1286.45 568.109C1262.5 568.109 1250.43 555.75 1250.43 531.415V340.949C1250.43 316.614 1262.4 304.254 1286.45 304.254H1410.14C1433.04 304.254 1446.55 321.116 1446.55 340.949C1446.55 360.781 1433.04 377.643 1410.14 377.643H1322.76V402.745H1395.48C1416.46 402.745 1428.82 418.074 1428.82 436.086C1428.82 454.098 1416.46 469.427 1395.48 469.427H1322.76V494.912H1410.14C1433.04 494.912 1446.55 511.391 1446.55 531.319C1446.55 551.247 1433.04 568.013 1410.14 568.013H1286.45V568.109Z" fill="#FFEFAE"/>
<path d="M1279.27 570.504C1255.31 570.504 1243.24 558.145 1243.24 533.81V343.344C1243.24 319.009 1255.22 306.649 1279.27 306.649H1402.95C1425.85 306.649 1439.36 323.512 1439.36 343.344C1439.36 363.176 1425.85 380.038 1402.95 380.038H1315.58V405.14H1388.3C1409.28 405.14 1421.64 420.469 1421.64 438.481C1421.64 456.493 1409.28 471.822 1388.3 471.822H1315.58V497.307H1402.95C1425.85 497.307 1439.36 513.786 1439.36 533.714C1439.36 553.546 1425.85 570.409 1402.95 570.409H1279.27V570.504Z" fill="url(#paint5_linear_24_2)"/>
<path d="M1410.24 304.158C1433.13 304.158 1446.64 321.021 1446.64 340.853C1446.64 357.907 1436.68 372.757 1419.34 376.589C1418.86 376.781 1418.38 377.068 1417.9 377.26C1416.37 378.122 1414.84 378.984 1413.11 379.655C1411.58 380.517 1410.04 381.38 1408.32 382.05C1406.79 382.913 1405.25 383.775 1403.53 384.445C1402 385.308 1400.46 386.17 1398.74 386.841C1393.37 390.098 1386.76 392.014 1379.19 392.014H1323.05V402.745H1395.77C1416.75 402.745 1429.11 418.074 1429.11 436.086C1429.11 451.607 1419.82 465.212 1403.72 468.661C1403.15 468.948 1402.57 469.235 1402 469.427C1400.46 470.385 1398.93 471.152 1397.21 471.822C1395.67 472.78 1394.14 473.547 1392.42 474.217C1390.88 475.176 1389.35 475.942 1387.63 476.613C1386.09 477.571 1384.56 478.337 1382.84 479.008C1377.85 482.074 1371.72 483.894 1364.63 483.894H1323.05V495.008H1410.43C1433.33 495.008 1446.84 511.487 1446.84 531.415C1446.84 548.469 1436.87 563.319 1419.53 567.151C1419.05 567.343 1418.57 567.63 1418.09 567.822C1416.56 568.684 1415.03 569.546 1413.3 570.217C1411.77 571.079 1410.24 571.942 1408.51 572.612C1406.98 573.474 1405.45 574.337 1403.72 575.007C1402.19 575.87 1400.66 576.732 1398.93 577.403C1393.57 580.66 1386.96 582.576 1379.39 582.576H1255.7C1231.75 582.576 1219.67 570.217 1219.67 545.882V355.32C1219.67 337.787 1225.9 326.482 1238.26 321.5C1239.7 320.542 1241.33 319.775 1243.05 319.104C1244.49 318.146 1246.12 317.38 1247.84 316.709C1249.28 315.751 1250.91 314.985 1252.63 314.314C1254.07 313.356 1255.7 312.59 1257.42 311.919C1257.81 311.631 1258.19 311.44 1258.67 311.248C1259.15 310.961 1259.63 310.769 1260.01 310.482C1260.49 310.29 1260.87 310.099 1261.35 309.907C1261.83 309.715 1262.4 309.524 1262.88 309.236C1263.36 309.045 1263.75 308.949 1264.23 308.757C1265.18 308.47 1266.14 308.182 1267.2 307.895C1267.39 307.895 1267.58 307.799 1267.77 307.799C1272.94 305.404 1279.27 304.158 1286.74 304.158H1410.24ZM1410.24 294.578H1286.55C1278.12 294.578 1270.74 295.919 1264.51 298.602C1263.36 298.889 1262.21 299.176 1261.06 299.655C1260.58 299.847 1260.11 299.943 1259.63 300.134L1259.34 300.23C1258.67 300.518 1258 300.805 1257.33 301.093C1256.75 301.38 1256.18 301.667 1255.6 301.859C1254.93 302.146 1254.36 302.53 1253.78 302.817L1253.49 303.009C1253.3 303.105 1253.11 303.2 1253.02 303.296C1251.2 304.063 1249.66 304.829 1248.13 305.691C1246.4 306.458 1244.78 307.224 1243.34 308.087C1241.61 308.853 1239.99 309.619 1238.55 310.482C1236.82 311.248 1235.2 312.015 1233.76 312.877C1222.64 317.572 1209.9 328.781 1209.9 355.224V545.69C1209.9 575.582 1226.09 592.061 1255.51 592.061H1379.19C1388.01 592.061 1396.06 589.953 1403.05 585.929C1404.68 585.259 1406.31 584.397 1407.84 583.534C1409.47 582.864 1411.1 582.001 1412.63 581.139C1414.26 580.468 1415.89 579.606 1417.42 578.744C1419.05 578.073 1420.68 577.211 1422.21 576.349C1422.31 576.349 1422.4 576.253 1422.5 576.253C1442.81 571.271 1456.32 553.355 1456.32 531.415C1456.32 504.78 1436.97 485.427 1410.33 485.427H1391.65C1391.75 485.427 1391.84 485.331 1391.94 485.331C1393.57 484.661 1395.19 483.798 1396.73 482.936C1398.36 482.265 1399.99 481.403 1401.52 480.541C1403.15 479.87 1404.78 479.008 1406.31 478.146C1406.5 478.05 1406.69 477.954 1406.79 477.954C1425.95 473.451 1438.69 456.78 1438.69 436.278C1438.69 414.912 1425.37 398.529 1405.83 394.314C1406.5 393.93 1407.17 393.643 1407.84 393.26C1409.47 392.589 1411.1 391.727 1412.63 390.865C1414.26 390.194 1415.89 389.332 1417.42 388.469C1419.05 387.799 1420.68 386.936 1422.21 386.074C1422.31 386.074 1422.4 385.978 1422.5 385.978C1442.81 380.996 1456.32 363.08 1456.32 341.14C1456.13 314.027 1436.87 294.578 1410.24 294.578Z" fill="url(#paint6_linear_24_2)"/>
<path d="M1216.42 305.787H1093.4C1085.74 305.787 1079.22 307.703 1073.86 310.961C1072.13 311.632 1070.6 312.494 1069.06 313.356C1067.34 314.027 1065.81 314.889 1064.27 315.751C1062.55 316.422 1061.02 317.284 1059.48 318.146C1057.76 318.817 1056.23 319.679 1054.69 320.542C1040.9 326.099 1033.14 339.416 1033.14 354.553C1033.14 374.386 1046.65 391.248 1069.54 391.248H1095.03V546.84C1095.03 570.792 1111.51 583.247 1131.05 583.247C1138.72 583.247 1145.9 581.427 1151.84 577.786C1153.47 577.115 1155.1 576.349 1156.63 575.391C1158.26 574.72 1159.89 573.954 1161.42 572.996C1163.05 572.325 1164.68 571.558 1166.21 570.6C1167.84 569.93 1169.47 569.163 1171 568.205C1183.17 563.223 1191.79 552.014 1191.79 534.864V391.248H1192.56C1200.23 391.248 1206.84 389.332 1212.3 386.074C1214.02 385.404 1215.56 384.541 1217.09 383.679C1218.81 383.008 1220.35 382.146 1221.88 381.284C1223.6 380.613 1225.14 379.751 1226.67 378.889C1228.39 378.218 1229.93 377.356 1231.46 376.493C1245.26 370.937 1253.3 357.619 1253.3 342.577C1253.21 322.649 1239.32 305.787 1216.42 305.787Z" fill="url(#paint7_linear_24_2)"/>
<path d="M1198.88 532.469C1198.88 556.421 1182.02 568.876 1162.19 568.876C1142.74 568.876 1126.17 556.517 1126.17 532.469V376.877H1100.68C1077.78 376.877 1064.27 360.014 1064.27 340.182C1064.27 320.35 1077.78 303.488 1100.68 303.488H1223.7C1246.6 303.488 1260.39 320.35 1260.39 340.182C1260.39 360.014 1246.5 376.877 1223.7 376.877H1198.98V532.469H1198.88Z" fill="#FFEFAE"/>
<path d="M1191.7 534.864C1191.7 558.816 1174.84 571.271 1155 571.271C1135.56 571.271 1118.98 558.912 1118.98 534.864V379.272H1093.5C1070.6 379.272 1057.09 362.41 1057.09 342.577C1057.09 322.745 1070.6 305.883 1093.5 305.883H1216.42C1239.32 305.883 1253.11 322.745 1253.11 342.577C1253.11 362.41 1239.22 379.272 1216.42 379.272H1191.7V534.864Z" fill="url(#paint8_linear_24_2)"/>
<path d="M1223.7 303.392C1246.6 303.392 1260.39 320.254 1260.39 340.086C1260.39 357.14 1250.14 371.895 1232.8 375.823C1232.32 376.014 1231.84 376.302 1231.36 376.493C1229.83 377.356 1228.3 378.218 1226.57 378.889C1225.04 379.751 1223.51 380.613 1221.78 381.284C1220.25 382.146 1218.72 383.008 1216.99 383.679C1215.46 384.541 1213.93 385.404 1212.2 386.074C1208.37 388.374 1203.87 390.002 1198.88 390.769V532.469C1198.88 552.301 1187.29 564.181 1172.06 567.726C1171.68 567.918 1171.29 568.013 1170.91 568.205C1169.38 569.163 1167.75 569.93 1166.12 570.6C1164.59 571.558 1162.96 572.325 1161.33 572.995C1159.79 573.954 1158.17 574.72 1156.54 575.391C1155 576.349 1153.38 577.115 1151.75 577.786C1145.81 581.427 1138.62 583.247 1130.96 583.247C1111.51 583.247 1094.93 570.888 1094.93 546.84V391.248H1069.45C1046.55 391.248 1033.04 374.386 1033.04 354.553C1033.04 339.416 1040.9 326.098 1054.6 320.542C1056.13 319.679 1057.66 318.817 1059.39 318.146C1060.92 317.284 1062.45 316.422 1064.18 315.751C1065.71 314.889 1067.24 314.027 1068.97 313.356C1070.5 312.494 1072.03 311.631 1073.76 310.961C1074.43 310.578 1075.1 310.194 1075.77 309.811C1075.87 309.811 1075.96 309.715 1075.96 309.715C1077.11 309.14 1078.26 308.661 1079.51 308.182C1079.89 308.087 1080.18 307.895 1080.56 307.799C1081.14 307.608 1081.62 307.416 1082.19 307.32C1082.86 307.128 1083.53 306.937 1084.2 306.841C1088.9 304.733 1094.36 303.488 1100.39 303.488H1223.7M1223.7 293.811H1100.68C1093.78 293.811 1087.27 295.057 1081.42 297.643C1080.85 297.739 1080.37 297.931 1079.89 298.027C1079.22 298.218 1078.55 298.41 1077.88 298.697C1077.5 298.889 1077.02 298.985 1076.63 299.176L1076.44 299.272C1074.91 299.847 1073.38 300.518 1071.94 301.188C1071.84 301.188 1071.75 301.284 1071.65 301.38C1070.98 301.667 1070.31 302.051 1069.74 302.434C1068.11 303.105 1066.48 303.967 1064.95 304.829C1063.32 305.5 1061.69 306.362 1060.15 307.224C1058.53 307.895 1056.9 308.757 1055.36 309.619C1053.74 310.29 1052.11 311.152 1050.57 312.015C1034 319.009 1023.65 335.296 1023.65 354.649C1023.65 381.475 1043.01 401.02 1069.64 401.02H1085.54V547.032C1085.54 574.049 1104.32 593.019 1131.15 593.019C1140.35 593.019 1148.97 590.816 1156.25 586.504C1157.97 585.738 1159.51 584.971 1161.04 584.109C1162.76 583.343 1164.3 582.576 1165.83 581.714C1167.56 580.948 1169.09 580.181 1170.62 579.319C1172.25 578.648 1173.78 577.882 1175.32 577.019C1195.91 571.846 1208.66 554.984 1208.66 532.66V398.529C1211.44 397.571 1214.12 396.421 1216.61 394.984C1218.24 394.314 1219.77 393.547 1221.4 392.589C1223.03 391.918 1224.56 391.152 1226.19 390.194C1227.82 389.523 1229.35 388.757 1230.98 387.799C1232.61 387.128 1234.24 386.266 1235.77 385.404C1235.87 385.404 1235.96 385.308 1235.96 385.308C1256.37 380.23 1270.07 362.41 1270.07 340.47C1269.97 313.26 1250.52 293.811 1223.7 293.811Z" fill="url(#paint9_linear_24_2)"/>
<path d="M987.915 407.439H950.454C940.299 407.439 936.179 400.35 936.179 393.931C936.179 393.26 936.179 392.685 936.275 392.014H989.448C997.879 392.014 1004.87 390.002 1010.53 386.553C1012.25 385.883 1013.78 385.02 1015.32 384.158C1017.04 383.487 1018.57 382.625 1020.11 381.763C1021.83 381.092 1023.36 380.23 1024.9 379.368C1026.62 378.697 1028.15 377.835 1029.69 376.973C1044.44 370.937 1052.01 356.853 1052.01 342.865C1052.01 324.853 1038.88 306.458 1013.78 306.458H955.34C936.083 306.458 920.083 309.907 907.532 316.805C905.904 317.572 904.275 318.338 902.742 319.2C901.113 319.967 899.484 320.733 897.952 321.596C896.323 322.362 894.694 323.128 893.161 323.991C891.532 324.757 889.904 325.524 888.371 326.386C861.832 338.362 848.515 363.943 848.515 403.128C848.515 457.451 874.766 481.499 926.119 481.499H963.58C973.736 481.499 978.239 488.589 978.239 495.774C978.239 496.253 978.239 496.732 978.143 497.307H911.844C903.892 497.307 897.281 499.319 891.82 502.577C890.095 503.247 888.562 504.11 887.029 504.972C885.305 505.643 883.772 506.505 882.239 507.367C880.515 508.038 878.982 508.9 877.449 509.762C875.724 510.433 874.191 511.295 872.658 512.157C858.383 518.002 851.101 531.894 851.101 545.69C851.101 564.469 863.077 582.385 887.125 582.385H959.46C978.622 582.385 994.334 578.936 1006.79 572.037C1008.42 571.271 1010.05 570.504 1011.58 569.642C1013.21 568.876 1014.84 568.109 1016.37 567.247C1018 566.481 1019.63 565.714 1021.16 564.852C1022.79 564.085 1024.42 563.319 1025.95 562.457C1052.3 550.576 1065.52 525.187 1065.52 486.385C1065.52 432.158 1040.8 407.439 987.915 407.439Z" fill="url(#paint10_linear_24_2)"/>
<path d="M990.598 568.109H918.263C894.311 568.109 882.239 550.097 882.239 531.415C882.239 513.403 894.598 495.008 918.933 495.008H994.622C1004.78 495.008 1009.28 487.918 1009.28 481.499C1009.28 474.409 1004.78 467.224 994.622 467.224H957.161C905.808 467.224 879.556 443.272 879.556 388.853C879.556 332.23 907.341 304.158 962.43 304.158H1020.87C1045.97 304.158 1059.1 322.554 1059.1 340.565C1059.1 358.961 1045.97 377.643 1020.49 377.643H957.544C947.388 377.643 943.269 384.35 943.269 391.535C943.269 397.954 947.388 405.044 957.544 405.044H995.005C1047.89 405.044 1072.61 429.763 1072.61 484.182C1072.71 539.942 1045.4 568.109 990.598 568.109Z" fill="#FFEFAE"/>
<path d="M983.412 570.504H911.077C887.125 570.504 875.053 552.493 875.053 533.81C875.053 515.798 887.413 497.403 911.748 497.403H987.436C997.592 497.403 1002.09 490.313 1002.09 483.894C1002.09 476.804 997.592 469.619 987.436 469.619H950.071C898.718 469.619 872.467 445.667 872.467 391.248C872.467 334.625 900.251 306.554 955.34 306.554H1013.78C1038.88 306.554 1052.01 324.949 1052.01 342.961C1052.01 361.356 1038.88 380.038 1013.4 380.038H950.454C940.299 380.038 936.179 386.745 936.179 393.93C936.179 400.35 940.299 407.439 950.454 407.439H987.915C1040.8 407.439 1065.52 432.158 1065.52 486.577C1065.52 542.337 1038.21 570.504 983.412 570.504Z" fill="url(#paint11_linear_24_2)"/>
<path d="M1020.97 304.158C1046.07 304.158 1059.2 322.554 1059.2 340.565C1059.2 356.278 1049.62 372.182 1030.93 376.493C1030.55 376.685 1030.07 376.877 1029.69 377.068C1028.15 377.931 1026.62 378.793 1024.9 379.463C1023.36 380.326 1021.83 381.188 1020.11 381.859C1018.57 382.721 1017.04 383.583 1015.32 384.254C1013.78 385.116 1012.25 385.978 1010.53 386.649C1004.87 390.002 997.783 392.11 989.448 392.11H943.46C943.652 398.338 947.867 405.044 957.64 405.044H995.101C1047.99 405.044 1072.71 429.763 1072.71 484.181C1072.71 527.295 1056.32 553.93 1023.75 563.798C1022.89 564.181 1022.12 564.66 1021.16 565.043C1019.63 565.906 1018 566.672 1016.37 567.439C1014.84 568.301 1013.21 569.067 1011.58 569.834C1010.05 570.696 1008.42 571.463 1006.79 572.229C994.334 579.127 978.526 582.576 959.46 582.576H887.125C863.173 582.576 851.101 564.564 851.101 545.882C851.101 532.085 858.383 518.193 872.658 512.349C874.191 511.487 875.724 510.624 877.449 509.954C878.982 509.092 880.514 508.229 882.239 507.559C883.772 506.696 885.305 505.834 887.029 505.163C888.562 504.301 890.095 503.439 891.82 502.768C892.395 502.385 892.97 502.098 893.544 501.81C893.832 501.619 894.215 501.523 894.502 501.331C895.269 500.948 896.035 500.565 896.898 500.277C897.472 500.086 898.047 499.798 898.718 499.607C899.197 499.415 899.676 499.319 900.155 499.128C900.922 498.936 901.688 498.744 902.455 498.553C907.149 496.349 912.706 495.104 919.029 495.104H978.143C977.76 488.301 973.257 481.786 963.58 481.786H926.119C874.766 481.786 848.515 457.834 848.515 403.415C848.515 364.23 861.832 338.649 888.371 326.673C889.904 325.811 891.532 325.045 893.161 324.278C894.694 323.416 896.323 322.649 897.951 321.883C899.484 321.021 901.113 320.254 902.742 319.488C904.275 318.625 905.904 317.859 907.532 317.092C910.598 315.368 913.856 313.931 917.305 312.685C917.496 312.59 917.688 312.59 917.88 312.494C919.7 311.823 921.52 311.248 923.436 310.673C934.454 306.458 947.484 304.35 962.526 304.35H1020.97M1020.97 294.578H962.526C946.526 294.578 932.347 296.877 920.371 301.38C918.55 301.955 916.634 302.53 914.622 303.296L914.143 303.488L913.951 303.584C910.119 305.021 906.574 306.649 903.221 308.374C901.592 309.14 899.963 309.907 898.431 310.769C896.802 311.536 895.173 312.302 893.64 313.164C892.011 313.931 890.383 314.697 888.85 315.56C887.221 316.326 885.592 317.092 884.059 317.955C854.071 331.655 838.934 360.398 838.934 403.32C838.934 452.277 859.533 480.924 900.347 488.972C900.059 489.068 899.772 489.164 899.484 489.355C898.814 489.547 898.239 489.643 897.568 489.834C896.993 490.026 896.419 490.217 895.748 490.409C894.981 490.696 894.215 490.984 893.449 491.271C892.49 491.655 891.437 492.134 890.383 492.613C889.904 492.804 889.52 492.996 889.137 493.283C888.658 493.571 888.083 493.858 887.604 494.146C885.976 494.816 884.347 495.678 882.814 496.541C881.185 497.211 879.556 498.074 878.023 498.936C876.395 499.607 874.766 500.469 873.233 501.331C871.604 502.002 869.976 502.864 868.443 503.726C852.155 510.72 841.616 527.199 841.616 545.882C841.616 568.876 857.233 592.253 887.221 592.253H959.556C980.059 592.253 997.4 588.421 1011.2 580.947C1012.83 580.181 1014.45 579.415 1015.99 578.552C1017.62 577.786 1019.24 577.019 1020.78 576.157C1022.41 575.391 1024.03 574.624 1025.57 573.762C1026.24 573.474 1026.81 573.187 1027.39 572.804C1045.5 567.151 1059.39 556.612 1068.68 541.57C1077.78 526.816 1082.38 507.559 1082.38 484.277C1082.38 454.289 1075.29 432.445 1060.63 417.595C1049.14 405.906 1033.33 398.912 1012.73 396.517C1013.5 396.134 1014.17 395.751 1014.84 395.368C1016.47 394.697 1018.09 393.835 1019.63 392.972C1021.26 392.302 1022.89 391.439 1024.42 390.577C1026.05 389.907 1027.68 389.044 1029.21 388.182C1030.84 387.511 1032.47 386.649 1034 385.787C1058.05 379.751 1068.78 358.961 1068.78 340.757C1068.87 318.242 1052.11 294.578 1020.97 294.578Z" fill="url(#paint12_linear_24_2)"/>
<path d="M820.156 327.344C814.503 313.835 806.263 305.212 787.198 305.212C778.192 305.212 771.677 307.033 766.695 310.098C764.97 310.769 763.341 311.536 761.904 312.494C760.18 313.164 758.551 313.931 757.114 314.889C755.389 315.56 753.761 316.326 752.324 317.284C750.599 317.955 748.97 318.721 747.533 319.679C738.527 323.128 733.641 329.931 729.521 338.937L640.324 534.672C638.408 538.026 637.737 542.912 637.737 549.331C637.737 570.313 657.57 583.822 677.114 583.822C682.575 583.822 688.132 582.289 693.21 579.223C694.839 578.552 696.468 577.786 698.001 576.828C699.629 576.157 701.258 575.391 702.791 574.433C704.42 573.762 706.048 572.995 707.581 572.037C709.21 571.367 710.839 570.6 712.372 569.642C720.611 566.385 728.084 559.391 732.97 548.181L739.773 531.319H798.599L809.138 560.157C814.79 575.87 825.233 583.822 841.425 583.822C848.898 583.822 856.275 581.714 862.598 577.977C864.227 577.307 865.856 576.444 867.389 575.582C869.018 574.912 870.646 574.049 872.179 573.187C873.808 572.516 875.437 571.654 876.97 570.792C878.598 570.121 880.227 569.259 881.76 568.397C894.503 562.936 904.371 551.534 904.371 537.355C904.371 531.319 903.604 526.529 901.784 522.696L820.156 327.344ZM774.455 461.954H767.27L771.198 452.277L774.455 461.954Z" fill="url(#paint13_linear_24_2)"/>
<path d="M829.545 516.948H751.557L739.964 545.786C732.875 561.882 720.515 569.451 708.06 569.451C688.611 569.451 668.683 555.942 668.683 534.96C668.683 528.541 669.45 523.75 671.27 520.301L760.467 324.566C766.503 311.44 774.359 302.817 794.192 302.817C813.353 302.817 821.593 311.44 827.15 324.949L908.491 520.301C910.407 524.038 911.077 528.924 911.077 534.96C911.077 554.792 891.628 569.451 872.084 569.451C855.988 569.451 845.449 561.594 839.796 545.786L829.545 516.948ZM774.455 459.559H809.713L793.617 411.942L774.455 459.559Z" fill="#FFEFAE"/>
<path d="M822.359 519.343H744.371L732.779 548.181C725.689 564.277 713.33 571.846 700.875 571.846C681.426 571.846 661.498 558.337 661.498 537.355C661.498 530.936 662.264 526.145 664.084 522.696L753.377 326.961C759.413 313.835 767.27 305.212 787.102 305.212C806.263 305.212 814.503 313.835 820.06 327.344L901.401 522.696C903.317 526.433 903.987 531.319 903.987 537.355C903.987 557.187 884.538 571.846 864.994 571.846C848.898 571.846 838.359 563.99 832.706 548.181L822.359 519.343ZM767.27 461.954H802.527L786.431 414.338L767.27 461.954Z" fill="url(#paint14_linear_24_2)"/>
<path d="M794.383 302.817C813.545 302.817 821.784 311.44 827.341 324.949L908.682 520.301C910.598 524.038 911.269 528.924 911.269 534.96C911.269 551.63 897.568 564.469 881.664 568.301C881.568 568.301 881.473 568.397 881.473 568.397C879.94 569.259 878.311 570.121 876.682 570.792C875.149 571.654 873.521 572.516 871.892 573.187C870.359 574.049 868.73 574.912 867.102 575.582C865.569 576.445 863.94 577.307 862.311 577.978C855.988 581.714 848.515 583.822 841.138 583.822C825.042 583.822 814.503 575.966 808.85 560.157L798.311 531.319H745.713L739.869 545.786C733.928 559.295 724.252 566.768 714 568.78C713.33 569.067 712.755 569.355 712.084 569.642C710.551 570.6 708.923 571.367 707.294 572.037C705.761 572.995 704.132 573.762 702.503 574.433C700.971 575.391 699.342 576.157 697.713 576.828C696.18 577.786 694.551 578.552 692.923 579.223C687.845 582.289 682.384 583.822 676.827 583.822C657.378 583.822 637.45 570.313 637.45 549.331C637.45 542.912 638.216 538.121 640.037 534.672L729.234 338.937C733.354 330.027 738.24 323.224 747.246 319.679C748.683 318.721 750.312 317.955 752.036 317.284C753.473 316.326 755.102 315.56 756.827 314.889C758.264 313.931 759.892 313.164 761.617 312.494C763.054 311.536 764.683 310.769 766.407 310.099C766.982 309.715 767.557 309.428 768.132 309.14C768.228 309.045 768.324 309.045 768.419 308.949C768.994 308.661 769.569 308.374 770.144 308.182C770.336 308.087 770.527 307.991 770.719 307.895C771.294 307.703 771.773 307.512 772.347 307.32C772.635 307.224 772.922 307.129 773.21 307.033C773.785 306.841 774.264 306.745 774.838 306.554C775.222 306.458 775.605 306.362 775.892 306.266C775.988 306.266 776.084 306.17 776.276 306.17C781.066 304.063 786.91 302.817 794.383 302.817ZM794.383 293.236C786.144 293.236 779.341 294.482 773.401 297.164C773.114 297.26 772.922 297.26 772.635 297.356C771.964 297.548 771.198 297.739 770.527 297.931C770.144 298.027 769.761 298.123 769.473 298.314C768.707 298.602 768.036 298.793 767.27 299.081C766.982 299.176 766.791 299.272 766.503 299.368C765.641 299.751 764.97 300.039 764.204 300.422L763.821 300.614C763.246 300.901 762.767 301.188 762.192 301.476C760.563 302.146 758.934 303.009 757.401 303.871C755.773 304.542 754.144 305.404 752.611 306.266C750.982 306.937 749.354 307.799 747.821 308.661C746.192 309.332 744.563 310.194 743.03 311.057C730.479 316.23 724.444 326.482 720.611 334.913L631.51 530.361C629.019 535.056 627.869 540.996 627.869 549.235C627.869 576.445 653.258 593.307 676.827 593.307C683.917 593.307 690.911 591.391 697.138 587.75C698.767 587.079 700.396 586.217 701.929 585.355C703.557 584.684 705.186 583.822 706.719 582.96C708.348 582.289 709.977 581.427 711.509 580.564C713.138 579.894 714.767 579.031 716.3 578.169C716.491 578.073 716.779 577.978 716.971 577.882C730.671 574.72 741.881 564.66 748.587 549.618L748.683 549.427L748.779 549.235L752.228 540.804H791.605L799.844 563.319C806.838 582.864 821.114 593.211 841.138 593.211C849.952 593.211 858.766 590.816 866.718 586.313C868.443 585.546 869.976 584.78 871.509 583.918C873.233 583.151 874.862 582.385 876.299 581.522C878.024 580.756 879.652 579.989 881.089 579.127C882.622 578.457 883.964 577.786 885.305 577.115C906.383 571.558 920.946 554.313 920.946 534.768C920.946 527.008 919.796 521.068 917.496 516.181L836.251 321.116C830.79 308.182 821.114 293.236 794.383 293.236Z" fill="url(#paint15_linear_24_2)"/>
<path d="M634.959 497.978H596.348V342.003C596.348 319.104 579.486 305.979 559.941 305.979C552.66 305.979 545.762 307.799 540.013 311.344C538.384 312.015 536.756 312.781 535.223 313.739C533.594 314.41 531.965 315.176 530.432 316.134C528.804 316.805 527.175 317.572 525.642 318.53C524.013 319.2 522.385 319.967 520.852 320.925C508.684 326.003 500.061 337.404 500.061 353.979V546.361C500.061 570.696 512.037 583.055 536.085 583.055H610.911C618.288 583.055 624.516 581.235 629.498 578.073C631.222 577.403 632.755 576.636 634.288 575.678C636.013 575.007 637.546 574.241 639.079 573.283C640.803 572.612 642.336 571.846 643.869 570.888C645.594 570.217 647.126 569.451 648.659 568.492C662.168 563.127 669.354 549.618 669.354 534.289C669.45 514.457 657.378 497.978 634.959 497.978Z" fill="url(#paint16_linear_24_2)"/>
<path d="M567.127 568.684C543.175 568.684 531.103 556.325 531.103 531.99V339.607C531.103 316.709 547.582 303.584 567.127 303.584C586.576 303.584 603.534 316.709 603.534 339.607V495.583H642.144C664.659 495.583 676.635 512.062 676.635 531.99C676.635 551.918 664.659 568.684 642.144 568.684H567.127Z" fill="#FFEFAE"/>
<path d="M559.941 571.079C535.989 571.079 523.917 558.72 523.917 534.385V342.003C523.917 319.104 540.396 305.979 559.941 305.979C579.39 305.979 596.348 319.104 596.348 342.003V497.978H634.959C657.474 497.978 669.45 514.457 669.45 534.385C669.45 554.217 657.474 571.079 634.959 571.079H559.941Z" fill="url(#paint17_linear_24_2)"/>
<path d="M567.127 303.584C586.576 303.584 603.534 316.709 603.534 339.607V495.583H642.144C664.659 495.583 676.635 512.062 676.635 531.99C676.635 549.235 667.534 564.277 650.384 567.918C649.809 568.205 649.33 568.397 648.755 568.588C647.222 569.546 645.689 570.313 643.965 570.983C642.432 571.942 640.899 572.708 639.174 573.379C637.642 574.337 636.109 575.103 634.384 575.774C632.851 576.732 631.318 577.498 629.594 578.169C624.516 581.331 618.288 583.151 611.007 583.151H535.989C512.037 583.151 499.966 570.792 499.966 546.457V353.979C499.966 337.404 508.588 326.003 520.756 320.925C522.289 319.967 523.918 319.2 525.546 318.53C527.079 317.572 528.708 316.805 530.337 316.134C531.87 315.176 533.498 314.41 535.127 313.739C536.66 312.781 538.289 312.015 539.917 311.344C540.013 311.344 540.013 311.248 540.109 311.248C540.875 310.769 541.738 310.29 542.6 309.907C542.887 309.811 543.175 309.619 543.462 309.524C544.133 309.236 544.804 308.949 545.474 308.661C545.762 308.566 546.049 308.47 546.337 308.278C547.295 307.895 548.253 307.608 549.307 307.32H549.402C549.881 307.224 550.456 307.128 550.935 306.937C555.822 304.733 561.378 303.584 567.127 303.584ZM567.127 294.003C560.325 294.003 553.905 295.248 547.965 297.835C547.678 297.931 547.486 297.931 547.199 298.027H547.103L546.816 298.123C545.666 298.41 544.42 298.793 543.079 299.272C542.792 299.368 542.504 299.464 542.121 299.655L541.929 299.751C541.067 300.135 540.205 300.422 539.343 300.805L539.151 300.901C538.864 301.093 538.48 301.188 538.193 301.38C537.235 301.859 536.373 302.338 535.51 302.817C533.69 303.584 532.157 304.35 530.624 305.212C528.9 305.979 527.271 306.745 525.834 307.608C524.109 308.374 522.48 309.14 521.043 310.003C519.319 310.769 517.69 311.536 516.253 312.398C499.966 319.488 490.193 335.009 490.193 353.979V546.361C490.193 576.253 506.385 592.732 535.798 592.732H610.911C619.438 592.732 627.198 590.72 633.809 586.792C635.534 586.121 637.067 585.259 638.6 584.397C640.324 583.726 641.857 582.864 643.39 582.001C645.115 581.331 646.647 580.468 648.18 579.606C649.809 578.936 651.438 578.073 652.971 577.211C653.067 577.115 653.258 577.115 653.354 577.019C673.282 572.325 686.12 554.696 686.12 531.99C686.12 504.972 668.013 486.002 642.049 486.002H613.019V339.607C613.115 313.164 593.761 294.003 567.127 294.003Z" fill="url(#paint18_linear_24_2)"/>
<path d="M473.522 436.278C474.002 435.99 474.576 435.799 475.151 435.415C476.78 434.649 478.409 433.882 479.942 433.02C500.828 423.918 510.504 401.308 510.504 374.769C510.504 340.278 491.343 306.554 454.265 306.554H339.104C331.152 306.554 324.733 308.182 319.655 311.344C317.93 312.015 316.302 312.781 314.865 313.739C313.14 314.41 311.511 315.176 310.074 316.135C308.35 316.805 306.721 317.572 305.284 318.53C303.559 319.2 301.931 319.967 300.493 320.925C288.23 325.619 282.194 337.116 282.194 355.32V545.403C282.194 570.121 293.787 582.481 317.068 582.481H425.427C439.99 582.481 451.87 579.415 461.355 574.049C462.984 573.283 464.612 572.517 466.145 571.654C467.774 570.888 469.403 570.121 470.936 569.259C472.564 568.493 474.193 567.726 475.726 566.864C477.355 566.097 478.984 565.331 480.517 564.469C504.564 553.642 515.007 529.595 515.007 502.289C514.912 468.852 498.72 440.685 473.522 436.278ZM406.17 392.014C416.708 392.014 421.211 399.871 421.211 407.727C421.211 409.93 420.924 412.038 420.445 414.146H375.894V392.014H406.17ZM375.798 497.403V479.391H406.17C416.708 479.391 421.211 486.864 421.211 494.433C421.211 495.391 421.116 496.445 420.924 497.403H375.798Z" fill="url(#paint19_linear_24_2)"/>
<path d="M313.332 340.949C313.332 316.614 324.158 304.254 346.289 304.254H461.355C498.432 304.254 517.594 337.979 517.594 372.47C517.594 402.457 505.235 427.559 478.217 433.595C504.852 436.565 522.097 465.499 522.097 499.99C522.097 537.068 502.935 568.205 456.469 568.205H348.206C324.924 568.205 313.332 555.846 313.332 531.127V340.949ZM382.984 377.643V411.751H437.307C447.463 411.751 452.349 402.745 452.349 393.356C452.349 385.499 447.846 377.643 437.307 377.643H382.984ZM382.984 465.02V495.008H437.307C447.846 495.008 452.349 487.152 452.349 479.966C452.349 472.493 447.846 464.924 437.307 464.924H382.984V465.02Z" fill="#FFEFAE"/>
<path d="M306.146 343.344C306.146 319.009 316.972 306.649 339.104 306.649H454.169C491.247 306.649 510.409 340.374 510.409 374.865C510.409 404.853 498.049 429.954 471.032 435.99C497.666 438.96 514.912 467.894 514.912 502.385C514.912 539.463 495.75 570.6 449.283 570.6H340.924C317.643 570.6 306.05 558.241 306.05 533.523V343.344H306.146ZM375.798 380.038V414.146H430.122C440.277 414.146 445.163 405.14 445.163 395.751C445.163 387.895 440.66 380.038 430.122 380.038H375.798ZM375.798 467.415V497.403H430.122C440.66 497.403 445.163 489.547 445.163 482.361C445.163 474.888 440.66 467.319 430.122 467.319H375.798V467.415Z" fill="url(#paint20_linear_24_2)"/>
<path d="M461.355 304.158C498.433 304.158 517.594 337.883 517.594 372.374C517.594 401.787 505.618 426.505 479.75 433.116C479.463 433.307 479.175 433.403 478.792 433.595C505.043 436.948 522.097 465.595 522.097 499.894C522.097 530.361 509.259 556.708 478.984 565.235C477.834 565.81 476.78 566.385 475.63 566.96C474.097 567.822 472.469 568.588 470.84 569.355C469.307 570.217 467.678 570.983 466.049 571.75C464.517 572.612 462.888 573.379 461.259 574.145C451.774 579.51 439.894 582.576 425.331 582.576H316.972C293.691 582.576 282.098 570.217 282.098 545.499V355.32C282.098 337.116 288.134 325.619 300.398 320.925C301.835 319.967 303.463 319.2 305.188 318.53C306.625 317.572 308.254 316.805 309.978 316.134C311.415 315.176 313.044 314.41 314.769 313.739C316.206 312.781 317.835 312.015 319.559 311.344C320.709 310.673 321.954 310.003 323.2 309.428C323.391 309.332 323.583 309.236 323.775 309.14C324.35 308.949 324.924 308.661 325.499 308.47C325.882 308.374 326.266 308.278 326.649 308.087C327.128 307.895 327.703 307.799 328.182 307.607C328.565 307.512 328.948 307.416 329.332 307.32C333.93 305.116 339.583 303.967 346.194 303.967H461.355M461.355 294.578H346.29C338.721 294.578 332.11 295.823 326.362 298.41C326.266 298.41 326.074 298.506 325.978 298.506C325.403 298.602 324.829 298.793 324.254 298.985L323.966 299.081C323.487 299.272 323.008 299.368 322.529 299.56C321.763 299.847 320.996 300.134 320.326 300.422C320.134 300.518 319.847 300.614 319.655 300.709C318.122 301.38 316.685 302.051 315.439 302.817C313.811 303.488 312.182 304.254 310.649 305.212C309.02 305.883 307.392 306.649 305.859 307.607C304.23 308.278 302.601 309.045 301.068 310.003C299.44 310.673 297.811 311.44 296.278 312.398C285.26 316.901 272.613 328.015 272.613 355.416V545.403C272.613 575.486 288.422 592.157 317.068 592.157H425.427C440.852 592.157 454.457 588.995 465.666 582.768C467.391 582.001 469.02 581.139 470.457 580.373C472.181 579.606 473.81 578.744 475.247 577.977C476.972 577.211 478.6 576.349 480.037 575.582C480.996 575.103 481.858 574.72 482.624 574.241C513.858 564.948 531.774 537.93 531.774 499.99C531.774 470.098 520.373 445.475 502.361 432.828C518.265 420.565 527.367 399.391 527.367 372.565C527.175 333.763 504.564 294.578 461.355 294.578Z" fill="url(#paint21_linear_24_2)"/>
<path d="M1357.45 842.216C1359.17 841.449 1360.8 840.587 1362.43 839.725C1364.15 838.958 1365.78 838.096 1367.41 837.234C1394.62 824.874 1408.22 798.719 1408.22 758.671C1408.22 702.528 1382.64 676.947 1328.03 676.947H1289.33C1278.88 676.947 1274.57 669.57 1274.57 663.055C1274.57 662.384 1274.57 661.714 1274.67 661.139H1329.57C1338.19 661.139 1345.47 659.031 1351.31 655.486C1353.04 654.815 1354.67 653.953 1356.3 652.995C1358.02 652.324 1359.65 651.462 1361.28 650.504C1363 649.833 1364.63 648.971 1366.26 648.013C1367.99 647.342 1369.61 646.48 1371.24 645.522C1386.48 639.295 1394.33 624.732 1394.33 610.361C1394.33 591.774 1380.82 572.804 1354.86 572.804H1294.5C1274.57 572.804 1258.09 576.349 1245.16 583.534C1243.43 584.301 1241.81 585.163 1240.18 586.025C1238.45 586.792 1236.82 587.654 1235.2 588.516C1233.47 589.283 1231.84 590.145 1230.21 591.007C1228.49 591.774 1226.86 592.636 1225.23 593.498C1197.83 605.858 1184.03 632.301 1184.03 672.732C1184.03 728.875 1211.15 753.689 1264.23 753.689H1302.93C1313.37 753.689 1318.07 761.066 1318.07 768.444C1318.07 768.923 1318.07 769.498 1317.97 769.977H1249.57C1241.33 769.977 1234.52 771.989 1228.97 775.342C1227.24 776.012 1225.52 776.875 1223.99 777.833C1222.26 778.503 1220.54 779.366 1219 780.324C1217.28 780.994 1215.55 781.857 1214.02 782.815C1212.3 783.485 1210.57 784.348 1209.04 785.306C1194.29 791.342 1186.81 805.713 1186.81 819.892C1186.81 839.246 1199.17 857.832 1223.99 857.832H1298.72C1318.45 857.832 1334.74 854.288 1347.67 847.198C1349.4 846.431 1351.03 845.569 1352.66 844.707C1354.19 843.94 1355.82 843.174 1357.45 842.216Z" fill="url(#paint22_linear_24_2)"/>
<path d="M1330.81 842.982H1256.08C1231.27 842.982 1218.91 824.395 1218.91 805.042C1218.91 786.455 1231.65 767.485 1256.85 767.485H1335.03C1345.47 767.485 1350.16 760.108 1350.16 753.593C1350.16 746.216 1345.57 738.839 1335.03 738.839H1296.32C1243.24 738.839 1216.13 714.025 1216.13 657.881C1216.13 599.438 1244.78 570.409 1301.69 570.409H1362.05C1388.01 570.409 1401.52 589.379 1401.52 607.965C1401.52 626.935 1388.01 646.288 1361.66 646.288H1296.61C1286.17 646.288 1281.85 653.282 1281.85 660.66C1281.85 667.27 1286.07 674.552 1296.61 674.552H1335.31C1389.93 674.552 1415.51 700.133 1415.51 756.276C1415.6 813.952 1387.34 842.982 1330.81 842.982Z" fill="#FFEFAE"/>
<path d="M1323.34 845.473H1248.61C1223.79 845.473 1211.44 826.886 1211.44 807.533C1211.44 788.947 1224.18 769.977 1249.38 769.977H1327.55C1338 769.977 1342.69 762.599 1342.69 756.084C1342.69 748.707 1338.09 741.33 1327.55 741.33H1288.85C1235.77 741.33 1208.66 716.516 1208.66 660.372C1208.66 601.929 1237.3 572.9 1294.21 572.9H1354.57C1380.54 572.9 1394.05 591.87 1394.05 610.456C1394.05 629.426 1380.54 648.78 1354.19 648.78H1289.14C1278.69 648.78 1274.38 655.774 1274.38 663.151C1274.38 669.761 1278.6 677.043 1289.14 677.043H1327.84C1382.45 677.043 1408.03 702.624 1408.03 758.767C1408.22 816.443 1379.96 845.473 1323.34 845.473Z" fill="url(#paint23_linear_24_2)"/>
<path d="M1362.14 570.409C1388.1 570.409 1401.61 589.379 1401.61 607.965C1401.61 624.157 1391.65 640.636 1372.39 645.043C1372.01 645.235 1371.53 645.426 1371.15 645.618C1369.61 646.576 1367.99 647.342 1366.16 648.109C1364.63 649.067 1363 649.833 1361.18 650.6C1359.65 651.558 1358.02 652.324 1356.2 653.091C1354.67 654.049 1353.04 654.815 1351.22 655.582C1345.37 659.031 1338.09 661.235 1329.47 661.235H1281.95C1282.14 667.654 1286.45 674.648 1296.61 674.648H1335.31C1389.93 674.648 1415.51 700.228 1415.51 756.372C1415.51 800.922 1398.64 828.419 1364.92 838.575C1364.06 839.054 1363.19 839.437 1362.24 839.916C1360.61 840.779 1358.98 841.641 1357.25 842.407C1355.63 843.27 1354 844.132 1352.27 844.898C1350.64 845.761 1349.02 846.623 1347.29 847.389C1334.45 854.479 1318.17 858.024 1298.33 858.024H1223.6C1198.79 858.024 1186.43 839.437 1186.43 820.084C1186.43 805.904 1193.9 791.437 1208.66 785.497C1210.19 784.539 1211.82 783.773 1213.64 783.006C1215.17 782.048 1216.8 781.282 1218.62 780.515C1220.15 779.557 1221.78 778.791 1223.6 778.024C1225.14 777.066 1226.76 776.3 1228.58 775.533C1229.16 775.15 1229.73 774.863 1230.31 774.575C1230.6 774.384 1230.98 774.192 1231.36 774.096C1232.13 773.713 1232.99 773.33 1233.85 773.042C1234.43 772.755 1235.1 772.563 1235.77 772.372C1236.25 772.18 1236.73 772.084 1237.21 771.893C1237.97 771.701 1238.74 771.509 1239.6 771.318C1244.49 769.114 1250.14 767.773 1256.75 767.773H1317.78C1317.4 760.779 1312.7 753.977 1302.74 753.977H1264.03C1210.96 753.977 1183.84 729.162 1183.84 673.019C1183.84 632.492 1197.64 606.145 1225.04 593.786C1226.67 592.923 1228.3 592.061 1230.02 591.295C1231.65 590.432 1233.28 589.57 1235 588.804C1236.63 587.941 1238.26 587.079 1239.99 586.313C1241.61 585.45 1243.24 584.588 1244.97 583.822C1248.13 582.097 1251.48 580.564 1255.03 579.223C1255.22 579.127 1255.41 579.031 1255.6 579.031C1257.42 578.361 1259.34 577.69 1261.35 577.211C1272.66 572.804 1286.17 570.6 1301.78 570.6H1362.14M1362.14 560.445H1301.78C1285.21 560.445 1270.64 562.84 1258.19 567.534C1256.27 568.109 1254.36 568.684 1252.25 569.45L1251.77 569.642L1251.58 569.738C1247.65 571.175 1243.91 572.9 1240.46 574.72C1238.74 575.486 1237.11 576.349 1235.48 577.211C1233.76 577.977 1232.13 578.84 1230.5 579.702C1228.78 580.468 1227.15 581.331 1225.52 582.193C1223.79 582.959 1222.17 583.822 1220.54 584.684C1189.59 598.864 1173.88 628.468 1173.88 672.827C1173.88 723.318 1195.15 753.018 1237.3 761.258C1237.02 761.354 1236.73 761.545 1236.44 761.641C1235.77 761.833 1235.1 762.024 1234.52 762.12C1233.95 762.312 1233.28 762.503 1232.7 762.695C1231.84 762.982 1231.08 763.27 1230.31 763.557C1229.26 763.941 1228.2 764.42 1227.15 764.899C1226.67 765.09 1226.29 765.378 1225.81 765.569C1225.23 765.857 1224.75 766.144 1224.27 766.432C1222.55 767.198 1220.92 767.965 1219.29 768.923C1217.57 769.689 1215.94 770.456 1214.31 771.414C1212.58 772.18 1210.96 772.947 1209.33 773.905C1207.6 774.671 1205.97 775.438 1204.35 776.396C1187.48 783.581 1176.66 800.635 1176.66 819.892C1176.66 843.653 1192.85 867.796 1223.7 867.796H1298.43C1319.6 867.796 1337.52 863.868 1351.79 856.108C1353.52 855.341 1355.15 854.479 1356.78 853.617C1358.5 852.85 1360.13 851.988 1361.76 851.126C1363.48 850.359 1365.11 849.497 1366.74 848.635C1367.41 848.347 1367.99 847.964 1368.66 847.677C1387.43 841.832 1401.71 831.006 1411.29 815.389C1420.68 800.156 1425.37 780.228 1425.37 756.18C1425.37 725.138 1418 702.624 1402.96 687.294C1391.07 675.222 1374.79 668.037 1353.42 665.546C1354.19 665.163 1354.96 664.779 1355.63 664.3C1357.25 663.63 1358.98 662.767 1360.61 661.809C1362.24 661.139 1363.96 660.276 1365.59 659.318C1367.22 658.648 1368.94 657.785 1370.57 656.827C1372.3 656.061 1373.93 655.294 1375.55 654.336C1400.37 648.109 1411.48 626.552 1411.48 607.774C1411.58 584.971 1394.24 560.445 1362.14 560.445Z" fill="url(#paint24_linear_24_2)"/>
<path d="M1055.56 572.9H1019.15C1013.02 572.9 1006.6 574.912 1000.85 578.265C999.125 578.936 997.496 579.798 995.867 580.756C994.143 581.427 992.514 582.289 990.885 583.247C989.161 583.918 987.532 584.78 985.903 585.738C984.179 586.409 982.55 587.271 980.921 588.229C967.029 594.073 955.149 607.965 955.149 623.295V819.988C955.149 843.653 970.67 857.928 994.238 857.928H1036.87C1063.22 857.928 1085.74 852.084 1104.42 842.216C1106.14 841.449 1107.77 840.587 1109.4 839.725C1111.12 838.958 1112.75 838.096 1114.38 837.234C1116.11 836.467 1117.73 835.605 1119.36 834.743C1121.09 833.976 1122.72 833.114 1124.35 832.252C1172.44 809.545 1196.87 760.683 1196.87 711.15C1196.87 642.552 1149.64 572.9 1055.56 572.9ZM1062.07 769.977H1055.08V664.013C1084.2 671.103 1097.71 695.534 1097.71 719.582C1097.71 737.977 1090.53 756.276 1076.63 768.348C1072.13 769.402 1067.34 769.977 1062.07 769.977Z" fill="url(#paint25_linear_24_2)"/>
<path d="M987.436 608.349C987.436 588.229 1007.94 570.409 1026.53 570.409H1062.93C1157.02 570.409 1204.25 640.061 1204.25 708.659C1204.25 776.396 1158.55 842.982 1069.16 842.982H1026.53C1002.86 842.982 987.436 828.611 987.436 805.042V608.349ZM1069.54 767.485C1109.02 767.485 1129.9 736.156 1129.9 704.731C1129.9 676.085 1110.93 647.055 1069.16 647.055H1062.55V767.485H1069.54Z" fill="#FFEFAE"/>
<path d="M980.059 610.84C980.059 590.72 1000.56 572.9 1019.15 572.9H1055.56C1149.64 572.9 1196.87 642.552 1196.87 711.15C1196.87 778.887 1151.17 845.473 1061.78 845.473H1019.15C995.484 845.473 980.059 831.102 980.059 807.533V610.84ZM1062.07 769.977C1101.54 769.977 1122.43 738.647 1122.43 707.222C1122.43 678.576 1103.46 649.546 1061.69 649.546H1055.08V769.977H1062.07Z" fill="url(#paint26_linear_24_2)"/>
<path d="M1062.93 570.409C1157.02 570.409 1204.25 640.061 1204.25 708.659C1204.25 762.503 1175.32 815.581 1118.6 835.126C1117.26 835.797 1115.82 836.563 1114.38 837.234C1112.75 838.096 1111.12 838.958 1109.4 839.725C1107.77 840.587 1106.14 841.449 1104.42 842.216C1085.74 852.084 1063.22 857.928 1036.87 857.928H994.239C970.574 857.928 955.149 843.557 955.149 819.988V623.199C955.149 607.87 967.029 593.882 980.921 588.133C982.55 587.175 984.179 586.409 985.903 585.642C987.532 584.684 989.161 583.918 990.885 583.151C992.514 582.193 994.143 581.426 995.867 580.66C997.496 579.702 999.125 578.936 1000.85 578.169C1001.52 577.786 1002.19 577.403 1002.96 577.019C1003.05 576.924 1003.24 576.924 1003.34 576.828C1004.49 576.253 1005.64 575.774 1006.79 575.295C1007.17 575.199 1007.46 575.007 1007.84 574.912C1008.32 574.72 1008.9 574.528 1009.38 574.433C1010.05 574.241 1010.72 574.049 1011.29 573.858C1011.58 573.762 1011.96 573.666 1012.25 573.57C1016.85 571.463 1021.74 570.313 1026.53 570.313H1062.93M1062.93 560.445H1026.53C1020.78 560.445 1014.84 561.69 1008.99 564.181H1008.9C1008.03 564.373 1007.17 564.66 1006.41 564.852C1005.74 565.043 1005.16 565.235 1004.49 565.522C1004.11 565.714 1003.72 565.81 1003.34 566.001L1003.15 566.097C1001.71 566.672 1000.37 567.247 998.933 567.918L998.454 568.205C997.784 568.588 997.113 568.876 996.442 569.259C994.813 569.93 993.089 570.792 991.46 571.75C989.831 572.421 988.107 573.283 986.478 574.241C984.849 574.912 983.125 575.774 981.496 576.732C979.867 577.403 978.143 578.265 976.514 579.223C958.119 587.175 945.281 605.187 945.281 623.199V819.892C945.281 848.539 965.017 867.796 994.334 867.796H1036.97C1063.6 867.796 1087.84 862.144 1108.92 851.03C1110.55 850.264 1112.27 849.401 1113.9 848.539C1115.53 847.773 1117.26 846.91 1118.88 846.048C1120.23 845.377 1121.47 844.802 1122.53 844.228C1178.29 824.779 1214.21 771.605 1214.21 708.564C1214.21 670.145 1200.7 634.121 1176.27 607.103C1148.59 576.636 1109.4 560.445 1062.93 560.445Z" fill="url(#paint27_linear_24_2)"/>
<path d="M914.143 570.984C906.766 570.984 899.676 572.9 893.736 576.54C892.012 577.211 890.383 578.073 888.754 579.031C887.029 579.702 885.401 580.564 883.772 581.522C882.047 582.193 880.419 583.055 878.79 584.013C877.065 584.684 875.437 585.546 873.808 586.504C861.257 591.774 852.155 603.558 852.155 620.612V751.869C852.155 760.396 850.431 767.294 846.886 772.563C845.257 772.659 843.533 772.755 841.712 772.755C818.048 772.755 806.455 761.545 806.455 739.414V608.157C806.455 584.492 789.401 570.984 768.898 570.984C761.33 570.984 754.144 572.9 748.108 576.54C746.383 577.211 744.755 578.073 743.126 579.031C741.401 579.702 739.773 580.564 738.144 581.522C736.419 582.193 734.791 583.055 733.162 584.013C731.437 584.684 729.809 585.546 728.18 586.504C715.533 591.774 706.527 603.558 706.527 620.516V740.18C706.527 819.988 743.701 859.844 817.665 859.844C841.904 859.844 862.024 855.437 878.215 846.719C879.94 845.952 881.568 845.09 883.197 844.228C884.922 843.461 886.55 842.599 888.179 841.737C889.904 840.97 891.532 840.108 893.161 839.246C894.886 838.479 896.514 837.617 898.143 836.755C934.167 820.084 952.179 783.773 952.179 727.725V608.157C952.083 584.492 934.646 570.984 914.143 570.984Z" fill="url(#paint28_linear_24_2)"/>
<path d="M959.46 725.234C959.46 805.042 923.053 844.898 849.856 844.898C775.892 844.898 738.719 805.042 738.719 725.234V605.666C738.719 582.001 756.156 568.492 776.275 568.492C796.778 568.492 813.832 582.001 813.832 605.666V736.923C813.832 758.959 825.425 770.264 849.089 770.264C872.754 770.264 884.347 759.054 884.347 736.923V605.666C884.347 582.001 901.784 568.492 921.52 568.492C942.023 568.492 959.46 582.001 959.46 605.666V725.234Z" fill="#FFEFAE"/>
<path d="M952.083 727.725C952.083 807.533 915.676 847.389 842.479 847.389C768.515 847.389 731.342 807.533 731.342 727.725V608.157C731.342 584.492 748.779 570.984 768.899 570.984C789.401 570.984 806.455 584.492 806.455 608.157V739.414C806.455 761.45 818.048 772.755 841.713 772.755C865.377 772.755 876.97 761.545 876.97 739.414V608.157C876.97 584.492 894.407 570.984 914.143 570.984C934.646 570.984 952.083 584.492 952.083 608.157V727.725Z" fill="url(#paint29_linear_24_2)"/>
<path d="M921.52 568.492C942.023 568.492 959.46 582.001 959.46 605.666V725.33C959.46 786.935 937.712 824.683 894.215 838.767C893.832 838.958 893.449 839.15 893.065 839.341C891.437 840.204 889.808 841.066 888.083 841.832C886.455 842.695 884.826 843.557 883.101 844.323C881.473 845.186 879.844 846.048 878.119 846.814C861.928 855.533 841.808 859.94 817.569 859.94C743.605 859.94 706.432 820.084 706.432 740.276V620.516C706.432 603.462 715.533 591.774 728.084 586.504C729.617 585.546 731.342 584.78 733.066 584.013C734.599 583.055 736.324 582.289 738.048 581.522C739.581 580.564 741.306 579.798 743.03 579.031C744.563 578.073 746.288 577.307 748.012 576.54C748.204 576.445 748.491 576.253 748.683 576.157C749.354 575.774 750.024 575.391 750.791 575.007C751.174 574.816 751.557 574.624 751.845 574.528C752.515 574.241 753.09 573.953 753.761 573.762C754.144 573.666 754.431 573.474 754.815 573.379C755.773 572.995 756.827 572.708 757.785 572.421C757.88 572.421 758.072 572.325 758.264 572.325C758.647 572.229 759.03 572.133 759.413 572.037C764.491 569.738 770.24 568.492 776.276 568.492C796.778 568.492 813.832 582.001 813.832 605.666V736.923C813.832 758.671 825.138 769.881 848.227 770.168C850.814 765.282 852.155 759.15 852.155 751.773V620.516C852.155 603.462 861.257 591.678 873.808 586.409C875.341 585.45 877.066 584.684 878.79 583.918C880.323 582.959 882.048 582.193 883.772 581.427C885.305 580.468 887.03 579.702 888.754 578.936C890.287 577.977 892.012 577.211 893.736 576.445C893.736 576.445 893.832 576.444 893.832 576.349C894.694 575.87 895.556 575.391 896.515 574.912C896.802 574.72 897.089 574.624 897.377 574.528C898.048 574.241 898.814 573.954 899.485 573.666C899.772 573.57 900.059 573.474 900.347 573.283C901.305 572.9 902.359 572.612 903.413 572.325H903.509C904.083 572.133 904.658 572.037 905.137 571.942C910.119 569.642 915.772 568.492 921.52 568.492ZM921.52 558.528C914.622 558.528 908.107 559.87 901.976 562.457C901.688 562.552 901.305 562.648 901.018 562.744C900.922 562.744 900.826 562.744 900.73 562.84C899.58 563.127 898.335 563.51 896.898 564.085C896.61 564.181 896.227 564.277 895.94 564.469L895.748 564.564C894.886 564.948 893.928 565.331 893.065 565.714L892.874 565.81C892.586 566.001 892.203 566.097 891.916 566.289C890.862 566.768 890 567.247 889.137 567.822C887.317 568.588 885.688 569.451 884.155 570.313C882.335 571.079 880.706 571.942 879.173 572.804C877.353 573.57 875.724 574.433 874.191 575.295C872.371 576.061 870.742 576.924 869.209 577.786C852.251 585.163 842.096 601.163 842.096 620.708V751.965C842.096 754.935 841.808 757.617 841.329 759.917C828.874 758.096 823.605 751.102 823.605 737.019V605.762C823.605 578.456 803.677 558.72 776.18 558.72C769.186 558.72 762.479 560.061 756.252 562.744C756.156 562.744 755.964 562.84 755.869 562.84C755.677 562.936 755.389 562.936 755.198 563.031C754.048 563.319 752.803 563.702 751.461 564.181C751.078 564.277 750.695 564.469 750.312 564.564L750.12 564.66C749.258 564.948 748.491 565.331 747.725 565.714C747.246 565.906 746.767 566.097 746.288 566.385C745.425 566.768 744.563 567.247 743.605 567.822C743.605 567.822 743.509 567.822 743.509 567.918C741.689 568.684 739.964 569.546 738.431 570.409C736.611 571.175 734.982 572.037 733.45 572.9C731.629 573.666 730 574.528 728.467 575.391C726.647 576.157 725.018 577.019 723.485 577.882C706.527 585.259 696.372 601.259 696.372 620.804V740.468C696.372 782.719 706.623 815.198 726.839 836.946C747.246 858.886 777.713 870 817.377 870C842.958 870 864.802 865.21 882.335 855.82C884.06 855.054 885.688 854.192 887.317 853.329C889.042 852.563 890.67 851.701 892.299 850.838C894.024 850.072 895.652 849.21 897.281 848.347C897.473 848.252 897.568 848.156 897.76 848.156C945.089 832.539 969.137 791.342 969.137 725.617V605.666C969.424 578.361 949.305 558.528 921.52 558.528Z" fill="url(#paint30_linear_24_2)"/>
<path d="M667.438 706.839C668.013 706.552 668.588 706.264 669.067 705.977C670.791 705.21 672.42 704.444 674.049 703.486C695.605 694.097 705.569 670.72 705.569 643.318C705.569 607.678 685.833 572.804 647.51 572.804H528.612C520.373 572.804 513.762 574.433 508.492 577.786C506.672 578.457 505.043 579.319 503.511 580.277C501.69 580.948 500.061 581.81 498.528 582.768C496.708 583.439 495.079 584.301 493.546 585.259C491.726 585.93 490.097 586.792 488.564 587.75C475.918 592.54 469.594 604.42 469.594 623.199V819.509C469.594 845.09 481.57 857.832 505.618 857.832H617.522C632.564 857.832 644.827 854.671 654.6 849.114C656.324 848.347 657.953 847.485 659.582 846.623C661.306 845.856 662.935 844.994 664.564 844.132C666.288 843.365 667.917 842.503 669.546 841.641C671.27 840.874 672.899 840.012 674.528 839.15C699.438 828.036 710.168 803.126 710.168 774.863C710.264 740.468 693.498 711.438 667.438 706.839ZM597.977 661.139C608.803 661.139 613.498 669.282 613.498 677.426C613.498 679.725 613.211 681.929 612.636 684.037H566.648V661.235H597.977V661.139ZM566.552 769.977V751.39H597.881C608.708 751.39 613.402 759.15 613.402 766.911C613.402 767.965 613.306 769.019 613.115 769.977H566.552Z" fill="url(#paint31_linear_24_2)"/>
<path d="M501.978 608.349C501.978 583.151 513.187 570.409 536.085 570.409H654.983C693.306 570.409 713.042 605.283 713.042 640.923C713.042 671.869 700.3 697.833 672.42 704.061C699.917 707.126 717.737 737.019 717.737 772.563C717.737 810.886 698.001 843.078 650.001 843.078H538.001C513.954 843.078 501.978 830.336 501.978 804.755V608.349ZM574.025 646.288V681.546H630.169C640.612 681.546 645.689 672.252 645.689 662.576C645.689 654.432 641.091 646.288 630.169 646.288H574.025ZM574.025 736.54V767.485H630.169C640.995 767.485 645.689 759.342 645.689 751.965C645.689 744.204 641.091 736.444 630.169 736.444H574.025V736.54Z" fill="#FFEFAE"/>
<path d="M494.6 610.84C494.6 585.642 505.81 572.9 528.708 572.9H647.606C685.929 572.9 705.665 607.774 705.665 643.414C705.665 674.36 692.923 700.324 665.043 706.552C692.54 709.618 710.36 739.51 710.36 775.054C710.36 813.378 690.623 845.569 642.624 845.569H530.528C506.481 845.569 494.505 832.827 494.505 807.246V610.84H494.6ZM566.552 648.78V684.037H622.696C633.139 684.037 638.217 674.743 638.217 665.067C638.217 656.923 633.618 648.78 622.696 648.78H566.552ZM566.552 739.031V769.977H622.696C633.522 769.977 638.217 761.833 638.217 754.456C638.217 746.695 633.618 738.935 622.696 738.935H566.552V739.031Z" fill="url(#paint32_linear_24_2)"/>
<path d="M654.983 570.409C693.306 570.409 713.042 605.283 713.042 640.923C713.042 671.294 700.683 696.779 673.953 703.582C673.665 703.773 673.282 703.965 672.995 704.061C700.108 707.51 717.737 737.114 717.737 772.467C717.737 803.893 704.42 831.102 673.186 839.916C672.037 840.491 670.887 841.162 669.737 841.641C668.204 842.503 666.48 843.365 664.755 844.132C663.222 844.994 661.498 845.856 659.773 846.623C658.24 847.485 656.516 848.347 654.791 849.114C645.019 854.671 632.755 857.832 617.714 857.832H505.81C481.762 857.832 469.786 845.09 469.786 819.509V623.199C469.786 604.42 476.014 592.54 488.756 587.75C490.289 586.792 491.918 585.929 493.738 585.259C495.271 584.301 496.9 583.438 498.72 582.768C500.253 581.81 501.882 580.947 503.702 580.277C505.235 579.319 506.864 578.456 508.684 577.786C509.834 577.019 511.079 576.444 512.421 575.87C512.612 575.774 512.804 575.678 512.995 575.582C513.57 575.391 514.145 575.103 514.72 574.912C515.103 574.816 515.487 574.624 515.87 574.528C516.445 574.337 516.924 574.241 517.498 574.049C517.882 573.954 518.265 573.858 518.648 573.762C523.439 571.462 529.187 570.313 536.085 570.313H654.983M654.983 560.445H536.085C528.325 560.445 521.427 561.786 515.487 564.373C515.295 564.373 515.199 564.469 515.007 564.469C514.433 564.66 513.858 564.756 513.187 564.948L512.9 565.043C512.325 565.235 511.846 565.331 511.367 565.522C510.6 565.81 509.834 566.097 509.067 566.385C508.78 566.48 508.588 566.576 508.397 566.672C506.864 567.343 505.331 568.109 504.085 568.876C502.361 569.546 500.732 570.409 499.103 571.367C497.379 572.037 495.75 572.9 494.121 573.858C492.397 574.528 490.768 575.391 489.139 576.349C487.415 577.019 485.786 577.882 484.157 578.84C472.852 583.438 459.726 594.935 459.726 623.199V819.509C459.726 850.647 476.014 867.796 505.618 867.796H617.522C633.522 867.796 647.51 864.539 659.103 858.024C660.923 857.162 662.552 856.395 664.085 855.533C665.905 854.671 667.534 853.904 669.067 853.042C670.887 852.18 672.516 851.413 674.049 850.551C675.007 850.072 675.965 849.689 676.731 849.21C709.019 839.629 727.509 811.749 727.509 772.467C727.509 741.617 715.725 716.132 697.043 703.103C713.522 690.456 722.815 668.516 722.815 640.827C722.911 600.971 699.534 560.445 654.983 560.445Z" fill="url(#paint33_linear_24_2)"/>
<path d="M1519.55 631.534C1519.55 631.534 1630.02 585.451 1663.17 595.319C1682.91 619.941 1662.21 696.205 1662.21 696.205L1519.55 631.534Z" fill="#FF7A40"/>
<path d="M1651.58 593.882C1656.08 593.882 1660.01 594.265 1663.17 595.223C1682.91 619.846 1662.21 696.109 1662.21 696.109L1519.55 631.534C1519.55 631.534 1609.71 593.882 1651.58 593.882ZM1651.58 588.133C1609.04 588.133 1521.09 624.636 1517.35 626.169L1505.18 631.247L1517.25 636.708L1659.91 701.282L1666.04 704.061L1667.77 697.546C1667.96 696.779 1673.04 677.809 1675.82 655.582C1679.55 624.636 1676.87 603.079 1667.67 591.678L1666.52 590.241L1664.8 589.762C1661.06 588.708 1656.75 588.133 1651.58 588.133Z" fill="url(#paint34_linear_24_2)"/>
<path d="M1595.82 626.648C1593.42 617.259 1571.29 534.96 1539.67 534.96C1510.74 534.96 1484.87 609.498 1479.89 624.828C1432.85 643.798 1400.08 685.953 1400.08 735.007C1400.08 801.689 1460.73 855.82 1535.65 855.82C1610.48 855.82 1671.22 801.785 1671.22 735.007C1671.22 687.486 1640.46 646.384 1595.82 626.648Z" fill="#FF7A40" stroke="url(#paint35_linear_24_2)" stroke-width="1.91616"/>
<path d="M1671.22 734.336C1674.28 800.444 1609.52 856.587 1533.73 855.629C1495.98 855.15 1461.78 840.683 1437.45 817.689C1477.97 828.803 1539.86 841.354 1597.45 808.683C1637.68 785.881 1659.15 730.791 1651.1 671.774C1650.71 669.187 1669.3 694.097 1671.22 734.336Z" fill="#FF5566"/>
<path d="M1539.67 534.864C1571.29 534.864 1593.42 617.259 1595.82 626.552C1640.46 646.289 1671.22 687.39 1671.22 734.815C1671.22 801.497 1610.57 855.629 1535.65 855.629C1460.82 855.629 1400.08 801.593 1400.08 734.815C1400.08 685.857 1432.85 643.606 1479.89 624.636C1484.87 609.403 1510.74 534.864 1539.67 534.864ZM1539.67 529.115C1524.92 529.115 1510.55 542.912 1495.7 571.367C1485.83 590.241 1478.55 610.456 1475.19 620.42C1451.82 630.289 1431.99 645.714 1417.61 665.067C1402.28 685.761 1394.24 709.905 1394.24 734.815C1394.24 768.731 1408.99 800.635 1435.91 824.491C1462.55 848.252 1498 861.282 1535.55 861.282C1573.11 861.282 1608.56 848.156 1635.19 824.491C1662.02 800.539 1676.87 768.731 1676.87 734.815C1676.87 710.672 1669.3 687.199 1654.83 666.983C1641.42 648.109 1622.74 632.78 1600.61 622.432C1598.5 614.48 1592.56 594.169 1583.84 574.816C1570.33 544.541 1555.39 529.115 1539.67 529.115Z" fill="url(#paint36_linear_24_2)"/>
<mask id="mask0_24_2" style="mask-type:luminance" maskUnits="userSpaceOnUse" x="1471" y="732" width="131" height="81">
<path d="M1597.45 744.3C1615.55 777.737 1570.91 812.803 1536.51 812.803C1502.12 812.803 1457.57 776.108 1475.58 745.162C1492.73 715.749 1529.61 746.025 1536.51 746.025C1543.22 745.929 1584.42 720.156 1597.45 744.3Z" fill="white"/>
</mask>
<g mask="url(#mask0_24_2)">
<path d="M1597.45 744.3C1615.55 777.737 1570.91 812.803 1536.51 812.803C1502.12 812.803 1457.57 776.108 1475.58 745.162C1492.73 715.749 1529.61 746.025 1536.51 746.025C1543.22 745.929 1584.42 720.156 1597.45 744.3Z" fill="#1F1C21" stroke="#1F1C21" stroke-width="2.87424"/>
</g>
<mask id="mask1_24_2" style="mask-type:luminance" maskUnits="userSpaceOnUse" x="1471" y="732" width="131" height="81">
<path d="M1597.45 744.3C1615.55 777.737 1570.91 812.803 1536.51 812.803C1502.12 812.803 1457.57 776.108 1475.58 745.162C1492.73 715.749 1529.61 746.025 1536.51 746.025C1543.22 745.929 1584.42 720.156 1597.45 744.3Z" fill="white"/>
</mask>
<g mask="url(#mask1_24_2)">
<path d="M1481.81 785.881C1498.67 762.887 1527.98 783.39 1527.98 783.39C1527.98 783.39 1561.71 766.815 1569.95 795.653C1575.12 813.569 1553.09 827.461 1527.98 827.461C1502.88 827.461 1469.83 802.168 1481.81 785.881Z" fill="#FF5566"/>
</g>
<mask id="mask2_24_2" style="mask-type:luminance" maskUnits="userSpaceOnUse" x="1471" y="732" width="131" height="81">
<path d="M1597.45 744.3C1615.55 777.737 1570.91 812.803 1536.51 812.803C1502.12 812.803 1457.57 776.108 1475.58 745.162C1492.73 715.749 1529.61 746.025 1536.51 746.025C1543.22 745.929 1584.42 720.156 1597.45 744.3Z" fill="white"/>
</mask>
<g mask="url(#mask2_24_2)">
<path d="M1517.92 757.33H1500.3C1497.13 757.33 1494.55 754.743 1494.55 751.581V728.013C1494.55 724.851 1497.13 722.264 1500.3 722.264H1517.92C1521.09 722.264 1523.67 724.851 1523.67 728.013V751.581C1523.67 754.743 1521.18 757.33 1517.92 757.33Z" fill="#F6ECF7"/>
</g>
<mask id="mask3_24_2" style="mask-type:luminance" maskUnits="userSpaceOnUse" x="1471" y="732" width="131" height="81">
<path d="M1597.45 744.3C1615.55 777.737 1570.91 812.803 1536.51 812.803C1502.12 812.803 1457.57 776.108 1475.58 745.162C1492.73 715.749 1529.61 746.025 1536.51 746.025C1543.22 745.929 1584.42 720.156 1597.45 744.3Z" fill="white"/>
</mask>
<g mask="url(#mask3_24_2)">
<path d="M1573.59 757.33H1555.96C1552.8 757.33 1550.21 754.743 1550.21 751.581V728.013C1550.21 724.851 1552.8 722.264 1555.96 722.264H1573.59C1576.75 722.264 1579.34 724.851 1579.34 728.013V751.581C1579.34 754.743 1576.75 757.33 1573.59 757.33Z" fill="#F6ECF7"/>
</g>
<mask id="mask4_24_2" style="mask-type:luminance" maskUnits="userSpaceOnUse" x="1471" y="732" width="131" height="81">
<path d="M1597.45 744.3C1615.55 777.737 1570.91 812.803 1536.51 812.803C1502.12 812.803 1457.57 776.108 1475.58 745.162C1492.73 715.749 1529.61 746.025 1536.51 746.025C1543.22 745.929 1584.42 720.156 1597.45 744.3Z" fill="white"/>
</mask>
<g mask="url(#mask4_24_2)">
<path d="M1597.45 744.3C1615.55 777.737 1570.91 812.803 1536.51 812.803C1502.12 812.803 1457.57 776.108 1475.58 745.162C1492.73 715.749 1529.61 746.025 1536.51 746.025C1543.22 745.929 1584.42 720.156 1597.45 744.3Z" stroke="#1F1C21" stroke-width="4.7904"/>
</g>
<path d="M1525.01 699.749L1449.23 677.618C1444.82 676.372 1439.84 678.193 1437.73 681.833L1429.3 696.875C1427.87 699.366 1427.96 702.24 1429.59 704.636C1431.12 707.031 1433.9 708.468 1437.06 708.659L1522.14 712.3C1526.55 712.492 1529.23 709.809 1529.8 707.031C1530.38 704.348 1529.13 700.995 1525.01 699.749Z" fill="#1F1C21"/>
<path d="M1479.6 727.917C1494.84 727.917 1507.19 720.196 1507.19 710.671C1507.19 701.147 1494.84 693.426 1479.6 693.426C1464.36 693.426 1452.01 701.147 1452.01 710.671C1452.01 720.196 1464.36 727.917 1479.6 727.917Z" fill="#1F1C21" stroke="#1F1C21" stroke-width="2.87424"/>
<path d="M1547.63 699.749L1623.41 677.618C1627.82 676.372 1632.8 678.193 1634.91 681.833L1643.34 696.875C1644.77 699.366 1644.68 702.24 1643.05 704.636C1641.52 707.031 1638.74 708.468 1635.58 708.659L1550.5 712.3C1546.09 712.492 1543.41 709.809 1542.83 707.031C1542.16 704.348 1543.41 700.995 1547.63 699.749Z" fill="#1F1C21"/>
<path d="M1592.94 727.917C1608.18 727.917 1620.54 720.196 1620.54 710.671C1620.54 701.147 1608.18 693.426 1592.94 693.426C1577.7 693.426 1565.35 701.147 1565.35 710.671C1565.35 720.196 1577.7 727.917 1592.94 727.917Z" fill="#1F1C21" stroke="#1F1C21" stroke-width="2.87424"/>
<path d="M1589.88 673.306C1598.77 673.306 1605.97 666.1 1605.97 657.211C1605.97 648.321 1598.77 641.115 1589.88 641.115C1580.99 641.115 1573.78 648.321 1573.78 657.211C1573.78 666.1 1580.99 673.306 1589.88 673.306Z" fill="#FFEFAE"/>
<path d="M1562 649.833C1566.28 649.833 1569.76 646.359 1569.76 642.073C1569.76 637.787 1566.28 634.312 1562 634.312C1557.71 634.312 1554.24 637.787 1554.24 642.073C1554.24 646.359 1557.71 649.833 1562 649.833Z" fill="#FFEFAE"/>
<defs>
<linearGradient id="paint0_linear_24_2" x1="341.007" y1="689.631" x2="261.4" y2="13.3006" gradientUnits="userSpaceOnUse">
<stop stop-color="#6D00A6"/>
<stop offset="0.3524" stop-color="#A50093"/>
<stop offset="0.7922" stop-color="#E6007D"/>
<stop offset="1" stop-color="#FF0074"/>
</linearGradient>
<linearGradient id="paint1_linear_24_2" x1="1515.49" y1="583.244" x2="1515.49" y2="304.635" gradientUnits="userSpaceOnUse">
<stop stop-color="#BA2B50"/>
<stop offset="1" stop-color="#D8444F"/>
</linearGradient>
<linearGradient id="paint2_linear_24_2" x1="1527.49" y1="571.247" x2="1527.49" y2="304.686" gradientUnits="userSpaceOnUse">
<stop stop-color="#FF5566"/>
<stop offset="0.2533" stop-color="#FF5F5B"/>
<stop offset="0.9944" stop-color="#FF7A40"/>
</linearGradient>
<linearGradient id="paint3_linear_24_2" x1="1392.04" y1="567.162" x2="1629.67" y2="329.534" gradientUnits="userSpaceOnUse">
<stop stop-color="#6D00A6"/>
<stop offset="1" stop-color="#FF0074"/>
</linearGradient>
<linearGradient id="paint4_linear_24_2" x1="1329.33" y1="582.495" x2="1329.33" y2="305.392" gradientUnits="userSpaceOnUse">
<stop stop-color="#BA2B50"/>
<stop offset="1" stop-color="#D8444F"/>
</linearGradient>
<linearGradient id="paint5_linear_24_2" x1="1341.32" y1="571.997" x2="1341.32" y2="305.436" gradientUnits="userSpaceOnUse">
<stop stop-color="#FF5566"/>
<stop offset="0.2533" stop-color="#FF5F5B"/>
<stop offset="0.9944" stop-color="#FF7A40"/>
</linearGradient>
<linearGradient id="paint6_linear_24_2" x1="1208.22" y1="566.882" x2="1455.3" y2="319.798" gradientUnits="userSpaceOnUse">
<stop stop-color="#6D00A6"/>
<stop offset="1" stop-color="#FF0074"/>
</linearGradient>
<linearGradient id="paint7_linear_24_2" x1="1143.16" y1="583.244" x2="1143.16" y2="304.635" gradientUnits="userSpaceOnUse">
<stop stop-color="#BA2B50"/>
<stop offset="1" stop-color="#D8444F"/>
</linearGradient>
<linearGradient id="paint8_linear_24_2" x1="1155.16" y1="571.247" x2="1155.16" y2="304.686" gradientUnits="userSpaceOnUse">
<stop stop-color="#FF5566"/>
<stop offset="0.2533" stop-color="#FF5F5B"/>
<stop offset="0.9944" stop-color="#FF7A40"/>
</linearGradient>
<linearGradient id="paint9_linear_24_2" x1="1038.83" y1="520.723" x2="1254.77" y2="304.786" gradientUnits="userSpaceOnUse">
<stop stop-color="#6D00A6"/>
<stop offset="1" stop-color="#FF0074"/>
</linearGradient>
<linearGradient id="paint10_linear_24_2" x1="957.002" y1="582.495" x2="957.002" y2="305.392" gradientUnits="userSpaceOnUse">
<stop stop-color="#BA2B50"/>
<stop offset="1" stop-color="#D8444F"/>
</linearGradient>
<linearGradient id="paint11_linear_24_2" x1="968.999" y1="571.997" x2="968.999" y2="305.436" gradientUnits="userSpaceOnUse">
<stop stop-color="#FF5566"/>
<stop offset="0.2533" stop-color="#FF5F5B"/>
<stop offset="0.9944" stop-color="#FF7A40"/>
</linearGradient>
<linearGradient id="paint12_linear_24_2" x1="839.722" y1="564.341" x2="1075.74" y2="328.319" gradientUnits="userSpaceOnUse">
<stop stop-color="#6D00A6"/>
<stop offset="1" stop-color="#FF0074"/>
</linearGradient>
<linearGradient id="paint13_linear_24_2" x1="770.839" y1="583.807" x2="770.839" y2="304.068" gradientUnits="userSpaceOnUse">
<stop stop-color="#BA2B50"/>
<stop offset="1" stop-color="#D8444F"/>
</linearGradient>
<linearGradient id="paint14_linear_24_2" x1="782.836" y1="571.81" x2="782.836" y2="305.248" gradientUnits="userSpaceOnUse">
<stop stop-color="#FF5566"/>
<stop offset="0.2533" stop-color="#FF5F5B"/>
<stop offset="0.9944" stop-color="#FF7A40"/>
</linearGradient>
<linearGradient id="paint15_linear_24_2" x1="661.565" y1="599.852" x2="891.257" y2="370.161" gradientUnits="userSpaceOnUse">
<stop stop-color="#6D00A6"/>
<stop offset="1" stop-color="#FF0074"/>
</linearGradient>
<linearGradient id="paint16_linear_24_2" x1="584.677" y1="583.057" x2="584.677" y2="304.824" gradientUnits="userSpaceOnUse">
<stop stop-color="#BA2B50"/>
<stop offset="1" stop-color="#D8444F"/>
</linearGradient>
<linearGradient id="paint17_linear_24_2" x1="596.674" y1="572.559" x2="596.674" y2="305.998" gradientUnits="userSpaceOnUse">
<stop stop-color="#FF5566"/>
<stop offset="0.2533" stop-color="#FF5F5B"/>
<stop offset="0.9944" stop-color="#FF7A40"/>
</linearGradient>
<linearGradient id="paint18_linear_24_2" x1="476.637" y1="555.21" x2="662.53" y2="369.318" gradientUnits="userSpaceOnUse">
<stop stop-color="#6D00A6"/>
<stop offset="1" stop-color="#FF0074"/>
</linearGradient>
<linearGradient id="paint19_linear_24_2" x1="398.514" y1="582.495" x2="398.514" y2="305.392" gradientUnits="userSpaceOnUse">
<stop stop-color="#BA2B50"/>
<stop offset="1" stop-color="#D8444F"/>
</linearGradient>
<linearGradient id="paint20_linear_24_2" x1="410.511" y1="571.997" x2="410.511" y2="305.436" gradientUnits="userSpaceOnUse">
<stop stop-color="#FF5566"/>
<stop offset="0.2533" stop-color="#FF5F5B"/>
<stop offset="0.9944" stop-color="#FF7A40"/>
</linearGradient>
<linearGradient id="paint21_linear_24_2" x1="270.219" y1="566.279" x2="514.471" y2="322.026" gradientUnits="userSpaceOnUse">
<stop stop-color="#6D00A6"/>
<stop offset="1" stop-color="#FF0074"/>
</linearGradient>
<linearGradient id="paint22_linear_24_2" x1="1296.09" y1="860.689" x2="1296.09" y2="571.666" gradientUnits="userSpaceOnUse">
<stop stop-color="#BA2B50"/>
<stop offset="1" stop-color="#D8444F"/>
</linearGradient>
<linearGradient id="paint23_linear_24_2" x1="1308.48" y1="848.175" x2="1308.48" y2="571.718" gradientUnits="userSpaceOnUse">
<stop stop-color="#FF5566"/>
<stop offset="0.2533" stop-color="#FF5F5B"/>
<stop offset="0.9944" stop-color="#FF7A40"/>
</linearGradient>
<linearGradient id="paint24_linear_24_2" x1="1174.96" y1="839.106" x2="1418.72" y2="595.351" gradientUnits="userSpaceOnUse">
<stop stop-color="#6D00A6"/>
<stop offset="0.3524" stop-color="#A50093"/>
<stop offset="0.7922" stop-color="#E6007D"/>
<stop offset="1" stop-color="#FF0074"/>
</linearGradient>
<linearGradient id="paint25_linear_24_2" x1="1076.05" y1="860.689" x2="1076.05" y2="571.666" gradientUnits="userSpaceOnUse">
<stop stop-color="#BA2B50"/>
<stop offset="1" stop-color="#D8444F"/>
</linearGradient>
<linearGradient id="paint26_linear_24_2" x1="1088.45" y1="848.175" x2="1088.45" y2="571.718" gradientUnits="userSpaceOnUse">
<stop stop-color="#FF5566"/>
<stop offset="0.2533" stop-color="#FF5F5B"/>
<stop offset="0.9944" stop-color="#FF7A40"/>
</linearGradient>
<linearGradient id="paint27_linear_24_2" x1="936.135" y1="831.86" x2="1168.66" y2="599.331" gradientUnits="userSpaceOnUse">
<stop stop-color="#6D00A6"/>
<stop offset="0.3524" stop-color="#A50093"/>
<stop offset="0.7922" stop-color="#E6007D"/>
<stop offset="1" stop-color="#FF0074"/>
</linearGradient>
<linearGradient id="paint28_linear_24_2" x1="829.332" y1="862.663" x2="829.332" y2="569.713" gradientUnits="userSpaceOnUse">
<stop stop-color="#BA2B50"/>
<stop offset="1" stop-color="#D8444F"/>
</linearGradient>
<linearGradient id="paint29_linear_24_2" x1="841.723" y1="847.401" x2="841.723" y2="570.944" gradientUnits="userSpaceOnUse">
<stop stop-color="#FF5566"/>
<stop offset="0.2533" stop-color="#FF5F5B"/>
<stop offset="0.9944" stop-color="#FF7A40"/>
</linearGradient>
<linearGradient id="paint30_linear_24_2" x1="709.776" y1="819.329" x2="956.566" y2="572.539" gradientUnits="userSpaceOnUse">
<stop stop-color="#6D00A6"/>
<stop offset="0.3524" stop-color="#A50093"/>
<stop offset="0.7922" stop-color="#E6007D"/>
<stop offset="1" stop-color="#FF0074"/>
</linearGradient>
<linearGradient id="paint31_linear_24_2" x1="590.007" y1="860.689" x2="590.007" y2="571.666" gradientUnits="userSpaceOnUse">
<stop stop-color="#BA2B50"/>
<stop offset="1" stop-color="#D8444F"/>
</linearGradient>
<linearGradient id="paint32_linear_24_2" x1="602.398" y1="848.175" x2="602.398" y2="571.718" gradientUnits="userSpaceOnUse">
<stop stop-color="#FF5566"/>
<stop offset="0.2533" stop-color="#FF5F5B"/>
<stop offset="0.9944" stop-color="#FF7A40"/>
</linearGradient>
<linearGradient id="paint33_linear_24_2" x1="457.509" y1="841.108" x2="709.764" y2="588.852" gradientUnits="userSpaceOnUse">
<stop stop-color="#6D00A6"/>
<stop offset="0.3524" stop-color="#A50093"/>
<stop offset="0.7922" stop-color="#E6007D"/>
<stop offset="1" stop-color="#FF0074"/>
</linearGradient>
<linearGradient id="paint34_linear_24_2" x1="1563.54" y1="689.748" x2="1664.74" y2="588.553" gradientUnits="userSpaceOnUse">
<stop stop-color="#7F1BAB"/>
<stop offset="0.1848" stop-color="#9616A4"/>
<stop offset="0.7386" stop-color="#D70692"/>
<stop offset="1" stop-color="#F0008B"/>
</linearGradient>
<linearGradient id="paint35_linear_24_2" x1="1438.29" y1="820.493" x2="1637.01" y2="621.78" gradientUnits="userSpaceOnUse">
<stop stop-color="#7F1BAB"/>
<stop offset="0.1848" stop-color="#9616A4"/>
<stop offset="0.7386" stop-color="#D70692"/>
<stop offset="1" stop-color="#F0008B"/>
</linearGradient>
<linearGradient id="paint36_linear_24_2" x1="1434.89" y1="823.869" x2="1640.35" y2="618.407" gradientUnits="userSpaceOnUse">
<stop stop-color="#7F1BAB"/>
<stop offset="0.1848" stop-color="#9616A4"/>
<stop offset="0.7386" stop-color="#D70692"/>
<stop offset="1" stop-color="#F0008B"/>
</linearGradient>
</defs>
</svg>
