<svg width="137" height="220" viewBox="0 0 137 220" fill="none" xmlns="http://www.w3.org/2000/svg">
<mask id="path-1-outside-1_13_17" maskUnits="userSpaceOnUse" x="86.1572" y="145" width="51" height="72" fill="black">
<rect fill="white" x="86.1572" y="145" width="51" height="72"/>
<path d="M129 181.737L128.652 181.287L128.087 181.216L127.929 181.197C127.456 181.138 126.485 180.966 124.97 180.667C123.474 180.314 121.847 180.001 120.087 179.724C118.314 179.447 116.605 179.259 114.962 179.161C113.404 179.021 112.001 179.086 110.937 179.546C110.754 179.586 110.553 179.665 110.362 179.816C109.958 180.131 109.846 180.55 109.816 180.784L109.807 180.864L109.798 180.939V181.015C109.784 181.957 109.74 182.706 109.669 183.275C109.594 183.875 109.493 184.47 109.369 185.065L109.356 185.12L109.349 185.177L109.12 187.01L109.113 187.067V187.124C109.083 187.792 109.068 188.565 109.068 189.44V190.248L109.774 190.641C110.182 190.868 110.679 191.028 111.2 191.154L111.275 191.172L111.351 191.181L113.019 191.391L113.076 191.398H113.132C113.744 191.426 114.291 191.471 114.776 191.531L114.838 191.538H114.9C114.951 191.542 114.999 191.543 115.047 191.547C115.024 191.749 114.985 191.971 114.93 192.217L114.914 192.282L114.905 192.35C114.85 192.79 114.751 193.225 114.607 193.661L114.587 193.717L114.573 193.774C114.468 194.215 114.39 194.474 114.346 194.597C114.115 195.133 113.845 195.506 113.559 195.766C113.241 196.007 112.871 196.201 112.44 196.341C111.767 196.487 111.017 196.583 110.186 196.625H110.179H110.171C109.459 196.668 108.8 196.607 108.184 196.451C107.633 196.252 107.246 196.032 106.983 195.815C106.342 195.144 105.946 194.284 105.832 193.162C105.692 191.794 105.644 190.558 105.681 189.451C105.766 187.495 105.917 185.44 106.134 183.28C106.351 181.129 106.635 179.069 106.987 177.101C107.345 175.074 107.74 173.191 108.168 171.45C108.646 169.725 109.136 168.296 109.631 167.146L109.642 167.121L109.651 167.097C109.786 166.747 109.944 166.399 110.125 166.05C110.241 165.859 110.33 165.724 110.393 165.635C110.406 165.617 110.417 165.605 110.424 165.594C110.846 165.285 111.25 165.191 111.688 165.246C112.507 165.349 113.351 165.48 114.22 165.644L114.259 165.651L114.299 165.656C114.758 165.713 115.101 165.899 115.394 166.242L115.417 166.269L115.442 166.295C115.852 166.729 116.198 167.246 116.477 167.86L116.504 167.917L116.536 167.972C116.856 168.535 117.088 169.159 117.225 169.853L117.236 169.908L117.252 169.963C117.468 170.718 117.612 171.331 117.692 171.814L117.84 172.686L118.696 172.912C119.49 173.122 120.188 173.292 120.786 173.424C121.399 173.559 121.992 173.662 122.568 173.734L124.236 173.944L124.298 173.951H124.36C124.897 173.973 125.545 174.028 126.311 174.124L126.353 174.129L126.396 174.132C127.248 174.186 127.822 174.234 128.147 174.274C128.57 174.328 129.483 174.378 130.101 173.66L130.293 173.438L130.376 173.155L130.515 172.688L130.526 172.655L130.535 172.621C131.35 169.269 131.435 166.205 130.7 163.471C129.987 160.741 128.677 158.423 126.756 156.562C124.866 154.73 122.532 153.364 119.788 152.442C117.056 151.471 114.136 150.993 111.038 151H111.024H111.01C109.482 151.034 107.99 151.187 106.537 151.46C105.004 151.748 103.58 152.318 102.272 153.165C100.413 154.148 98.9543 155.531 97.933 157.311L97.9241 157.327L97.9152 157.343C97.0271 158.997 96.3272 160.732 95.8157 162.546C95.3254 164.255 94.9116 166.026 94.5723 167.857C94.2455 169.608 93.947 171.337 93.6806 173.044V173.049C93.3786 175.017 93.1317 176.777 92.9381 178.333L92.9346 178.358V178.383C92.7996 179.879 92.6717 181.319 92.5527 182.708V182.737L92.5491 182.765C92.4887 184.104 92.4248 185.47 92.3591 186.863C92.2916 188.266 92.2312 189.831 92.1779 191.556V191.559V191.563C92.1512 192.661 92.1495 193.762 92.1779 194.867V194.908L92.1832 194.947C92.2702 195.993 92.3573 196.844 92.4496 197.487V197.49V197.494C92.8173 199.981 93.4941 202.164 94.5066 204.016C95.5688 205.958 97.2314 207.547 99.4055 208.818H99.4108L99.4144 208.823C100.731 209.578 102.132 210.137 103.612 210.501H103.617C105.12 210.864 106.667 211.059 108.257 211.089C109.802 211.171 111.337 211.141 112.859 210.999C114.353 210.91 115.802 210.763 117.207 210.551L117.262 210.542L117.316 210.53C119.607 209.997 121.63 209.034 123.36 207.633C125.218 206.128 126.412 203.862 127.062 201.023C127.971 198.137 128.572 195.083 128.865 191.867C129.16 188.636 129.327 185.572 129.36 182.676L129.366 182.198L129.073 181.82L129.003 181.731L129 181.737Z"/>
</mask>
<path d="M129 181.737L128.652 181.287L128.087 181.216L127.929 181.197C127.456 181.138 126.485 180.966 124.97 180.667C123.474 180.314 121.847 180.001 120.087 179.724C118.314 179.447 116.605 179.259 114.962 179.161C113.404 179.021 112.001 179.086 110.937 179.546C110.754 179.586 110.553 179.665 110.362 179.816C109.958 180.131 109.846 180.55 109.816 180.784L109.807 180.864L109.798 180.939V181.015C109.784 181.957 109.74 182.706 109.669 183.275C109.594 183.875 109.493 184.47 109.369 185.065L109.356 185.12L109.349 185.177L109.12 187.01L109.113 187.067V187.124C109.083 187.792 109.068 188.565 109.068 189.44V190.248L109.774 190.641C110.182 190.868 110.679 191.028 111.2 191.154L111.275 191.172L111.351 191.181L113.019 191.391L113.076 191.398H113.132C113.744 191.426 114.291 191.471 114.776 191.531L114.838 191.538H114.9C114.951 191.542 114.999 191.543 115.047 191.547C115.024 191.749 114.985 191.971 114.93 192.217L114.914 192.282L114.905 192.35C114.85 192.79 114.751 193.225 114.607 193.661L114.587 193.717L114.573 193.774C114.468 194.215 114.39 194.474 114.346 194.597C114.115 195.133 113.845 195.506 113.559 195.766C113.241 196.007 112.871 196.201 112.44 196.341C111.767 196.487 111.017 196.583 110.186 196.625H110.179H110.171C109.459 196.668 108.8 196.607 108.184 196.451C107.633 196.252 107.246 196.032 106.983 195.815C106.342 195.144 105.946 194.284 105.832 193.162C105.692 191.794 105.644 190.558 105.681 189.451C105.766 187.495 105.917 185.44 106.134 183.28C106.351 181.129 106.635 179.069 106.987 177.101C107.345 175.074 107.74 173.191 108.168 171.45C108.646 169.725 109.136 168.296 109.631 167.146L109.642 167.121L109.651 167.097C109.786 166.747 109.944 166.399 110.125 166.05C110.241 165.859 110.33 165.724 110.393 165.635C110.406 165.617 110.417 165.605 110.424 165.594C110.846 165.285 111.25 165.191 111.688 165.246C112.507 165.349 113.351 165.48 114.22 165.644L114.259 165.651L114.299 165.656C114.758 165.713 115.101 165.899 115.394 166.242L115.417 166.269L115.442 166.295C115.852 166.729 116.198 167.246 116.477 167.86L116.504 167.917L116.536 167.972C116.856 168.535 117.088 169.159 117.225 169.853L117.236 169.908L117.252 169.963C117.468 170.718 117.612 171.331 117.692 171.814L117.84 172.686L118.696 172.912C119.49 173.122 120.188 173.292 120.786 173.424C121.399 173.559 121.992 173.662 122.568 173.734L124.236 173.944L124.298 173.951H124.36C124.897 173.973 125.545 174.028 126.311 174.124L126.353 174.129L126.396 174.132C127.248 174.186 127.822 174.234 128.147 174.274C128.57 174.328 129.483 174.378 130.101 173.66L130.293 173.438L130.376 173.155L130.515 172.688L130.526 172.655L130.535 172.621C131.35 169.269 131.435 166.205 130.7 163.471C129.987 160.741 128.677 158.423 126.756 156.562C124.866 154.73 122.532 153.364 119.788 152.442C117.056 151.471 114.136 150.993 111.038 151H111.024H111.01C109.482 151.034 107.99 151.187 106.537 151.46C105.004 151.748 103.58 152.318 102.272 153.165C100.413 154.148 98.9543 155.531 97.933 157.311L97.9241 157.327L97.9152 157.343C97.0271 158.997 96.3272 160.732 95.8157 162.546C95.3254 164.255 94.9116 166.026 94.5723 167.857C94.2455 169.608 93.947 171.337 93.6806 173.044V173.049C93.3786 175.017 93.1317 176.777 92.9381 178.333L92.9346 178.358V178.383C92.7996 179.879 92.6717 181.319 92.5527 182.708V182.737L92.5491 182.765C92.4887 184.104 92.4248 185.47 92.3591 186.863C92.2916 188.266 92.2312 189.831 92.1779 191.556V191.559V191.563C92.1512 192.661 92.1495 193.762 92.1779 194.867V194.908L92.1832 194.947C92.2702 195.993 92.3573 196.844 92.4496 197.487V197.49V197.494C92.8173 199.981 93.4941 202.164 94.5066 204.016C95.5688 205.958 97.2314 207.547 99.4055 208.818H99.4108L99.4144 208.823C100.731 209.578 102.132 210.137 103.612 210.501H103.617C105.12 210.864 106.667 211.059 108.257 211.089C109.802 211.171 111.337 211.141 112.859 210.999C114.353 210.91 115.802 210.763 117.207 210.551L117.262 210.542L117.316 210.53C119.607 209.997 121.63 209.034 123.36 207.633C125.218 206.128 126.412 203.862 127.062 201.023C127.971 198.137 128.572 195.083 128.865 191.867C129.16 188.636 129.327 185.572 129.36 182.676L129.366 182.198L129.073 181.82L129.003 181.731L129 181.737Z" fill="#EFA332"/>
<path d="M129 181.737L128.652 181.287L128.087 181.216L127.929 181.197C127.456 181.138 126.485 180.966 124.97 180.667C123.474 180.314 121.847 180.001 120.087 179.724C118.314 179.447 116.605 179.259 114.962 179.161C113.404 179.021 112.001 179.086 110.937 179.546C110.754 179.586 110.553 179.665 110.362 179.816C109.958 180.131 109.846 180.55 109.816 180.784L109.807 180.864L109.798 180.939V181.015C109.784 181.957 109.74 182.706 109.669 183.275C109.594 183.875 109.493 184.47 109.369 185.065L109.356 185.12L109.349 185.177L109.12 187.01L109.113 187.067V187.124C109.083 187.792 109.068 188.565 109.068 189.44V190.248L109.774 190.641C110.182 190.868 110.679 191.028 111.2 191.154L111.275 191.172L111.351 191.181L113.019 191.391L113.076 191.398H113.132C113.744 191.426 114.291 191.471 114.776 191.531L114.838 191.538H114.9C114.951 191.542 114.999 191.543 115.047 191.547C115.024 191.749 114.985 191.971 114.93 192.217L114.914 192.282L114.905 192.35C114.85 192.79 114.751 193.225 114.607 193.661L114.587 193.717L114.573 193.774C114.468 194.215 114.39 194.474 114.346 194.597C114.115 195.133 113.845 195.506 113.559 195.766C113.241 196.007 112.871 196.201 112.44 196.341C111.767 196.487 111.017 196.583 110.186 196.625H110.179H110.171C109.459 196.668 108.8 196.607 108.184 196.451C107.633 196.252 107.246 196.032 106.983 195.815C106.342 195.144 105.946 194.284 105.832 193.162C105.692 191.794 105.644 190.558 105.681 189.451C105.766 187.495 105.917 185.44 106.134 183.28C106.351 181.129 106.635 179.069 106.987 177.101C107.345 175.074 107.74 173.191 108.168 171.45C108.646 169.725 109.136 168.296 109.631 167.146L109.642 167.121L109.651 167.097C109.786 166.747 109.944 166.399 110.125 166.05C110.241 165.859 110.33 165.724 110.393 165.635C110.406 165.617 110.417 165.605 110.424 165.594C110.846 165.285 111.25 165.191 111.688 165.246C112.507 165.349 113.351 165.48 114.22 165.644L114.259 165.651L114.299 165.656C114.758 165.713 115.101 165.899 115.394 166.242L115.417 166.269L115.442 166.295C115.852 166.729 116.198 167.246 116.477 167.86L116.504 167.917L116.536 167.972C116.856 168.535 117.088 169.159 117.225 169.853L117.236 169.908L117.252 169.963C117.468 170.718 117.612 171.331 117.692 171.814L117.84 172.686L118.696 172.912C119.49 173.122 120.188 173.292 120.786 173.424C121.399 173.559 121.992 173.662 122.568 173.734L124.236 173.944L124.298 173.951H124.36C124.897 173.973 125.545 174.028 126.311 174.124L126.353 174.129L126.396 174.132C127.248 174.186 127.822 174.234 128.147 174.274C128.57 174.328 129.483 174.378 130.101 173.66L130.293 173.438L130.376 173.155L130.515 172.688L130.526 172.655L130.535 172.621C131.35 169.269 131.435 166.205 130.7 163.471C129.987 160.741 128.677 158.423 126.756 156.562C124.866 154.73 122.532 153.364 119.788 152.442C117.056 151.471 114.136 150.993 111.038 151H111.024H111.01C109.482 151.034 107.99 151.187 106.537 151.46C105.004 151.748 103.58 152.318 102.272 153.165C100.413 154.148 98.9543 155.531 97.933 157.311L97.9241 157.327L97.9152 157.343C97.0271 158.997 96.3272 160.732 95.8157 162.546C95.3254 164.255 94.9116 166.026 94.5723 167.857C94.2455 169.608 93.947 171.337 93.6806 173.044V173.049C93.3786 175.017 93.1317 176.777 92.9381 178.333L92.9346 178.358V178.383C92.7996 179.879 92.6717 181.319 92.5527 182.708V182.737L92.5491 182.765C92.4887 184.104 92.4248 185.47 92.3591 186.863C92.2916 188.266 92.2312 189.831 92.1779 191.556V191.559V191.563C92.1512 192.661 92.1495 193.762 92.1779 194.867V194.908L92.1832 194.947C92.2702 195.993 92.3573 196.844 92.4496 197.487V197.49V197.494C92.8173 199.981 93.4941 202.164 94.5066 204.016C95.5688 205.958 97.2314 207.547 99.4055 208.818H99.4108L99.4144 208.823C100.731 209.578 102.132 210.137 103.612 210.501H103.617C105.12 210.864 106.667 211.059 108.257 211.089C109.802 211.171 111.337 211.141 112.859 210.999C114.353 210.91 115.802 210.763 117.207 210.551L117.262 210.542L117.316 210.53C119.607 209.997 121.63 209.034 123.36 207.633C125.218 206.128 126.412 203.862 127.062 201.023C127.971 198.137 128.572 195.083 128.865 191.867C129.16 188.636 129.327 185.572 129.36 182.676L129.366 182.198L129.073 181.82L129.003 181.731L129 181.737Z" stroke="white" stroke-width="10.62" mask="url(#path-1-outside-1_13_17)"/>
<mask id="path-2-outside-2_13_17" maskUnits="userSpaceOnUse" x="48.5748" y="147.665" width="49" height="72" fill="black">
<rect fill="white" x="48.5748" y="147.665" width="49" height="72"/>
<path d="M70.0975 153.706C67.6658 153.596 65.2074 153.706 62.7278 154.038C60.2694 154.367 57.9407 154.834 55.7399 155.44L55.39 155.536L55.1342 155.793L55.0543 155.873L54.644 156.284L54.6546 156.865C54.8145 166.163 54.8145 175.38 54.6546 184.516C54.4948 193.639 54.5747 202.843 54.8962 212.126L54.9264 213.018L55.7559 213.35C56.1716 213.517 56.6121 213.609 57.0668 213.609H58.0082C59.8999 213.662 61.9284 213.767 64.0919 213.927H64.0937C66.3727 214.09 68.625 214.146 70.8524 214.092C73.142 214.092 75.357 213.955 77.4939 213.68H77.5116L77.5294 213.675C79.7373 213.334 81.7711 212.705 83.6184 211.78C85.5172 210.827 87.1194 209.486 88.4179 207.771C89.8069 205.95 90.7022 203.673 91.1569 200.999C91.4979 199.173 91.5636 197.466 91.3221 195.894C91.0894 194.385 90.6524 192.99 89.9988 191.729C89.4268 190.477 88.7163 189.306 87.8672 188.221C87.1088 187.136 86.297 186.052 85.4355 184.97L85.4267 184.96L85.4178 184.949C85.3396 184.855 85.2739 184.771 85.2224 184.702C86.3024 182.841 87.2189 180.826 87.9738 178.665C88.8282 176.377 89.2563 174.025 89.2563 171.615C89.2563 168.481 88.7554 165.755 87.6861 163.488C86.6452 161.227 85.2099 159.365 83.3733 157.936C81.5633 156.476 79.4726 155.431 77.1173 154.797C74.8792 154.181 72.5381 153.818 70.0957 153.706M76.2665 196.264V196.33C76.3073 197.166 76.1172 197.8 75.7549 198.312C75.3677 198.768 74.9183 199.102 74.3978 199.33C73.8383 199.543 73.1971 199.701 72.4635 199.797C71.7228 199.845 70.9536 199.87 70.1579 199.871C69.5895 199.834 69.0335 199.809 68.4882 199.799C68.3248 199.431 68.1933 198.985 68.1027 198.449C67.9571 197.573 67.8825 196.669 67.8807 195.736C67.9322 194.724 68.0335 193.74 68.1844 192.784C68.2662 192.262 68.3567 191.773 68.4509 191.319C69.1063 191.374 69.7706 191.418 70.4439 191.452H70.4776H70.5114C71.4617 191.452 72.3853 191.571 73.2841 191.807L73.3036 191.813L73.3232 191.818C73.7743 191.923 74.2504 192.157 74.7548 192.578L74.7815 192.601L74.8099 192.623C75.2842 192.98 75.611 193.367 75.8259 193.782C76.1101 194.495 76.2629 195.315 76.2629 196.264H76.2665ZM75.5719 175.583L75.5595 175.606L75.5471 175.629C75.238 176.212 74.833 176.629 74.3285 176.922C73.801 177.205 73.1971 177.395 72.5043 177.482C71.7388 177.578 70.9412 177.602 70.1135 177.554C69.5859 177.522 69.0779 177.483 68.593 177.434C68.3141 176.03 68.2377 174.677 68.355 173.366C68.5202 171.998 68.5948 170.757 68.5717 169.648C68.982 169.551 69.4705 169.506 70.0513 169.533H70.0833H70.1135C71.2485 169.533 72.2947 169.631 73.2539 169.821C73.9342 169.995 74.5008 170.266 74.9733 170.622L75.0248 170.659L75.0781 170.693C75.5186 170.965 75.9183 171.396 76.2522 172.064C76.5329 172.627 76.5649 173.119 76.4103 173.615C76.1688 174.393 75.8863 175.045 75.5737 175.581L75.5719 175.583Z"/>
</mask>
<path d="M70.0975 153.706C67.6658 153.596 65.2074 153.706 62.7278 154.038C60.2694 154.367 57.9407 154.834 55.7399 155.44L55.39 155.536L55.1342 155.793L55.0543 155.873L54.644 156.284L54.6546 156.865C54.8145 166.163 54.8145 175.38 54.6546 184.516C54.4948 193.639 54.5747 202.843 54.8962 212.126L54.9264 213.018L55.7559 213.35C56.1716 213.517 56.6121 213.609 57.0668 213.609H58.0082C59.8999 213.662 61.9284 213.767 64.0919 213.927H64.0937C66.3727 214.09 68.625 214.146 70.8524 214.092C73.142 214.092 75.357 213.955 77.4939 213.68H77.5116L77.5294 213.675C79.7373 213.334 81.7711 212.705 83.6184 211.78C85.5172 210.827 87.1194 209.486 88.4179 207.771C89.8069 205.95 90.7022 203.673 91.1569 200.999C91.4979 199.173 91.5636 197.466 91.3221 195.894C91.0894 194.385 90.6524 192.99 89.9988 191.729C89.4268 190.477 88.7163 189.306 87.8672 188.221C87.1088 187.136 86.297 186.052 85.4355 184.97L85.4267 184.96L85.4178 184.949C85.3396 184.855 85.2739 184.771 85.2224 184.702C86.3024 182.841 87.2189 180.826 87.9738 178.665C88.8282 176.377 89.2563 174.025 89.2563 171.615C89.2563 168.481 88.7554 165.755 87.6861 163.488C86.6452 161.227 85.2099 159.365 83.3733 157.936C81.5633 156.476 79.4726 155.431 77.1173 154.797C74.8792 154.181 72.5381 153.818 70.0957 153.706M76.2665 196.264V196.33C76.3073 197.166 76.1172 197.8 75.7549 198.312C75.3677 198.768 74.9183 199.102 74.3978 199.33C73.8383 199.543 73.1971 199.701 72.4635 199.797C71.7228 199.845 70.9536 199.87 70.1579 199.871C69.5895 199.834 69.0335 199.809 68.4882 199.799C68.3248 199.431 68.1933 198.985 68.1027 198.449C67.9571 197.573 67.8825 196.669 67.8807 195.736C67.9322 194.724 68.0335 193.74 68.1844 192.784C68.2662 192.262 68.3567 191.773 68.4509 191.319C69.1063 191.374 69.7706 191.418 70.4439 191.452H70.4776H70.5114C71.4617 191.452 72.3853 191.571 73.2841 191.807L73.3036 191.813L73.3232 191.818C73.7743 191.923 74.2504 192.157 74.7548 192.578L74.7815 192.601L74.8099 192.623C75.2842 192.98 75.611 193.367 75.8259 193.782C76.1101 194.495 76.2629 195.315 76.2629 196.264H76.2665ZM75.5719 175.583L75.5595 175.606L75.5471 175.629C75.238 176.212 74.833 176.629 74.3285 176.922C73.801 177.205 73.1971 177.395 72.5043 177.482C71.7388 177.578 70.9412 177.602 70.1135 177.554C69.5859 177.522 69.0779 177.483 68.593 177.434C68.3141 176.03 68.2377 174.677 68.355 173.366C68.5202 171.998 68.5948 170.757 68.5717 169.648C68.982 169.551 69.4705 169.506 70.0513 169.533H70.0833H70.1135C71.2485 169.533 72.2947 169.631 73.2539 169.821C73.9342 169.995 74.5008 170.266 74.9733 170.622L75.0248 170.659L75.0781 170.693C75.5186 170.965 75.9183 171.396 76.2522 172.064C76.5329 172.627 76.5649 173.119 76.4103 173.615C76.1688 174.393 75.8863 175.045 75.5737 175.581L75.5719 175.583Z" fill="#EFA332"/>
<path d="M62.7278 154.038L63.4313 159.302L63.4328 159.301L62.7278 154.038ZM55.7399 155.44L57.1438 160.561L57.149 160.56L55.7399 155.44ZM55.39 155.536L53.9862 150.415L52.6203 150.789L51.6224 151.794L55.39 155.536ZM55.1342 155.793L58.8891 159.548L58.8955 159.542L58.9019 159.535L55.1342 155.793ZM55.0543 155.873L58.809 159.628L58.8092 159.628L55.0543 155.873ZM54.644 156.284L50.8892 152.529L49.2935 154.125L49.3349 156.381L54.644 156.284ZM54.6546 156.865L59.9639 156.773L59.9637 156.767L54.6546 156.865ZM54.6546 184.516L59.9638 184.609L59.9638 184.609L54.6546 184.516ZM54.8962 212.126L60.2032 211.946L60.203 211.942L54.8962 212.126ZM54.9264 213.018L49.6194 213.197L49.7367 216.659L52.9525 217.947L54.9264 213.018ZM55.7559 213.35L57.7353 208.422L57.7298 208.42L55.7559 213.35ZM58.0082 213.609L58.1577 208.301L58.083 208.299H58.0082V213.609ZM64.0919 213.927L63.7006 219.223L63.896 219.237H64.0919V213.927ZM64.0937 213.927L64.4735 208.631L64.2838 208.617H64.0937V213.927ZM70.8524 214.092V208.782H70.7889L70.7254 208.784L70.8524 214.092ZM77.4939 213.68V208.37H77.1532L76.8153 208.414L77.4939 213.68ZM77.5116 213.68V218.99H78.2916L79.0387 218.766L77.5116 213.68ZM77.5294 213.675L76.7188 208.427L76.3549 208.483L76.0023 208.589L77.5294 213.675ZM83.6184 211.78L85.9968 216.527L85.9984 216.526L83.6184 211.78ZM88.4179 207.771L84.1962 204.55L84.1899 204.558L84.1836 204.566L88.4179 207.771ZM91.1569 200.999L85.9371 200.024L85.9293 200.067L85.9221 200.109L91.1569 200.999ZM91.3221 195.894L96.5705 195.088L96.5701 195.086L91.3221 195.894ZM89.9988 191.729L85.1687 193.935L85.2236 194.055L85.2844 194.173L89.9988 191.729ZM87.8672 188.221L83.5148 191.263L83.5968 191.38L83.685 191.493L87.8672 188.221ZM85.4355 184.97L89.5893 181.662L89.5535 181.618L89.5168 181.573L85.4355 184.97ZM85.4267 184.96L89.5079 181.563L89.5045 181.559L85.4267 184.96ZM85.4178 184.949L81.3322 188.341L81.3399 188.35L85.4178 184.949ZM85.2224 184.702L80.6294 182.038L78.8739 185.063L80.9613 187.871L85.2224 184.702ZM87.9738 178.665L82.9994 176.807L82.9795 176.86L82.9607 176.914L87.9738 178.665ZM87.6861 163.488L82.8626 165.709L82.873 165.731L82.8837 165.754L87.6861 163.488ZM83.3733 157.936L80.0394 162.069L80.0751 162.097L80.1113 162.126L83.3733 157.936ZM77.1173 154.797L75.7074 159.916L75.7221 159.92L75.7368 159.924L77.1173 154.797ZM76.2665 196.264H81.5765V190.954H76.2665V196.264ZM76.2665 196.33H70.9564V196.459L70.9628 196.589L76.2665 196.33ZM75.7549 198.312L79.8043 201.747L79.9541 201.57L80.088 201.381L75.7549 198.312ZM74.3978 199.33L76.2882 204.292L76.407 204.247L76.5236 204.196L74.3978 199.33ZM72.4635 199.797L72.8066 205.096L72.9798 205.085L73.1519 205.062L72.4635 199.797ZM70.1579 199.871L69.8102 205.17L69.9897 205.182L70.1697 205.181L70.1579 199.871ZM68.4882 199.799L63.6358 201.955L65.0076 205.042L68.3844 205.108L68.4882 199.799ZM68.1027 198.449L62.8647 199.32L62.8669 199.333L68.1027 198.449ZM67.8807 195.736L62.5776 195.467L62.5704 195.606L62.5707 195.746L67.8807 195.736ZM68.1844 192.784L73.4294 193.613L73.4306 193.605L68.1844 192.784ZM68.4509 191.319L68.8954 186.027L64.2053 185.633L63.2511 190.242L68.4509 191.319ZM70.4439 191.452L70.178 196.755L70.3108 196.762H70.4439V191.452ZM73.2841 191.807L74.677 186.683L74.6555 186.677L74.634 186.672L73.2841 191.807ZM73.3036 191.813L74.7022 186.69L74.6966 186.688L73.3036 191.813ZM73.3232 191.818L71.9246 196.94L72.0227 196.967L72.1217 196.99L73.3232 191.818ZM74.7548 192.578L78.2323 188.565L78.195 188.533L78.157 188.501L74.7548 192.578ZM74.7815 192.601L71.3041 196.614L71.4457 196.737L71.5956 196.849L74.7815 192.601ZM74.8099 192.623L78.0035 188.38L77.9958 188.374L74.8099 192.623ZM75.8259 193.782L80.7578 191.815L80.6618 191.574L80.5427 191.343L75.8259 193.782ZM76.2629 196.264H70.9529V201.574H76.2629V196.264ZM75.5719 175.583L71.8172 171.828L71.2658 172.379L70.8962 173.066L75.5719 175.583ZM75.5595 175.606L80.2347 178.123L80.2352 178.123L75.5595 175.606ZM75.5471 175.629L70.8718 173.111L70.864 173.126L70.8562 173.141L75.5471 175.629ZM74.3285 176.922L76.8347 181.603L76.9162 181.56L76.9961 181.513L74.3285 176.922ZM72.5043 177.482L73.1645 182.75L73.1663 182.75L72.5043 177.482ZM70.1135 177.554L69.7922 182.855L69.8063 182.856L70.1135 177.554ZM68.593 177.434L63.3848 178.469L64.1494 182.316L68.0512 182.716L68.593 177.434ZM68.355 173.366L63.0833 172.729L63.0734 172.811L63.0661 172.893L68.355 173.366ZM68.5717 169.648L67.3418 164.483L63.1736 165.475L63.2628 169.759L68.5717 169.648ZM70.0513 169.533L69.808 174.837L69.9296 174.843H70.0513V169.533ZM73.2539 169.821L74.5702 164.676L74.429 164.64L74.286 164.612L73.2539 169.821ZM74.9733 170.622L71.7822 174.866L71.8206 174.895L71.8594 174.923L74.9733 170.622ZM75.0248 170.659L71.9109 174.96L72.0444 175.057L72.1836 175.145L75.0248 170.659ZM75.0781 170.693L72.2369 175.179L72.2634 175.195L72.2901 175.212L75.0781 170.693ZM76.2522 172.064L81.0046 169.695L81.0016 169.689L76.2522 172.064ZM76.4103 173.615L71.3411 172.034L71.3392 172.04L76.4103 173.615ZM75.5737 175.581L79.3284 179.336L79.815 178.849L80.1615 178.255L75.5737 175.581ZM70.3377 148.402C67.5831 148.277 64.8084 148.402 62.0228 148.775L63.4328 159.301C65.6064 159.01 67.7484 158.915 69.8572 159.011L70.3377 148.402ZM62.0242 148.775C59.3477 149.133 56.782 149.646 54.3309 150.32L57.149 160.56C59.0995 160.023 61.1911 159.601 63.4313 159.302L62.0242 148.775ZM54.3361 150.319L53.9862 150.415L56.7939 160.657L57.1438 160.561L54.3361 150.319ZM51.6224 151.794L51.3666 152.052L58.9019 159.535L59.1576 159.278L51.6224 151.794ZM51.3794 152.039L51.2994 152.119L58.8092 159.628L58.8891 159.548L51.3794 152.039ZM51.2996 152.119L50.8892 152.529L58.3987 160.038L58.809 159.628L51.2996 152.119ZM49.3349 156.381L49.3455 156.962L59.9637 156.767L59.9531 156.186L49.3349 156.381ZM49.3454 156.956C49.5042 166.194 49.5042 175.35 49.3454 184.423L59.9638 184.609C60.1248 175.411 60.1248 166.132 59.9639 156.773L49.3454 156.956ZM49.3454 184.423C49.1839 193.639 49.2647 202.936 49.5894 212.31L60.203 211.942C59.8847 202.75 59.8056 193.638 59.9638 184.609L49.3454 184.423ZM49.5892 212.306L49.6194 213.197L60.2334 212.838L60.2032 211.946L49.5892 212.306ZM52.9525 217.947L53.782 218.279L57.7298 208.42L56.9003 208.088L52.9525 217.947ZM53.7766 218.277C54.7724 218.677 55.8829 218.919 57.0668 218.919V208.299C57.3412 208.299 57.5707 208.356 57.7353 208.422L53.7766 218.277ZM57.0668 218.919H58.0082V208.299H57.0668V218.919ZM57.8587 218.917C59.6621 218.968 61.6097 219.068 63.7006 219.223L64.4832 208.631C62.2472 208.466 60.1378 208.357 58.1577 208.301L57.8587 218.917ZM64.0919 219.237H64.0937V208.617H64.0919V219.237ZM63.7139 219.223C66.1572 219.399 68.5787 219.458 70.9794 219.401L70.7254 208.784C68.6713 208.833 66.5881 208.782 64.4735 208.631L63.7139 219.223ZM70.8524 219.402C73.3532 219.402 75.7955 219.253 78.1724 218.947L76.8153 208.414C74.9185 208.658 72.9308 208.782 70.8524 208.782V219.402ZM77.4939 218.99H77.5116V208.37H77.4939V218.99ZM79.0387 218.766L79.0565 218.76L76.0023 208.589L75.9845 208.594L79.0387 218.766ZM78.34 218.923C81.0385 218.506 83.6088 217.723 85.9968 216.527L81.2401 207.032C79.9334 207.687 78.4361 208.162 76.7188 208.427L78.34 218.923ZM85.9984 216.526C88.6402 215.202 90.8721 213.327 92.6522 210.975L84.1836 204.566C83.3667 205.646 82.3943 206.453 81.2384 207.033L85.9984 216.526ZM92.6395 210.991C94.6674 208.333 95.8293 205.196 96.3917 201.89L85.9221 200.109C85.5751 202.149 84.9464 203.566 84.1962 204.55L92.6395 210.991ZM96.3766 201.974C96.8028 199.693 96.9213 197.371 96.5705 195.088L86.0737 196.701C86.206 197.562 86.1931 198.654 85.9371 200.024L96.3766 201.974ZM96.5701 195.086C96.2596 193.07 95.661 191.114 94.7131 189.286L85.2844 194.173C85.6439 194.866 85.9192 195.699 86.074 196.703L96.5701 195.086ZM94.8288 189.523C94.0844 187.893 93.1568 186.365 92.0495 184.949L83.685 191.493C84.2758 192.248 84.7692 193.06 85.1687 193.935L94.8288 189.523ZM92.2197 185.179C91.393 183.996 90.5143 182.824 89.5893 181.662L81.2818 188.278C82.0797 189.28 82.8246 190.275 83.5148 191.263L92.2197 185.179ZM89.5168 181.573L89.5079 181.563L81.3454 188.357L81.3542 188.367L89.5168 181.573ZM89.5045 181.559L89.4957 181.548L81.3399 188.35L81.3488 188.361L89.5045 181.559ZM89.5033 181.557C89.4895 181.541 89.4805 181.529 89.4761 181.524C89.4714 181.518 89.4742 181.521 89.4835 181.534L80.9613 187.871C81.0801 188.03 81.2063 188.189 81.3322 188.341L89.5033 181.557ZM89.8154 187.367C91.0759 185.194 92.1293 182.871 92.9869 180.415L82.9607 176.914C82.3085 178.782 81.5288 180.487 80.6294 182.038L89.8154 187.367ZM92.9483 180.522C94.0214 177.649 94.5663 174.668 94.5663 171.615H83.9463C83.9463 173.382 83.635 175.105 82.9994 176.807L92.9483 180.522ZM94.5663 171.615C94.5663 167.945 93.9836 164.392 92.4884 161.223L82.8837 165.754C83.5272 167.118 83.9463 169.017 83.9463 171.615H94.5663ZM92.5095 161.268C91.1471 158.308 89.2036 155.745 86.6353 153.746L80.1113 162.126C81.2163 162.986 82.1432 164.146 82.8626 165.709L92.5095 161.268ZM86.7072 153.803C84.2873 151.851 81.5215 150.484 78.4977 149.67L75.7368 159.924C77.4237 160.379 78.8393 161.1 80.0394 162.069L86.7072 153.803ZM78.5272 149.678C75.8859 148.95 73.1519 148.531 70.3387 148.402L69.8527 159.011C71.9242 159.106 73.8725 159.411 75.7074 159.916L78.5272 149.678ZM70.9564 196.264V196.33H81.5765V196.264H70.9564ZM70.9628 196.589C70.9603 196.538 70.9582 196.347 71.0331 196.067C71.1111 195.776 71.2461 195.491 71.4218 195.243L80.088 201.381C81.2283 199.771 81.6607 197.926 81.5701 196.071L70.9628 196.589ZM71.7055 194.877C71.7568 194.817 71.8362 194.737 71.945 194.655C72.0544 194.573 72.1675 194.509 72.2721 194.464L76.5236 204.196C77.8045 203.636 78.9066 202.805 79.8043 201.747L71.7055 194.877ZM72.5075 194.368C72.3921 194.412 72.1624 194.481 71.775 194.532L73.1519 205.062C74.2317 204.921 75.2845 204.674 76.2882 204.292L72.5075 194.368ZM72.1204 194.498C71.4977 194.538 70.8393 194.56 70.146 194.561L70.1697 205.181C71.068 205.179 71.9479 205.151 72.8066 205.096L72.1204 194.498ZM70.5056 194.573C69.8655 194.531 69.2277 194.502 68.5919 194.49L68.3844 205.108C68.8393 205.117 69.3134 205.137 69.8102 205.17L70.5056 194.573ZM73.3405 197.642C73.3674 197.703 73.3747 197.731 73.371 197.718C73.3672 197.705 73.3541 197.656 73.3386 197.564L62.8669 199.333C63.0159 200.215 63.2574 201.104 63.6358 201.955L73.3405 197.642ZM73.3408 197.577C73.2442 196.997 73.1919 196.381 73.1907 195.726L62.5707 195.746C62.573 196.957 62.6699 198.149 62.8647 199.32L73.3408 197.577ZM73.1838 196.006C73.2263 195.172 73.309 194.375 73.4294 193.613L62.9395 191.955C62.7579 193.105 62.6381 194.276 62.5776 195.467L73.1838 196.006ZM73.4306 193.605C73.4978 193.176 73.5725 192.773 73.6506 192.395L63.2511 190.242C63.141 190.774 63.0345 191.348 62.9383 191.963L73.4306 193.605ZM68.0064 196.61C68.7227 196.67 69.4466 196.719 70.178 196.755L70.7097 186.149C70.0947 186.118 69.4899 186.077 68.8954 186.027L68.0064 196.61ZM70.4439 196.762H70.4776V186.142H70.4439V196.762ZM70.4776 196.762H70.5114V186.142H70.4776V196.762ZM70.5114 196.762C71.0126 196.762 71.4823 196.824 71.9342 196.943L74.634 186.672C73.2883 186.318 71.9107 186.142 70.5114 186.142V196.762ZM71.8912 196.931L71.9107 196.937L74.6966 186.688L74.677 186.683L71.8912 196.931ZM71.905 196.935L71.9246 196.94L74.7218 186.695L74.7022 186.69L71.905 196.935ZM72.1217 196.99C71.6357 196.877 71.3768 196.675 71.3526 196.655L78.157 188.501C77.124 187.639 75.913 186.968 74.5246 186.646L72.1217 196.99ZM71.2774 196.591L71.3041 196.614L78.2589 188.588L78.2323 188.565L71.2774 196.591ZM71.5956 196.849L71.624 196.871L77.9958 188.374L77.9674 188.353L71.5956 196.849ZM71.6163 196.865C71.5838 196.84 71.5042 196.775 71.405 196.661C71.3039 196.545 71.2 196.397 71.1092 196.221L80.5427 191.343C79.9182 190.136 79.0339 189.156 78.0035 188.38L71.6163 196.865ZM70.894 195.75C70.8947 195.752 70.9529 195.892 70.9529 196.264H81.5729C81.5729 194.739 81.3256 193.238 80.7578 191.815L70.894 195.75ZM76.2629 201.574H76.2665V190.954H76.2629V201.574ZM70.8962 173.066L70.8838 173.089L80.2352 178.123L80.2476 178.1L70.8962 173.066ZM70.8843 173.088L70.8718 173.111L80.2223 178.147L80.2347 178.123L70.8843 173.088ZM70.8562 173.141C70.9083 173.042 71.0044 172.892 71.1596 172.729C71.3168 172.563 71.4915 172.429 71.661 172.331L76.9961 181.513C78.4009 180.697 79.4878 179.531 80.2379 178.117L70.8562 173.141ZM71.8224 172.241C71.844 172.229 71.8633 172.22 71.8795 172.213C71.8957 172.207 71.9069 172.203 71.9121 172.201C71.9231 172.198 71.903 172.205 71.8424 172.213L73.1663 182.75C74.44 182.59 75.6789 182.222 76.8347 181.603L71.8224 172.241ZM71.8442 172.213C71.4185 172.266 70.9455 172.284 70.4206 172.253L69.8063 182.856C70.937 182.921 72.059 182.889 73.1645 182.75L71.8442 172.213ZM70.4347 172.254C69.9603 172.225 69.5284 172.192 69.1348 172.151L68.0512 182.716C68.6275 182.775 69.2116 182.82 69.7922 182.855L70.4347 172.254ZM73.8011 176.399C73.6146 175.46 73.5745 174.615 73.6439 173.839L63.0661 172.893C62.901 174.739 63.0136 176.601 63.3848 178.469L73.8011 176.399ZM73.6267 174.003C73.8137 172.454 73.9101 170.955 73.8805 169.538L63.2628 169.759C63.2795 170.558 63.2267 171.542 63.0833 172.729L73.6267 174.003ZM69.8016 174.814C69.7614 174.823 69.7302 174.829 69.7093 174.832C69.6988 174.834 69.6908 174.835 69.6855 174.836C69.6802 174.836 69.6774 174.837 69.6774 174.837C69.6774 174.837 69.68 174.836 69.6854 174.836C69.6908 174.836 69.6989 174.836 69.7098 174.835C69.7316 174.835 69.7641 174.835 69.808 174.837L70.2946 164.228C69.3151 164.183 68.3199 164.25 67.3418 164.483L69.8016 174.814ZM70.0513 174.843H70.0833V164.223H70.0513V174.843ZM70.0833 174.843H70.1135V164.223H70.0833V174.843ZM70.1135 174.843C70.946 174.843 71.6431 174.915 72.2218 175.029L74.286 164.612C72.9463 164.346 71.551 164.223 70.1135 164.223V174.843ZM71.9376 174.965C71.9767 174.975 71.9717 174.977 71.9356 174.96C71.8983 174.943 71.8438 174.912 71.7822 174.866L78.1644 166.378C77.0828 165.564 75.8657 165.008 74.5702 164.676L71.9376 174.965ZM71.8594 174.923L71.9109 174.96L78.1388 166.358L78.0873 166.321L71.8594 174.923ZM72.1836 175.145L72.2369 175.179L77.9194 166.207L77.8661 166.173L72.1836 175.145ZM72.2901 175.212C72.0417 175.059 71.8464 174.884 71.7048 174.722C71.5682 174.565 71.5102 174.453 71.5028 174.439L81.0016 169.689C80.3055 168.297 79.2865 167.05 77.8662 166.174L72.2901 175.212ZM71.4998 174.433C71.3969 174.226 71.2538 173.856 71.2073 173.357C71.1596 172.844 71.2313 172.386 71.3411 172.034L81.4796 175.195C82.0704 173.301 81.8525 171.396 81.0046 169.695L71.4998 174.433ZM71.3392 172.04C71.1935 172.509 71.0606 172.779 70.9859 172.907L80.1615 178.255C80.7121 177.31 81.144 176.276 81.4815 175.189L71.3392 172.04ZM71.819 171.826L71.8172 171.828L79.3267 179.338L79.3284 179.336L71.819 171.826Z" fill="white" mask="url(#path-2-outside-2_13_17)"/>
<path d="M7.543 152.272L7.67592 152.258L7.93652 152.231L8.19746 152.255L8.33245 152.268L8.34095 152.268C8.78796 152.311 9.26231 152.296 9.77394 152.209L9.99471 152.171H10.0091C10.8249 152.038 11.6178 151.906 12.3879 151.776L12.6073 151.739H12.6218C13.5153 151.597 14.3962 151.479 15.2624 151.389L15.2626 151.389C16.4475 151.267 17.6325 151.294 18.8011 151.501L18.8042 151.502L19.6905 151.66L21.4062 151.966L21.8078 153.662L22.0157 154.539L22.0157 154.54C22.9107 158.32 23.549 162.034 23.9257 165.68L23.9258 165.68C24.1556 167.909 24.5276 170.111 25.0403 172.288C25.2221 172.265 25.4076 172.238 25.5969 172.206C25.9258 172.137 26.2502 172.07 26.5699 172.004C26.4742 169.695 26.3205 167.511 26.109 165.449L26.0848 165.304V165.189C25.8147 162.11 25.4124 158.719 24.8728 155.011C24.8727 155.01 24.8727 155.01 24.8726 155.01L24.7237 153.992L24.4346 152.017L26.2521 151.191L27.1899 150.764L27.1914 150.764C27.9701 150.41 28.8364 150.103 29.7574 149.83L30.1108 149.654H30.3908C31.3385 149.404 32.3062 149.202 33.2906 149.044C34.4141 148.811 35.5348 148.663 36.6485 148.603C37.6806 148.497 38.6419 148.425 39.525 148.393C39.5255 148.393 39.5259 148.393 39.5264 148.393L40.7582 148.347L43.1486 148.257L43.4859 150.626L43.6585 151.837L43.66 151.848L43.965 153.93L43.9666 153.94L51.5909 207.521L51.5911 207.522L51.7597 208.704L52.0865 210.995L49.8612 211.631L48.7133 211.959C47.6448 212.266 46.5094 212.508 45.314 212.693C44.2405 212.862 43.1676 213.001 42.0939 213.113L42.0915 213.114L39.2271 213.412C39.227 213.412 39.2269 213.412 39.2267 213.412C38.3904 213.5 37.7414 213.592 37.2545 213.684L37.2502 213.685L37.1934 213.695L37.0738 213.718L36.9527 213.729L36.9183 213.732L36.8606 213.739L36.852 213.74L36.8435 213.741L35.6693 213.863L33.3946 214.101L32.8229 211.886L32.5283 210.745C32.5282 210.745 32.5282 210.744 32.5281 210.744C32.0598 208.932 31.6691 207.066 31.355 205.147L31.2928 204.919V204.718C31.1937 203.968 31.0952 203.221 30.9972 202.479C30.8614 201.45 30.7267 200.43 30.5931 199.417L30.5414 199.228V198.99C30.3556 197.21 30.1448 195.433 29.9105 193.656L29.9104 193.655C29.8252 193.007 29.7309 192.373 29.6276 191.752C29.2911 191.772 28.9554 191.799 28.6201 191.834L7.543 152.272ZM7.543 152.272L7.54093 152.273L7.30548 152.297L7.30499 152.297L5.94308 152.439L3.30581 152.714L3.57748 155.352L3.7178 156.715L3.71777 156.715L3.71921 156.728L3.72285 156.762C3.94737 159.446 4.2063 162.465 4.4996 165.816V165.931L4.52399 166.077C4.87128 169.426 5.25887 172.93 5.69022 176.586L5.69031 176.586L6.9544 187.275V187.349L6.98515 187.533C7.46465 191.13 7.92323 194.544 8.36431 197.773L8.3645 197.775C8.79162 200.889 9.19019 203.727 9.56018 206.287V206.591L9.64285 206.812C9.75721 207.517 9.8686 208.27 9.97937 209.019L9.98757 209.074C9.98771 209.075 9.98786 209.076 9.988 209.077C10.0541 209.531 10.1207 209.979 10.1859 210.401M7.543 152.272L18.5919 215.328C17.9836 215.31 17.7063 215.306 17.2577 215.372C17.2465 215.375 17.2232 215.381 17.1853 215.393C17.0866 215.422 16.963 215.462 16.7601 215.529L16.7381 215.537L16.7276 215.54L16.7217 215.542L16.7086 215.546C16.6951 215.551 16.6664 215.56 16.63 215.571L16.6278 215.572C16.4585 215.627 16.1164 215.738 15.7685 215.814L15.7607 215.816L15.7528 215.817C15.5656 215.857 15.2239 215.922 14.811 215.93C14.4494 215.938 13.5112 215.922 12.5316 215.331L12.5238 215.326C11.8626 214.924 11.483 214.435 11.3293 214.224L11.3189 214.21L11.3088 214.195C11.1374 213.954 11.0167 213.73 10.9369 213.563C10.796 213.273 10.7112 213.014 10.6657 212.862C10.573 212.559 10.5079 212.25 10.468 212.058L10.4652 212.044L10.4652 212.044C10.3702 211.573 10.2754 210.988 10.1859 210.401M10.1859 210.401C10.1858 210.4 10.1857 210.4 10.1855 210.399L12.8102 209.999L10.1864 210.404C10.1862 210.403 10.1861 210.402 10.1859 210.401ZM18.5922 215.328C18.8936 215.337 19.2564 215.347 19.6999 215.345C19.701 215.345 19.7022 215.345 19.7033 215.345L18.5922 215.328ZM29.2588 204.819C29.1251 202.992 28.9322 201.148 28.6861 199.289L28.6858 199.287L28.3254 196.581L28.3252 196.58L27.9736 193.933C27.9066 193.275 27.85 192.611 27.8041 191.941C28.0754 191.898 28.3471 191.862 28.6195 191.834L29.2588 204.819Z" fill="#EFA332" stroke="white" stroke-width="5.31"/>
<path d="M103.865 62.7136C100.931 64.355 99.0588 67.527 98.6476 71.003C82.7555 61.1276 66.7025 61.0418 54.0217 63.8598C43.7297 66.1467 35.5995 70.3557 31.428 72.8554C30.8702 71.0852 29.8742 69.6673 28.4974 68.6213C26.4251 67.0478 23.7752 66.5365 21.2416 66.5365C18.7079 66.5365 16.0008 67.1319 13.6048 68.7518C11.2196 70.3646 9.22057 72.8804 7.63458 76.4493C5.93595 80.2686 5.7643 85.6917 7.27876 89.9294C8.04583 92.075 9.31177 94.1044 11.2393 95.4169C12.4426 96.2358 13.823 96.7221 15.3446 96.8258C15.3017 97.0279 15.2606 97.2389 15.2177 97.4588C14.7259 100.012 14.2575 103.765 14.5078 108.173C15.0102 117.027 18.4272 128.501 30.2694 138.058C50.3312 154.247 68.9858 148.849 79.4673 145.815C81.4377 145.244 83.1184 144.758 84.4666 144.513C95.0071 145.62 102.342 145.904 108.412 145.266C114.597 144.615 119.387 143.014 124.846 140.486C131.04 137.618 133.278 132.059 133.402 127.106C133.462 124.644 133.012 122.264 132.238 120.312C131.737 119.049 131.04 117.812 130.133 116.872C133.74 106.011 129.631 97.6465 126.228 93.8988C127.213 88.676 126.859 78.1569 119.294 68.4336C116.717 65.1221 114.023 63.0623 111.339 62.1468C108.611 61.2153 106.011 61.5156 103.867 62.7136H103.865Z" fill="#EFA332" stroke="white" stroke-width="4.09103" stroke-linejoin="round"/>
<path d="M41.863 92.9297C30.0047 89.2857 33.3162 74.9653 35.7872 70.1036C47.4327 77.9424 56.364 78.3411 72.0612 96.1053C70.4502 107.611 62.8546 104.758 60.4604 101.489C47.2039 120.036 41.357 98.4977 41.863 92.9297Z" fill="white" stroke="white" stroke-width="4.39858" stroke-linecap="round" stroke-linejoin="round"/>
<path d="M105.111 132.692C107.577 132.692 109.576 130.302 109.576 127.353C109.576 124.404 107.577 122.014 105.111 122.014C102.646 122.014 100.647 124.404 100.647 127.353C100.647 130.302 102.646 132.692 105.111 132.692Z" fill="white"/>
<path d="M116.297 126.432L120.671 127.997L122.375 124.499" stroke="white" stroke-width="3.57965" stroke-linecap="round" stroke-linejoin="round"/>
<path d="M102.669 3.16127C99.7347 4.8009 97.8626 7.97467 97.4513 11.4506C81.5575 1.57528 65.5045 1.48945 52.8237 4.3074C42.5317 6.5943 34.4015 10.8033 30.23 13.303C29.6722 11.5329 28.6762 10.115 27.2994 9.07073C25.2271 7.49726 22.5772 6.98588 20.0436 6.98588C17.5099 6.98588 14.8028 7.5813 12.4068 9.20126C10.0216 10.8141 8.02258 13.3316 6.43659 16.8988C4.73795 20.718 4.5663 26.1411 6.08077 30.3788C6.84783 32.5244 8.11377 34.5539 10.0413 35.8663C11.2446 36.6852 12.625 37.1716 14.1466 37.2753C14.1037 37.4773 14.0626 37.6883 14.0197 37.9082C13.5279 40.4615 13.0595 44.2146 13.3098 48.6222C13.8122 57.4765 17.2292 68.9504 29.0714 78.5074C49.1332 94.6981 67.7878 89.2983 78.2693 86.264C80.2397 85.6936 81.9204 85.2072 83.2686 84.9623C93.8091 86.0691 101.144 86.3534 107.214 85.715C113.399 85.0642 118.189 83.4621 123.648 80.9338C129.842 78.0658 132.08 72.5068 132.204 67.5539C132.264 65.0918 131.814 62.7119 131.04 60.7594C130.539 59.497 129.842 58.2597 128.935 57.3192C132.542 46.4586 128.433 38.0942 125.03 34.3465C126.015 29.1236 125.659 18.6046 118.096 8.8812C115.519 5.56975 112.825 3.50993 110.141 2.59446C107.413 1.66289 104.813 1.96328 102.669 3.16305V3.16127Z" fill="#EFA332" stroke="white" stroke-width="4.09103" stroke-linejoin="round"/>
<path d="M96.872 11.9298C98.9426 16.947 96.8452 24.7232 85.5019 25.0916" stroke="white" stroke-width="4.39858" stroke-linecap="round" stroke-linejoin="round"/>
<path d="M40.6669 33.3773C28.8087 29.7333 29.1573 16.7503 31.6266 11.8868C44.5005 5.47494 75.4336 2.05263 96.89 12.0657C97.995 13.446 100.232 22.515 86.3299 25.4152C82.2335 22.4238 75.2816 14.1398 67.1335 19.5236C60.6161 23.8309 67.5179 33.3147 70.8616 36.5511C69.2505 48.0571 61.6549 45.2034 59.2608 41.9348C46.0042 60.4822 40.1573 38.9435 40.6634 33.3755L40.6669 33.3773Z" fill="white"/>
<path d="M49.6035 51.5402C48.7381 51.5402 47.8852 51.3846 47.0412 51.0717C43.3847 49.7146 41.2516 45.6969 40.1072 42.5678C39.1792 40.0306 38.5767 37.1804 38.4569 34.9275C34.2979 33.2503 31.226 30.2804 29.5203 26.2573C27.2316 20.8628 27.861 14.4455 29.6651 10.8927C29.8797 10.4725 30.223 10.131 30.6449 9.92C37.7613 6.37611 49.0957 4.02126 60.9647 3.62074C74.8131 3.15406 87.8997 5.44633 97.8198 10.0756C98.1255 10.2186 98.3955 10.4296 98.6065 10.6942C99.6543 12.0031 100.573 15.3968 99.3342 18.8405C97.371 24.3012 91.4222 26.6006 86.7786 27.5697C86.1707 27.6967 85.5359 27.559 85.0335 27.1925C84.2986 26.656 83.5083 25.9873 82.6715 25.281C77.6364 21.0237 73.3844 18.0323 68.3475 21.3599C67.2962 22.0536 66.758 22.9083 66.6525 24.0491C66.3378 27.4464 69.8191 32.4833 72.3921 34.9722C72.8963 35.4604 73.1377 36.1613 73.0411 36.8568C72.047 43.9607 68.8929 46.1939 66.4218 46.8162C63.9615 47.4366 61.426 46.6213 59.5164 45.232C56.1012 49.4285 52.7809 51.5384 49.6017 51.5384L49.6035 51.5402ZM33.3055 13.5193C32.3543 15.9672 31.8769 20.5481 33.5702 24.5372C34.9809 27.863 37.5861 30.1284 41.3124 31.2746C42.3065 31.5803 42.9502 32.5405 42.8572 33.5758C42.5712 36.7316 44.7704 45.5342 48.5736 46.9467C48.8937 47.0665 49.2244 47.1202 49.5606 47.1202C52.3964 47.1202 55.665 43.1883 57.4745 40.6564C57.8839 40.0824 58.5455 39.7409 59.25 39.7356C59.2536 39.7356 59.2589 39.7356 59.2625 39.7356C59.9634 39.7356 60.6214 40.0699 61.0362 40.6349C61.932 41.858 63.8774 42.9183 65.3472 42.5481C66.8241 42.1762 67.9327 40.322 68.512 37.2895C65.7745 34.341 61.8051 28.6658 62.2718 23.6396C62.5006 21.1721 63.763 19.1141 65.9212 17.6872C74.1068 12.2784 81.2464 18.3131 85.5109 21.9177C85.9812 22.3147 86.4353 22.6991 86.8555 23.0388C91.1826 21.975 94.0112 20.1297 95.068 17.6712C95.7564 16.0673 95.54 14.501 95.2915 13.75C75.278 4.76866 46.2491 7.48827 33.3055 13.5157V13.5193Z" fill="white"/>
<path d="M115.101 66.8798L119.475 68.4443L121.177 64.9469" stroke="white" stroke-width="3.57965" stroke-linecap="round" stroke-linejoin="round"/>
<path d="M97.5157 64.534C99.3574 66.0073 103.858 67.8293 107.135 63.3378" stroke="white" stroke-width="4.39858" stroke-linecap="round" stroke-linejoin="round"/>
<path d="M91.1181 32.2723C86.8841 26.0141 73.8564 15.0606 67.4123 23.1139C62.2467 29.5688 73.32 39.6658 81.6826 42.4891" stroke="white" stroke-width="3.06828" stroke-linecap="round" stroke-linejoin="round"/>
<path d="M69.667 82.0674C63.8488 87.4798 73.6722 98.8196 84.2127 102.732C95.8493 105.162 94.6781 96.9028 92.6362 92.4685C87.4044 86.7467 75.4853 76.655 69.667 82.0674Z" fill="#EFA332"/>
<path d="M92.3144 91.8248C88.0785 85.5666 75.0526 74.6131 68.6085 82.6664C63.4429 89.1213 74.5162 99.2183 82.8789 102.042" stroke="white" stroke-width="3.06828" stroke-linecap="round" stroke-linejoin="round"/>
</svg>
