<svg width="134" height="212" viewBox="0 0 134 212" fill="none" xmlns="http://www.w3.org/2000/svg">
<path d="M105.809 165.655C105.921 165.368 106.052 165.08 106.203 164.79C106.243 164.726 106.278 164.67 106.308 164.623C106.31 164.62 106.312 164.617 106.314 164.614C106.444 164.547 106.541 164.544 106.651 164.558C107.427 164.655 108.228 164.779 109.055 164.931L109.124 164.944L109.194 164.953C109.381 164.976 109.47 165.028 109.575 165.15L109.616 165.198L109.66 165.243C109.969 165.566 110.239 165.961 110.463 166.449L110.51 166.551L110.565 166.648C110.815 167.081 111 167.569 111.112 168.125L111.132 168.225L111.16 168.322C111.363 169.025 111.492 169.572 111.561 169.982L111.823 171.524L113.336 171.919C114.118 172.123 114.813 172.292 115.416 172.423L115.93 170.058L115.416 172.423C116.041 172.559 116.651 172.665 117.245 172.739L118.87 172.941L118.978 172.954L119.087 172.958C119.568 172.974 120.166 173.024 120.891 173.115L120.965 173.124L121.04 173.129C121.869 173.18 122.4 173.224 122.68 173.259C123.129 173.315 124.537 173.443 125.529 172.304L125.872 171.91L126.022 171.411L126.157 170.96L126.175 170.9L126.19 170.84C127.015 167.482 127.121 164.331 126.346 161.471C125.603 158.659 124.229 156.244 122.204 154.303C120.234 152.413 117.818 151.021 115.019 150.091C112.237 149.113 109.274 148.637 106.148 148.642L106.124 148.642L106.099 148.643C104.556 148.677 103.046 148.83 101.572 149.103C99.9589 149.403 98.4542 149.995 97.0736 150.873C95.1105 151.908 93.5476 153.375 92.4521 155.266L92.4352 155.295L92.4192 155.325C91.5156 156.989 90.8035 158.736 90.2838 160.561C89.797 162.243 89.3859 163.983 89.0496 165.781C88.7289 167.479 88.4373 169.155 88.175 170.81L88.175 170.81L88.1734 170.82C87.88 172.723 87.6374 174.431 87.4464 175.942L87.441 175.985L87.4371 176.029C87.3073 177.47 87.184 178.861 87.0672 180.2L87.0628 180.25L87.0605 180.301C87.002 181.59 86.9403 182.906 86.8753 184.247C86.8095 185.607 86.7503 187.121 86.6977 188.788L86.6974 188.796L86.6972 188.803C86.67 189.88 86.6695 190.96 86.6958 192.042L86.6975 192.114L86.7035 192.185C86.7885 193.203 86.8766 194.047 86.97 194.698L86.971 194.705L86.972 194.712C87.3453 197.208 88.0372 199.445 89.1017 201.37C90.2523 203.451 92.0316 205.115 94.2823 206.414L94.2897 206.418L94.2971 206.422C95.6673 207.2 97.1248 207.776 98.663 208.149L98.6729 208.151C100.208 208.517 101.785 208.714 103.402 208.746C104.946 208.826 106.48 208.796 108.002 208.656C109.48 208.569 110.917 208.423 112.314 208.216L112.409 208.202L112.502 208.18C114.877 207.633 116.999 206.64 118.821 205.179C120.87 203.537 122.126 201.117 122.798 198.243C123.703 195.393 124.297 192.385 124.588 189.227C124.878 186.087 125.041 183.105 125.076 180.282L125.086 179.43L124.561 178.76L124.493 178.674L123.878 177.887L122.887 177.764L122.732 177.745C122.316 177.693 121.41 177.536 119.942 177.25C118.461 176.905 116.855 176.599 115.127 176.331C113.376 176.06 111.683 175.875 110.05 175.779C108.531 175.645 106.988 175.682 105.72 176.197C105.436 176.27 105.131 176.403 104.834 176.632C104.131 177.174 103.935 177.9 103.884 178.301L103.884 178.301L103.874 178.377L103.857 178.511L103.855 178.646C103.843 179.531 103.8 180.207 103.738 180.7C103.669 181.246 103.577 181.791 103.461 182.333L103.44 182.432L103.428 182.532L103.204 184.298L103.192 184.399L103.187 184.5C103.16 185.163 103.146 185.924 103.146 186.779L103.145 188.212L104.401 188.901C104.922 189.187 105.513 189.37 106.059 189.499L106.189 189.53L106.321 189.547L107.945 189.749L108.044 189.761L108.144 189.765C108.367 189.775 108.58 189.786 108.782 189.801C108.737 190.031 108.676 190.261 108.598 190.492L108.564 190.592L108.539 190.695C108.49 190.9 108.448 191.061 108.413 191.181C108.396 191.241 108.382 191.286 108.371 191.319C108.369 191.326 108.367 191.333 108.365 191.338C108.209 191.687 108.05 191.895 107.919 192.022C107.731 192.157 107.508 192.274 107.237 192.366C106.659 192.487 106.005 192.569 105.269 192.606L105.256 192.606L105.243 192.607C104.67 192.641 104.154 192.595 103.683 192.482C103.304 192.343 103.069 192.208 102.931 192.104C102.519 191.657 102.246 191.079 102.16 190.252C102.029 188.976 101.984 187.839 102.018 186.834C102.101 184.975 102.246 183.016 102.455 180.957C102.663 178.91 102.936 176.954 103.273 175.088L103.274 175.085C103.618 173.16 103.996 171.376 104.404 169.73C104.859 168.108 105.318 166.786 105.773 165.742L105.792 165.699L105.809 165.655ZM109.016 188.048C109.016 188.037 109.017 188.031 109.017 188.031C109.017 188.031 109.017 188.036 109.016 188.048Z" fill="#EFA332" stroke="white" stroke-width="4.84066"/>
<path d="M82.6334 179.978C83.5572 178.312 84.3513 176.534 85.0185 174.646C85.8931 172.323 86.3345 169.927 86.3345 167.472C86.3345 164.341 85.8301 161.54 84.7005 159.168C83.6201 156.849 82.12 154.913 80.1846 153.421C78.2998 151.916 76.1297 150.849 73.7078 150.203C71.4482 149.587 69.0899 149.227 66.6382 149.116C64.2046 149.006 61.749 149.116 59.2731 149.444C56.8365 149.767 54.5201 150.225 52.3268 150.824L51.7117 150.992L51.2591 151.441L51.1812 151.518L50.4482 152.246L50.4661 153.278C50.6215 162.225 50.6215 171.094 50.4661 179.885L82.6334 179.978ZM82.6334 179.978C83.3828 180.92 84.0922 181.864 84.7613 182.81C85.629 183.91 86.3575 185.095 86.9444 186.364C87.6361 187.692 88.0921 189.145 88.3329 190.698C88.5908 192.362 88.5153 194.134 88.1673 195.986C87.7008 198.691 86.7734 201.063 85.2876 202.989C83.923 204.772 82.2327 206.172 80.2345 207.163C78.3254 208.111 76.2372 208.747 73.9888 209.09L73.9589 209.095L73.9289 209.098C71.8033 209.369 69.6059 209.503 67.3382 209.505C65.1381 209.557 62.9142 209.503 60.6669 209.344L60.6627 209.344C58.5757 209.192 56.6223 209.091 54.8015 209.04H54.8004H54.7985H54.7967H54.7949H54.793H54.7912H54.7894H54.7876H54.7857H54.7839H54.7821H54.7803H54.7784H54.7766H54.7748H54.7729H54.7711H54.7693H54.7675H54.7656H54.7638H54.762H54.7602H54.7583H54.7565H54.7547H54.7528H54.751H54.7492H54.7474H54.7455H54.7437H54.7419H54.7401H54.7382H54.7364H54.7346H54.7327H54.7309H54.7291H54.7273H54.7254H54.7236H54.7218H54.72H54.7181H54.7163H54.7145H54.7126H54.7108H54.709H54.7072H54.7053H54.7035H54.7017H54.6999H54.698H54.6962H54.6944H54.6925H54.6907H54.6889H54.6871H54.6852H54.6834H54.6816H54.6798H54.6779H54.6761H54.6743H54.6724H54.6706H54.6688H54.667H54.6651H54.6633H54.6615H54.6597H54.6578H54.656H54.6542H54.6524H54.6505H54.6487H54.6469H54.645H54.6432H54.6414H54.6396H54.6377H54.6359H54.6341H54.6323H54.6304H54.6286H54.6268H54.6249H54.6231H54.6213H54.6195H54.6176H54.6158H54.614H54.6122H54.6103H54.6085H54.6067H54.6048H54.603H54.6012H54.5994H54.5975H54.5957H54.5939H54.5921H54.5902H54.5884H54.5866H54.5847H54.5829H54.5811H54.5793H54.5774H54.5756H54.5738H54.572H54.5701H54.5683H54.5665H54.5646H54.5628H54.561H54.5592H54.5573H54.5555H54.5537H54.5519H54.55H54.5482H54.5464H54.5445H54.5427H54.5409H54.5391H54.5372H54.5354H54.5336H54.5318H54.5299H54.5281H54.5263H54.5244H54.5226H54.5208H54.519H54.5171H54.5153H54.5135H54.5117H54.5098H54.508H54.5062H54.5043H54.5025H54.5007H54.4989H54.497H54.4952H54.4934H54.4916H54.4897H54.4879H54.4861H54.4842H54.4824H54.4806H54.4788H54.4769H54.4751H54.4733H54.4715H54.4696H54.4678H54.466H54.4641H54.4623H54.4605H54.4587H54.4568H54.455H54.4532H54.4514H54.4495H54.4477H54.4459H54.4441H54.4422H54.4404H54.4386H54.4367H54.4349H54.4331H54.4313H54.4294H54.4276H54.4258H54.424H54.4221H54.4203H54.4185H54.4166H54.4148H54.413H54.4112H54.4093H54.4075H54.4057H54.4039H54.402H54.4002H54.3984H54.3965H54.3947H54.3929H54.3911H54.3892H54.3874H54.3856H54.3838H54.3819H54.3801H54.3783H54.3764H54.3746H54.3728H54.371H54.3691H54.3673H54.3655H54.3637H54.3618H54.36H54.3582H54.3563H54.3545H54.3527H54.3509H54.349H54.3472H54.3454H54.3436H54.3417H54.3399H54.3381H54.3362H54.3344H54.3326H54.3308H54.3289H54.3271H54.3253H54.3235H54.3216H54.3198H54.318H54.3161H54.3143H54.3125H54.3107H54.3088H54.307H54.3052H54.3034H54.3015H54.2997H54.2979H54.296H54.2942H54.2924H54.2906H54.2887H54.2869H54.2851H54.2833H54.2814H54.2796H54.2778H54.2759H54.2741H54.2723H54.2705H54.2686H54.2668H54.265H54.2632H54.2613H54.2595H54.2577H54.2558H54.254H54.2522H54.2504H54.2485H54.2467H54.2449H54.2431H54.2412H54.2394H54.2376H54.2358H54.2339H54.2321H54.2303H54.2284H54.2266H54.2248H54.223H54.2211H54.2193H54.2175H54.2157H54.2138H54.212H54.2102H54.2083H54.2065H54.2047H54.2029H54.201H54.1992H54.1974H54.1956H54.1937H54.1919H54.1901H54.1882H54.1864H54.1846H54.1828H54.1809H54.1791H54.1773H54.1755H54.1736H54.1718H54.17H54.1681H54.1663H54.1645H54.1627H54.1608H54.159H54.1572H54.1554H54.1535H54.1517H54.1499H54.148H54.1462H54.1444H54.1426H54.1407H54.1389H54.1371H54.1353H54.1334H54.1316H54.1298H54.1279H54.1261H54.1243H54.1225H54.1206H54.1188H54.117H54.1152H54.1133H54.1115H54.1097H54.1078H54.106H54.1042H54.1024H54.1005H54.0987H54.0969H54.0951H54.0932H54.0914H54.0896H54.0877H54.0859H54.0841H54.0823H54.0804H54.0786H54.0768H54.075H54.0731H54.0713H54.0695H54.0676H54.0658H54.064H54.0622H54.0603H54.0585H54.0567H54.0549H54.053H54.0512H54.0494H54.0475H54.0457H54.0439H54.0421H54.0402H54.0384H54.0366H54.0348H54.0329H54.0311H54.0293H54.0275H54.0256H54.0238H54.022H54.0201H54.0183H54.0165H54.0147H54.0128H54.011H54.0092H54.0074H54.0055H54.0037H54.0019H54H53.9982H53.9964H53.9946H53.9927H53.9909H53.9891H53.9873H53.9854H53.9836H53.9818H53.9799H53.9781H53.9763H53.9745H53.9726H53.9708H53.969H53.9672H53.9653H53.9635H53.9617H53.9598H53.958H53.9562H53.9544H53.9525H53.9507H53.9489H53.9471H53.9452H53.9434H53.9416H53.9397H53.9379H53.9361H53.9343H53.9324H53.9306H53.9288H53.927H53.9251H53.9233H53.9215H53.9196H53.9178H53.916H53.9142H53.9123H53.9105H53.9087H53.9069H53.905H53.9032H53.9014H53.8995C53.3114 209.04 52.7493 208.922 52.227 208.715L50.7564 208.131L50.7011 206.55C50.3878 197.585 50.3094 188.697 50.4661 179.885L82.6334 179.978ZM82.19 180.752C82.1874 180.757 82.1867 180.758 82.1882 180.755C82.1888 180.754 82.1894 180.753 82.19 180.752ZM71.515 191.224V191.282L71.5178 191.34C71.5446 191.9 71.4257 192.252 71.2489 192.514C70.992 192.804 70.7056 193.011 70.3762 193.158C69.9336 193.322 69.4098 193.452 68.7922 193.533C68.1151 193.576 67.4127 193.599 66.6845 193.6C66.3882 193.581 66.0946 193.566 65.8039 193.554C65.7729 193.428 65.7445 193.292 65.7196 193.144C65.59 192.372 65.5224 191.572 65.5193 190.742C65.5681 189.816 65.6623 188.917 65.801 188.045C65.8237 187.902 65.8469 187.763 65.8706 187.626C66.2037 187.648 66.5391 187.667 66.8769 187.684L66.9368 187.687H66.9969C67.8338 187.687 68.6416 187.79 69.4257 187.995L69.4612 188.004L69.497 188.013C69.7476 188.07 70.0624 188.209 70.4438 188.524L70.4915 188.564L70.5412 188.601C70.8659 188.842 71.0647 189.079 71.1906 189.303C71.3944 189.829 71.515 190.459 71.515 191.224ZM70.9912 170.733L70.9677 170.773L70.9458 170.813C70.7403 171.196 70.4927 171.444 70.1934 171.619C69.8094 171.82 69.3545 171.965 68.8038 172.033C68.1257 172.117 67.4154 172.14 66.6701 172.096C66.4606 172.084 66.2549 172.07 66.0529 172.055C65.9185 171.096 65.8944 170.17 65.9738 169.274C66.0898 168.316 66.1626 167.408 66.1863 166.557C66.2847 166.556 66.3885 166.558 66.498 166.563L66.5525 166.565H66.6071C67.64 166.565 68.5785 166.653 69.4289 166.817C69.9556 166.954 70.367 167.156 70.6971 167.402L70.7861 167.468L70.8807 167.526C71.1106 167.666 71.3707 167.915 71.6179 168.406C71.7713 168.711 71.7614 168.886 71.7047 169.066C71.4889 169.751 71.2458 170.3 70.9912 170.733Z" fill="#EFA332" stroke="white" stroke-width="4.84066"/>
<path d="M8.43237 153.424L8.43792 153.478C8.65939 156.097 8.91545 159.048 9.20605 162.329L9.20774 162.348L9.20971 162.367C9.54865 165.612 9.92952 169.007 10.3522 172.553L10.3523 172.553L11.6006 183.003L11.6027 183.021L11.6051 183.039C12.0732 186.519 12.5226 189.82 12.9533 192.942L12.9535 192.944C13.3791 196.016 13.7754 198.807 14.1424 201.318L14.1462 201.344L14.1506 201.37C14.2827 202.154 14.4072 202.992 14.5281 203.805C14.5933 204.244 14.6574 204.676 14.7211 205.088C14.8078 205.649 14.896 206.187 14.9817 206.606C15.0229 206.807 15.076 207.044 15.1436 207.262C15.1755 207.366 15.2325 207.537 15.3228 207.725C15.3683 207.819 15.4463 207.968 15.5655 208.132C15.6697 208.276 15.9052 208.573 16.308 208.812C16.9062 209.169 17.4822 209.179 17.7049 209.175C17.9767 209.171 18.2076 209.128 18.3461 209.098C18.6217 209.039 18.9038 208.947 19.072 208.892C19.5321 208.742 19.7366 208.676 19.88 208.655C20.4811 208.564 20.8345 208.575 21.3893 208.592C21.6816 208.6 22.0298 208.611 22.4994 208.609C23.6235 208.605 24.7426 208.546 25.8563 208.431C27.1375 208.3 28.4077 207.949 29.4553 207.189L30.3906 206.51L30.4508 205.356C30.5436 203.576 30.4996 201.807 30.3181 200.05C30.1894 198.314 30.0057 196.559 29.7672 194.786L29.0703 189.605C28.959 188.533 28.877 187.446 28.8245 186.344C29.558 186.167 30.2942 186.04 31.0338 185.964C31.8255 185.883 32.6221 185.84 33.4239 185.838C33.6207 186.851 33.7917 187.899 33.9368 188.984C34.1729 190.752 34.3836 192.521 34.5687 194.294L34.5724 194.329L34.577 194.363C34.8161 196.153 35.058 197.968 35.3025 199.809L35.3072 199.845L35.313 199.88C35.6155 201.736 35.994 203.536 36.4494 205.279L36.9741 207.288L39.0388 207.075L39.1164 207.067L39.2158 207.057L39.3141 207.039C39.8431 206.94 40.52 206.845 41.3572 206.759L42.753 206.615L44.1488 206.472C45.1722 206.367 46.1927 206.235 47.2104 206.076C48.321 205.905 49.3646 205.685 50.3362 205.41L52.3741 204.833L52.0724 202.736L44.3519 149.083L44.0421 146.93L41.8681 147.009C41.0402 147.039 40.1258 147.106 39.1288 147.208C38.0999 147.26 37.0619 147.396 36.0161 147.612C34.9755 147.777 33.9619 147.993 32.9762 148.262L32.9652 148.265L32.9541 148.268C32.0158 148.534 31.1668 148.828 30.4293 149.159L28.7603 149.909L29.0265 151.719C29.5619 155.359 29.9611 158.692 30.2261 161.72L30.2279 161.74L30.23 161.761C30.4816 164.17 30.6519 166.743 30.7395 169.484C30.0295 169.623 29.2942 169.771 28.5337 169.929C27.8367 170.048 27.1752 170.108 26.5472 170.116C25.8742 167.566 25.4009 164.98 25.1268 162.356C24.7668 158.909 24.1563 155.391 23.2985 151.804L22.9287 150.258L21.3628 149.983C20.3773 149.81 19.3658 149.785 18.3383 149.891C17.4615 149.981 16.5645 150.101 15.6475 150.249L15.6475 150.249L15.6388 150.251C14.8201 150.387 13.9754 150.525 13.1046 150.667L13.1046 150.667L13.0959 150.668C12.4698 150.772 11.8724 150.793 11.298 150.739L11.0611 150.717L10.8246 150.741L10.5919 150.765L8.18053 151.013L8.43237 153.424Z" fill="#EFA332" stroke="white" stroke-width="4.84066"/>
<path d="M99.8477 62.1843C97.1659 63.6728 95.3253 66.2803 94.5263 69.2422C79.344 60.4808 64.1154 60.494 52.0504 63.1559C42.8982 65.1752 35.4895 68.728 31.117 71.199C30.478 69.9088 29.5736 68.8138 28.4171 67.9426C26.1135 66.2071 23.2461 65.6939 20.6633 65.6939C17.9413 65.6939 15.1578 66.3095 12.5973 68.028C10.0536 69.7353 7.98679 72.3585 6.3831 75.9394C4.60156 79.9174 4.43525 85.4602 6.00305 89.8154C6.80337 92.0386 8.16075 94.2424 10.3087 95.6947C11.2797 96.3512 12.3466 96.8091 13.4884 97.058C13.0514 99.5458 12.684 102.975 12.9108 106.942C13.4125 115.717 16.8353 127.081 28.6028 136.507C48.5499 152.485 67.3306 147.046 77.368 144.139C79.1105 143.634 80.5896 143.206 81.7655 142.979C91.8716 144.027 99.0092 144.305 104.966 143.682C111.109 143.041 115.867 141.457 121.225 138.993C127.742 135.998 130.093 130.161 130.221 125.048C130.285 122.518 129.82 120.065 129.007 118.028C128.584 116.97 128 115.86 127.226 114.904C130.342 104.758 126.748 96.788 123.379 92.8013C124.243 87.3066 123.6 77.2674 116.328 67.989C113.74 64.6872 110.951 62.5272 108.063 61.5494C105.105 60.5483 102.232 60.8608 99.8477 62.1843Z" fill="#EFA332" stroke="white" stroke-width="6.45422" stroke-linejoin="round"/>
<mask id="mask0_3_136" style="mask-type:alpha" maskUnits="userSpaceOnUse" x="8" y="64" width="119" height="81">
<path d="M9.32834 77.2584C6.48349 83.6107 8.66158 95.9624 17.5517 93.8009C18.1741 92.2569 8.78901 116.501 30.6203 133.988C52.9791 151.898 72.893 141.134 81.6499 139.723C102.231 141.884 109.609 140.781 119.878 136.061C130.146 131.341 127.39 117.931 123.478 115.857C127.816 104.741 122.885 96.5212 119.878 93.8009C120.959 89.8307 121.256 79.5082 113.788 69.9797C104.453 58.0691 95.5185 66.9359 97.6077 75.0527C65.9143 52.555 32.5317 73.8175 29.0201 76.2879C28.9312 70.7296 25.1084 68.921 20.6633 68.921C16.2182 68.921 12.1732 70.9061 9.32834 77.2584Z" fill="#EFAF32"/>
</mask>
<g mask="url(#mask0_3_136)">
<path d="M40.5774 92.2571C29.1268 88.7634 32.3243 75.0383 34.7099 70.377C45.9559 77.8909 54.5794 78.2732 69.7371 95.3009C68.1814 106.329 60.847 103.594 58.5355 100.462C45.7337 118.24 40.0884 97.5948 40.5774 92.2571Z" fill="white" stroke="white" stroke-width="6.93828" stroke-linecap="round" stroke-linejoin="round"/>
</g>
<ellipse cx="101.653" cy="125.253" rx="4.31173" ry="5.11714" fill="white"/>
<path d="M112.454 124.372L116.677 125.871L118.322 122.519" stroke="white" stroke-width="5.64744" stroke-linecap="round" stroke-linejoin="round"/>
<path d="M98.6919 5.10167C96.0102 6.59018 94.1696 9.19768 93.3706 12.1596C78.1882 3.39818 62.9596 3.4114 50.8947 6.07331C41.7424 8.09257 34.3337 11.6454 29.9612 14.1164C29.3222 12.8261 28.4178 11.7312 27.2613 10.8599C24.9577 9.12447 22.0904 8.61122 19.5075 8.61122C16.7855 8.61122 14.0021 9.22686 11.4416 10.9454C8.89785 12.6526 6.83102 15.2758 5.22734 18.8567C3.4458 22.8347 3.27948 28.3775 4.84729 32.7327C5.64761 34.9559 7.00499 37.1598 9.15297 38.6121C10.1239 39.2685 11.1908 39.7264 12.3326 39.9753C11.8956 42.4632 11.5283 45.8924 11.755 49.8592C12.2567 58.6347 15.6795 69.998 27.447 79.4241C47.3941 95.4022 66.1748 89.9633 76.2122 87.0565C77.9548 86.5518 79.4338 86.1235 80.6097 85.8968C90.7159 86.9447 97.8534 87.222 103.81 86.5997C109.953 85.958 114.711 84.3742 120.07 81.9109C126.586 78.9153 128.937 73.0783 129.066 67.9653C129.129 65.4358 128.664 62.9822 127.851 60.9457C127.428 59.8871 126.844 58.7776 126.07 57.8213C129.186 47.6749 125.592 39.7054 122.223 35.7187C123.087 30.2239 122.444 20.1848 115.172 10.9064C112.584 7.60452 109.795 5.44454 106.907 4.46678C103.949 3.46566 101.076 3.77821 98.6919 5.10167Z" fill="#EFA332" stroke="white" stroke-width="6.45422" stroke-linejoin="round"/>
<mask id="mask1_3_136" style="mask-type:alpha" maskUnits="userSpaceOnUse" x="7" y="7" width="119" height="81">
<path d="M8.17258 20.1757C5.32772 26.528 7.50582 38.8798 16.396 36.7182C17.0183 35.1742 7.63324 59.4179 29.4645 76.9054C51.8233 94.8154 71.7373 84.0517 80.4941 82.6401C101.075 84.8017 108.454 83.6988 118.722 78.9787C128.99 74.2586 126.234 60.8482 122.322 58.7748C126.661 47.6583 121.73 39.4385 118.722 36.7182C119.803 32.748 120.1 22.4255 112.632 12.8971C103.297 0.986476 94.3628 9.85324 96.452 17.9701C64.7585 -4.52768 31.3759 16.7349 27.8643 19.2052C27.7754 13.647 23.9526 11.8383 19.5075 11.8383C15.0625 11.8383 11.0174 13.8234 8.17258 20.1757Z" fill="#EFAF32"/>
</mask>
<g mask="url(#mask1_3_136)">
<path d="M39.4215 35.1741C27.9709 31.6804 28.7236 19.014 31.1091 14.3527C43.5406 8.20625 73.293 -0.39878 92.8514 14.3527C93.9182 15.6761 96.9408 24.7634 83.5167 27.5426C79.5606 24.6752 72.8485 16.7348 64.9807 21.8961C58.6864 26.0251 65.3511 35.1153 68.5812 38.218C67.0254 49.2463 59.691 46.5113 57.3796 43.3792C44.5778 61.1569 38.9325 40.5119 39.4215 35.1741Z" fill="white" stroke="white" stroke-width="6.93828" stroke-linecap="round" stroke-linejoin="round"/>
<path d="M93.696 14.6176C95.6963 19.4259 93.6694 26.881 82.7167 27.2339" stroke="white" stroke-width="6.93828" stroke-linecap="round" stroke-linejoin="round"/>
</g>
<path d="M111.299 67.2888L115.521 68.7886L117.166 65.436" stroke="white" stroke-width="5.64744" stroke-linecap="round" stroke-linejoin="round"/>
<path d="M94.3183 65.0389C96.0963 66.4505 100.444 68.1974 103.609 63.892" stroke="white" stroke-width="6.93828" stroke-linecap="round" stroke-linejoin="round"/>
<path d="M88.1397 34.1156C84.0502 28.1162 71.4706 17.6172 65.2475 25.337C60.2599 31.5241 70.952 41.2031 79.0272 43.9087" stroke="white" stroke-width="4.84066" stroke-linecap="round" stroke-linejoin="round"/>
<path d="M67.4255 81.8462C61.8069 87.0339 71.2927 97.9034 81.4719 101.653C92.7091 103.982 91.5771 96.0653 89.6064 91.8158C84.5539 86.331 73.0441 76.6584 67.4255 81.8462Z" fill="#EFA332"/>
<path d="M89.2954 91.1981C85.2059 85.1987 72.6264 74.6997 66.4032 82.4195C61.4157 88.6066 72.1078 98.2856 80.183 100.991" stroke="white" stroke-width="4.84066" stroke-linecap="round" stroke-linejoin="round"/>
</svg>
