<?xml version="1.0" encoding="utf-8"?>
<!-- Generator: Adobe Illustrator 28.0.0, SVG Export Plug-In . SVG Version: 6.00 Build 0)  -->
<svg version="1.1" id="Capa_1" xmlns="http://www.w3.org/2000/svg" xmlns:xlink="http://www.w3.org/1999/xlink" x="0px" y="0px"
	 viewBox="0 0 130.09 217" style="enable-background:new 0 0 130.09 217;" xml:space="preserve">
<style type="text/css">
	.st0{fill:#FFFFFF;}
	.st1{fill:#EFA332;}
</style>
<g>
	<g>
		<g>
			<g>
				<path class="st0" d="M103.11,216.25c-0.61,0-1.21-0.02-1.82-0.05c-1.85-0.04-3.68-0.27-5.44-0.7l-0.1-0.02
					c-1.8-0.45-3.52-1.14-5.12-2.05l-0.11-0.06c-2.87-1.68-5.04-3.83-6.45-6.4c-1.23-2.24-2.07-4.89-2.52-7.88l-0.01-0.06
					c-0.1-0.71-0.19-1.6-0.29-2.72l-0.02-0.33c-0.03-1.15-0.03-2.3,0-3.43l0.01-0.29c0.05-1.65,0.11-3.17,0.18-4.52
					c0.07-1.37,0.13-2.71,0.19-4.02l0.02-0.26c0.12-1.37,0.24-2.79,0.38-4.28l0.02-0.2c0.2-1.56,0.45-3.36,0.75-5.34l0.01-0.08
					c0.27-1.69,0.57-3.44,0.9-5.2c0.36-1.93,0.8-3.83,1.32-5.64c0.58-2.07,1.39-4.08,2.41-5.97l0.1-0.19
					c1.38-2.4,3.34-4.3,5.83-5.66c1.72-1.09,3.6-1.83,5.6-2.2c1.66-0.31,3.38-0.49,5.12-0.53l0.11,0c0.02,0,0.04,0,0.06,0
					c3.53,0,6.89,0.56,10.01,1.66c3.33,1.12,6.18,2.82,8.48,5.05c2.45,2.37,4.15,5.34,5.06,8.82c0.89,3.34,0.85,7.1-0.14,11.16
					l-0.08,0.29l-0.48,1.61l-0.79,0.92c-0.51,0.6-1.13,1.07-1.81,1.43l2.14,2.76l-0.02,1.97c-0.04,2.97-0.21,6.14-0.51,9.43
					c-0.31,3.42-0.95,6.71-1.91,9.79c-0.9,3.79-2.61,6.73-5.11,8.75c-2.2,1.78-4.8,3.03-7.71,3.71l-0.22,0.05l-0.23,0.03
					c-1.48,0.22-3.03,0.38-4.61,0.48C105.26,216.2,104.19,216.25,103.11,216.25z M97.9,207.14c1.16,0.28,2.38,0.43,3.63,0.45
					l0.14,0.01c1.31,0.07,2.63,0.04,3.92-0.08l0.15-0.01c1.3-0.08,2.58-0.21,3.8-0.38c1.61-0.39,2.96-1.04,4.13-1.99
					c1-0.81,1.73-2.2,2.17-4.15l0.04-0.17l0.05-0.17c0.8-2.54,1.34-5.28,1.6-8.15c0.2-2.18,0.34-4.29,0.41-6.31
					c-0.24-0.05-0.51-0.1-0.8-0.16l-0.16-0.03c-1.36-0.32-2.88-0.61-4.51-0.87c-1.61-0.25-3.18-0.43-4.65-0.51l-0.13-0.01
					c-0.2-0.02-0.38-0.03-0.54-0.04c-0.01,0.12-0.03,0.24-0.04,0.35c-0.08,0.67-0.19,1.34-0.33,2l-0.15,1.21
					c0.59,0.03,1.15,0.07,1.67,0.13c0.02,0,0.05,0,0.07,0l4.58,0.22l-0.51,4.56c-0.04,0.32-0.09,0.65-0.16,0.99
					c-0.09,0.62-0.23,1.24-0.42,1.85c-0.12,0.49-0.23,0.87-0.34,1.17l-0.09,0.23c-0.46,1.06-1.07,1.94-1.84,2.64l-0.14,0.13
					l-0.15,0.11c-0.7,0.54-1.5,0.95-2.38,1.24l-0.21,0.07l-0.21,0.05c-0.89,0.19-1.87,0.32-2.91,0.37c-1.13,0.07-2.23-0.03-3.27-0.3
					l-0.2-0.05l-0.2-0.07c-0.97-0.35-1.8-0.81-2.47-1.36l-0.2-0.16l-0.18-0.18c-1.32-1.39-2.1-3.12-2.31-5.16
					c-0.16-1.53-0.21-2.96-0.17-4.25l0-0.04c0.09-2,0.24-4.14,0.47-6.34c0.22-2.22,0.52-4.39,0.89-6.44l0.03-0.19
					c0.36-2.01,0.76-3.92,1.19-5.67l0.03-0.12c0.51-1.84,1.06-3.45,1.62-4.76c0.14-0.36,0.3-0.72,0.48-1.08v-0.93l1.22-0.96
					l1.19-1.59l1.39,0.22c0.73-0.19,1.49-0.24,2.26-0.14c0.87,0.11,1.77,0.25,2.68,0.42c1.44,0.21,2.71,0.89,3.66,1.98
					c0.68,0.73,1.26,1.59,1.72,2.56c0.49,0.89,0.85,1.87,1.07,2.9c0.02,0.09,0.05,0.17,0.07,0.26c0.06,0.01,0.12,0.03,0.18,0.04
					c0.48,0.11,0.94,0.19,1.38,0.24l1.52,0.19c0.59,0.03,1.26,0.08,1.99,0.17c0.29-1.92,0.23-3.64-0.16-5.12l-0.01-0.03
					c-0.51-1.97-1.41-3.54-2.73-4.83c-1.38-1.34-3.15-2.37-5.26-3.08l-0.07-0.03c-2.2-0.78-4.61-1.18-7.16-1.18c0,0-0.01,0-0.01,0
					c-1.26,0.03-2.51,0.16-3.69,0.38c-0.97,0.18-1.84,0.53-2.67,1.07l-0.16,0.1l-0.17,0.09c-1.12,0.59-1.95,1.37-2.54,2.4
					c-0.72,1.34-1.29,2.77-1.71,4.24l-0.01,0.02c-0.44,1.55-0.82,3.18-1.13,4.85c-0.32,1.7-0.61,3.38-0.86,5.01l0,0.03
					c-0.28,1.87-0.52,3.56-0.71,5.03c-0.13,1.43-0.25,2.81-0.36,4.14c-0.06,1.31-0.12,2.65-0.19,4.01
					c-0.06,1.35-0.12,2.89-0.18,4.57l0,0.03c-0.02,0.96-0.02,1.94,0,2.91c0.08,0.92,0.15,1.66,0.23,2.18l0,0.01
					c0.29,1.97,0.82,3.65,1.55,4.99c0.64,1.16,1.71,2.2,3.19,3.07l0.02,0.01c0.95,0.54,1.97,0.95,3.03,1.21L97.9,207.14z
					 M105.52,173.79c-0.18,0.73-0.35,1.48-0.52,2.27c0.59-0.08,1.22-0.11,1.89-0.1l-0.37-2.18c-0.04-0.23-0.13-0.65-0.33-1.36
					l-0.06-0.22l-0.05-0.23c0-0.01,0-0.02-0.01-0.04C105.9,172.5,105.71,173.12,105.52,173.79z"/>
			</g>
		</g>
		<g>
			<g>
				<path class="st0" d="M63.14,217c-1.77,0-3.56-0.06-5.36-0.19l-0.4-0.03c-1.9-0.13-3.7-0.23-5.37-0.27h-0.87
					c-0.99,0-1.97-0.19-2.9-0.56l-3.42-1.37l-0.13-3.68c-0.32-9.21-0.4-18.47-0.24-27.52c0.16-8.94,0.16-18.09,0-27.19l-0.04-2.4
					l2.83-2.84l1.44-0.4c2.35-0.65,4.87-1.15,7.48-1.5c2.7-0.36,5.41-0.48,8.05-0.36h0c2.73,0.12,5.38,0.54,7.88,1.23
					c2.9,0.78,5.5,2.09,7.73,3.88c2.33,1.82,4.17,4.19,5.49,7.05c1.3,2.76,1.95,6.07,1.95,9.85c0,2.87-0.51,5.71-1.52,8.43
					c-0.49,1.41-1.05,2.77-1.67,4.07c0.34,0.46,0.67,0.91,0.98,1.36c0.99,1.28,1.84,2.67,2.52,4.14c0.83,1.62,1.39,3.42,1.69,5.35
					c0.3,1.99,0.24,4.16-0.18,6.46c-0.58,3.36-1.76,6.24-3.52,8.54c-1.68,2.22-3.78,3.97-6.24,5.21c-2.21,1.11-4.66,1.87-7.29,2.28
					l-0.14,0.02c-2.26,0.29-4.64,0.44-7.06,0.44C64.27,216.99,63.71,217,63.14,217z M58.53,208.23c2.07,0.14,4.14,0.19,6.14,0.14
					l0.1,0c2.06,0,4.07-0.12,5.98-0.37c1.73-0.27,3.32-0.76,4.72-1.46c1.29-0.65,2.35-1.53,3.24-2.71l0.01-0.01
					c0.91-1.19,1.55-2.81,1.89-4.81l0.01-0.07c0.25-1.35,0.3-2.57,0.14-3.61c-0.16-1.04-0.45-1.98-0.88-2.79l-0.09-0.19
					c-0.42-0.93-0.95-1.8-1.58-2.6l-0.14-0.19c-0.69-0.98-1.44-1.99-2.23-2.98c-0.11-0.13-0.21-0.26-0.31-0.39l-1.71-2.28l1.43-2.46
					c0.92-1.59,1.72-3.35,2.38-5.23l0.03-0.08c0.66-1.77,1-3.61,1-5.47c0-2.51-0.38-4.6-1.14-6.2l-0.02-0.04
					c-0.75-1.64-1.73-2.91-3-3.89l-0.06-0.05c-1.3-1.05-2.85-1.83-4.6-2.3l-0.02-0.01c-1.89-0.52-3.91-0.83-6-0.93l0,0
					c-2.14-0.1-4.33,0-6.52,0.29c-1.45,0.19-2.86,0.44-4.21,0.74c0.12,8.44,0.11,16.91-0.04,25.2c-0.14,8.04-0.09,16.24,0.15,24.42
					c1.64,0.06,3.38,0.16,5.19,0.29L58.53,208.23z M63.95,202.92l-0.14-0.01c-0.49-0.03-0.99-0.05-1.46-0.06l-2.73-0.06l-1.11-2.5
					c-0.32-0.71-0.55-1.51-0.69-2.37c-0.18-1.09-0.27-2.23-0.28-3.38l0-0.11l0.01-0.11c0.06-1.14,0.18-2.27,0.35-3.37
					c0.09-0.57,0.19-1.13,0.3-1.66l0.78-3.73l3.79,0.32c0.58,0.05,1.17,0.09,1.76,0.12c1.26,0.01,2.52,0.17,3.72,0.48
					c1.1,0.26,2.14,0.79,3.1,1.58c0.94,0.72,1.67,1.58,2.18,2.56l0.1,0.19l0.08,0.2c0.48,1.21,0.73,2.55,0.74,3.98
					c0.07,1.73-0.37,3.27-1.3,4.58l-0.11,0.15l-0.12,0.14c-0.8,0.95-1.78,1.67-2.9,2.16l-0.19,0.08c-0.88,0.34-1.85,0.57-2.89,0.71
					l-0.27,0.03c-0.82,0.05-1.68,0.08-2.56,0.08L63.95,202.92z M64.85,180.87c-0.35,0-0.7-0.01-1.06-0.03
					c-0.58-0.03-1.14-0.08-1.69-0.13l-3.17-0.32l-0.62-3.12c-0.35-1.77-0.45-3.53-0.3-5.24l0.01-0.13c0.14-1.17,0.2-2.2,0.18-3.07
					l-0.07-3.47l3.38-0.8c0.79-0.19,1.66-0.26,2.58-0.23c1.36,0,2.67,0.13,3.88,0.37l0.23,0.05c1.16,0.3,2.2,0.78,3.11,1.44
					c1.1,0.71,1.99,1.73,2.63,3.02c0.76,1.53,0.9,3.16,0.41,4.73c-0.32,1.03-0.72,1.97-1.19,2.78c-0.68,1.25-1.63,2.24-2.81,2.93
					l-0.13,0.07c-1,0.53-2.11,0.88-3.3,1.03C66.26,180.83,65.56,180.87,64.85,180.87z"/>
			</g>
		</g>
		<g>
			<g>
				<path class="st0" d="M14.35,216.64c-1.07,0-2.12-0.29-3.03-0.83l0,0c-0.67-0.4-1.24-0.93-1.7-1.57c-0.2-0.28-0.38-0.58-0.53-0.9
					c-0.14-0.29-0.25-0.58-0.35-0.91c-0.09-0.29-0.16-0.6-0.24-0.97c-0.09-0.42-0.17-0.95-0.29-1.71c-0.06-0.42-0.13-0.86-0.2-1.31
					c-0.12-0.83-0.25-1.69-0.38-2.46l-0.02-0.12c-0.37-2.57-0.78-5.47-1.21-8.62l0-0.03c-0.43-3.16-0.89-6.57-1.37-10.15l-0.01-0.08
					l-1.27-10.72c-0.43-3.64-0.82-7.17-1.17-10.5l-0.01-0.09c-0.29-3.35-0.56-6.4-0.78-9.06l-0.58-5.65l6.39-0.67l0.59,0.06
					c0.31,0.03,0.63,0.02,0.97-0.04l0.03-0.01c0.88-0.14,1.73-0.28,2.55-0.42l0.03-0.01c0.82-0.13,1.8-0.29,2.82-0.39
					c0.09-0.02,0.26-0.07,0.39-0.11c0.79-0.24,2.12-0.65,3.68-0.38l1.19,0.21l2.32,2.05l-0.07-0.49l3.87-1.76
					c0.87-0.39,1.85-0.75,3.01-1.08l0.05-0.01c1.09-0.3,2.22-0.55,3.37-0.73c1.17-0.24,2.35-0.4,3.49-0.46
					c1.06-0.11,2.04-0.18,2.91-0.21l5.09-0.19l9.25,64.98l-4.74,1.36c-1.1,0.31-2.3,0.57-3.57,0.77c-1.07,0.17-2.17,0.31-3.27,0.43
					l-2.83,0.29c-0.74,0.08-1.34,0.16-1.81,0.25l-0.24,0.05l-1.47,0.15l-3.68,0.38l-1.07-4.14l-0.08,1.56l-2.17,1.59
					c-1.41,1.03-3.17,1.67-5.22,1.88c-1.23,0.13-2.49,0.2-3.73,0.2c-0.47,0-0.86-0.01-1.15-0.02c-0.48-0.01-0.68-0.02-0.92,0.01
					c-0.09,0.03-0.22,0.07-0.32,0.1l-0.09,0.03c-0.22,0.07-0.62,0.2-1.07,0.3c-0.44,0.09-0.86,0.14-1.28,0.15
					C14.42,216.64,14.38,216.64,14.35,216.64z M17.09,216.07C17.09,216.07,17.09,216.07,17.09,216.07
					C17.09,216.07,17.09,216.07,17.09,216.07z M16.12,204.59c0.14,0.85,0.27,1.73,0.4,2.59c0.01,0.1,0.03,0.19,0.04,0.29
					c0.72-0.06,1.29-0.05,1.82-0.03c0.25,0.01,0.53,0.02,0.86,0.01c0.91,0,1.83-0.05,2.73-0.14c-0.01-0.9-0.06-1.79-0.15-2.67
					l-0.01-0.13c-0.12-1.67-0.3-3.39-0.53-5.1l-0.72-5.46c-0.16-1.52-0.26-3.08-0.31-4.64l-0.11-3.32l3.18-0.95
					c1.33-0.4,2.69-0.67,4.05-0.81c1.33-0.14,2.68-0.19,4.02-0.14l3.38,0.11l0.7,3.31c0.3,1.44,0.56,2.96,0.77,4.52
					c0.24,1.84,0.46,3.72,0.66,5.56c0.24,1.8,0.48,3.64,0.73,5.51c0.13,0.83,0.29,1.65,0.45,2.46l2.62-0.27
					c0.94-0.1,1.89-0.22,2.83-0.37c0.01,0,0.02,0,0.04-0.01l-7.06-49.61l-0.04,0c-0.77,0.04-1.57,0.14-2.38,0.31l-0.21,0.04
					c-0.78,0.12-1.55,0.28-2.28,0.48c0.39,2.9,0.7,5.63,0.91,8.14c0.3,2.88,0.49,6,0.57,9.28l0.09,3.64l-3.58,0.69
					c-0.97,0.19-2.01,0.4-3.1,0.62l-0.15,0.03c-1.4,0.24-2.76,0.32-4.06,0.24l-3.06-0.19l-0.82-2.96c-0.88-3.15-1.49-6.4-1.83-9.66
					c-0.27-2.58-0.69-5.24-1.25-7.93c-0.74,0.08-1.49,0.2-2.13,0.31l-0.03,0.01c-0.82,0.14-1.66,0.28-2.53,0.42
					c0.16,1.89,0.34,3.94,0.53,6.11c0.34,3.28,0.73,6.76,1.15,10.35l1.26,10.7c0.47,3.57,0.93,6.97,1.36,10.12l0,0
					C15.35,199.18,15.76,202.05,16.12,204.59z"/>
			</g>
		</g>
	</g>
	<g>
		<g>
			<path class="st1" d="M122.09,182.96l-0.34-0.44l-0.56-0.07l-0.16-0.02c-0.47-0.06-1.43-0.23-2.93-0.52
				c-1.48-0.35-3.09-0.66-4.83-0.93c-1.75-0.27-3.44-0.46-5.07-0.56c-1.54-0.14-2.93-0.07-3.98,0.38c-0.18,0.04-0.38,0.12-0.57,0.27
				c-0.4,0.31-0.51,0.72-0.54,0.96l-0.01,0.08l-0.01,0.07l0,0.07c-0.01,0.93-0.06,1.67-0.13,2.23c-0.07,0.59-0.17,1.18-0.3,1.77
				l-0.01,0.06l-0.01,0.06l-0.23,1.81l-0.01,0.06l0,0.06c-0.03,0.66-0.04,1.42-0.04,2.29l0,0.8l0.7,0.39
				c0.4,0.22,0.9,0.38,1.41,0.51l0.07,0.02l0.07,0.01l1.65,0.21l0.06,0.01l0.06,0c0.6,0.03,1.15,0.07,1.63,0.13l0.06,0.01l0.06,0
				c0.05,0,0.1,0,0.14,0.01c-0.02,0.2-0.06,0.42-0.12,0.66l-0.02,0.07l-0.01,0.07c-0.05,0.44-0.15,0.87-0.3,1.3l-0.02,0.06
				l-0.01,0.06c-0.1,0.44-0.18,0.69-0.22,0.81c-0.23,0.53-0.5,0.9-0.78,1.16c-0.31,0.24-0.68,0.43-1.11,0.57
				c-0.67,0.14-1.41,0.24-2.23,0.28l-0.01,0l-0.01,0c-0.7,0.04-1.36-0.02-1.96-0.17c-0.55-0.2-0.93-0.41-1.19-0.63
				c-0.63-0.66-1.03-1.51-1.14-2.62c-0.14-1.35-0.19-2.58-0.15-3.67c0.08-1.93,0.23-3.97,0.45-6.1c0.21-2.13,0.5-4.16,0.84-6.11l0,0
				c0.36-2,0.74-3.86,1.17-5.58c0.47-1.7,0.96-3.12,1.45-4.26l0.01-0.02l0.01-0.02c0.13-0.35,0.29-0.69,0.47-1.04
				c0.11-0.19,0.2-0.32,0.26-0.41c0.01-0.02,0.02-0.03,0.03-0.04c0.42-0.31,0.82-0.4,1.25-0.34c0.81,0.1,1.64,0.23,2.5,0.39
				l0.04,0.01l0.04,0c0.45,0.06,0.79,0.24,1.08,0.58l0.02,0.03l0.02,0.03c0.41,0.43,0.75,0.94,1.02,1.55l0.03,0.06l0.03,0.05
				c0.32,0.56,0.55,1.17,0.68,1.86l0.01,0.06l0.02,0.05c0.21,0.75,0.36,1.35,0.44,1.83l0.14,0.86l0.85,0.22
				c0.78,0.21,1.47,0.38,2.07,0.51c0.61,0.13,1.19,0.24,1.76,0.31l1.65,0.21l0.06,0.01l0.06,0c0.53,0.02,1.17,0.07,1.93,0.17
				l0.04,0.01l0.04,0c0.84,0.05,1.41,0.1,1.73,0.14c0.42,0.05,1.32,0.1,1.93-0.61l0.19-0.22l0.08-0.28l0.14-0.46l0.01-0.03
				l0.01-0.03c0.81-3.31,0.89-6.34,0.16-9.05c-0.7-2.7-2-4.99-3.9-6.83c-1.87-1.81-4.18-3.16-6.89-4.07
				c-2.7-0.96-5.59-1.43-8.65-1.43l-0.01,0l-0.01,0c-1.51,0.03-2.99,0.18-4.42,0.45c-1.52,0.28-2.92,0.85-4.22,1.69
				c-1.84,0.97-3.28,2.34-4.29,4.1l-0.01,0.02l-0.01,0.02c-0.88,1.64-1.57,3.35-2.08,5.14c-0.48,1.69-0.89,3.44-1.23,5.25
				c-0.32,1.73-0.62,3.44-0.88,5.13l0,0l0,0.01c-0.3,1.95-0.54,3.69-0.73,5.22l0,0.02l0,0.02c-0.13,1.48-0.26,2.9-0.38,4.28l0,0.03
				l0,0.03c-0.06,1.32-0.12,2.68-0.19,4.05c-0.07,1.39-0.13,2.93-0.18,4.64l0,0v0c-0.03,1.09-0.03,2.17,0,3.27l0,0.04l0,0.04
				c0.09,1.03,0.17,1.88,0.26,2.51l0,0l0,0c0.36,2.46,1.03,4.62,2.03,6.45c1.05,1.92,2.69,3.49,4.84,4.75l0,0l0,0
				c1.3,0.75,2.69,1.3,4.15,1.66l0.01,0c1.49,0.36,3.02,0.55,4.59,0.58c1.53,0.08,3.05,0.05,4.55-0.09c1.48-0.09,2.91-0.23,4.3-0.44
				l0.05-0.01l0.05-0.01c2.27-0.53,4.27-1.48,5.98-2.86c1.84-1.49,3.02-3.73,3.66-6.54c0.9-2.85,1.49-5.87,1.78-9.05
				c0.29-3.2,0.46-6.22,0.49-9.09l0.01-0.47l-0.29-0.37L122.09,182.96z M103.75,166.97C103.75,166.97,103.75,166.97,103.75,166.97
				C103.75,166.97,103.75,166.97,103.75,166.97z"/>
		</g>
		<g>
			<path class="st1" d="M64.16,153.06c-2.4-0.11-4.83,0-7.29,0.33c-2.43,0.32-4.73,0.79-6.91,1.39l-0.35,0.1l-0.25,0.25l-0.08,0.08
				l-0.41,0.41l0.01,0.57c0.16,9.19,0.16,18.31,0,27.34c-0.16,9.02-0.08,18.12,0.24,27.3l0.03,0.88l0.82,0.33
				c0.41,0.17,0.85,0.26,1.3,0.26h0h0h0h0h0h0h0h0h0h0h0h0h0h0h0h0h0h0h0h0h0h0h0h0h0h0h0h0h0h0h0h0h0h0h0h0h0h0h0h0h0h0h0h0h0h0h0
				h0h0h0h0h0h0h0h0h0h0h0h0h0h0h0h0h0h0h0h0h0h0h0h0h0h0h0h0h0h0h0h0h0h0h0h0h0h0h0h0h0h0h0h0h0h0h0h0h0h0h0h0h0h0h0h0h0h0h0h0h0h0
				h0h0h0h0h0h0h0h0h0h0h0h0h0h0h0h0h0h0h0h0h0h0h0h0h0h0h0h0h0h0h0h0h0h0h0h0h0h0h0h0h0h0h0h0h0h0h0h0h0h0h0h0h0h0h0h0h0h0h0h0h0h0
				h0h0h0h0h0h0h0h0h0h0h0h0h0h0h0h0h0h0h0h0h0h0h0h0h0h0h0h0h0h0h0h0h0h0h0h0h0h0h0h0h0h0h0h0h0h0h0h0h0h0h0h0h0h0h0h0h0h0h0h0h0h0
				h0h0h0h0h0h0h0h0h0h0h0h0h0h0h0h0h0h0h0h0h0h0h0h0h0h0h0h0h0h0h0h0h0h0h0h0h0h0h0h0h0h0h0h0h0h0h0h0h0h0h0h0h0h0h0h0h0h0h0h0h0h0
				h0h0h0h0h0h0h0h0h0h0h0h0h0h0h0h0h0h0h0h0h0h0h0h0h0h0h0h0h0h0h0h0h0h0h0h0h0h0h0h0h0h0h0h0h0h0h0h0h0h0h0h0h0h0h0h0h0h0h0h0h0h0
				h0h0h0h0h0h0h0h0h0h0h0h0h0h0h0h0h0h0h0h0h0h0h0h0h0h0h0h0h0h0h0h0h0h0h0h0h0h0h0h0h0h0h0h0h0h0h0h0h0h0h0h0h0h0h0h0h0h0h0h0h0h0
				h0h0h0h0h0h0h0h0h0h0h0h0h0h0h0h0h0h0h0h0h0h0h0h0h0h0h0h0h0h0h0h0h0h0h0h0h0h0h0h0h0h0h0h0h0h0h0h0h0h0h0h0h0h0h0h0h0h0h0h0h0h0
				h0h0h0h0h0h0h0h0h0h0h0h0h0h0h0h0h0h0h0h0h0c1.87,0.05,3.88,0.16,6.01,0.31l0,0c2.25,0.16,4.48,0.22,6.68,0.16
				c2.26,0,4.45-0.14,6.57-0.41l0.02,0l0.02,0c2.18-0.34,4.19-0.96,6.02-1.87c1.88-0.94,3.46-2.27,4.75-3.96
				c1.37-1.8,2.26-4.05,2.71-6.69c0.34-1.81,0.4-3.49,0.16-5.05c-0.23-1.49-0.66-2.87-1.31-4.12c-0.57-1.24-1.27-2.4-2.11-3.47
				c-0.75-1.07-1.55-2.14-2.4-3.21l-0.01-0.01l-0.01-0.01c-0.08-0.09-0.14-0.17-0.19-0.24c1.07-1.84,1.97-3.83,2.72-5.97
				c0.84-2.26,1.27-4.59,1.27-6.97c0-3.1-0.49-5.79-1.55-8.03c-1.03-2.24-2.45-4.08-4.26-5.49c-1.79-1.44-3.86-2.48-6.18-3.1
				C68.89,153.53,66.58,153.17,64.16,153.06 M70.26,195.14v0.03l0,0.03c0.04,0.83-0.15,1.45-0.51,1.96
				c-0.38,0.45-0.83,0.78-1.34,1.01c-0.55,0.21-1.19,0.37-1.91,0.46c-0.73,0.05-1.49,0.07-2.28,0.07c-0.56-0.04-1.11-0.06-1.65-0.07
				c-0.16-0.36-0.29-0.8-0.38-1.33c-0.14-0.87-0.22-1.76-0.22-2.68c0.05-1,0.15-1.97,0.3-2.92c0.08-0.52,0.17-1,0.26-1.45
				c0.65,0.05,1.3,0.1,1.97,0.13l0.03,0h0.03c0.94,0,1.85,0.12,2.74,0.35l0.02,0.01l0.02,0c0.45,0.1,0.92,0.34,1.42,0.75l0.03,0.02
				l0.03,0.02c0.47,0.35,0.79,0.74,1.01,1.15C70.11,193.39,70.26,194.2,70.26,195.14z M69.58,174.69l-0.01,0.02l-0.01,0.02
				c-0.31,0.58-0.71,0.99-1.2,1.28c-0.52,0.28-1.12,0.47-1.8,0.55c-0.76,0.09-1.55,0.12-2.36,0.07c-0.52-0.03-1.02-0.07-1.5-0.12
				c-0.28-1.39-0.35-2.73-0.24-4.02c0.16-1.35,0.24-2.58,0.21-3.68c0.41-0.1,0.89-0.14,1.46-0.11l0.03,0h0.03
				c1.12,0,2.16,0.1,3.1,0.28c0.67,0.17,1.23,0.44,1.7,0.79l0.05,0.04l0.05,0.03c0.44,0.27,0.83,0.7,1.16,1.36
				c0.28,0.56,0.31,1.04,0.16,1.53C70.17,173.51,69.89,174.16,69.58,174.69z"/>
		</g>
		<g>
			<path class="st1" d="M13.67,212.21c0.35,0.21,0.69,0.22,0.84,0.22c0.18,0,0.33-0.03,0.44-0.06c0.22-0.05,0.45-0.12,0.63-0.18
				c0.03-0.01,0.06-0.02,0.09-0.03c0.38-0.13,0.67-0.22,0.91-0.26c0.71-0.11,1.18-0.09,1.81-0.08c0.29,0.01,0.61,0.02,1.01,0.02
				c1.11,0,2.21-0.06,3.3-0.18c1.19-0.12,2.27-0.44,3.12-1.07l0.52-0.38l0.03-0.64c0.09-1.77,0.05-3.54-0.13-5.28
				c-0.13-1.76-0.31-3.55-0.55-5.35l-0.36-2.68l-0.35-2.66c-0.15-1.42-0.24-2.87-0.29-4.34c1.08-0.32,2.17-0.54,3.27-0.65
				c1.14-0.12,2.28-0.16,3.44-0.12c0.28,1.34,0.52,2.74,0.71,4.19c0.24,1.82,0.46,3.65,0.65,5.48l0,0.02l0,0.02
				c0.24,1.84,0.49,3.7,0.74,5.59l0,0.02l0,0.02c0.3,1.87,0.68,3.68,1.13,5.44l0.29,1.13l1.16-0.12l0.08-0.01l0.06-0.01l0.06-0.01
				c0.58-0.11,1.29-0.21,2.16-0.3l2.83-0.29c1.02-0.11,2.04-0.24,3.05-0.4c1.09-0.17,2.11-0.39,3.04-0.65l1.14-0.32l-0.17-1.17
				l-7.84-55.05l-0.17-1.21l-1.22,0.04c-0.82,0.03-1.73,0.1-2.74,0.2c-1,0.05-2.02,0.18-3.05,0.4c-1.03,0.16-2.03,0.38-2.99,0.65
				l-0.01,0l-0.01,0c-0.92,0.26-1.73,0.55-2.41,0.86l-0.93,0.42l0.15,1.01c0.55,3.75,0.95,7.2,1.23,10.33l0,0.01l0,0.01
				c0.29,2.78,0.47,5.77,0.55,8.97c-1,0.19-2.06,0.41-3.17,0.64c-1.08,0.19-2.1,0.25-3.06,0.19c-0.82-2.94-1.38-5.92-1.69-8.95
				c-0.36-3.48-0.97-7.04-1.83-10.68l-0.21-0.87l-0.88-0.16c-0.89-0.16-1.82-0.18-2.77-0.08c-0.87,0.09-1.76,0.21-2.67,0.36l0,0l0,0
				c-0.83,0.14-1.69,0.28-2.58,0.43l0,0l0,0c-0.72,0.12-1.42,0.15-2.1,0.08l-0.13-0.01l-0.13,0.01l-0.24,0.02l-1.35,0.14l0.14,1.35
				l0.01,0.07c0.22,2.69,0.49,5.72,0.78,9.09l0,0.01l0,0.01c0.34,3.32,0.73,6.8,1.16,10.43l0,0l1.27,10.72l0,0.01l0,0.01
				c0.48,3.57,0.93,6.96,1.37,10.16l0,0c0.43,3.15,0.83,6.01,1.21,8.58l0,0.01l0,0.01c0.14,0.81,0.27,1.7,0.39,2.54
				c0.07,0.45,0.13,0.88,0.19,1.29c0.09,0.58,0.17,1.1,0.25,1.5c0.04,0.2,0.08,0.4,0.14,0.57c0.03,0.08,0.06,0.2,0.12,0.32
				c0.03,0.06,0.08,0.15,0.14,0.25C13.31,211.9,13.44,212.08,13.67,212.21"/>
		</g>
	</g>
	<g>
		<path class="st1" d="M99.06,61.59c-2.88,1.61-4.72,4.73-5.13,8.14c-15.61-9.7-31.38-9.78-43.83-7.02
			C40,64.97,32.01,69.1,27.91,71.56c-0.55-1.74-1.53-3.13-2.88-4.16c-2.04-1.54-4.64-2.05-7.13-2.05c-2.57,0-5.15,0.58-7.5,2.18
			c-2.34,1.58-4.31,4.06-5.87,7.56c-1.67,3.75-1.84,9.08-0.35,13.24c0.75,2.11,2,4.1,3.89,5.39c1.18,0.8,2.54,1.28,4.03,1.38
			c-0.04,0.2-0.08,0.41-0.12,0.62c-0.48,2.51-0.94,6.19-0.7,10.52c0.49,8.7,3.85,19.97,15.48,29.35
			c19.71,15.9,38.03,10.6,48.32,7.62c1.93-0.56,3.59-1.04,4.91-1.28c10.35,1.09,17.56,1.37,23.52,0.74
			c6.08-0.64,10.78-2.21,16.14-4.7c6.08-2.82,8.28-8.28,8.4-13.14c0.06-2.42-0.38-4.76-1.14-6.67c-0.49-1.24-1.18-2.46-2.07-3.38
			c3.54-10.67-0.49-18.88-3.84-22.56c0.97-5.13,0.62-15.46-6.81-25.01c-2.53-3.25-5.18-5.28-7.81-6.17
			C103.72,60.12,101.17,60.42,99.06,61.59z"/>
		<path class="st0" d="M56.05,148.52c-9.06,0-19.62-2.54-30.54-11.35c-12.54-10.12-15.74-22.34-16.22-30.8
			c-0.22-3.83,0.1-7.19,0.49-9.64c-1-0.29-1.95-0.74-2.83-1.34C4.9,93.98,3.29,91.77,2.3,89c-1.64-4.58-1.47-10.5,0.41-14.73
			c1.67-3.76,3.88-6.59,6.58-8.41c2.47-1.67,5.38-2.52,8.63-2.52c3.39,0,6.19,0.83,8.34,2.46c1.06,0.8,1.93,1.78,2.59,2.91
			c4.42-2.45,11.77-5.93,20.83-7.95c7.29-1.62,14.49-2.03,21.41-1.2c7.54,0.9,14.77,3.27,21.52,7.05c1-2.92,2.94-5.35,5.48-6.77l0,0
			c2.7-1.51,5.88-1.76,8.97-0.71c3.1,1.06,6.04,3.36,8.75,6.84c8.44,10.84,7.87,21.87,7.35,25.65c1.35,1.66,3.25,4.58,4.32,8.76
			c1.15,4.5,1.03,9.19-0.36,13.95c0.66,0.88,1.22,1.91,1.69,3.09c0.89,2.25,1.35,4.9,1.28,7.46c-0.17,6.74-3.66,12.18-9.57,14.92
			c-6.16,2.85-11.02,4.26-16.78,4.87c-5.86,0.62-12.95,0.41-23.64-0.71c-1.18,0.24-2.7,0.68-4.43,1.18
			C70.82,146.55,64.02,148.52,56.05,148.52z M17.91,67.36c-2.47,0-4.55,0.6-6.38,1.83C9.45,70.6,7.76,72.8,6.38,75.9
			c-1.47,3.3-1.59,8.13-0.29,11.75c0.49,1.37,1.43,3.25,3.13,4.41c0.9,0.61,1.92,0.96,3.04,1.04c0.58,0.04,1.11,0.33,1.47,0.79
			c0.35,0.46,0.48,1.06,0.37,1.62C14.04,95.7,14,95.9,13.96,96.1c-0.43,2.26-0.9,5.83-0.66,10.03c0.27,4.84,1.41,9.44,3.38,13.69
			c2.48,5.36,6.3,10.14,11.36,14.22c8.3,6.7,16.97,10.11,26.5,10.45c8.01,0.28,14.94-1.73,20-3.19c1.98-0.57,3.69-1.07,5.11-1.33
			c0.19-0.03,0.38-0.04,0.57-0.02c10.57,1.11,17.48,1.33,23.1,0.74c5.28-0.56,9.78-1.87,15.51-4.52c6.12-2.84,7.16-8.34,7.24-11.37
			c0.05-2.04-0.31-4.12-1-5.88c-0.45-1.13-1.02-2.07-1.65-2.73c-0.52-0.54-0.69-1.32-0.46-2.03c3.89-11.72-2.16-19.2-3.42-20.58
			c-0.42-0.47-0.6-1.1-0.49-1.72c1.06-5.63,0.02-15.13-6.42-23.41c-2.22-2.86-4.53-4.71-6.88-5.51c-2.02-0.69-4-0.55-5.71,0.41
			l-0.98-1.75l0.98,1.75c-2.23,1.25-3.77,3.72-4.11,6.62c-0.08,0.68-0.5,1.28-1.12,1.57c-0.62,0.3-1.35,0.26-1.93-0.1
			c-6.92-4.3-14.42-6.96-22.28-7.89c-6.46-0.77-13.21-0.39-20.06,1.13c-10.02,2.23-17.83,6.34-21.59,8.6
			c-0.53,0.32-1.17,0.37-1.75,0.15c-0.58-0.22-1.02-0.69-1.2-1.28c-0.41-1.31-1.15-2.38-2.18-3.16
			C22.39,67.91,20.4,67.36,17.91,67.36z"/>
	</g>
	<g>
		<path class="st0" d="M38.16,91.27c-11.65-3.58-8.39-17.64-5.97-22.42c11.44,7.7,20.21,8.09,35.63,25.54
			c-1.58,11.3-9.04,8.5-11.39,5.29C43.41,117.9,37.67,96.74,38.16,91.27z"/>
		<path class="st0" d="M46.94,109.11c-0.85,0-1.69-0.15-2.52-0.46c-3.59-1.33-5.69-5.28-6.81-8.35c-0.91-2.5-1.51-5.3-1.62-7.52
			c-3.28-1.39-5.7-3.75-7.04-6.91c-2.61-6.16-0.65-14.14,1.32-18c0.28-0.55,0.78-0.96,1.38-1.11c0.6-0.16,1.24-0.05,1.75,0.3
			c3.36,2.26,6.45,3.86,9.71,5.54c7.53,3.88,15.32,7.9,26.33,20.36c0.42,0.47,0.61,1.11,0.52,1.73c-0.98,6.98-4.07,9.17-6.5,9.78
			c-2.42,0.61-4.91-0.19-6.78-1.56C53.33,107.04,50.06,109.11,46.94,109.11z M33.2,72.07c-1.17,3.5-1.81,8.48-0.27,12.12
			c1.06,2.49,2.98,4.13,5.87,5.02c0.98,0.3,1.61,1.24,1.52,2.26c-0.28,3.1,1.88,11.75,5.62,13.13c0.31,0.12,0.64,0.17,0.97,0.17
			c2.79,0,6-3.86,7.77-6.35c0.4-0.56,1.05-0.9,1.74-0.9c0,0,0.01,0,0.01,0c0.69,0,1.34,0.33,1.74,0.88c0.88,1.2,2.79,2.24,4.23,1.88
			c1.46-0.37,2.55-2.21,3.12-5.22c-10.1-11.25-17.05-14.83-24.39-18.62C38.58,75.12,35.96,73.77,33.2,72.07z"/>
	</g>
	<g>
		<ellipse class="st0" cx="100.29" cy="125.09" rx="4.39" ry="5.24"/>
	</g>
	<g>
		<path class="st0" d="M115.57,127.48c-0.2,0-0.4-0.03-0.59-0.1l-4.3-1.54c-0.91-0.33-1.39-1.33-1.06-2.25
			c0.33-0.91,1.33-1.39,2.25-1.06l2.81,1.01l0.98-2.02c0.43-0.87,1.48-1.24,2.35-0.81c0.87,0.43,1.24,1.48,0.81,2.35l-1.67,3.44
			C116.85,127.11,116.23,127.48,115.57,127.48z"/>
	</g>
	<g>
		<path class="st1" d="M97.89,3.1c-2.88,1.61-4.72,4.73-5.13,8.14c-15.61-9.7-31.38-9.78-43.83-7.02
			c-10.11,2.25-18.09,6.38-22.19,8.84c-0.55-1.74-1.53-3.13-2.88-4.16c-2.04-1.55-4.64-2.05-7.13-2.05c-2.57,0-5.15,0.58-7.5,2.18
			c-2.34,1.58-4.31,4.06-5.87,7.56c-1.67,3.75-1.84,9.08-0.35,13.24c0.75,2.11,2,4.1,3.89,5.39c1.18,0.8,2.54,1.28,4.03,1.38
			c-0.04,0.2-0.08,0.41-0.12,0.62c-0.48,2.51-0.94,6.19-0.7,10.52c0.49,8.7,3.85,19.97,15.48,29.35
			c19.71,15.9,38.03,10.6,48.32,7.62c1.93-0.56,3.59-1.04,4.91-1.28c10.35,1.09,17.56,1.37,23.52,0.74
			c6.08-0.64,10.78-2.21,16.14-4.7c6.08-2.82,8.28-8.28,8.4-13.14c0.06-2.42-0.38-4.76-1.14-6.67c-0.49-1.24-1.18-2.46-2.07-3.38
			c3.54-10.67-0.49-18.88-3.84-22.56c0.97-5.13,0.62-15.46-6.81-25.01c-2.53-3.25-5.18-5.28-7.81-6.17
			C102.55,1.63,99.99,1.92,97.89,3.1z"/>
		<path class="st0" d="M54.87,90.02c-9.06,0-19.62-2.54-30.54-11.35C11.8,68.55,8.59,56.33,8.11,47.87
			c-0.22-3.83,0.1-7.19,0.49-9.64c-1-0.29-1.95-0.74-2.83-1.34c-2.05-1.4-3.66-3.6-4.65-6.37c-1.64-4.58-1.47-10.5,0.41-14.73
			c1.67-3.76,3.88-6.59,6.58-8.41c2.47-1.67,5.38-2.52,8.63-2.52c3.39,0,6.19,0.83,8.34,2.46c1.06,0.8,1.92,1.78,2.59,2.91
			c4.42-2.45,11.77-5.93,20.83-7.95c7.29-1.62,14.49-2.02,21.41-1.2c7.54,0.9,14.77,3.27,21.52,7.05c1-2.92,2.94-5.35,5.48-6.77l0,0
			c2.7-1.51,5.88-1.76,8.97-0.71c3.1,1.06,6.04,3.36,8.75,6.84c8.44,10.84,7.87,21.87,7.36,25.65c1.35,1.66,3.25,4.58,4.32,8.76
			c1.15,4.5,1.03,9.19-0.36,13.95c0.66,0.88,1.22,1.91,1.69,3.09c0.89,2.25,1.35,4.9,1.28,7.46c-0.17,6.74-3.66,12.18-9.57,14.92
			c-6.16,2.85-11.02,4.26-16.78,4.87c-5.86,0.62-12.95,0.41-23.64-0.71c-1.19,0.24-2.7,0.68-4.44,1.18
			C69.64,88.06,62.84,90.02,54.87,90.02z M16.73,8.87c-2.47,0-4.55,0.6-6.38,1.83c-2.09,1.41-3.77,3.61-5.15,6.71
			c-1.47,3.3-1.59,8.13-0.29,11.75c0.49,1.37,1.43,3.25,3.13,4.41c0.9,0.61,1.92,0.96,3.04,1.04c0.58,0.04,1.11,0.33,1.47,0.79
			c0.35,0.46,0.48,1.06,0.37,1.62c-0.04,0.19-0.08,0.39-0.12,0.59c-0.43,2.26-0.9,5.84-0.66,10.03c0.27,4.84,1.41,9.44,3.38,13.69
			c2.48,5.36,6.3,10.14,11.36,14.22c8.3,6.7,16.97,10.11,26.5,10.45c8.01,0.28,14.94-1.73,20-3.19c1.98-0.57,3.68-1.07,5.11-1.32
			c0.19-0.03,0.38-0.04,0.57-0.02c10.57,1.11,17.48,1.33,23.1,0.74c5.28-0.56,9.78-1.87,15.51-4.52c6.12-2.84,7.16-8.34,7.24-11.37
			c0.05-2.04-0.31-4.12-1-5.88c-0.45-1.13-1.02-2.07-1.65-2.73c-0.52-0.54-0.69-1.32-0.46-2.03c3.89-11.72-2.16-19.2-3.42-20.58
			c-0.42-0.47-0.6-1.1-0.49-1.72c1.06-5.63,0.02-15.13-6.42-23.41c-2.22-2.86-4.53-4.71-6.88-5.51c-2.02-0.69-4-0.55-5.71,0.41l0,0
			c-2.23,1.25-3.77,3.72-4.11,6.62c-0.08,0.68-0.5,1.28-1.12,1.57c-0.62,0.3-1.35,0.26-1.93-0.1c-6.92-4.3-14.42-6.96-22.28-7.89
			c-6.46-0.77-13.21-0.39-20.06,1.13c-10.02,2.23-17.83,6.34-21.59,8.6c-0.53,0.32-1.17,0.37-1.75,0.15
			c-0.58-0.22-1.02-0.69-1.2-1.28c-0.41-1.31-1.15-2.38-2.18-3.16C21.21,9.42,19.22,8.87,16.73,8.87z"/>
	</g>
	<g>
		<path class="st0" d="M81.03,26.8c-1.16,0-2.12-0.92-2.16-2.09c-0.04-1.19,0.9-2.19,2.09-2.23c4.24-0.14,7.28-1.44,8.77-3.75
			c1.36-2.11,1.13-4.58,0.47-6.19c-0.46-1.1,0.07-2.37,1.17-2.82c1.1-0.46,2.37,0.07,2.82,1.17c1.4,3.4,1.09,7.2-0.83,10.18
			c-1.6,2.48-5.03,5.49-12.26,5.73C81.07,26.8,81.05,26.8,81.03,26.8z"/>
	</g>
	<g>
		<g>
			<path class="st0" d="M36.99,32.78c-11.65-3.58-11.31-16.33-8.88-21.11c12.64-6.3,43.03-9.66,64.1,0.18
				c1.09,1.36,3.28,10.26-10.37,13.11c-4.02-2.94-10.85-11.07-18.85-5.79c-6.4,4.23,0.38,13.55,3.66,16.73
				c-1.58,11.3-9.04,8.5-11.39,5.29C42.23,59.4,36.49,38.25,36.99,32.78z"/>
		</g>
		<g>
			<path class="st0" d="M45.77,50.62c-0.85,0-1.69-0.15-2.52-0.46c-3.59-1.33-5.69-5.28-6.81-8.35c-0.91-2.49-1.5-5.29-1.62-7.5
				c-4.08-1.65-7.1-4.57-8.78-8.52c-2.25-5.3-1.63-11.6,0.14-15.09c0.21-0.41,0.55-0.75,0.96-0.96c6.99-3.48,18.12-5.79,29.78-6.19
				c13.6-0.46,26.46,1.79,36.2,6.34c0.3,0.14,0.57,0.35,0.77,0.61c1.03,1.29,1.93,4.62,0.71,8c-1.93,5.36-7.77,7.62-12.33,8.57
				c-0.6,0.12-1.22-0.01-1.71-0.37c-0.72-0.53-1.5-1.18-2.32-1.88c-4.95-4.18-9.12-7.12-14.07-3.85c-1.03,0.68-1.56,1.52-1.66,2.64
				c-0.31,3.34,3.11,8.28,5.64,10.73c0.5,0.48,0.73,1.17,0.64,1.85c-0.98,6.98-4.07,9.17-6.5,9.78c-2.42,0.61-4.91-0.19-6.78-1.56
				C52.15,48.55,48.89,50.62,45.77,50.62z M29.76,13.27c-0.93,2.4-1.4,6.9,0.26,10.82c1.39,3.27,3.94,5.49,7.61,6.62
				c0.98,0.3,1.61,1.24,1.52,2.26c-0.28,3.1,1.88,11.75,5.62,13.13c0.31,0.12,0.64,0.17,0.97,0.17c2.79,0,6-3.86,7.77-6.35
				c0.4-0.56,1.05-0.9,1.74-0.9c0,0,0.01,0,0.01,0c0.69,0,1.34,0.33,1.74,0.88c0.88,1.2,2.79,2.24,4.23,1.88
				c1.45-0.37,2.54-2.19,3.11-5.17c-2.69-2.9-6.59-8.47-6.13-13.41c0.22-2.42,1.46-4.45,3.58-5.85c8.04-5.31,15.05,0.61,19.24,4.16
				c0.46,0.39,0.91,0.77,1.32,1.1c4.25-1.04,7.03-2.86,8.07-5.27c0.68-1.57,0.46-3.11,0.22-3.85C70.98,4.68,42.47,7.35,29.76,13.27z
				 M90.49,13.14L90.49,13.14L90.49,13.14z"/>
		</g>
	</g>
	<g>
		<path class="st0" d="M114.39,68.98c-0.2,0-0.4-0.03-0.59-0.1l-4.3-1.54c-0.91-0.33-1.39-1.33-1.06-2.25
			c0.33-0.91,1.33-1.39,2.25-1.06l2.81,1.01l0.98-2.02c0.42-0.87,1.48-1.24,2.35-0.81c0.87,0.43,1.24,1.48,0.81,2.35l-1.67,3.44
			C115.67,68.61,115.05,68.98,114.39,68.98z"/>
	</g>
	<g>
		<path class="st0" d="M97.3,67.16c-2.35,0-4.5-1.03-5.82-2.09c-0.93-0.75-1.08-2.1-0.34-3.04c0.75-0.93,2.1-1.08,3.04-0.34
			c0.63,0.51,2.1,1.31,3.59,1.11c1.05-0.14,1.95-0.75,2.77-1.87c0.7-0.96,2.05-1.18,3.02-0.47c0.96,0.7,1.17,2.05,0.47,3.02
			c-1.51,2.06-3.47,3.31-5.69,3.61C97.99,67.13,97.64,67.16,97.3,67.16z"/>
	</g>
	<g>
		<path class="st0" d="M77.27,43.24c-0.16,0-0.32-0.03-0.48-0.08c-6.28-2.12-14.17-8.2-15.96-14.31c-0.78-2.64-0.34-5.09,1.25-7.09
			c1.85-2.31,4.39-3.47,7.35-3.35C76.4,18.68,84.51,26,87.79,30.85c0.47,0.69,0.29,1.63-0.4,2.09c-0.69,0.47-1.63,0.29-2.09-0.4
			c-2.98-4.4-10.39-10.9-15.99-11.12c-2.02-0.08-3.61,0.65-4.88,2.22c-0.98,1.23-1.21,2.65-0.71,4.36
			c1.45,4.95,8.56,10.46,14.04,12.31c0.79,0.27,1.21,1.12,0.95,1.91C78.49,42.84,77.9,43.24,77.27,43.24z"/>
	</g>
	<g>
		<path class="st1" d="M65.47,80.6c-5.72,5.32,3.93,16.45,14.29,20.3c11.43,2.39,10.28-5.73,8.27-10.08
			C82.9,85.2,71.19,75.29,65.47,80.6z"/>
	</g>
	<g>
		<path class="st0" d="M78.45,101.73c-0.16,0-0.32-0.03-0.48-0.08C71.69,99.53,63.8,93.46,62,87.34c-0.78-2.64-0.34-5.09,1.25-7.09
			c1.85-2.31,4.39-3.47,7.35-3.35c6.97,0.28,15.08,7.59,18.36,12.45c0.47,0.69,0.29,1.63-0.4,2.09c-0.69,0.47-1.63,0.29-2.09-0.4
			c-2.98-4.4-10.39-10.9-15.98-11.12c-2.02-0.08-3.61,0.65-4.88,2.22c-0.98,1.23-1.21,2.65-0.71,4.36
			c1.45,4.95,8.56,10.46,14.04,12.31c0.79,0.27,1.21,1.12,0.95,1.91C79.67,101.33,79.08,101.73,78.45,101.73z"/>
	</g>
</g>
</svg>
