<svg width="741" height="846" viewBox="0 0 741 846" fill="none" xmlns="http://www.w3.org/2000/svg">
<g clip-path="url(#clip0_13_2)">
<path d="M564.11 350.74C547.7 359.92 537.23 377.66 534.93 397.1C446.05 341.87 356.27 341.39 285.35 357.15C227.79 369.94 182.32 393.48 158.99 407.46C155.87 397.56 150.3 389.63 142.6 383.78C131.01 374.98 116.19 372.12 102.02 372.12C87.85 372.12 72.71 375.45 59.31 384.51C45.97 393.53 34.79 407.6 25.92 427.56C16.42 448.92 15.46 479.25 23.93 502.95C28.22 514.95 35.3 526.3 46.08 533.64C52.81 538.22 60.53 540.94 69.04 541.52C68.8 542.65 68.57 543.83 68.33 545.06C65.58 559.34 62.96 580.33 64.36 604.98C67.17 654.5 86.28 718.67 152.51 772.12C264.71 862.66 369.04 832.47 427.66 815.5C438.68 812.31 448.08 809.59 455.62 808.22C514.57 814.41 555.59 816 589.54 812.43C624.13 808.79 650.92 799.84 681.45 785.7C716.09 769.66 728.61 738.57 729.3 710.87C729.64 697.1 727.12 683.79 722.79 672.87C719.99 665.81 716.09 658.89 711.02 653.63C731.19 592.89 708.21 546.11 689.18 525.15C694.69 495.94 692.71 437.11 650.4 382.73C635.99 364.21 620.92 352.69 605.91 347.57C590.65 342.36 576.11 344.04 564.12 350.74H564.11Z" fill="#EFA332" stroke="white" stroke-width="22.88" stroke-linejoin="round"/>
<path d="M217.35 519.73C151.03 499.35 169.55 419.26 183.37 392.07C248.5 435.91 298.45 438.14 386.24 537.49C377.23 601.84 334.75 585.88 321.36 567.6C247.22 671.33 214.52 550.87 217.35 519.73Z" fill="white" stroke="white" stroke-width="24.6" stroke-linecap="round" stroke-linejoin="round"/>
<path d="M571.08 742.11C584.871 742.11 596.05 728.741 596.05 712.25C596.05 695.759 584.871 682.39 571.08 682.39C557.289 682.39 546.11 695.759 546.11 712.25C546.11 728.741 557.289 742.11 571.08 742.11Z" fill="white"/>
<path d="M633.64 707.1L658.1 715.85L667.63 696.29" stroke="white" stroke-width="20.02" stroke-linecap="round" stroke-linejoin="round"/>
<path d="M557.42 17.68C541.01 26.85 530.54 44.6 528.24 64.04C439.35 8.81001 349.57 8.33001 278.65 24.09C221.09 36.88 175.62 60.42 152.29 74.4C149.17 64.5 143.6 56.57 135.9 50.73C124.31 41.93 109.49 39.07 95.32 39.07C81.15 39.07 66.01 42.4 52.61 51.46C39.27 60.48 28.09 74.56 19.22 94.51C9.72001 115.87 8.76001 146.2 17.23 169.9C21.52 181.9 28.6 193.25 39.38 200.59C46.11 205.17 53.83 207.89 62.34 208.47C62.1 209.6 61.87 210.78 61.63 212.01C58.88 226.29 56.26 247.28 57.66 271.93C60.47 321.45 79.58 385.62 145.81 439.07C258.01 529.62 362.34 499.42 420.96 482.45C431.98 479.26 441.38 476.54 448.92 475.17C507.87 481.36 548.89 482.95 582.84 479.38C617.43 475.74 644.22 466.78 674.75 452.64C709.39 436.6 721.91 405.51 722.6 377.81C722.94 364.04 720.42 350.73 716.09 339.81C713.29 332.75 709.39 325.83 704.32 320.57C724.49 259.83 701.51 213.05 682.48 192.09C687.99 162.88 686 104.05 643.7 49.67C629.29 31.15 614.22 19.63 599.21 14.51C583.95 9.30001 569.41 10.98 557.42 17.69V17.68Z" fill="#EFA332" stroke="white" stroke-width="22.88" stroke-linejoin="round"/>
<path d="M525 66.72C536.58 94.78 524.85 138.27 461.41 140.33" stroke="white" stroke-width="24.6" stroke-linecap="round" stroke-linejoin="round"/>
<path d="M210.66 186.67C144.34 166.29 146.29 93.68 160.1 66.48C232.1 30.62 405.1 11.48 525.1 67.48C531.28 75.2 543.79 125.92 466.04 142.14C443.13 125.41 404.25 79.08 358.68 109.19C322.23 133.28 360.83 186.32 379.53 204.42C370.52 268.77 328.04 252.81 314.65 234.53C240.51 338.26 207.81 217.8 210.64 186.66L210.66 186.67Z" fill="white"/>
<path d="M260.64 288.25C255.8 288.25 251.03 287.38 246.31 285.63C225.86 278.04 213.93 255.57 207.53 238.07C202.34 223.88 198.97 207.94 198.3 195.34C175.04 185.96 157.86 169.35 148.32 146.85C135.52 116.68 139.04 80.79 149.13 60.92C150.33 58.57 152.25 56.66 154.61 55.48C194.41 35.66 257.8 22.49 324.18 20.25C401.63 17.64 474.82 30.46 530.3 56.35C532.01 57.15 533.52 58.33 534.7 59.81C540.56 67.13 545.7 86.11 538.77 105.37C527.79 135.91 494.52 148.77 468.55 154.19C465.15 154.9 461.6 154.13 458.79 152.08C454.68 149.08 450.26 145.34 445.58 141.39C417.42 117.58 393.64 100.85 365.47 119.46C359.59 123.34 356.58 128.12 355.99 134.5C354.23 153.5 373.7 181.67 388.09 195.59C390.91 198.32 392.26 202.24 391.72 206.13C386.16 245.86 368.52 258.35 354.7 261.83C340.94 265.3 326.76 260.74 316.08 252.97C296.98 276.44 278.41 288.24 260.63 288.24L260.64 288.25ZM169.49 75.61C164.17 89.3 161.5 114.92 170.97 137.23C178.86 155.83 193.43 168.5 214.27 174.91C219.83 176.62 223.43 181.99 222.91 187.78C221.31 205.43 233.61 254.66 254.88 262.56C256.67 263.23 258.52 263.53 260.4 263.53C276.26 263.53 294.54 241.54 304.66 227.38C306.95 224.17 310.65 222.26 314.59 222.23C314.61 222.23 314.64 222.23 314.66 222.23C318.58 222.23 322.26 224.1 324.58 227.26C329.59 234.1 340.47 240.03 348.69 237.96C356.95 235.88 363.15 225.51 366.39 208.55C351.08 192.06 328.88 160.32 331.49 132.21C332.77 118.41 339.83 106.9 351.9 98.92C397.68 68.67 437.61 102.42 461.46 122.58C464.09 124.8 466.63 126.95 468.98 128.85C493.18 122.9 509 112.58 514.91 98.83C518.76 89.86 517.55 81.1 516.16 76.9C404.23 26.67 241.88 41.88 169.49 75.59V75.61Z" fill="white"/>
<path d="M626.95 374.04L651.41 382.79L660.93 363.23" stroke="white" stroke-width="20.02" stroke-linecap="round" stroke-linejoin="round"/>
<path d="M528.6 360.92C538.9 369.16 564.07 379.35 582.4 354.23" stroke="white" stroke-width="24.6" stroke-linecap="round" stroke-linejoin="round"/>
<path d="M492.82 180.49C469.14 145.49 396.28 84.23 360.24 129.27C331.35 165.37 393.28 221.84 440.05 237.63" stroke="white" stroke-width="17.16" stroke-linecap="round" stroke-linejoin="round"/>
<path d="M372.85 458.98C340.31 489.25 395.25 552.67 454.2 574.55C519.28 588.14 512.73 541.95 501.31 517.15C472.05 485.15 405.39 428.71 372.85 458.98Z" fill="#EFA332"/>
<path d="M499.51 513.55C475.82 478.55 402.97 417.29 366.93 462.33C338.04 498.43 399.97 554.9 446.74 570.69" stroke="white" stroke-width="17.16" stroke-linecap="round" stroke-linejoin="round"/>
</g>
<defs>
<clipPath id="clip0_13_2">
<rect width="740.77" height="845.72" fill="white"/>
</clipPath>
</defs>
</svg>
