<svg width="273" height="388" viewBox="0 0 273 388" fill="none" xmlns="http://www.w3.org/2000/svg">
<path d="M224.814 315.127L224.296 317.491C225.378 317.728 226.428 317.911 227.443 318.039L228.952 318.228L230.391 318.409L230.5 318.422L230.61 318.426C231.558 318.459 232.704 318.556 234.059 318.726L234.134 318.736L234.21 318.74C235.716 318.834 236.732 318.919 237.306 318.991L237.607 316.589L237.306 318.991C238.054 319.085 239.663 319.172 240.755 317.91L241.095 317.517L241.243 317.019L241.489 316.194L241.507 316.135L241.521 316.075C242.961 310.168 243.112 304.764 241.814 299.945C240.554 295.131 238.238 291.047 234.843 287.767C231.504 284.539 227.377 282.131 222.528 280.509C217.701 278.798 212.54 277.957 207.064 277.966L207.039 277.967L207.014 277.967C204.314 278.027 201.679 278.296 199.111 278.777C196.403 279.283 193.885 280.287 191.574 281.782C188.287 283.512 185.708 285.951 183.905 289.087L183.888 289.116L183.872 289.146C182.302 292.061 181.064 295.119 180.161 298.316C179.296 301.329 178.564 304.45 177.965 307.678C177.386 310.765 176.86 313.812 176.387 316.819H176.387L176.385 316.829C175.855 320.297 175.417 323.402 175.073 326.143L175.068 326.185L175.064 326.228C174.829 328.863 174.605 331.404 174.393 333.852L174.389 333.902L174.387 333.952C174.281 336.312 174.168 338.72 174.051 341.175C173.932 343.648 173.825 346.405 173.729 349.446L173.729 349.454L173.729 349.461C173.68 351.397 173.679 353.338 173.726 355.284L173.728 355.355L173.734 355.426C173.887 357.271 174.043 358.769 174.204 359.902L174.205 359.909L174.206 359.917C174.857 364.299 176.051 368.15 177.844 371.415C179.722 374.837 182.659 377.641 186.503 379.876L186.51 379.88L186.518 379.884C188.844 381.215 191.319 382.201 193.936 382.84L193.946 382.843C196.601 383.48 199.335 383.823 202.145 383.877C204.877 384.021 207.589 383.968 210.279 383.717C212.918 383.562 215.48 383.299 217.964 382.928L218.06 382.914L218.154 382.892C222.202 381.952 225.778 380.258 228.835 377.788C232.119 375.136 234.229 371.142 235.378 366.137C236.987 361.05 238.047 355.668 238.564 349.997C239.086 344.302 239.379 338.902 239.441 333.8L239.451 332.954L238.932 332.286L238.809 332.128L238.194 331.336L237.199 331.212L236.918 331.176C236.083 331.072 234.364 330.769 231.687 330.244C229.045 329.622 226.167 329.069 223.057 328.583C219.924 328.093 216.905 327.762 214 327.591C211.247 327.345 208.768 327.459 206.888 328.27C206.567 328.339 206.213 328.48 205.872 328.745C205.16 329.298 204.96 330.039 204.907 330.456L204.89 330.596L204.873 330.729L204.871 330.863C204.848 332.522 204.768 333.841 204.642 334.843C204.51 335.899 204.333 336.951 204.112 337.997L204.092 338.095L204.079 338.195L203.881 339.774L203.674 341.424L203.662 341.524L203.657 341.625C203.608 342.802 203.584 344.164 203.583 345.708L203.583 347.136L204.832 347.827C205.553 348.226 206.432 348.51 207.352 348.731L207.482 348.762L207.615 348.779L210.563 349.148L210.663 349.161L210.764 349.165C211.845 349.21 212.812 349.288 213.67 349.396L213.779 349.409L213.888 349.413C213.979 349.416 214.066 349.42 214.15 349.424C214.109 349.778 214.042 350.169 213.944 350.598L213.917 350.716L213.902 350.836C213.805 351.61 213.63 352.379 213.374 353.143L213.341 353.243L213.317 353.345C213.13 354.122 212.996 354.577 212.916 354.792C212.508 355.735 212.031 356.395 211.527 356.851C210.964 357.278 210.311 357.619 209.548 357.867C208.357 358.125 207.03 358.294 205.56 358.368L205.547 358.368L205.535 358.369C204.274 358.446 203.106 358.338 202.019 358.062C201.043 357.713 200.36 357.323 199.894 356.939C198.76 355.756 198.063 354.243 197.86 352.268C197.614 349.856 197.528 347.679 197.593 345.729C197.745 342.284 198.012 338.66 198.395 334.856C198.777 331.063 199.28 327.434 199.901 323.966L199.902 323.963C200.537 320.395 201.233 317.077 201.989 314.01C202.833 310.972 203.698 308.451 204.574 306.426L204.593 306.383L204.61 306.339C204.849 305.724 205.127 305.109 205.447 304.495C205.651 304.158 205.808 303.921 205.92 303.764C205.942 303.735 205.959 303.711 205.974 303.692C206.723 303.146 207.435 302.98 208.214 303.077C209.662 303.259 211.154 303.492 212.689 303.777L212.759 303.79L212.83 303.799C213.642 303.901 214.25 304.23 214.767 304.834L214.808 304.882L214.851 304.927C215.576 305.689 216.189 306.601 216.682 307.685L216.728 307.786L216.783 307.883C217.349 308.874 217.758 309.972 218.002 311.194L218.022 311.292L218.049 311.389C218.432 312.718 218.686 313.799 218.829 314.649L219.089 316.191L220.6 316.589C222.002 316.958 223.236 317.259 224.296 317.491L224.814 315.127ZM206.021 303.632C206.026 303.626 206.026 303.627 206.019 303.634C206.02 303.633 206.021 303.633 206.021 303.632Z" fill="#EFA332" stroke="white" stroke-width="4.84066"/>
<path d="M107.97 333.136C107.687 349.215 107.828 365.435 108.396 381.795L108.451 383.373L109.916 383.959C110.651 384.253 111.427 384.415 112.23 384.415H112.233H112.236H112.24H112.243H112.246H112.25H112.253H112.256H112.26H112.263H112.266H112.269H112.273H112.276H112.279H112.283H112.286H112.289H112.293H112.296H112.299H112.303H112.306H112.309H112.313H112.316H112.319H112.323H112.326H112.329H112.332H112.336H112.339H112.342H112.346H112.349H112.352H112.356H112.359H112.362H112.366H112.369H112.372H112.376H112.379H112.382H112.386H112.389H112.392H112.395H112.399H112.402H112.405H112.409H112.412H112.415H112.419H112.422H112.425H112.429H112.432H112.435H112.439H112.442H112.445H112.449H112.452H112.455H112.458H112.462H112.465H112.468H112.472H112.475H112.478H112.482H112.485H112.488H112.492H112.495H112.498H112.502H112.505H112.508H112.512H112.515H112.518H112.522H112.525H112.528H112.531H112.535H112.538H112.541H112.545H112.548H112.551H112.555H112.558H112.561H112.565H112.568H112.571H112.575H112.578H112.581H112.585H112.588H112.591H112.594H112.598H112.601H112.604H112.608H112.611H112.614H112.618H112.621H112.624H112.628H112.631H112.634H112.638H112.641H112.644H112.648H112.651H112.654H112.657H112.661H112.664H112.667H112.671H112.674H112.677H112.681H112.684H112.687H112.691H112.694H112.697H112.701H112.704H112.707H112.711H112.714H112.717H112.72H112.724H112.727H112.73H112.734H112.737H112.74H112.744H112.747H112.75H112.754H112.757H112.76H112.764H112.767H112.77H112.774H112.777H112.78H112.783H112.787H112.79H112.793H112.797H112.8H112.803H112.807H112.81H112.813H112.817H112.82H112.823H112.827H112.83H112.833H112.837H112.84H112.843H112.847H112.85H112.853H112.856H112.86H112.863H112.866H112.87H112.873H112.876H112.88H112.883H112.886H112.89H112.893H112.896H112.9H112.903H112.906H112.91H112.913H112.916H112.919H112.923H112.926H112.929H112.933H112.936H112.939H112.943H112.946H112.949H112.953H112.956H112.959H112.963H112.966H112.969H112.973H112.976H112.979H112.982H112.986H112.989H112.992H112.996H112.999H113.002H113.006H113.009H113.012H113.016H113.019H113.022H113.026H113.029H113.032H113.036H113.039H113.042H113.045H113.049H113.052H113.055H113.059H113.062H113.065H113.069H113.072H113.075H113.079H113.082H113.085H113.089H113.092H113.095H113.099H113.102H113.105H113.108H113.112H113.115H113.118H113.122H113.125H113.128H113.132H113.135H113.138H113.142H113.145H113.148H113.152H113.155H113.158H113.162H113.165H113.168H113.172H113.175H113.178H113.181H113.185H113.188H113.191H113.195H113.198H113.201H113.205H113.208H113.211H113.215H113.218H113.221H113.225H113.228H113.231H113.235H113.238H113.241H113.244H113.248H113.251H113.254H113.258H113.261H113.264H113.268H113.271H113.274H113.278H113.281H113.284H113.288H113.291H113.294H113.298H113.301H113.304H113.307H113.311H113.314H113.317H113.321H113.324H113.327H113.331H113.334H113.337H113.341H113.344H113.347H113.351H113.354H113.357H113.361H113.364H113.367H113.37H113.374H113.377H113.38H113.384H113.387H113.39H113.394H113.397H113.4H113.404H113.407H113.41H113.414H113.417H113.42H113.424H113.427H113.43H113.433H113.437H113.44H113.443H113.447H113.45H113.453H113.457H113.46H113.463H113.467H113.47H113.473H113.477H113.48H113.483H113.487H113.49H113.493H113.497H113.5H113.503H113.506H113.51H113.513H113.516H113.52H113.523H113.526H113.53H113.533H113.536H113.54H113.543H113.546H113.55H113.553H113.556H113.56H113.563H113.566H113.569H113.573H113.576H113.579H113.583H113.586H113.589H113.593H113.596H113.599H113.603H113.606H113.609H113.613H113.616H113.619H113.623H113.626H113.629H113.632H113.636H113.639H113.642H113.646H113.649H113.652H113.656H113.659H113.662H113.666H113.669H113.672H113.676H113.679H113.682H113.686H113.689H113.692H113.695H113.699H113.702H113.705H113.709H113.712H113.715H113.719H113.722H113.725H113.729H113.732H113.735H113.739H113.742H113.745H113.749H113.752H113.755H113.758H113.762H113.765H113.768H113.772H113.775H113.778H113.782H113.785H113.788H113.792H113.795H113.798H113.802H113.805H113.808H113.812H113.815H113.818H113.822H113.825H113.828H113.831H113.835H113.838H113.841H113.845H113.848H113.851H113.855H113.858H113.861H113.865H113.868H113.871H113.875H113.878H113.881H113.885H113.888H113.891H113.894C117.239 384.508 120.823 384.695 124.646 384.974L124.65 384.975C128.677 385.262 132.659 385.359 136.596 385.264C140.644 385.263 144.558 385.021 148.336 384.537L148.366 384.533L148.396 384.528C152.298 383.928 155.892 382.821 159.157 381.188C162.512 379.51 165.345 377.147 167.64 374.123C170.098 370.915 171.68 366.898 172.484 362.187C173.086 358.968 173.204 355.958 172.777 353.186C172.367 350.522 171.595 348.067 170.438 345.841C169.428 343.632 168.171 341.57 166.668 339.658C165.328 337.746 163.895 335.837 162.37 333.93L162.355 333.911L162.339 333.893C162.202 333.728 162.089 333.585 161.997 333.462C163.905 330.182 165.524 326.634 166.859 322.825C168.368 318.792 169.126 314.646 169.126 310.397C169.126 304.875 168.241 300.067 166.351 296.071C164.511 292.087 161.975 288.803 158.726 286.283C155.529 283.709 151.833 281.87 147.672 280.753C143.717 279.666 139.579 279.027 135.262 278.831C130.964 278.636 126.622 278.831 122.239 279.416C117.896 279.995 113.778 280.817 109.89 281.887L109.273 282.056L108.82 282.509L108.679 282.65L107.953 283.377L107.97 284.404C108.253 300.79 108.253 317.033 107.97 333.136ZM107.97 333.136L110.39 333.178L107.97 333.136ZM124.823 382.561C128.785 382.844 132.7 382.938 136.567 382.844C140.529 382.844 144.349 382.608 148.028 382.136L124.823 382.561ZM124.823 382.561C120.955 382.278 117.324 382.089 113.928 381.995L124.823 382.561ZM146.174 353.837V353.894L146.177 353.952C146.247 355.423 145.91 356.54 145.27 357.44C144.586 358.244 143.791 358.834 142.871 359.235C141.881 359.611 140.745 359.891 139.448 360.058C138.136 360.144 136.778 360.188 135.373 360.189C134.367 360.123 133.382 360.08 132.417 360.06C132.129 359.412 131.896 358.628 131.738 357.684C131.481 356.141 131.35 354.549 131.347 352.906C131.438 351.124 131.617 349.39 131.883 347.705C132.028 346.786 132.185 345.926 132.353 345.124C133.511 345.221 134.687 345.299 135.88 345.359L135.941 345.362H136.001C137.684 345.362 139.316 345.572 140.904 345.99L140.939 345.999L140.975 346.007C141.774 346.192 142.617 346.606 143.507 347.348L143.555 347.387L143.605 347.425C144.443 348.053 145.021 348.737 145.4 349.467C145.902 350.72 146.174 352.165 146.174 353.837ZM144.947 317.385L144.924 317.424L144.902 317.465C144.355 318.491 143.641 319.227 142.75 319.742C141.817 320.24 140.749 320.577 139.521 320.73C138.167 320.9 136.759 320.943 135.294 320.857C134.36 320.802 133.463 320.731 132.603 320.644C132.112 318.174 131.976 315.789 132.182 313.481C132.473 311.072 132.606 308.885 132.566 306.934C133.293 306.763 134.157 306.684 135.184 306.731L135.239 306.733H135.294C137.301 306.733 139.149 306.906 140.845 307.241C142.049 307.548 143.051 308.027 143.888 308.655L143.977 308.721L144.071 308.78C144.852 309.26 145.558 310.02 146.147 311.197C146.642 312.187 146.697 313.051 146.426 313.92C145.997 315.29 145.499 316.438 144.947 317.385Z" fill="#EFA332" stroke="white" stroke-width="4.84066"/>
<path d="M99.7896 379.016C101.739 378.715 103.554 378.328 105.23 377.85L107.26 377.27L106.962 375.18L92.9489 277.054L92.641 274.898L90.464 274.978C88.9993 275.032 87.3664 275.152 85.5694 275.338C83.7763 275.427 81.9602 275.666 80.1222 276.051C78.2852 276.342 76.5005 276.725 74.7691 277.201L74.758 277.205L74.7469 277.208C73.105 277.676 71.6597 278.183 70.4336 278.738L68.7735 279.49L69.0367 281.293C70.013 287.982 70.7427 294.117 71.2277 299.702L71.2294 299.722L71.2315 299.742C71.7456 304.702 72.0738 310.029 72.2143 315.725C70.4243 316.069 68.5375 316.449 66.5541 316.864C64.6157 317.198 62.7906 317.307 61.0722 317.202C59.6145 311.969 58.6059 306.653 58.0459 301.251C57.4022 295.041 56.3098 288.695 54.7718 282.213L54.4045 280.666L52.8383 280.389C51.2436 280.107 49.5897 280.063 47.8866 280.239C46.3353 280.4 44.745 280.614 43.1158 280.88L43.1158 280.88L43.107 280.882C41.6186 281.131 40.0831 281.385 38.5005 281.643L38.5005 281.643L38.4917 281.645C37.1973 281.861 35.944 281.908 34.7262 281.793L34.4876 281.771L34.2492 281.795L33.827 281.839L31.4196 282.089L31.6691 284.496L31.6813 284.613C32.0833 289.406 32.5484 294.807 33.0764 300.814L33.078 300.833L33.08 300.851C33.694 306.775 34.3842 312.975 35.1504 319.45L35.1504 319.45L37.4161 338.562L37.4182 338.58L37.4205 338.597C38.2699 344.961 39.0853 350.996 39.8666 356.703L39.8668 356.704C40.6387 362.319 41.3573 367.419 42.0225 372.005L42.0263 372.031L42.0306 372.056C42.2732 373.507 42.505 375.078 42.7264 376.58C42.8439 377.377 42.9586 378.154 43.0704 378.883C43.2276 379.908 43.3812 380.85 43.5261 381.563C43.5969 381.911 43.6779 382.267 43.7712 382.572C43.8161 382.718 43.8853 382.924 43.9871 383.137C44.0383 383.244 44.1216 383.403 44.2458 383.576C44.3548 383.727 44.5953 384.031 45.0037 384.276C45.6267 384.65 46.238 384.667 46.5029 384.662C46.8165 384.657 47.0969 384.606 47.2905 384.564C47.6764 384.481 48.0947 384.345 48.4126 384.241C48.4659 384.223 48.5183 384.206 48.5698 384.189C49.2511 383.965 49.7652 383.796 50.194 383.731C51.4574 383.54 52.3111 383.565 53.4302 383.597C53.9507 383.612 54.5287 383.629 55.232 383.626C57.208 383.619 59.1747 383.514 61.1316 383.311C63.2581 383.091 65.1891 382.52 66.7123 381.406L67.6413 380.726L67.7008 379.577C67.8645 376.415 67.7861 373.275 67.465 370.159C67.2343 367.015 66.9043 363.836 66.4753 360.622L65.2065 351.116C64.9446 348.582 64.7702 346.006 64.6836 343.388C66.6176 342.813 68.5655 342.425 70.5287 342.222C72.5632 342.011 74.6133 341.938 76.68 342.003C77.1837 344.388 77.6082 346.877 77.9524 349.473C78.3836 352.724 78.7682 355.98 79.1063 359.242L79.1099 359.276L79.1144 359.31C79.5486 362.584 79.9876 365.904 80.4315 369.272L80.4361 369.307L80.4418 369.342C80.9813 372.677 81.6555 375.907 82.4654 379.031L82.9877 381.046L85.0577 380.831L85.1985 380.817L85.2987 380.806L85.3977 380.788C86.4274 380.593 87.7125 380.414 89.2656 380.253L94.3323 379.728C96.1565 379.539 97.9756 379.302 99.7896 379.016ZM99.7896 379.016C99.7905 379.016 99.7913 379.016 99.7921 379.016L99.4164 376.625L99.7858 379.017C99.7871 379.017 99.7884 379.017 99.7896 379.016ZM42.2646 356.375L42.2645 356.375L42.2646 356.375Z" fill="#EFA332" stroke="white" stroke-width="4.84066"/>
<path d="M196.892 120.183C191.705 123.084 188.436 128.799 187.868 135.01C159.954 117.459 131.723 117.274 109.435 122.229C91.1106 126.303 76.7076 133.863 69.5492 138.194C68.6227 134.948 66.8657 132.381 64.4062 130.514C60.8606 127.822 56.3047 126.933 51.9063 126.933C47.3683 126.933 42.8514 127.962 38.7229 130.754C34.6129 133.534 31.145 137.886 28.3846 144.097C25.4484 150.704 25.1465 160.116 27.7701 167.46C29.0978 171.176 31.2805 174.658 34.5766 176.903C36.7361 178.375 39.2342 179.219 42.0089 179.333C41.9069 179.807 41.8033 180.313 41.7004 180.848C40.8441 185.302 40.0251 191.851 40.4614 199.541C41.3375 214.984 47.2904 234.994 67.9513 251.671C102.948 279.919 135.42 270.529 153.813 265.21C157.311 264.198 160.3 263.334 162.701 262.903C181.195 264.847 194.035 265.345 204.644 264.228C215.436 263.092 223.792 260.3 233.335 255.879C244.038 250.922 247.91 241.324 248.124 232.741C248.23 228.474 247.448 224.35 246.109 220.971C245.212 218.707 243.958 216.519 242.343 214.901C248.784 195.77 241.453 181.086 235.522 174.645C237.273 165.642 236.745 147.179 223.473 130.115C218.986 124.346 214.316 120.789 209.699 119.214C205.009 117.615 200.559 118.132 196.892 120.183Z" fill="#EFA332" stroke="white" stroke-width="6.45422" stroke-linejoin="round"/>
<mask id="mask0_3_135" style="mask-type:alpha" maskUnits="userSpaceOnUse" x="29" y="121" width="216" height="147">
<path d="M31.3335 145.408C26.1702 157.025 30.1234 179.615 46.2589 175.662C47.3884 172.838 30.3547 217.177 69.9781 249.159C110.559 281.915 146.703 262.229 162.596 259.647C199.95 263.601 213.342 261.584 231.979 252.951C250.616 244.319 245.613 219.793 238.514 216.001C246.388 195.67 237.438 180.637 231.979 175.662C233.942 168.401 234.48 149.522 220.926 132.096C203.984 110.313 187.768 126.529 191.559 141.374C134.036 100.228 73.4473 139.115 67.0737 143.633C66.9124 133.468 59.9741 130.16 51.9063 130.16C43.8386 130.16 36.4969 133.79 31.3335 145.408Z" fill="#EFAF32"/>
</mask>
<g mask="url(#mask0_3_135)">
<path d="M88.05 172.839C67.2674 166.449 73.0708 141.348 77.4005 132.823C97.812 146.565 113.463 147.264 140.975 178.406C138.151 198.575 124.839 193.573 120.644 187.845C97.4086 220.358 87.1625 182.601 88.05 172.839Z" fill="white" stroke="white" stroke-width="6.93828" stroke-linecap="round" stroke-linejoin="round"/>
</g>
<ellipse cx="198.901" cy="233.185" rx="7.82574" ry="9.35861" fill="white"/>
<path d="M218.506 231.572L226.17 234.315L229.155 228.184" stroke="white" stroke-width="5.64744" stroke-linecap="round" stroke-linejoin="round"/>
<path d="M194.795 15.7861C189.607 18.6872 186.338 24.4023 185.77 30.6126C157.856 13.0623 129.625 12.8775 107.337 17.8325C89.013 21.9064 74.6099 29.4661 67.4516 33.7973C66.525 30.5514 64.768 27.9841 62.3085 26.117C58.7629 23.4254 54.2071 22.5357 49.8087 22.5357C45.2706 22.5357 40.7538 23.565 36.6253 26.3571C32.5152 29.1367 29.0473 33.4893 26.2869 39.7002C23.3508 46.3065 23.0488 55.7187 25.6725 63.0627C27.0001 66.779 29.1828 70.2607 32.4789 72.5063C34.6384 73.9775 37.1365 74.8217 39.9113 74.9365C39.8092 75.4104 39.7057 75.9157 39.6028 76.4509C38.7464 80.9048 37.9274 87.4544 38.3637 95.1442C39.2399 110.588 45.1928 130.597 65.8536 147.274C100.851 175.522 133.322 166.132 151.716 160.813C155.214 159.801 158.203 158.937 160.603 158.507C179.097 160.45 191.937 160.948 202.547 159.831C213.338 158.695 221.694 155.903 231.238 151.482C241.941 146.525 245.812 136.927 246.026 128.344C246.132 124.077 245.35 119.953 244.011 116.574C243.114 114.31 241.861 112.122 240.246 110.504C246.686 91.3734 239.356 76.6893 233.424 70.2477C235.176 61.2452 234.648 42.7819 221.376 25.7178C216.889 19.9485 212.219 16.3923 207.601 14.8172C202.912 13.2177 198.461 13.7353 194.795 15.7861Z" fill="#EFA332" stroke="white" stroke-width="6.45422" stroke-linejoin="round"/>
<mask id="mask1_3_135" style="mask-type:alpha" maskUnits="userSpaceOnUse" x="27" y="17" width="216" height="147">
<path d="M29.2359 41.0109C24.0725 52.6285 28.0257 75.2182 44.1613 71.265C45.2907 68.4413 28.257 112.78 67.8805 144.762C108.461 177.518 144.605 157.832 160.498 155.251C197.852 159.204 211.245 157.187 229.881 148.554C248.518 139.922 243.516 115.396 236.416 111.604C244.29 91.2731 235.34 76.2402 229.881 71.265C231.844 64.004 232.382 45.1255 218.828 27.6991C201.886 5.9161 185.67 22.1323 189.462 36.977C131.939 -4.16861 71.3496 34.718 64.9761 39.236C64.8147 29.0706 57.8765 25.7628 49.8087 25.7628C41.7409 25.7628 34.3993 29.3933 29.2359 41.0109Z" fill="#EFAF32"/>
</mask>
<g mask="url(#mask1_3_135)">
<path d="M85.9523 68.4412C65.1697 62.0516 66.5359 38.8863 70.8656 30.3614C93.4284 19.1203 147.429 3.38276 182.927 30.3614C184.863 32.7817 190.349 49.4013 165.985 54.484C158.804 49.24 146.622 34.718 132.342 44.1573C120.918 51.7087 133.014 68.3337 138.877 74.008C136.053 94.1774 122.741 89.1754 118.546 83.4473C95.3109 115.96 85.0648 78.2033 85.9523 68.4412Z" fill="white" stroke="white" stroke-width="6.93828" stroke-linecap="round" stroke-linejoin="round"/>
<path d="M184.46 30.8455C188.09 39.6393 184.411 53.2739 164.532 53.9193" stroke="white" stroke-width="6.93828" stroke-linecap="round" stroke-linejoin="round"/>
</g>
<path d="M216.408 127.175L224.073 129.918L227.058 123.786" stroke="white" stroke-width="5.64744" stroke-linecap="round" stroke-linejoin="round"/>
<path d="M185.589 123.06C188.816 125.642 196.707 128.837 202.451 120.963" stroke="white" stroke-width="6.93828" stroke-linecap="round" stroke-linejoin="round"/>
<path d="M174.375 66.5051C166.953 55.533 144.121 36.3316 132.826 50.4502C123.774 61.7657 143.18 79.4673 157.836 84.4156" stroke="white" stroke-width="4.84066" stroke-linecap="round" stroke-linejoin="round"/>
<path d="M136.779 153.798C126.582 163.286 143.798 183.165 162.273 190.023C182.669 194.282 180.614 179.803 177.037 172.032C167.867 162.001 146.977 144.311 136.779 153.798Z" fill="#EFA332"/>
<path d="M176.473 170.902C169.05 159.93 146.219 140.728 134.924 154.847C125.871 166.163 145.277 183.864 159.934 188.812" stroke="white" stroke-width="4.84066" stroke-linecap="round" stroke-linejoin="round"/>
</svg>
