<svg width="741" height="847" viewBox="0 0 741 847" fill="none" xmlns="http://www.w3.org/2000/svg">
<path d="M564.229 351.495C547.821 360.67 537.348 378.418 535.045 397.856C446.161 342.63 356.381 342.142 285.461 357.906C227.899 370.7 182.433 394.24 159.104 408.216C155.989 398.315 150.414 390.388 142.711 384.541C131.12 375.744 116.297 372.883 102.133 372.883C87.4738 372.883 72.8253 376.21 59.4246 385.271C46.0892 394.287 34.9018 408.365 26.0296 428.323C16.5342 449.683 15.5708 480.017 24.0369 503.71C28.3262 515.713 35.411 527.057 46.1903 534.399C52.9173 538.981 60.6357 541.695 69.1534 542.275C68.917 543.406 68.6793 544.588 68.4425 545.819C65.6966 560.097 63.071 581.089 64.4698 605.738C67.2801 655.261 86.3848 719.428 152.615 772.875C264.818 863.42 369.141 833.222 427.767 816.252C438.782 813.063 448.185 810.341 455.723 808.976C514.673 815.165 555.697 816.758 589.643 813.185C624.237 809.545 651.024 800.59 681.557 786.45C716.201 770.407 728.72 739.324 729.411 711.62C729.754 697.855 727.233 684.545 722.901 673.618C720.103 666.56 716.197 659.636 711.13 654.373C731.302 593.636 708.317 546.855 689.286 525.896C694.797 496.684 692.812 437.853 650.51 383.477C636.102 364.956 621.03 353.438 606.021 348.32C590.757 343.115 576.22 344.79 564.229 351.495Z" fill="#EFA332" stroke="white" stroke-width="22.8833" stroke-linejoin="round"/>
<mask id="mask0_3_160" style="mask-type:alpha" maskUnits="userSpaceOnUse" x="29" y="356" width="689" height="468">
<path d="M36.4847 432.971C20.0083 470.035 32.6231 542.103 84.112 529.491C87.7162 520.483 33.3611 661.937 159.801 763.971C289.295 868.47 404.63 805.667 455.347 797.431C574.544 810.043 617.279 803.608 676.749 776.068C736.219 748.527 720.257 670.282 697.602 658.185C722.729 593.323 694.17 545.363 676.749 529.491C683.014 506.326 684.73 446.098 641.479 390.502C587.416 321.008 535.67 372.743 547.769 420.102C364.212 288.834 170.871 412.895 150.533 427.309C150.018 394.878 127.878 384.325 102.133 384.325C76.3886 384.325 52.9612 395.907 36.4847 432.971Z" fill="#EFAF32"/>
</mask>
<g mask="url(#mask0_3_160)">
<path d="M217.468 520.483C151.151 500.098 169.669 420.016 183.486 392.819C248.619 436.66 298.563 438.891 386.352 538.242C377.341 602.589 334.863 586.631 321.476 568.357C247.332 672.084 214.636 551.627 217.468 520.483Z" fill="white" stroke="white" stroke-width="24.5995" stroke-linecap="round" stroke-linejoin="round"/>
</g>
<ellipse cx="571.197" cy="713.008" rx="24.9721" ry="29.8569" fill="white"/>
<path d="M633.756 707.86L658.213 716.611L667.739 697.05" stroke="white" stroke-width="20.0229" stroke-linecap="round" stroke-linejoin="round"/>
<path d="M557.536 18.4367C541.127 27.6116 530.654 45.3588 528.351 64.7971C439.468 9.57161 349.688 9.08355 278.768 24.847C221.205 37.6413 175.739 61.1808 152.41 75.1572C149.295 65.2563 143.721 57.3288 136.018 51.4825C124.426 42.6851 109.604 39.8245 95.4395 39.8245C80.7802 39.8245 66.1317 43.1511 52.7311 52.212C39.3956 61.2288 28.2083 75.3065 19.3361 95.2646C9.84067 116.624 8.87726 146.958 17.3434 170.651C21.6326 182.654 28.7175 193.998 39.4967 201.34C46.2238 205.922 53.9422 208.636 62.4598 209.217C62.2235 210.347 61.9857 211.529 61.749 212.76C59.003 227.039 56.3775 248.031 57.7762 272.68C60.5866 322.203 79.6912 386.369 145.922 439.816C258.125 530.361 362.448 500.163 421.073 483.193C432.089 480.004 441.491 477.283 449.029 475.917C507.979 482.106 549.003 483.699 582.95 480.127C617.543 476.486 644.33 467.532 674.864 453.391C709.508 437.348 722.026 406.265 722.717 378.562C723.06 364.796 720.539 351.487 716.207 340.559C713.409 333.501 709.503 326.577 704.436 321.314C724.608 260.577 701.623 213.797 682.593 192.837C688.104 163.625 686.118 104.794 643.816 50.418C629.408 31.8972 614.336 20.3798 599.327 15.2613C584.064 10.0562 569.526 11.7318 557.536 18.4367Z" fill="#EFA332" stroke="white" stroke-width="22.8833" stroke-linejoin="round"/>
<mask id="mask1_3_160" style="mask-type:alpha" maskUnits="userSpaceOnUse" x="23" y="23" width="689" height="468">
<path d="M29.7912 99.9123C13.3147 136.976 25.9295 209.044 77.4184 196.432C81.0227 187.424 26.6675 328.878 153.107 430.912C282.602 535.411 397.937 472.609 448.653 464.372C567.85 476.984 610.586 470.549 670.056 443.009C729.525 415.469 713.564 337.223 690.909 325.126C716.035 260.264 687.476 212.305 670.056 196.432C676.32 173.268 678.036 113.039 634.786 57.4435C580.722 -12.051 528.976 39.6838 541.076 87.043C357.518 -44.2243 164.177 79.8362 143.839 94.2498C143.324 61.8191 121.184 51.2661 95.4395 51.2661C69.6951 51.2661 46.2676 62.8486 29.7912 99.9123Z" fill="#EFAF32"/>
</mask>
<g mask="url(#mask1_3_160)">
<path d="M210.775 187.424C144.457 167.039 148.816 93.1345 162.632 65.9372C234.631 30.0747 406.947 -20.1329 520.223 65.9372C526.402 73.6588 543.908 126.681 466.16 142.896C443.247 126.166 404.373 79.8361 358.805 109.95C322.351 134.042 360.951 187.081 379.658 205.184C370.648 269.53 328.169 253.572 314.782 235.298C240.638 339.025 207.943 218.568 210.775 187.424Z" fill="white" stroke="white" stroke-width="24.5995" stroke-linecap="round" stroke-linejoin="round"/>
<path d="M525.114 67.4817C536.699 95.5369 524.96 139.035 461.526 141.094" stroke="white" stroke-width="24.5995" stroke-linecap="round" stroke-linejoin="round"/>
</g>
<path d="M627.062 374.802L651.52 383.553L661.045 363.991" stroke="white" stroke-width="20.0229" stroke-linecap="round" stroke-linejoin="round"/>
<path d="M528.719 361.675C539.016 369.911 564.194 380.104 582.524 354.983" stroke="white" stroke-width="24.5995" stroke-linecap="round" stroke-linejoin="round"/>
<path d="M492.934 181.247C469.249 146.242 396.392 84.9839 360.35 130.027C331.464 166.126 393.389 222.6 440.158 238.387" stroke="white" stroke-width="17.1625" stroke-linecap="round" stroke-linejoin="round"/>
<path d="M372.965 459.739C340.424 490.008 395.362 553.428 454.317 575.306C519.399 588.896 512.843 542.704 501.429 517.909C472.167 485.907 405.506 429.471 372.965 459.739Z" fill="#EFA332"/>
<path d="M499.627 514.305C475.942 479.301 403.086 418.043 367.043 463.085C338.157 499.185 400.082 555.659 446.851 571.445" stroke="white" stroke-width="17.1625" stroke-linecap="round" stroke-linejoin="round"/>
</svg>
