<svg width="965" height="1000" viewBox="0 0 965 1000" fill="none" xmlns="http://www.w3.org/2000/svg">
<path d="M698.077 426.107C679.687 436.393 668.096 456.655 666.082 478.674C567.113 416.45 467.021 415.794 388 433.362C323.031 447.806 271.965 474.609 246.585 489.965C243.3 478.457 237.071 469.354 228.351 462.735C215.78 453.192 199.627 450.037 184.033 450.037C167.943 450.037 151.929 453.687 137.291 463.586C122.719 473.441 110.424 488.873 100.637 510.894C90.227 534.316 89.1563 567.687 98.4585 593.725C103.166 606.901 110.904 619.246 122.591 627.207C130.247 632.423 139.104 635.416 148.942 635.823C148.58 637.503 148.213 639.295 147.848 641.193C144.812 656.984 141.908 680.205 143.455 707.469C146.561 762.223 167.667 833.167 240.92 892.293C365.002 992.447 480.128 959.154 545.342 940.295C557.744 936.709 568.341 933.645 576.851 932.119C642.423 939.011 687.946 940.776 725.562 936.817C763.824 932.789 793.449 922.889 827.286 907.216C865.233 889.638 878.958 855.611 879.717 825.18C880.095 810.05 877.323 795.43 872.574 783.448C869.393 775.423 864.949 767.665 859.224 761.926C882.059 694.1 856.068 642.038 835.038 619.199C841.248 587.281 839.376 521.82 792.321 461.32C776.411 440.865 759.854 428.256 743.482 422.672C726.856 417 711.078 418.836 698.077 426.107Z" fill="#EFA332" stroke="white" stroke-width="22.8833" stroke-linejoin="round"/>
<mask id="mask0_3_159" style="mask-type:alpha" maskUnits="userSpaceOnUse" x="103" y="430" width="766" height="520">
<path d="M111.092 515.541C92.7858 556.731 106.802 636.822 164.01 622.806C168.015 612.795 107.622 769.997 248.106 883.39C391.985 999.522 520.131 929.728 576.481 920.575C708.919 934.591 756.401 927.44 822.477 896.834C888.552 866.227 870.818 779.271 845.646 765.827C873.564 693.744 841.832 640.445 822.477 622.806C829.437 597.063 831.344 530.129 783.289 468.344C723.221 391.113 665.726 448.607 679.17 501.239C475.223 355.358 260.406 493.23 237.809 509.248C237.237 473.207 212.637 461.479 184.033 461.479C155.429 461.479 129.399 474.351 111.092 515.541Z" fill="#EFAF32"/>
</mask>
<g mask="url(#mask0_3_159)">
<path d="M312.179 612.795C238.495 590.14 259.071 501.143 274.422 470.918C346.79 519.641 402.282 522.12 499.822 632.532C489.811 704.042 442.614 686.307 427.74 665.999C345.36 781.273 309.033 647.406 312.179 612.795Z" fill="white" stroke="white" stroke-width="24.5995" stroke-linecap="round" stroke-linejoin="round"/>
</g>
<ellipse cx="705.2" cy="826.754" rx="27.746" ry="33.1808" fill="white"/>
<path d="M774.708 821.033L801.882 830.758L812.465 809.019" stroke="white" stroke-width="20.0229" stroke-linecap="round" stroke-linejoin="round"/>
<path d="M690.64 55.9696C672.25 66.2554 660.658 86.5178 658.645 108.537C559.676 46.3122 459.584 45.657 380.563 63.2248C315.594 77.6687 264.528 104.472 239.148 119.828C235.863 108.319 229.634 99.2171 220.914 92.5974C208.343 83.0544 192.19 79.9 176.596 79.9C160.506 79.9 144.492 83.5492 129.854 93.4487C115.282 103.304 102.987 118.736 93.1999 140.757C82.7899 164.179 81.7193 197.55 91.0214 223.588C95.7287 236.764 103.467 249.108 115.154 257.07C122.81 262.286 131.667 265.279 141.505 265.686C141.143 267.366 140.776 269.158 140.411 271.055C137.375 286.846 134.471 310.068 136.018 337.332C139.124 392.086 160.23 463.029 233.483 522.156C357.565 622.309 472.691 589.017 537.905 570.158C550.307 566.572 560.904 563.507 569.414 561.982C634.986 568.874 680.509 570.639 718.125 566.679C756.387 562.652 786.012 552.752 819.849 537.078C857.796 519.501 871.521 485.474 872.28 455.042C872.657 439.912 869.885 425.293 865.137 413.311C861.956 405.285 857.512 397.527 851.786 391.789C874.622 323.963 848.631 271.9 827.601 249.062C833.811 217.144 831.939 151.682 784.884 91.1822C768.974 70.7273 752.417 58.1187 736.045 52.5343C719.419 46.8631 703.641 48.6982 690.64 55.9696Z" fill="#EFA332" stroke="white" stroke-width="22.8833" stroke-linejoin="round"/>
<mask id="mask1_3_159" style="mask-type:alpha" maskUnits="userSpaceOnUse" x="96" y="60" width="765" height="520">
<path d="M103.655 145.403C85.3488 186.593 99.3648 266.685 156.573 252.669C160.578 242.657 100.185 399.86 240.669 513.252C384.548 629.385 512.694 559.591 569.044 550.438C701.481 564.454 748.964 557.303 815.04 526.696C881.115 496.09 863.381 409.133 838.209 395.69C866.127 323.607 834.395 270.308 815.04 252.669C822 226.925 823.907 159.992 775.852 98.2067C715.784 20.9756 658.289 78.4698 671.733 131.101C467.786 -14.7796 252.969 123.092 230.372 139.111C229.8 103.069 205.2 91.3416 176.596 91.3416C147.992 91.3416 121.962 104.214 103.655 145.403Z" fill="#EFAF32"/>
</mask>
<g mask="url(#mask1_3_159)">
<path d="M304.742 242.657C231.058 220.003 235.902 137.871 251.253 107.646C331.249 67.791 522.706 11.9939 648.564 107.646C655.429 116.227 674.88 175.152 588.495 193.172C563.038 174.58 519.845 123.092 469.216 156.559C428.713 183.333 471.6 242.276 492.385 262.394C482.374 333.905 435.177 316.17 420.303 295.861C337.923 411.136 301.596 277.268 304.742 242.657Z" fill="white" stroke="white" stroke-width="24.5995" stroke-linecap="round" stroke-linejoin="round"/>
<path d="M653.999 109.362C666.87 140.541 653.827 188.882 583.346 191.17" stroke="white" stroke-width="24.5995" stroke-linecap="round" stroke-linejoin="round"/>
</g>
<path d="M767.271 450.896L794.445 460.621L805.028 438.882" stroke="white" stroke-width="20.0229" stroke-linecap="round" stroke-linejoin="round"/>
<path d="M658.003 436.307C669.445 445.461 697.42 456.788 717.786 428.87" stroke="white" stroke-width="24.5995" stroke-linecap="round" stroke-linejoin="round"/>
<path d="M618.243 235.793C591.928 196.891 510.978 128.813 470.932 178.87C438.837 218.989 507.641 281.75 559.605 299.294" stroke="white" stroke-width="17.1625" stroke-linecap="round" stroke-linejoin="round"/>
<path d="M484.948 545.289C448.793 578.928 509.834 649.408 575.337 673.722C647.648 688.825 640.364 637.49 627.683 609.934C595.169 574.37 521.104 511.651 484.948 545.289Z" fill="#EFA332"/>
<path d="M625.681 605.93C599.365 567.028 518.415 498.95 478.369 549.008C446.275 589.126 515.078 651.887 567.042 669.431" stroke="white" stroke-width="17.1625" stroke-linecap="round" stroke-linejoin="round"/>
</svg>
