<svg width="304" height="200" viewBox="0 0 304 200" fill="none" xmlns="http://www.w3.org/2000/svg">
<path d="M249.747 83.2136L249.169 85.8538C250.377 86.1182 251.549 86.3228 252.683 86.4651L255.975 86.8781L256.097 86.8933L256.219 86.8975C257.277 86.9337 258.558 87.0428 260.071 87.2327L260.155 87.2432L260.239 87.2484C261.921 87.3535 263.056 87.4479 263.696 87.5282C264.531 87.633 266.329 87.7308 267.548 86.3207L267.927 85.8818L268.093 85.3259L268.368 84.4049L268.387 84.339L268.403 84.2722C270.011 77.6757 270.18 71.6417 268.73 66.2602C267.323 60.8843 264.737 56.3236 260.946 52.661C257.217 49.0569 252.609 46.3684 247.194 44.557C241.804 42.6456 236.041 41.7066 229.926 41.7176L229.898 41.7176L229.87 41.7182C226.855 41.7854 223.913 42.0859 221.045 42.6222C218.021 43.1878 215.21 44.3088 212.629 45.9778C208.958 47.9105 206.079 50.6339 204.065 54.1354L204.046 54.1679L204.029 54.201C202.275 57.4563 200.893 60.8711 199.885 64.4416C198.918 67.8056 198.101 71.2906 197.432 74.896C196.785 78.3431 196.198 81.7454 195.67 85.103L195.67 85.103L195.668 85.1143C195.076 88.9862 194.587 92.4535 194.203 95.5141L194.197 95.562L194.193 95.6101C193.93 98.5519 193.681 101.389 193.444 104.123L193.439 104.178L193.437 104.234C193.318 106.871 193.193 109.559 193.061 112.3C192.928 115.062 192.809 118.141 192.702 121.537L192.702 121.545L192.702 121.553C192.648 123.715 192.647 125.882 192.699 128.056L192.701 128.135L192.707 128.214C192.878 130.274 193.052 131.948 193.233 133.213L193.234 133.221L193.235 133.228C193.961 138.122 195.295 142.422 197.297 146.069C199.394 149.89 202.674 153.021 206.966 155.516L206.974 155.521L206.983 155.526C209.581 157.012 212.344 158.113 215.266 158.827L215.277 158.83C218.242 159.541 221.296 159.924 224.433 159.984C227.484 160.146 230.512 160.086 233.515 159.806C236.462 159.633 239.323 159.339 242.098 158.925L242.205 158.909L242.31 158.885C246.83 157.835 250.823 155.943 254.237 153.185C257.904 150.223 260.26 145.763 261.543 140.174C263.34 134.494 264.523 128.485 265.101 122.153C265.101 122.152 265.101 122.152 265.101 122.151L249.747 83.2136ZM249.747 83.2136L249.169 85.8538C247.985 85.5947 246.607 85.2577 245.042 84.8456L243.354 84.4014L243.064 82.6803C242.904 81.7307 242.62 80.5233 242.193 79.0394L242.162 78.9314L242.14 78.8212C241.868 77.4572 241.411 76.2304 240.779 75.1239L240.718 75.016L240.666 74.9029C240.116 73.6931 239.431 72.6748 238.622 71.8237L238.574 71.7727L238.528 71.7192C237.951 71.0456 237.272 70.6776 236.365 70.5638L236.286 70.5539L236.208 70.5394C234.493 70.2211 232.827 69.9608 231.211 69.758C230.341 69.6489 229.545 69.8346 228.709 70.4439C228.693 70.4653 228.673 70.4922 228.649 70.5252C228.523 70.6996 228.349 70.9652 228.12 71.3409C227.763 72.0266 227.452 72.7131 227.186 73.4003L227.167 73.4492L227.146 73.4974C226.167 75.7585 225.202 78.5735 224.258 81.966C223.414 85.3916 222.637 89.0958 221.928 93.0805L221.928 93.0841C221.234 96.9562 220.673 101.009 220.246 105.244C219.818 109.492 219.52 113.539 219.351 117.385C219.277 119.563 219.373 121.995 219.649 124.687C219.875 126.893 220.653 128.582 221.919 129.904C222.439 130.333 223.203 130.768 224.292 131.158C225.507 131.466 226.811 131.586 228.218 131.501L228.233 131.5L228.247 131.499C229.888 131.417 231.37 131.228 232.699 130.94C233.552 130.663 234.282 130.282 234.91 129.805C235.472 129.296 236.005 128.56 236.461 127.506C236.55 127.266 236.7 126.758 236.908 125.89L236.936 125.776L236.973 125.665C237.258 124.812 237.453 123.953 237.562 123.088L237.578 122.954L237.608 122.823C237.718 122.344 237.793 121.907 237.839 121.511C237.745 121.507 237.648 121.503 237.547 121.499L237.424 121.495L237.302 121.48C236.345 121.36 235.265 121.273 234.058 121.223L233.945 121.218L233.834 121.204L230.541 120.791L230.393 120.772L230.247 120.738C229.22 120.491 228.239 120.174 227.434 119.729L226.039 118.957L226.039 117.363C226.04 115.638 226.067 114.117 226.122 112.802L226.127 112.69L226.141 112.579L226.593 108.973L226.607 108.861L226.63 108.751C226.877 107.583 227.074 106.409 227.222 105.23C227.362 104.111 227.451 102.638 227.478 100.785L227.48 100.636L227.498 100.487L227.518 100.33C227.576 99.8648 227.8 99.0378 228.595 98.42C228.976 98.1242 229.371 97.9671 229.73 97.8902C231.829 96.9842 234.597 96.8569 237.671 97.1317L249.747 83.2136ZM228.761 70.3776C228.767 70.3709 228.767 70.3722 228.76 70.3797C228.76 70.3789 228.761 70.3782 228.761 70.3776Z" fill="#EFA332" stroke="white" stroke-width="5.40541"/>
<path d="M180.018 104.21L180.001 104.189L179.984 104.168C179.83 103.985 179.704 103.825 179.601 103.687C181.731 100.025 183.54 96.0635 185.031 91.8092C186.715 87.3064 187.562 82.6759 187.562 77.9319C187.562 71.7652 186.574 66.396 184.464 61.9349C182.408 57.4851 179.576 53.8185 175.949 51.0046C172.378 48.1299 168.251 46.0763 163.605 44.8288C159.189 43.615 154.568 42.9022 149.747 42.683C144.947 42.4649 140.099 42.6834 135.205 43.336C130.355 43.9827 125.757 44.9011 121.415 46.0951L120.726 46.2846L120.221 46.7899L120.063 46.9479L119.252 47.7589L119.271 48.9057C119.587 67.2034 119.587 85.3426 119.271 103.323C118.955 121.278 119.113 139.39 119.747 157.66L119.808 159.421L121.444 160.076C122.265 160.404 123.132 160.585 124.028 160.585H124.031H124.035H124.039H124.043H124.046H124.05H124.054H124.057H124.061H124.065H124.069H124.072H124.076H124.08H124.083H124.087H124.091H124.094H124.098H124.102H124.106H124.109H124.113H124.117H124.12H124.124H124.128H124.131H124.135H124.139H124.143H124.146H124.15H124.154H124.157H124.161H124.165H124.168H124.172H124.176H124.18H124.183H124.187H124.191H124.194H124.198H124.202H124.206H124.209H124.213H124.217H124.22H124.224H124.228H124.231H124.235H124.239H124.243H124.246H124.25H124.254H124.257H124.261H124.265H124.268H124.272H124.276H124.28H124.283H124.287H124.291H124.294H124.298H124.302H124.306H124.309H124.313H124.317H124.32H124.324H124.328H124.331H124.335H124.339H124.343H124.346H124.35H124.354H124.357H124.361H124.365H124.368H124.372H124.376H124.38H124.383H124.387H124.391H124.394H124.398H124.402H124.405H124.409H124.413H124.417H124.42H124.424H124.428H124.431H124.435H124.439H124.443H124.446H124.45H124.454H124.457H124.461H124.465H124.468H124.472H124.476H124.48H124.483H124.487H124.491H124.494H124.498H124.502H124.505H124.509H124.513H124.517H124.52H124.524H124.528H124.531H124.535H124.539H124.543H124.546H124.55H124.554H124.557H124.561H124.565H124.568H124.572H124.576H124.58H124.583H124.587H124.591H124.594H124.598H124.602H124.605H124.609H124.613H124.617H124.62H124.624H124.628H124.631H124.635H124.639H124.643H124.646H124.65H124.654H124.657H124.661H124.665H124.668H124.672H124.676H124.68H124.683H124.687H124.691H124.694H124.698H124.702H124.705H124.709H124.713H124.717H124.72H124.724H124.728H124.731H124.735H124.739H124.742H124.746H124.75H124.754H124.757H124.761H124.765H124.768H124.772H124.776H124.78H124.783H124.787H124.791H124.794H124.798H124.802H124.805H124.809H124.813H124.817H124.82H124.824H124.828H124.831H124.835H124.839H124.842H124.846H124.85H124.854H124.857H124.861H124.865H124.868H124.872H124.876H124.88H124.883H124.887H124.891H124.894H124.898H124.902H124.905H124.909H124.913H124.917H124.92H124.924H124.928H124.931H124.935H124.939H124.942H124.946H124.95H124.954H124.957H124.961H124.965H124.968H124.972H124.976H124.979H124.983H124.987H124.991H124.994H124.998H125.002H125.005H125.009H125.013H125.017H125.02H125.024H125.028H125.031H125.035H125.039H125.042H125.046H125.05H125.054H125.057H125.061H125.065H125.068H125.072H125.076H125.079H125.083H125.087H125.091H125.094H125.098H125.102H125.105H125.109H125.113H125.117H125.12H125.124H125.128H125.131H125.135H125.139H125.142H125.146H125.15H125.154H125.157H125.161H125.165H125.168H125.172H125.176H125.179H125.183H125.187H125.191H125.194H125.198H125.202H125.205H125.209H125.213H125.217H125.22H125.224H125.228H125.231H125.235H125.239H125.242H125.246H125.25H125.254H125.257H125.261H125.265H125.268H125.272H125.276H125.279H125.283H125.287H125.291H125.294H125.298H125.302H125.305H125.309H125.313H125.316H125.32H125.324H125.328H125.331H125.335H125.339H125.342H125.346H125.35H125.354H125.357H125.361H125.365H125.368H125.372H125.376H125.379H125.383H125.387H125.391H125.394H125.398H125.402H125.405H125.409H125.413H125.416H125.42H125.424H125.428H125.431H125.435H125.439H125.442H125.446H125.45H125.454H125.457H125.461H125.465H125.468H125.472H125.476H125.479H125.483H125.487H125.491H125.494H125.498H125.502H125.505H125.509H125.513H125.516H125.52H125.524H125.528H125.531H125.535H125.539H125.542H125.546H125.55H125.553H125.557H125.561H125.565H125.568H125.572H125.576H125.579H125.583H125.587H125.591H125.594H125.598H125.602H125.605H125.609H125.613H125.616H125.62H125.624H125.628H125.631H125.635H125.639H125.642H125.646H125.65H125.653H125.657H125.661H125.665H125.668H125.672H125.676H125.679H125.683H125.687H125.691H125.694H125.698H125.702H125.705H125.709H125.713H125.716H125.72H125.724H125.728H125.731H125.735H125.739H125.742H125.746H125.75H125.753H125.757H125.761H125.765H125.768H125.772H125.776H125.779H125.783H125.787H125.791H125.794H125.798H125.802H125.805H125.809H125.813H125.816H125.82H125.824H125.828H125.831H125.835H125.839H125.842H125.846H125.85H125.853H125.857H125.861H125.865H125.868H125.872H125.876H125.879H125.883H125.886C129.622 160.689 133.624 160.897 137.893 161.21L137.898 161.21C142.394 161.531 146.841 161.639 151.237 161.533C155.757 161.532 160.127 161.262 164.347 160.721L164.38 160.717L164.414 160.712C168.771 160.041 172.784 158.805 176.43 156.982C180.176 155.109 183.339 152.47 185.902 149.094C188.647 145.511 190.414 141.025 191.312 135.763C191.984 132.169 192.115 128.808 191.639 125.712C191.181 122.738 190.319 119.996 189.027 117.511C187.899 115.044 186.495 112.741 184.818 110.606C183.321 108.471 181.721 106.339 180.018 104.21ZM161.932 126.439V126.504L161.935 126.568C162.014 128.211 161.637 129.458 160.923 130.463C160.159 131.361 159.272 132.019 158.244 132.468C157.138 132.888 155.87 133.2 154.421 133.386C152.957 133.482 151.44 133.531 149.871 133.533C148.748 133.459 147.648 133.411 146.571 133.389C146.249 132.665 145.988 131.789 145.812 130.735C145.525 129.013 145.379 127.235 145.375 125.4C145.477 123.41 145.677 121.474 145.974 119.593C146.136 118.566 146.311 117.606 146.499 116.71C147.792 116.818 149.105 116.906 150.438 116.972L150.505 116.976H150.573C152.451 116.976 154.274 117.21 156.047 117.677L156.087 117.687L156.127 117.696C157.019 117.902 157.96 118.365 158.955 119.193L159.008 119.238L159.063 119.279C159.999 119.981 160.644 120.745 161.068 121.559C161.629 122.959 161.932 124.573 161.932 126.439ZM160.562 85.7344L160.536 85.7789L160.512 85.8243C159.901 86.9694 159.103 87.7918 158.109 88.3671C157.067 88.9231 155.875 89.2991 154.503 89.4705C152.991 89.6596 151.418 89.7085 149.783 89.6123C148.74 89.5509 147.739 89.4714 146.778 89.3739C146.229 86.6156 146.078 83.9521 146.308 81.3756C146.633 78.6858 146.782 76.2434 146.736 74.0649C147.548 73.8732 148.513 73.7855 149.66 73.8376L149.721 73.8404H149.783C152.024 73.8404 154.088 74.0332 155.982 74.4071C157.326 74.7505 158.445 75.2852 159.379 75.9859L159.479 76.0605L159.584 76.1256C160.456 76.6617 161.245 77.5111 161.902 78.8246C162.455 79.9309 162.516 80.8956 162.213 81.8659C161.735 83.3958 161.179 84.6774 160.562 85.7344Z" fill="#EFA332" stroke="white" stroke-width="5.40541"/>
<path d="M34.082 49.1398L34.0685 49.009L33.7898 46.3207L36.4781 46.042L36.9496 45.9932L37.2158 45.9656L37.4822 45.9907C38.8421 46.1191 40.2416 46.0668 41.6871 45.8251L41.6968 45.8234L41.6968 45.8235C43.4641 45.5346 45.1787 45.2511 46.8408 44.9731L46.8506 44.9715L46.8506 44.9715C48.6699 44.6741 50.4458 44.4353 52.1781 44.2557C54.0798 44.0586 55.9267 44.1077 57.7074 44.4225L59.4564 44.7318L59.8664 46.4599C61.5839 53.6975 62.8038 60.784 63.5226 67.7184C64.1479 73.7505 65.2742 79.6875 66.9019 85.531C68.8208 85.6473 70.8588 85.5263 73.0233 85.1532C75.2381 84.6897 77.3451 84.2658 79.344 83.8816C79.1871 77.5206 78.8206 71.5719 78.2465 66.0333L78.2442 66.0109L78.2422 65.9885C77.7007 59.7526 76.8858 52.9013 75.7956 45.4321L75.5017 43.4186L77.3555 42.5795C78.7247 41.9598 80.3385 41.3934 82.1721 40.8702L82.1844 40.8667L82.1968 40.8633C84.1302 40.3314 86.1231 39.9037 88.1744 39.5788C90.2268 39.1488 92.2549 38.8819 94.2572 38.7819C96.2638 38.5752 98.0872 38.4403 99.7228 38.3802L102.154 38.2909L102.498 40.699L118.145 150.273L118.478 152.607L116.211 153.254C114.34 153.788 112.313 154.22 110.136 154.557C110.135 154.557 110.133 154.557 110.132 154.557L109.72 151.886C107.74 152.197 105.754 152.456 103.764 152.663L98.1059 153.249C96.3247 153.434 94.8109 153.644 93.5644 153.879L34.082 49.1398ZM34.082 49.1398C34.531 54.492 35.0503 60.5223 35.6399 67.2304L35.6418 67.2514L35.644 67.2724C36.3297 73.8874 37.1003 80.8101 37.9559 88.0405L37.956 88.0411L40.4859 109.383L40.4883 109.402L40.4909 109.422C41.4394 116.528 42.3498 123.267 43.2224 129.64L43.2226 129.641C44.0845 135.911 44.8869 141.607 45.6298 146.727L45.634 146.756L45.6388 146.785C45.9098 148.405 46.1685 150.159 46.4158 151.836C46.547 152.726 46.675 153.594 46.7999 154.408C46.9754 155.552 47.147 156.604 47.3088 157.4C47.3879 157.789 47.4782 158.187 47.5825 158.527C47.6327 158.69 47.7099 158.92 47.8236 159.158C47.8807 159.277 47.9738 159.455 48.1124 159.648C48.2341 159.817 48.5027 160.157 48.9588 160.43C49.6545 160.848 50.3371 160.866 50.6329 160.861C50.9831 160.855 51.2962 160.799 51.5124 160.752C51.9432 160.659 52.4104 160.507 52.7653 160.391C52.8249 160.371 52.8834 160.352 52.9408 160.333C53.7016 160.083 54.2758 159.894 54.7546 159.822C56.1654 159.608 57.1187 159.635 58.3683 159.672C58.9496 159.689 59.595 159.707 60.3804 159.705C62.5869 159.697 64.783 159.579 66.9683 159.353C69.3428 159.107 71.4991 158.469 73.2001 157.225L74.2375 156.466L74.3039 155.183C74.4866 151.652 74.3991 148.146 74.0405 144.666L34.082 49.1398Z" fill="#EFA332" stroke="white" stroke-width="5.40541"/>
</svg>
