<svg width="242" height="130" viewBox="0 0 242 130" fill="none" xmlns="http://www.w3.org/2000/svg">
<path d="M234.363 67.2326L233.676 66.3463L232.564 66.2063L232.251 66.1669C231.319 66.0497 229.403 65.7108 226.417 65.1239C223.469 64.4285 220.259 63.8098 216.79 63.2658C213.295 62.7178 209.927 62.3471 206.687 62.1561C203.617 61.8807 200.85 62.0081 198.751 62.9163C198.391 62.9937 197.996 63.1514 197.616 63.4481C196.822 64.0668 196.599 64.8935 196.541 65.3572L196.522 65.5143L196.503 65.6624L196.501 65.8116C196.475 67.6677 196.386 69.1437 196.246 70.2654C196.098 71.4475 195.901 72.6237 195.655 73.7941L195.631 73.9038L195.618 74.0151L195.166 77.6274L195.152 77.7386L195.147 77.8506C195.092 79.1671 195.065 80.6913 195.065 82.4183L195.064 84.0104L196.456 84.7828C197.261 85.2295 198.242 85.5473 199.268 85.7943L199.414 85.8294L199.563 85.8481L202.852 86.2619L202.964 86.2759L203.076 86.2806C204.282 86.331 205.36 86.4179 206.317 86.5383L206.439 86.5536L206.562 86.5578C206.662 86.5613 206.759 86.5653 206.851 86.5698C206.806 86.9684 206.73 87.4081 206.62 87.8914L206.59 88.0225L206.574 88.1559C206.465 89.0233 206.27 89.8838 205.985 90.7395L205.948 90.8505L205.921 90.9643C205.713 91.8342 205.562 92.3434 205.474 92.5847C205.018 93.6411 204.485 94.379 203.923 94.8896C203.296 95.3665 202.568 95.7485 201.717 96.0256C200.39 96.3133 198.911 96.503 197.272 96.585L197.258 96.5857L197.243 96.5866C195.839 96.672 194.538 96.5519 193.325 96.2439C192.238 95.8534 191.477 95.4177 190.957 94.9885C189.692 93.664 188.913 91.9699 188.688 89.7576C188.412 87.0594 188.316 84.6228 188.39 82.4406C188.559 78.5867 188.857 74.5323 189.284 70.2765C189.71 66.034 190.271 61.9735 190.964 58.0941L190.965 58.0905C191.673 54.0984 192.449 50.3872 193.292 46.9552C194.235 43.5562 195.199 40.7356 196.177 38.4699L196.198 38.4219L196.217 38.373C196.483 37.6841 196.794 36.9961 197.151 36.3088C197.379 35.9323 197.553 35.666 197.679 35.4911C197.703 35.4578 197.723 35.4308 197.739 35.4093C198.574 34.7994 199.366 34.6146 200.232 34.7235C201.846 34.9266 203.51 35.1873 205.223 35.5062L205.301 35.5208L205.38 35.5307C206.283 35.6444 206.96 36.0117 207.537 36.687L207.583 36.7405L207.631 36.7916C208.44 37.6444 209.124 38.6649 209.674 39.8778L209.725 39.9908L209.787 40.0985C210.418 41.2078 210.875 42.4378 211.147 43.8054L211.169 43.9153L211.2 44.0231C211.626 45.5099 211.91 46.72 212.07 47.6718L212.359 49.3926L214.046 49.8379C215.61 50.2507 216.986 50.5883 218.169 50.848C219.376 51.1129 220.546 51.3179 221.68 51.4605L224.968 51.8743L225.09 51.8896L225.213 51.8938C226.27 51.93 227.548 52.0393 229.059 52.2295L229.143 52.24L229.228 52.2453C230.908 52.3506 232.041 52.4451 232.681 52.5256C233.516 52.6307 235.315 52.7283 236.534 51.3147L236.912 50.8759L237.077 50.3208L237.351 49.3982L237.371 49.3324L237.387 49.2657C238.993 42.6591 239.161 36.6168 237.714 31.2282C236.309 25.8443 233.726 21.2762 229.94 17.607C226.215 13.9963 221.612 11.3026 216.201 9.48758C210.816 7.57233 205.059 6.63149 198.95 6.64248L198.922 6.64253L198.894 6.64316C195.882 6.71048 192.942 7.01155 190.077 7.54896C187.056 8.11582 184.246 9.23922 181.668 10.9114C178 12.8481 175.125 15.5766 173.114 19.0832L173.095 19.1157L173.078 19.1486C171.326 22.4094 169.946 25.8297 168.939 29.4059C167.974 32.7754 167.158 36.2663 166.489 39.8777C165.844 43.331 165.257 46.7394 164.73 50.1029L164.73 50.1029L164.728 50.1141C164.136 53.9929 163.648 57.4663 163.265 60.5323L163.259 60.58L163.254 60.628C162.992 63.5751 162.742 66.4177 162.506 69.1558L162.501 69.2114L162.499 69.2671C162.38 71.9081 162.255 74.6016 162.124 77.3476C161.991 80.1141 161.872 83.1987 161.766 86.6004L161.765 86.6087L161.765 86.6171C161.711 88.7819 161.71 90.9531 161.762 93.1305L161.764 93.2095L161.771 93.2882C161.941 95.3518 162.115 97.0281 162.295 98.2952L162.296 98.303L162.297 98.3109C163.023 103.212 164.355 107.519 166.353 111.171C168.447 114.998 171.724 118.134 176.011 120.635L176.02 120.64L176.028 120.644C178.624 122.133 181.385 123.236 184.304 123.952L184.315 123.955C187.278 124.667 190.328 125.052 193.463 125.112C196.511 125.273 199.536 125.214 202.536 124.933C205.48 124.759 208.338 124.466 211.109 124.051L211.217 124.034L211.322 124.01C215.839 122.958 219.828 121.062 223.238 118.299C226.901 115.332 229.254 110.865 230.535 105.268C232.329 99.5781 233.511 93.5586 234.088 87.2159C234.671 80.845 234.997 74.8049 235.066 69.0972L235.077 68.1546L234.5 67.4094L234.363 67.2326ZM197.792 35.343C197.797 35.3362 197.797 35.3375 197.79 35.3451C197.79 35.3443 197.791 35.3436 197.792 35.343Z" fill="#EFA332" stroke="white" stroke-width="5.40541"/>
<path d="M149.103 69.2486L149.086 69.2275L149.069 69.2067C148.914 69.0202 148.787 68.8582 148.683 68.7194C150.812 65.0491 152.619 61.0789 154.109 56.8151C155.792 52.3054 156.637 47.6679 156.637 42.917C156.637 36.7405 155.651 31.3635 153.543 26.896C151.491 22.4395 148.662 18.7666 145.039 15.9475C141.472 13.0674 137.349 11.0098 132.707 9.75967C128.295 8.54349 123.678 7.82925 118.863 7.60971L118.74 10.3094L118.863 7.60971C114.068 7.39111 109.224 7.61008 104.335 8.26391C99.4898 8.91182 94.8969 9.83195 90.5594 11.0282L89.8695 11.2185L89.3641 11.7254L89.2063 11.8836L88.3982 12.6941L88.4179 13.8384C88.733 32.1691 88.733 50.341 88.4179 68.3538C88.1014 86.3409 88.2597 104.486 88.8926 122.788L88.9534 124.547L90.5874 125.203C91.4085 125.532 92.2752 125.713 93.1719 125.713H93.1756H93.1793H93.183H93.1867H93.1904H93.1941H93.1978H93.2015H93.2052H93.2089H93.2126H93.2163H93.22H93.2237H93.2274H93.2311H93.2348H93.2385H93.2422H93.2459H93.2496H93.2533H93.257H93.2607H93.2644H93.2681H93.2718H93.2755H93.2792H93.2829H93.2866H93.2903H93.294H93.2977H93.3014H93.3051H93.3088H93.3125H93.3162H93.3199H93.3236H93.3273H93.331H93.3347H93.3384H93.3421H93.3458H93.3495H93.3532H93.3569H93.3606H93.3643H93.368H93.3717H93.3754H93.3791H93.3828H93.3865H93.3902H93.3939H93.3976H93.4013H93.405H93.4087H93.4124H93.4161H93.4198H93.4235H93.4272H93.4309H93.4346H93.4383H93.442H93.4457H93.4494H93.4531H93.4568H93.4604H93.4641H93.4678H93.4715H93.4752H93.4789H93.4826H93.4863H93.49H93.4937H93.4974H93.5011H93.5048H93.5085H93.5122H93.5159H93.5196H93.5233H93.527H93.5307H93.5344H93.5381H93.5418H93.5455H93.5492H93.5529H93.5566H93.5603H93.564H93.5677H93.5714H93.5751H93.5788H93.5825H93.5862H93.5899H93.5936H93.5973H93.601H93.6047H93.6084H93.6121H93.6158H93.6195H93.6232H93.6269H93.6306H93.6343H93.638H93.6417H93.6454H93.6491H93.6528H93.6565H93.6602H93.6639H93.6676H93.6713H93.675H93.6787H93.6824H93.6861H93.6898H93.6935H93.6972H93.7009H93.7046H93.7083H93.712H93.7157H93.7194H93.7231H93.7268H93.7305H93.7342H93.7379H93.7416H93.7453H93.749H93.7527H93.7564H93.7601H93.7638H93.7675H93.7712H93.7749H93.7786H93.7823H93.786H93.7897H93.7934H93.7971H93.8008H93.8045H93.8082H93.8119H93.8156H93.8193H93.823H93.8267H93.8304H93.8341H93.8377H93.8414H93.8451H93.8488H93.8525H93.8562H93.8599H93.8636H93.8673H93.871H93.8747H93.8784H93.8821H93.8858H93.8895H93.8932H93.8969H93.9006H93.9043H93.908H93.9117H93.9154H93.9191H93.9228H93.9265H93.9302H93.9339H93.9376H93.9413H93.945H93.9487H93.9524H93.9561H93.9598H93.9635H93.9672H93.9709H93.9746H93.9783H93.982H93.9857H93.9894H93.9931H93.9968H94.0005H94.0042H94.0079H94.0116H94.0153H94.019H94.0227H94.0264H94.0301H94.0338H94.0375H94.0412H94.0449H94.0486H94.0523H94.056H94.0597H94.0634H94.0671H94.0708H94.0745H94.0782H94.0819H94.0856H94.0893H94.093H94.0967H94.1004H94.1041H94.1078H94.1115H94.1152H94.1189H94.1226H94.1263H94.13H94.1337H94.1374H94.1411H94.1448H94.1485H94.1522H94.1559H94.1596H94.1633H94.167H94.1707H94.1744H94.1781H94.1818H94.1855H94.1892H94.1929H94.1966H94.2003H94.204H94.2077H94.2114H94.2151H94.2187H94.2224H94.2261H94.2298H94.2335H94.2372H94.2409H94.2446H94.2483H94.252H94.2557H94.2594H94.2631H94.2668H94.2705H94.2742H94.2779H94.2816H94.2853H94.289H94.2927H94.2964H94.3001H94.3038H94.3075H94.3112H94.3149H94.3186H94.3223H94.326H94.3297H94.3334H94.3371H94.3408H94.3445H94.3482H94.3519H94.3556H94.3593H94.363H94.3667H94.3704H94.3741H94.3778H94.3815H94.3852H94.3889H94.3926H94.3963H94.4H94.4037H94.4074H94.4111H94.4148H94.4185H94.4222H94.4259H94.4296H94.4333H94.437H94.4407H94.4444H94.4481H94.4518H94.4555H94.4592H94.4629H94.4666H94.4703H94.474H94.4777H94.4814H94.4851H94.4888H94.4925H94.4962H94.4999H94.5036H94.5073H94.511H94.5147H94.5184H94.5221H94.5258H94.5295H94.5332H94.5369H94.5406H94.5443H94.548H94.5517H94.5554H94.5591H94.5628H94.5665H94.5702H94.5739H94.5776H94.5813H94.585H94.5887H94.5924H94.5961H94.5997H94.6034H94.6071H94.6108H94.6145H94.6182H94.6219H94.6256H94.6293H94.633H94.6367H94.6404H94.6441H94.6478H94.6515H94.6552H94.6589H94.6626H94.6663H94.67H94.6737H94.6774H94.6811H94.6848H94.6885H94.6922H94.6959H94.6996H94.7033H94.707H94.7107H94.7144H94.7181H94.7218H94.7255H94.7292H94.7329H94.7366H94.7403H94.744H94.7477H94.7514H94.7551H94.7588H94.7625H94.7662H94.7699H94.7736H94.7773H94.781H94.7847H94.7884H94.7921H94.7958H94.7995H94.8032H94.8069H94.8106H94.8143H94.818H94.8217H94.8254H94.8291H94.8328H94.8365H94.8402H94.8439H94.8476H94.8513H94.855H94.8587H94.8624H94.8661H94.8698H94.8735H94.8772H94.8809H94.8846H94.8883H94.892H94.8957H94.8994H94.9031H94.9068H94.9105H94.9142H94.9179H94.9216H94.9253H94.929H94.9327H94.9364H94.9401H94.9438H94.9475H94.9512H94.9549H94.9586H94.9623H94.966H94.9697H94.9734H94.9771H94.9807H94.9844H94.9881H94.9918H94.9955H94.9992H95.0029H95.0066H95.0103H95.014H95.0177H95.0214H95.0251H95.0282C98.7592 125.818 102.756 126.026 107.021 126.339L107.025 126.34C111.517 126.661 115.959 126.77 120.351 126.663C124.866 126.662 129.231 126.392 133.446 125.85L133.48 125.845L133.514 125.84C137.867 125.168 141.876 123.929 145.519 122.103C149.262 120.226 152.422 117.581 154.982 114.199C157.722 110.611 159.486 106.119 160.383 100.85C161.054 97.2507 161.185 93.8849 160.71 90.785C160.253 87.8068 159.391 85.0607 158.102 82.5718C156.975 80.1013 155.573 77.7948 153.898 75.6559C152.403 73.5169 150.804 71.3811 149.103 69.2486ZM131.03 91.5114V91.5755L131.033 91.6396C131.112 93.2883 130.735 94.5405 130.021 95.5486C129.257 96.4484 128.371 97.1073 127.345 97.5562C126.242 97.9766 124.976 98.2891 123.53 98.4756C122.068 98.5715 120.553 98.6207 118.986 98.6225C117.866 98.5489 116.768 98.5009 115.694 98.4786C115.372 97.7526 115.111 96.8743 114.935 95.817C114.648 94.0908 114.502 92.3092 114.498 90.4702C114.6 88.4754 114.8 86.5357 115.096 84.6505C115.258 83.6214 115.434 82.6585 115.621 81.7605C116.912 81.8686 118.222 81.9559 119.551 82.0225L119.619 82.0259H119.687C121.562 82.0259 123.382 82.2607 125.152 82.7279L125.192 82.7384L125.232 82.7478C126.121 82.9535 127.061 83.4163 128.054 84.2462L128.107 84.2906L128.163 84.3323C129.098 85.0355 129.742 85.8006 130.167 86.6179C130.727 88.0212 131.03 89.64 131.03 91.5114ZM129.661 50.7388L129.635 50.7833L129.611 50.8287C129 51.9771 128.202 52.801 127.21 53.3768C126.17 53.9334 124.98 54.3096 123.612 54.4812C122.101 54.6705 120.531 54.7195 118.899 54.6232C117.858 54.5618 116.859 54.4822 115.9 54.3847C115.351 51.6193 115.2 48.949 115.43 46.3656C115.755 43.6689 115.903 41.2209 115.858 39.0378C116.668 38.846 117.63 38.7583 118.774 38.8105L118.836 38.8133H118.897C121.136 38.8133 123.196 39.0063 125.087 39.3807C126.428 39.7244 127.545 40.2596 128.478 40.9614L128.578 41.0361L128.684 41.1014C129.553 41.6381 130.342 42.4891 130.999 43.8062C131.552 44.9165 131.614 45.8863 131.31 46.8616C130.833 48.3949 130.277 49.6794 129.661 50.7388Z" fill="#EFA332" stroke="white" stroke-width="5.40541"/>
<path d="M71.6694 5.61902L71.3263 3.20951L68.8942 3.29913C67.2602 3.35934 65.4387 3.49451 63.4343 3.7016C61.4339 3.80177 59.4077 4.06926 57.3574 4.50005C55.3081 4.82558 53.3172 5.25417 51.3857 5.78704L51.3733 5.79047L51.3609 5.79402C49.5291 6.31824 47.9167 6.8858 46.5487 7.50683L44.6988 8.34662L44.9913 10.357C46.0803 17.8398 46.8943 24.7036 47.4352 30.951L47.4372 30.9734L47.4395 30.9957C48.0132 36.5462 48.3793 42.5078 48.5359 48.8825C46.5396 49.2674 44.4353 49.692 42.2234 50.1562C40.0634 50.5297 38.0297 50.6509 36.1149 50.5348C34.4886 44.6796 33.3633 38.7307 32.7386 32.6865C32.0206 25.7402 30.8023 18.6414 29.0868 11.3914L28.6778 9.66267L26.9287 9.35248C25.149 9.03687 23.3032 8.9877 21.4027 9.18529C19.6721 9.3652 17.898 9.60446 16.0806 9.90243L16.0806 9.90242L16.0708 9.90406C14.4106 10.1825 12.6979 10.4665 10.9327 10.7559L10.9327 10.7559L10.9229 10.7575C9.47996 10.9996 8.08302 11.0519 6.72566 10.9234L6.45844 10.8981L6.19147 10.9258L5.72052 10.9748L3.03392 11.2541L3.31162 13.9409L3.32518 14.072C3.77366 19.4338 4.29238 25.4749 4.88131 32.1952L4.88315 32.2161L4.88531 32.2371C5.57023 38.8638 6.34002 45.799 7.19462 53.0422L7.19468 53.0428L9.72177 74.4226L9.7241 74.4423L9.72671 74.4619C10.6741 81.5803 11.5835 88.3317 12.4551 94.716L12.4553 94.7175C13.3162 100.999 14.1177 106.704 14.8598 111.834L14.8639 111.862L14.8687 111.891C15.1394 113.514 15.3979 115.272 15.6449 116.952C15.776 117.843 15.9038 118.713 16.0285 119.528C16.2038 120.675 16.3752 121.728 16.5367 122.525C16.6157 122.915 16.7059 123.313 16.8099 123.653C16.8599 123.816 16.9369 124.047 17.0501 124.284C17.1071 124.403 17.1998 124.581 17.3381 124.774C17.4593 124.943 17.7274 125.283 18.1836 125.557L19.5772 123.242L18.1836 125.558C18.8801 125.977 19.564 125.995 19.8605 125.99C20.2114 125.984 20.5248 125.927 20.7411 125.88C21.172 125.787 21.6391 125.635 21.9936 125.518C22.053 125.499 22.1113 125.48 22.1686 125.461C22.9289 125.21 23.5016 125.021 23.979 124.949C25.3872 124.735 26.3382 124.762 27.5858 124.799C28.1665 124.816 28.8115 124.834 29.5968 124.831C31.8013 124.823 33.9952 124.706 36.1784 124.479C38.5516 124.232 40.7069 123.593 42.4068 122.346L43.4415 121.587L43.5076 120.306C43.6901 116.769 43.6027 113.257 43.2445 109.772C42.9873 106.255 42.6193 102.699 42.1407 99.1031L41.4305 93.7663L40.7254 88.469C40.4332 85.632 40.2386 82.7481 40.1419 79.8171C42.2987 79.1744 44.4707 78.7406 46.6599 78.513C48.9274 78.2772 51.2125 78.1957 53.516 78.2689C54.0782 80.9371 54.5518 83.7232 54.9359 86.628C55.4169 90.2654 55.846 93.9081 56.223 97.5563L56.227 97.5946L56.232 97.6328C56.7163 101.295 57.206 105.009 57.7011 108.777L57.7062 108.816L57.7125 108.855C58.3142 112.585 59.0662 116.198 59.9695 119.693L60.5517 121.945L62.8657 121.705L63.0226 121.688L63.1348 121.677L63.2455 121.656C64.3937 121.438 65.8268 121.238 67.5589 121.058L73.2103 120.47C75.2449 120.258 77.2738 119.993 79.297 119.674C81.4723 119.337 83.4974 118.904 85.3669 118.369L87.631 117.721L87.299 115.389L71.6694 5.61902Z" fill="#EFA332" stroke="white" stroke-width="5.40541"/>
</svg>
